<svg width="10" height="6" viewBox="0 0 10 6" fill="none" xmlns="http://www.w3.org/2000/svg">
<path d="M9.50893 0.651785C9.56845 0.711309 9.59822 0.779762 9.59822 0.857142C9.59822 0.934524 9.56845 1.00298 9.50893 1.0625L5.34821 5.22321C5.28869 5.28274 5.22024 5.3125 5.14286 5.3125C5.06548 5.3125 4.99702 5.28274 4.9375 5.22321L0.776786 1.0625C0.717262 1.00298 0.6875 0.934524 0.6875 0.857142C0.6875 0.779762 0.717262 0.711309 0.776786 0.651785L1.22321 0.205357C1.28274 0.145833 1.35119 0.116071 1.42857 0.116071C1.50595 0.116071 1.5744 0.145833 1.63393 0.205357L5.14286 3.71429L8.65179 0.205357C8.71131 0.145833 8.77976 0.116071 8.85714 0.116071C8.93452 0.116071 9.00298 0.145833 9.0625 0.205357L9.50893 0.651785Z" fill="black"/>
</svg>
