<svg width="10" height="6" viewBox="0 0 10 6" fill="none" xmlns="http://www.w3.org/2000/svg">
<path d="M9.50893 5.34821C9.56845 5.28869 9.59822 5.22024 9.59822 5.14286C9.59822 5.06548 9.56845 4.99702 9.50893 4.9375L5.34821 0.776786C5.28869 0.717262 5.22024 0.6875 5.14286 0.6875C5.06548 0.6875 4.99702 0.717262 4.9375 0.776786L0.776786 4.9375C0.717262 4.99702 0.6875 5.06548 0.6875 5.14286C0.6875 5.22024 0.717262 5.28869 0.776786 5.34821L1.22321 5.79464C1.28274 5.85417 1.35119 5.88393 1.42857 5.88393C1.50595 5.88393 1.5744 5.85417 1.63393 5.79464L5.14286 2.28571L8.65179 5.79464C8.71131 5.85417 8.77976 5.88393 8.85714 5.88393C8.93452 5.88393 9.00298 5.85417 9.0625 5.79464L9.50893 5.34821Z" fill="black"/>
</svg>
