<svg width="62" height="88" viewBox="0 0 62 88" fill="none" xmlns="http://www.w3.org/2000/svg">
<path d="M61.3789 87.5H1.84766V74.6094L29.2695 45.7812C36.0273 38.0859 39.4062 31.9727 39.4062 27.4414C39.4062 23.7695 38.6055 20.9766 37.0039 19.0625C35.4023 17.1484 33.0781 16.1914 30.0312 16.1914C27.0234 16.1914 24.582 17.4805 22.707 20.0586C20.832 22.5977 19.8945 25.7813 19.8945 29.6094H0.0898438C0.0898438 24.375 1.39844 19.5508 4.01562 15.1367C6.63281 10.6836 10.2656 7.20703 14.9141 4.70703C19.5625 2.20703 24.7578 0.957031 30.5 0.957031C39.7188 0.957031 46.8086 3.08594 51.7695 7.34375C56.7695 11.6016 59.2695 17.7148 59.2695 25.6836C59.2695 29.043 58.6445 32.3242 57.3945 35.5273C56.1445 38.6914 54.1914 42.0312 51.5352 45.5469C48.918 49.0234 44.6797 53.6914 38.8203 59.5508L27.8047 72.2656H61.3789V87.5Z" fill="#F2F2F2"/>
</svg>
