<svg width="63" height="89" viewBox="0 0 63 89" fill="none" xmlns="http://www.w3.org/2000/svg">
<path d="M20.8945 36.582H30.2109C37.5938 36.582 41.2852 32.9688 41.2852 25.7422C41.2852 22.9297 40.4062 20.6445 38.6484 18.8867C36.8906 17.0898 34.4102 16.1914 31.207 16.1914C28.5898 16.1914 26.3047 16.9531 24.3516 18.4766C22.4375 20 21.4805 21.8945 21.4805 24.1602H1.73438C1.73438 19.668 2.98438 15.6641 5.48438 12.1484C7.98438 8.63281 11.4414 5.89844 15.8555 3.94531C20.3086 1.95312 25.1914 0.957031 30.5039 0.957031C39.9961 0.957031 47.457 3.125 52.8867 7.46094C58.3164 11.7969 61.0312 17.7539 61.0312 25.332C61.0312 29.0039 59.8984 32.4805 57.6328 35.7617C55.4062 39.0039 52.1445 41.6406 47.8477 43.6719C52.3789 45.3125 55.9336 47.8125 58.5117 51.1719C61.0898 54.4922 62.3789 58.6133 62.3789 63.5352C62.3789 71.1523 59.4492 77.2461 53.5898 81.8164C47.7305 86.3867 40.0352 88.6719 30.5039 88.6719C24.918 88.6719 19.7227 87.6172 14.918 85.5078C10.1523 83.3594 6.53906 80.4102 4.07812 76.6602C1.61719 72.8711 0.386719 68.5742 0.386719 63.7695H20.25C20.25 66.3867 21.3047 68.6523 23.4141 70.5664C25.5234 72.4805 28.1211 73.4375 31.207 73.4375C34.6836 73.4375 37.457 72.4805 39.5273 70.5664C41.5977 68.6133 42.6328 66.1328 42.6328 63.125C42.6328 58.8281 41.5586 55.7812 39.4102 53.9844C37.2617 52.1875 34.293 51.2891 30.5039 51.2891H20.8945V36.582Z" fill="#F2F2F2"/>
</svg>
