<svg width="64" height="64" viewBox="0 0 64 64" fill="none" xmlns="http://www.w3.org/2000/svg">
<path d="M37.0568 2.06452C37.5729 2.06452 38.1923 2.58064 38.1923 3.30323V19.8194C38.1923 20.4387 38.6052 20.8516 39.2245 20.8516C39.8439 20.8516 40.2568 20.4387 40.2568 19.8194V3.30323C40.2568 1.54839 38.8116 0 37.0568 0C36.4375 0 36.0246 0.412903 36.0246 1.03226C36.0246 1.65161 36.4375 2.06452 37.0568 2.06452ZM6.19229 51.3032C6.81165 51.3032 7.22455 50.8903 7.22455 50.271V3.30323C7.22455 2.58064 7.74068 2.06452 8.46326 2.06452H19.6116V3.09677C19.6116 4.85161 20.9536 6.19355 22.7084 6.19355C24.4633 6.19355 25.8052 4.85161 25.8052 3.09677V2.06452H33.031C33.6504 2.06452 34.0633 1.65161 34.0633 1.03226C34.0633 0.412903 33.6504 0 33.031 0H8.46326C6.6052 0 5.16003 1.44516 5.16003 3.30323V50.271C5.16003 50.8903 5.57294 51.3032 6.19229 51.3032ZM21.6762 2.06452H23.7407V3.09677C23.7407 3.71613 23.3278 4.12903 22.7084 4.12903C22.0891 4.12903 21.6762 3.71613 21.6762 3.09677V2.06452ZM6.19229 57.8064C6.81165 57.8064 7.22455 57.3935 7.22455 56.7742V54.9161C7.22455 54.2968 6.81165 53.8839 6.19229 53.8839C5.57294 53.8839 5.16003 54.2968 5.16003 54.9161V56.7742C5.16003 57.3935 5.57294 57.8064 6.19229 57.8064ZM39.2245 43.2516C38.6052 43.2516 38.1923 43.6645 38.1923 44.2839V60.6968C38.1923 61.4194 37.6762 61.9355 36.9536 61.9355H8.46326C7.74068 61.9355 7.22455 61.4194 7.22455 60.6968C7.22455 60.0774 6.81165 59.6645 6.19229 59.6645C5.57294 59.6645 5.16003 60.0774 5.16003 60.6968C5.16003 62.5548 6.6052 64 8.46326 64H36.9536C38.8116 64 40.2568 62.5548 40.2568 60.6968V44.2839C40.2568 43.7677 39.8439 43.2516 39.2245 43.2516Z" fill="black"/>
<rect x="19.0956" y="24.7744" width="23.7419" height="14.4516" fill="#E82431"/>
<path d="M12.386 4.12891H10.3214C9.70209 4.12891 9.28918 4.54181 9.28918 5.16116V7.22568C9.28918 7.84504 9.70209 8.25794 10.3214 8.25794C10.9408 8.25794 11.3537 7.84504 11.3537 7.22568V6.19342H12.386C13.0053 6.19342 13.4182 5.78052 13.4182 5.16116C13.4182 4.54181 13.0053 4.12891 12.386 4.12891ZM10.3214 10.3225C9.70209 10.3225 9.28918 10.7354 9.28918 11.3547V13.4192C9.28918 14.0386 9.70209 14.4515 10.3214 14.4515C10.9408 14.4515 11.3537 14.0386 11.3537 13.4192V11.3547C11.3537 10.7354 10.9408 10.3225 10.3214 10.3225ZM41.2892 22.7096H20.7472C18.9924 22.7096 17.5472 24.1547 17.5472 25.9096V38.1934C17.5472 39.9483 18.9924 41.2902 20.7472 41.2902H41.2892C43.044 41.2902 44.4892 39.845 44.4892 38.0902V25.9096C44.4892 24.1547 43.044 22.7096 41.2892 22.7096ZM42.4247 38.0902C42.4247 38.8128 41.8053 39.2257 41.2892 39.2257H20.7472C20.1279 39.2257 19.6118 38.8128 19.6118 38.1934V25.9096C19.6118 25.187 20.2311 24.7741 20.7472 24.7741H41.2892C42.0118 24.7741 42.4247 25.3934 42.4247 25.9096V38.0902Z" fill="black"/>
<path d="M38.605 27.0453L30.9663 32.826L23.3276 27.1485C22.9147 26.8389 22.1921 26.9421 21.8825 27.355C21.5728 27.7679 21.676 28.4905 22.0889 28.8002L30.347 34.9937C30.6566 35.2002 31.276 35.2002 31.5857 34.9937L39.8437 28.8002C40.2566 28.4905 40.3599 27.7679 40.0502 27.355C39.7405 26.8389 39.0179 26.7356 38.605 27.0453ZM57.805 26.8389H47.4825C46.8631 26.8389 46.4502 27.2518 46.4502 27.8711C46.4502 28.4905 46.8631 28.9034 47.4825 28.9034H57.805C58.4244 28.9034 58.8373 28.4905 58.8373 27.8711C58.8373 27.2518 58.4244 26.8389 57.805 26.8389ZM55.7405 30.9679H47.4825C46.8631 30.9679 46.4502 31.3808 46.4502 32.0002C46.4502 32.6195 46.8631 33.0324 47.4825 33.0324H55.7405C56.3599 33.0324 56.7728 32.6195 56.7728 32.0002C56.7728 31.3808 56.3599 30.9679 55.7405 30.9679ZM53.676 35.0969H47.4825C46.8631 35.0969 46.4502 35.5098 46.4502 36.1292C46.4502 36.7485 46.8631 37.1614 47.4825 37.1614H53.676C54.2954 37.1614 54.7083 36.7485 54.7083 36.1292C54.7083 35.5098 54.2954 35.0969 53.676 35.0969Z" fill="black"/>
<path d="M33.0309 59.8712C33.601 59.8712 34.0632 59.409 34.0632 58.8389C34.0632 58.2688 33.601 57.8066 33.0309 57.8066C32.4608 57.8066 31.9987 58.2688 31.9987 58.8389C31.9987 59.409 32.4608 59.8712 33.0309 59.8712Z" fill="black"/>
<path d="M22.7084 59.8712C23.2785 59.8712 23.7407 59.409 23.7407 58.8389C23.7407 58.2688 23.2785 57.8066 22.7084 57.8066C22.1383 57.8066 21.6761 58.2688 21.6761 58.8389C21.6761 59.409 22.1383 59.8712 22.7084 59.8712Z" fill="black"/>
<path d="M12.3859 59.8712C12.956 59.8712 13.4182 59.409 13.4182 58.8389C13.4182 58.2688 12.956 57.8066 12.3859 57.8066C11.8158 57.8066 11.3536 58.2688 11.3536 58.8389C11.3536 59.409 11.8158 59.8712 12.3859 59.8712Z" fill="black"/>
</svg>
