<svg width="64" height="64" viewBox="0 0 64 64" fill="none" xmlns="http://www.w3.org/2000/svg">
<g clip-path="url(#clip0)">
<rect x="9.30005" y="38" width="14" height="21" fill="#E82431"/>
<rect x="48" y="42" width="8" height="19" fill="#E82431"/>
<path d="M40.1656 6.10641C40.1656 9.06468 37.7674 11.4628 34.8092 11.4628C31.8509 11.4628 29.4528 9.06468 29.4528 6.10641C29.4528 3.14815 31.8509 0.75 34.8092 0.75C37.7674 0.75 40.1656 3.14815 40.1656 6.10641Z" stroke="black" stroke-width="1.5"/>
<path fill-rule="evenodd" clip-rule="evenodd" d="M51.2666 33.7136C51.5271 33.7778 51.7574 33.9079 51.9417 34.0834C52.0612 33.8628 52.236 33.6723 52.4542 33.5331C53.0236 33.1701 53.3037 32.4893 53.1271 31.8335C52.1055 28.0331 50.2032 23.7647 47.6911 20.482C45.1501 17.1617 42.2095 15.124 39.1366 15.124H29.8823C25.882 15.124 22.6807 18.4287 20.2875 22.5937C17.9557 26.6518 16.7262 30.9598 16.4916 31.8327C16.4801 31.8754 16.4682 31.9422 16.4538 32.0894C16.4399 32.2324 16.4061 32.3691 16.3555 32.4969C16.4472 32.6045 16.5245 32.7261 16.5839 32.8594C16.7753 33.2889 17.1311 33.6109 17.5858 33.7342C17.7237 33.7712 17.8602 33.7884 17.9925 33.7884C18.1488 33.7884 18.3207 33.7576 18.5108 33.6891C18.644 33.641 18.7816 33.6127 18.9195 33.6035C18.9779 33.461 19.0584 33.3274 19.1589 33.2077C19.2241 33.1301 19.2935 33.0212 19.3697 32.8524C19.4144 32.7536 19.469 32.6612 19.532 32.5763C19.541 32.4941 19.5568 32.4127 19.5793 32.3329C20.2268 30.037 21.2631 27.3599 22.5246 24.9827C23.7591 22.6565 25.318 20.407 27.0933 19.1934C27.5525 18.8794 28.1478 18.8454 28.6399 19.1051C29.1319 19.3647 29.4398 19.8753 29.4398 20.4317L29.44 60.9468C29.44 61.8044 30.1354 62.4999 30.993 62.4999C31.8506 62.4999 32.546 61.8044 32.546 60.9468V38.0497C32.546 37.2213 33.2176 36.5497 34.046 36.5497H35.5726C36.401 36.5497 37.0726 37.2213 37.0726 38.0497V60.9468C37.0726 61.8044 37.768 62.4999 38.6256 62.4999C39.4832 62.4999 40.1786 61.8045 40.1786 60.9468V35.0166L40.1785 34.9947V32.75C40.1785 32.3358 40.5143 32 40.9285 32C41.3427 32 41.6785 32.3358 41.6785 32.75V34.9947L41.6786 34.9965V60.9468C41.6786 62.6329 40.3116 63.9999 38.6256 63.9999C36.9396 63.9999 35.5726 62.6329 35.5726 60.9468V38.0497H34.046V60.9468C34.046 62.6329 32.679 63.9999 30.993 63.9999C29.307 63.9999 27.94 62.6329 27.94 60.9468L27.9398 20.4317C27.4322 20.7787 26.9299 21.2433 26.4398 21.7974C24.1053 24.4365 22.0485 29.1035 21.023 32.74V33.4701H20.7367C20.6203 33.7276 20.4834 33.9631 20.3074 34.1727V37.2861L22.788 37.2863C23.7365 37.2863 24.5054 38.0551 24.5054 39.0036V58.276C24.5054 59.1313 23.869 59.8094 23.0504 59.9404V61.0906C23.0504 61.5911 22.6446 61.997 22.144 61.997C21.6435 61.997 21.2377 61.5911 21.2377 61.0906V59.9934H11.2677V61.0906C11.2677 61.5911 10.8619 61.997 10.3613 61.997C9.86081 61.997 9.45497 61.5911 9.45497 61.0906V59.9404C8.63641 59.8092 8 59.1313 8 58.276V39.004C8 38.0554 8.76884 37.2866 9.71738 37.2866H12.1982V33.4703H11.4825V31.9438H14.9609C14.9772 31.7772 14.998 31.6103 15.043 31.4434C15.5356 29.6105 20.1211 13.624 29.8823 13.624H39.1366C46.6641 13.624 52.4513 23.5413 54.5755 31.4434C54.9308 32.7626 54.3551 34.1001 53.2607 34.7979V41.039H55.0099C55.9231 41.039 56.6636 41.7793 56.6637 42.6926V60.5658C56.6637 61.479 55.9235 62.2193 55.0102 62.2193H49.1583C48.2451 62.2193 47.5048 61.479 47.5048 60.5658V42.6928C47.5048 41.7795 48.2451 41.0392 49.1583 41.0392H50.9075V35.1699C49.8646 34.9128 48.9809 34.1423 48.6806 33.0324C47.6853 29.3586 45.5767 24.5077 43.1785 21.7972C42.6883 21.2431 42.1859 20.7785 41.6785 20.4317V25.25C41.6785 25.6642 41.3427 26 40.9285 26C40.5143 26 40.1785 25.6642 40.1785 25.25V20.4317C40.1785 19.8753 40.4864 19.3647 40.9784 19.1051C41.4704 18.8454 42.0657 18.8794 42.525 19.1933C44.3371 20.432 45.9281 22.7542 47.1798 25.1429C48.4592 27.5847 49.5015 30.3262 50.1284 32.6402C50.2729 33.1744 50.7018 33.5743 51.2666 33.7136ZM50.9075 42.5392C51.3845 42.5392 51.8094 42.3166 52.0842 41.9697C52.3589 42.3165 52.7838 42.539 53.2607 42.539H54.5088L55.1637 42.6929V60.5658C55.1637 60.6506 55.095 60.7193 55.0102 60.7193H49.1583C49.0735 60.7193 49.0048 60.6506 49.0048 60.5658V42.6928C49.0048 42.6079 49.0735 42.5392 49.1583 42.5392H50.9075ZM54.5088 42.539L55.1637 42.6929C55.1636 42.6081 55.0947 42.539 55.0099 42.539H54.5088ZM12.1982 38.7866C12.429 38.7866 12.6476 38.7345 12.8429 38.6413C13.042 38.7359 13.2615 38.7863 13.4861 38.7863L19.0195 38.7861C19.2499 38.7861 19.4682 38.7341 19.6632 38.6413C19.8584 38.7342 20.0768 38.7863 20.3074 38.7863H22.788C22.9081 38.7863 23.0054 38.8835 23.0054 39.0036V58.276C23.0054 58.3198 22.9923 58.3513 22.9659 58.3808C22.9355 58.4149 22.8838 58.4479 22.8134 58.4592C22.5474 58.5018 22.307 58.6127 22.1091 58.7724C21.8635 58.5967 21.5627 58.4934 21.2377 58.4934H11.2677C10.9427 58.4934 10.6419 58.5967 10.3963 58.7724C10.1984 58.6128 9.95819 58.5019 9.69222 58.4593C9.62159 58.4479 9.56983 58.4148 9.53942 58.3807C9.51304 58.3512 9.5 58.3198 9.5 58.276V39.004C9.5 38.8838 9.59727 38.7866 9.71738 38.7866H12.1982ZM13.4861 37.2863L19.0194 37.2861V35.1002C18.9496 35.1254 18.8788 35.1484 18.8074 35.1691C18.545 35.2448 18.2723 35.2884 17.9925 35.2884C17.836 35.2884 17.6779 35.2763 17.5194 35.2514C17.4115 35.2344 17.3035 35.2116 17.1957 35.1826C16.2721 34.933 15.5748 34.2801 15.2138 33.4699H13.4861V37.2863Z" fill="black"/>
<path d="M40.1785 30.2465C40.1785 30.6607 40.5143 30.9965 40.9285 30.9965C41.3427 30.9965 41.6785 30.6607 41.6785 30.2465V27.5C41.6785 27.0858 41.3427 26.75 40.9285 26.75C40.5143 26.75 40.1785 27.0858 40.1785 27.5V30.2465Z" fill="black"/>
</g>
<defs>
<clipPath id="clip0">
<rect width="64" height="64" fill="white"/>
</clipPath>
</defs>
</svg>
