<svg width="64" height="64" viewBox="0 0 64 64" fill="none" xmlns="http://www.w3.org/2000/svg">
<g clip-path="url(#clip0)">
<path d="M0.820592 58.6609H45.0001C45.4537 58.6609 45.8207 58.2831 45.8207 57.8161V12.168C45.8207 11.701 45.4537 11.3231 45.0002 11.3231C44.5466 11.3231 44.1796 11.701 44.1796 12.168V56.9714H1.64099V21.8205C1.64099 21.3673 1.27365 21 0.820497 21C0.367349 21 0 21.3673 0 21.8205V57.8161C0 58.2831 0.367017 58.6609 0.820592 58.6609Z" fill="black"/>
<path d="M0.820497 12C0.367349 12 0 11.6327 0 11.1795V0.885851C0 0.418876 0.367017 0.0410156 0.820529 0.0410156H32.8078C33.2613 0.0410156 33.6283 0.418876 33.6283 0.885851C33.6283 1.35276 33.2613 1.73056 32.8078 1.73056H1.64099V11.1795C1.64099 11.6327 1.27365 12 0.820497 12Z" fill="black"/>
<path d="M0 14.8205C0 14.3673 0.367349 14 0.820497 14C1.27365 14 1.64099 14.3673 1.64099 14.8205V18.1795C1.64099 18.6327 1.27365 19 0.820497 19C0.367349 19 0 18.6327 0 18.1795V14.8205Z" fill="black"/>
<path d="M39.3719 19.5924H5.60898C5.15547 19.5924 4.78845 19.2146 4.78845 18.7477C4.78845 18.2807 5.15547 17.9028 5.60904 17.9028H39.3719C39.8255 17.9028 40.1925 18.2807 40.1925 18.7477C40.1925 19.2146 39.8255 19.5924 39.3719 19.5924Z" fill="black"/>
<path d="M39.3719 25.7696H5.60898C5.15547 25.7696 4.78845 25.3918 4.78845 24.9249C4.78845 24.4579 5.15547 24.0801 5.60904 24.0801H39.3719C39.8255 24.0801 40.1925 24.4579 40.1925 24.9249C40.1925 25.3918 39.8255 25.7696 39.3719 25.7696Z" fill="black"/>
<path d="M39.3719 32.3365H5.60898C5.15547 32.3365 4.78845 31.9587 4.78845 31.4917C4.78845 31.0248 5.15547 30.647 5.60904 30.647H39.3719C39.8255 30.647 40.1925 31.0248 40.1925 31.4917C40.1925 31.9587 39.8255 32.3365 39.3719 32.3365Z" fill="black"/>
<path d="M39.3719 38.5152H5.60898C5.15547 38.5152 4.78845 38.1374 4.78845 37.6705C4.78845 37.2035 5.15547 36.8257 5.60904 36.8257H39.3719C39.8255 36.8257 40.1925 37.2035 40.1925 37.6705C40.1925 38.1374 39.8255 38.5153 39.3719 38.5153V38.5152Z" fill="black"/>
<path d="M39.3719 45.4664H5.60898C5.15547 45.4664 4.78845 45.0886 4.78845 44.6216C4.78845 44.1547 5.15547 43.7769 5.60904 43.7769H39.3719C39.8255 43.7769 40.1925 44.1547 40.1925 44.6216C40.1925 45.0886 39.8255 45.4664 39.3719 45.4664Z" fill="black"/>
<path d="M39.3719 51.6489H5.60898C5.15547 51.6489 4.78845 51.2712 4.78845 50.8042C4.78845 50.3373 5.15547 49.9595 5.60904 49.9595H39.3719C39.8255 49.9595 40.1925 50.3372 40.1925 50.8042C40.1925 51.2711 39.8255 51.6489 39.3719 51.6489Z" fill="black"/>
<path d="M44.7181 11.7258L33.6732 0.846191V11.7786L44.7181 11.7258Z" fill="white"/>
<path d="M33.6731 12.6233C33.4564 12.6228 33.2485 12.5345 33.0946 12.3774C33.0178 12.299 32.9569 12.2057 32.9154 12.1029C32.8738 12.0001 32.8525 11.8898 32.8525 11.7785V0.846145C32.8525 0.50795 33.0481 0.2027 33.351 0.0690924C33.6523 -0.0662117 34.0016 0.00130985 34.2405 0.235711L45.2853 11.1152C45.5273 11.3528 45.6043 11.7191 45.4808 12.0392C45.3558 12.3576 45.0561 12.5688 44.7212 12.5704L33.6764 12.6233H33.6731ZM34.4937 2.8228V10.9304L42.6827 10.8908L34.4937 2.82286V2.8228Z" fill="black"/>
<path d="M28.4937 7.23635H5.60898C5.15547 7.23635 4.78845 6.85862 4.78845 6.39164C4.78845 5.92473 5.15547 5.54688 5.60904 5.54688H28.4937C28.9472 5.54688 29.3142 5.92473 29.3142 6.39171C29.3142 6.85856 28.9472 7.23641 28.4937 7.23641V7.23635Z" fill="black"/>
<path d="M28.4937 13.0274H5.60898C5.15547 13.0274 4.78845 12.6496 4.78845 12.1827C4.78845 11.7158 5.15547 11.3379 5.60904 11.3379H28.4937C28.9472 11.3379 29.3142 11.7158 29.3142 12.1827C29.3142 12.6496 28.9472 13.0274 28.4937 13.0274V13.0274Z" fill="black"/>
<path d="M53.9586 17.5036V63.1551H9.77576V6.22314H41.7694" fill="white"/>
<path d="M53.9585 64H9.77567C9.32209 64 8.95508 63.6221 8.95508 63.1551V6.22312C8.95508 5.75621 9.32209 5.37842 9.77567 5.37842H41.7693C42.223 5.37842 42.5899 5.75621 42.5899 6.22319C42.5899 6.6901 42.223 7.06789 41.7693 7.06789H10.5962V62.3103H53.1379V17.5036C53.1379 17.0367 53.5049 16.6588 53.9585 16.6588C54.412 16.6588 54.779 17.0367 54.779 17.5037V63.1551C54.779 63.622 54.412 64 53.9584 64H53.9585Z" fill="black"/>
<path d="M48.3271 24.9297H14.5657C14.1122 24.9297 13.7452 24.5519 13.7452 24.0849C13.7452 23.618 14.1122 23.2402 14.5657 23.2402H48.3271C48.7805 23.2402 49.1476 23.618 49.1476 24.0849C49.1476 24.5518 48.7805 24.9298 48.3271 24.9298V24.9297Z" fill="black"/>
<path d="M48.3271 31.1124H14.5657C14.1122 31.1124 13.7452 30.7346 13.7452 30.2676C13.7452 29.8007 14.1122 29.4229 14.5657 29.4229H48.3271C48.7805 29.4229 49.1476 29.8007 49.1476 30.2677C49.1476 30.7346 48.7805 31.1124 48.3271 31.1124Z" fill="black"/>
<path d="M48.3271 37.6738H14.5657C14.1122 37.6738 13.7452 37.2961 13.7452 36.8291C13.7452 36.3622 14.1122 35.9844 14.5657 35.9844H48.3271C48.7805 35.9844 49.1476 36.3622 49.1476 36.8291C49.1476 37.2961 48.7805 37.6739 48.3271 37.6739V37.6738Z" fill="black"/>
<path d="M48.3271 43.8579H14.5657C14.1122 43.8579 13.7452 43.4802 13.7452 43.0132C13.7452 42.5463 14.1122 42.1685 14.5657 42.1685H48.3271C48.7805 42.1685 49.1476 42.5463 49.1476 43.0132C49.1476 43.4801 48.7805 43.858 48.3271 43.858V43.8579Z" fill="black"/>
<path d="M48.3271 50.8086H14.5657C14.1122 50.8086 13.7452 50.4308 13.7452 49.9638C13.7452 49.4969 14.1122 49.1191 14.5657 49.1191H48.3271C48.7805 49.1191 49.1476 49.4969 49.1476 49.9638C49.1476 50.4308 48.7805 50.8086 48.3271 50.8086Z" fill="black"/>
<path d="M48.3271 56.9879H14.5657C14.1122 56.9879 13.7452 56.61 13.7452 56.1432C13.7452 55.6762 14.1122 55.2983 14.5657 55.2983H48.3271C48.7805 55.2983 49.1476 55.6762 49.1476 56.1432C49.1476 56.61 48.7805 56.9879 48.3271 56.9879Z" fill="black"/>
<path d="M53.6764 17.0631L42.6284 6.18359V17.1143L53.6764 17.0631Z" fill="white"/>
<path d="M42.6283 17.9591C42.4116 17.9586 42.2038 17.8702 42.0498 17.7132C41.973 17.6348 41.9121 17.5415 41.8705 17.4387C41.829 17.3359 41.8077 17.2256 41.8077 17.1143V6.1836C41.8077 5.84534 42.0033 5.54009 42.3062 5.40642C42.6075 5.27118 42.9568 5.33883 43.1956 5.5731L54.2437 16.4526C54.4857 16.6902 54.5625 17.0566 54.4392 17.3766C54.3141 17.695 54.0145 17.9062 53.6796 17.9078L42.6316 17.9591H42.6283ZM43.4488 8.16013V16.2662L51.6411 16.2283L43.4489 8.16013H43.4488Z" fill="black"/>
<path d="M37.4488 12.5703H14.5658C14.1123 12.5703 13.7452 12.1925 13.7452 11.7256C13.7452 11.2587 14.1123 10.8809 14.5658 10.8809H37.4488C37.9024 10.8809 38.2693 11.2587 38.2693 11.7256C38.2693 12.1925 37.9024 12.5703 37.4487 12.5703H37.4488Z" fill="black"/>
<path d="M37.4488 18.3682H14.5658C14.1123 18.3682 13.7452 17.9904 13.7452 17.5234C13.7452 17.0566 14.1123 16.6787 14.5658 16.6787H37.4488C37.9024 16.6787 38.2693 17.0566 38.2693 17.5235C38.2693 17.9904 37.9024 18.3682 37.4487 18.3682H37.4488Z" fill="black"/>
<path d="M40.0481 32.9817L56.0643 8.80225H63.1796L44.3206 38.1097H35.7757L28.6603 21.9883H35.0706L40.0481 32.9817Z" fill="#E82431"/>
<path d="M44.3207 38.9545H35.7757C35.6182 38.9547 35.464 38.9081 35.3315 38.8203C35.199 38.7325 35.094 38.6072 35.0289 38.4595L27.9135 22.3382C27.7981 22.0759 27.819 21.7723 27.9712 21.5314C28.0451 21.4123 28.147 21.3144 28.2675 21.2466C28.3879 21.1789 28.523 21.1434 28.6603 21.1436H35.0706C35.3896 21.1436 35.6797 21.3334 35.8143 21.632L40.1829 31.279L55.3863 8.32709C55.4615 8.21327 55.5626 8.1201 55.6808 8.05569C55.7989 7.99127 55.9306 7.95757 56.0643 7.95752H63.1797C63.4825 7.95752 63.7598 8.1291 63.9024 8.40297C63.9725 8.53749 64.0059 8.68904 63.9992 8.84154C63.9924 8.99405 63.9457 9.14182 63.8639 9.2692L45.005 38.5767C44.93 38.6929 44.8284 38.7882 44.709 38.8541C44.5896 38.9201 44.4562 38.9545 44.3207 38.9545ZM36.3046 37.2651H43.88L61.6524 9.64706H56.4985L40.726 33.457C40.5594 33.7094 40.2484 33.8397 39.9824 33.8232C39.8378 33.8112 39.699 33.76 39.5799 33.6748C39.4608 33.5896 39.3658 33.4735 39.3045 33.3382L34.5481 22.8332H29.9343L36.3045 37.2651H36.3046Z" fill="black"/>
</g>
<defs>
<clipPath id="clip0">
<rect width="64" height="64" fill="white"/>
</clipPath>
</defs>
</svg>
