<svg width="64" height="64" viewBox="0 0 64 64" fill="none" xmlns="http://www.w3.org/2000/svg">
<circle cx="24.5" cy="24.5" r="17.5" stroke="#E82431" stroke-width="3"/>
<path fill-rule="evenodd" clip-rule="evenodd" d="M24.4531 13.5078C24.4869 13.5048 24.5208 13.5035 24.5547 13.5039C24.7909 13.5161 25.0151 13.6116 25.1875 13.7734L30.0508 18.2617C30.102 18.0453 30.224 17.8521 30.3973 17.7128C30.5706 17.5734 30.7854 17.4958 31.0078 17.4922C31.1414 17.4901 31.2741 17.5148 31.398 17.5649C31.5219 17.6149 31.6345 17.6893 31.7292 17.7836C31.8239 17.8779 31.8987 17.9903 31.9492 18.114C31.9998 18.2377 32.025 18.3703 32.0234 18.5039V20.082L34.1875 22.0781C34.3352 22.2147 34.4383 22.3927 34.4833 22.5888C34.5283 22.7849 34.5131 22.99 34.4397 23.1773C34.3662 23.3646 34.238 23.5255 34.0718 23.6388C33.9056 23.7521 33.709 23.8126 33.5078 23.8125H32.0234V32.5039C32.0234 32.7691 31.918 33.0235 31.7305 33.211C31.543 33.3985 31.2886 33.5039 31.0234 33.5039H17.9922C17.727 33.5039 17.4726 33.3985 17.2851 33.211C17.0976 33.0235 16.9922 32.7691 16.9922 32.5039V23.8125H15.5078C15.3066 23.8126 15.1101 23.7521 14.9438 23.6388C14.7776 23.5255 14.6494 23.3646 14.576 23.1773C14.5026 22.99 14.4874 22.7849 14.5323 22.5888C14.5773 22.3927 14.6804 22.2147 14.8281 22.0781L23.8281 13.7734C23.9991 13.6147 24.2202 13.5207 24.4531 13.5078ZM30.9492 21.8125L24.5078 15.8711L18.0625 21.8125H30.9492ZM30.0234 31.5039V23.8125H18.9922V31.5039H21.793V26.2734C21.793 26.0082 21.8984 25.7539 22.0859 25.5664C22.2734 25.3788 22.5278 25.2735 22.793 25.2734H26.2227C26.4879 25.2735 26.7422 25.3788 26.9297 25.5664C27.1173 25.7539 27.2226 26.0082 27.2227 26.2734V31.5039H30.0234ZM25.2227 27.2734H23.793V31.5039H25.2227V27.2734Z" fill="black"/>
<path fill-rule="evenodd" clip-rule="evenodd" d="M8.53516 24.4805C8.53116 15.6605 15.7031 8.49149 24.5273 8.49609C33.3516 8.49609 40.5303 15.6761 40.5352 24.4961C40.5392 33.3163 33.3673 40.4853 24.543 40.4805C15.7186 40.4805 8.5399 33.3007 8.53516 24.4805ZM38.5352 24.4961C38.5312 16.7575 32.2714 10.5003 24.5273 10.4961C16.7833 10.4961 10.531 16.7419 10.5352 24.4805C10.5392 32.2191 16.7989 38.4763 24.543 38.4805C32.2871 38.4805 38.5394 32.2347 38.5352 24.4961Z" fill="black"/>
<path fill-rule="evenodd" clip-rule="evenodd" d="M4.50781 24.5039C4.50749 13.4689 13.4788 4.50351 24.5195 4.50391C35.5602 4.50431 44.5347 13.4689 44.5352 24.5039C44.5353 27.8941 43.6811 31.0835 42.1875 33.8828L46.1836 37.8828C46.3699 38.0702 46.4744 38.3237 46.4744 38.5879C46.4744 38.8521 46.3699 39.1056 46.1836 39.293L45.8516 39.625L51.0254 44.8048C51.4152 45.1952 51.4151 45.8276 51.0249 46.2177C50.6345 46.6081 50.0015 46.608 49.6113 46.2174L44.4375 41.0391L41.0508 44.4297L54.4102 57.8047C55.3611 58.7567 56.8467 58.7555 57.7969 57.8047C58.7468 56.8533 58.748 55.3624 57.7969 54.4102L55.0104 51.6194C54.6207 51.2292 54.621 50.5971 55.0109 50.2071C55.4013 49.8167 56.0344 49.817 56.4244 50.2078L59.2109 53C60.9202 54.7114 60.9195 57.5078 59.2109 59.2188C57.5017 60.9294 54.7054 60.93 52.9961 59.2188L39.6367 45.8438L39.3086 46.1719C39.1211 46.3593 38.8667 46.4647 38.6016 46.4647C38.3364 46.4647 38.0821 46.3593 37.8945 46.1719L33.8906 42.1641C31.0928 43.6512 27.9052 44.504 24.5195 44.5039C13.4788 44.5035 4.50815 35.5393 4.50781 24.5039ZM42.5352 24.5039C42.5347 14.5503 34.48 6.50431 24.5195 6.50391C14.5591 6.50371 6.50753 14.5503 6.50781 24.5039C6.50811 34.4577 14.559 42.5037 24.5195 42.5039C34.4801 42.5043 42.5355 34.4577 42.5352 24.5039ZM44.0625 38.5898L41.1289 35.6562C39.678 37.808 37.8187 39.6614 35.6641 41.1094L38.6016 44.0547L44.0625 38.5898Z" fill="black"/>
<path d="M51.6439 46.743C51.2535 47.1328 51.2531 47.7652 51.6428 48.1556L53.0549 49.5699C53.4444 49.96 54.0764 49.9607 54.4668 49.5714C54.8574 49.1819 54.8582 48.5494 54.4685 48.1589L53.0568 46.7442C52.667 46.3536 52.0344 46.3531 51.6439 46.743Z" fill="black"/>
</svg>
