<svg width="9" height="6" viewBox="0 0 9 6" fill="none" xmlns="http://www.w3.org/2000/svg">
<path d="M8.39844 1.25C8.39844 1.1875 8.36719 1.11719 8.32031 1.07031L7.92969 0.679687C7.88281 0.632812 7.8125 0.601562 7.75 0.601562C7.6875 0.601562 7.61719 0.632812 7.57031 0.679687L4.5 3.75L1.42969 0.679687C1.38281 0.632812 1.3125 0.601562 1.25 0.601562C1.17969 0.601562 1.11719 0.632812 1.07031 0.679687L0.679688 1.07031C0.632813 1.11719 0.601563 1.1875 0.601563 1.25C0.601563 1.3125 0.632813 1.38281 0.679688 1.42969L4.32031 5.07031C4.36719 5.11719 4.4375 5.14844 4.5 5.14844C4.5625 5.14844 4.63281 5.11719 4.67969 5.07031L8.32031 1.42969C8.36719 1.38281 8.39844 1.3125 8.39844 1.25Z" fill="white"/>
</svg>
