<svg width="40" height="40" viewBox="0 0 40 40" fill="none" xmlns="http://www.w3.org/2000/svg">
<g clip-path="url(#clip0)">
<path fill-rule="evenodd" clip-rule="evenodd" d="M35.0682 15.5111H35.1004C37.8128 15.5111 40.0213 17.7562 39.9998 20.5353C39.9998 23.14 38.0272 25.2871 35.5292 25.5159C34.425 29.1451 31.9913 32.2294 28.5928 34.2674C28.1318 34.5399 27.5421 34.3873 27.2741 33.9186C27.0061 33.45 27.1562 32.8506 27.6172 32.5781C30.7906 30.6709 33.0098 27.7392 33.8675 24.3062L34.0497 23.5651H35.0897C36.7407 23.5651 38.0808 22.2028 38.0808 20.5244C38.0808 18.846 36.7407 17.4837 35.0897 17.4837H33.7281L33.4922 16.8407C31.5196 11.3806 26.0841 7.7078 19.9624 7.7078C13.8407 7.7078 8.40522 11.3806 6.43257 16.8407L6.19671 17.4837H4.91019C3.25917 17.4837 1.91905 18.846 1.91905 20.5244C1.91905 22.2028 3.25917 23.5651 4.91019 23.5651H5.87508L6.05733 24.3062C6.91501 27.7501 9.15569 30.7036 12.3398 32.5999C12.8008 32.8724 12.9509 33.4718 12.6829 33.9404C12.5006 34.2456 12.179 34.42 11.8466 34.42C11.6858 34.42 11.5143 34.3764 11.3642 34.2892C7.95494 32.2512 5.48912 29.1451 4.38487 25.4941C1.92977 25.2217 0 23.0965 0 20.5244C0 17.778 2.18707 15.5438 4.87803 15.522C6.8078 10.8684 10.9461 7.45714 15.8992 6.23651C16.328 5.71338 17.4751 4.05681 17.2714 1.64825C17.25 1.2886 17.5073 0.972539 17.8611 0.939844C18.2149 0.907149 18.5258 1.17961 18.558 1.53926C18.708 3.4029 18.1934 4.89599 17.6574 5.89865C18.0112 5.85506 18.365 5.81147 18.7188 5.78967C19.8659 4.91779 21.5277 3.23942 22.2888 0.482108C22.3853 0.133357 22.7391 -0.073714 23.0822 0.0243723C23.4253 0.122459 23.629 0.482108 23.5325 0.830859C22.9214 3.05415 21.785 4.65623 20.7021 5.75697C21.1846 5.77877 21.6563 5.82236 22.128 5.87686C23.7576 5.22295 26.1591 3.78435 27.8101 0.656484C27.9709 0.329529 28.3676 0.209646 28.6785 0.384022C29.0002 0.547499 29.1181 0.950742 28.9466 1.2668C27.6064 3.79525 25.8268 5.33193 24.2401 6.2692C29.1074 7.53343 33.1706 10.9229 35.0682 15.5111ZM24.7653 29.1778C24.7653 29.8426 24.0363 30.442 22.8999 30.8126C24.1542 31.7389 24.969 33.232 24.9583 34.9213C24.9583 37.7222 22.7176 40 19.9623 40C17.2071 40 14.9664 37.7222 14.9664 34.9213C14.9664 33.2102 15.8133 31.6844 17.0999 30.769C16.0492 30.3875 15.3738 29.8208 15.3738 29.1778C15.3738 28.0335 17.4751 27.118 20.0696 27.118C22.664 27.118 24.7653 28.0444 24.7653 29.1778ZM16.9069 34.9213C16.9069 36.6433 18.2792 38.0383 19.9731 38.0383C21.667 38.0383 23.0393 36.6433 23.0393 34.9213C23.0393 33.1993 21.667 31.8043 19.9731 31.8043C18.2792 31.8043 16.9069 33.1993 16.9069 34.9213ZM16.7032 20.0231C16.9498 20.2846 16.9498 20.6988 16.7032 20.9494C16.4459 21.2001 16.0385 21.2001 15.7919 20.9494C15.5346 20.6879 15.1915 20.5462 14.827 20.5462C14.3017 20.5462 13.8407 20.8405 13.6048 21.3091C13.4869 21.538 13.2618 21.6687 13.0259 21.6687C12.9294 21.6687 12.8329 21.636 12.7364 21.5925C12.4255 21.429 12.2969 21.0366 12.4577 20.7097C12.9187 19.8051 13.8192 19.2384 14.827 19.2384C15.5346 19.2384 16.1993 19.5108 16.7032 20.0231ZM25.1084 19.2384C26.1162 19.2384 27.0167 19.7942 27.4777 20.7097C27.6385 21.0257 27.5206 21.4181 27.199 21.5925C27.1025 21.6469 27.006 21.6687 26.9095 21.6687C26.6737 21.6687 26.4485 21.538 26.3306 21.3091C26.0947 20.8405 25.623 20.5462 25.1084 20.5462C24.7439 20.5462 24.4008 20.6879 24.1435 20.9494C23.8862 21.2001 23.4788 21.2001 23.2322 20.9494C22.9857 20.6879 22.9857 20.2737 23.2322 20.0231C23.7361 19.5217 24.4008 19.2384 25.1084 19.2384Z" fill="#1C2443"/>
</g>
<defs>
<clipPath id="clip0">
<rect width="40" height="40" fill="white"/>
</clipPath>
</defs>
</svg>
