<svg width="40" height="40" viewBox="0 0 40 40" fill="none" xmlns="http://www.w3.org/2000/svg">
<path fill-rule="evenodd" clip-rule="evenodd" d="M26.8358 12.6026C26.8358 12.6026 30.4645 13.2777 29.8738 18.8473C29.8738 19.1005 29.9582 19.3536 30.1269 19.5224C30.2957 19.6912 30.6333 19.7756 30.8864 19.6912C30.8864 19.6912 34.1776 18.9317 36.2873 20.4507C37.3843 21.2102 37.975 22.476 38.1438 24.2482C38.1438 24.6701 38.5658 25.0076 38.9877 25.0076H39.0721C39.494 25.0076 39.8316 24.5857 39.8316 24.1638C39.6628 21.8853 38.8189 20.1975 37.2999 19.1849C35.4434 17.8347 32.9961 17.8347 31.6459 18.0034C31.7303 13.8684 29.705 12.1806 28.3548 11.5055C29.4518 9.48022 28.6923 7.03296 28.608 6.86419C28.4392 6.44225 28.0172 6.18908 27.5953 6.35786C27.1734 6.52664 26.9202 6.94858 27.089 7.37052C27.089 7.37052 27.8485 9.98655 26.4983 11.3368C26.2451 11.5899 26.2451 11.8431 26.3295 12.1806C26.3295 12.3494 26.5826 12.6026 26.8358 12.6026ZM17.2999 14.5435C19.5784 17.1595 24.1353 17.1595 26.1606 17.0752C26.0763 19.6068 26.5826 21.2102 27.5952 22.1384C28.9455 23.4043 30.8864 23.3199 32.2366 23.1511C33.3336 23.0667 34.1775 23.1511 34.5151 23.4887C34.7302 23.7038 34.7016 23.9798 34.6881 24.1097C34.6858 24.1327 34.6839 24.1511 34.6839 24.1638C34.5995 24.5857 34.8526 25.0076 35.2746 25.092H35.4433C35.7809 25.092 36.1185 24.8389 36.2028 24.4169C36.2028 24.4083 36.2055 24.3889 36.2095 24.3601C36.2442 24.1088 36.3779 23.1401 35.6965 22.3072C35.0214 21.5477 33.7556 21.2102 32.0678 21.379C30.3801 21.5477 29.3674 21.379 28.6923 20.7882C27.9328 20.0287 27.5952 18.5098 27.764 15.9781C27.764 15.7249 27.6796 15.4718 27.5109 15.303C27.3421 15.1342 27.0889 15.0498 26.8357 15.1342C26.8312 15.1342 26.8097 15.1367 26.7728 15.1409C26.1249 15.2149 20.7168 15.8326 18.4813 13.2777C17.3843 12.0119 17.2155 10.1553 17.975 7.70807C18.1438 7.28613 17.8906 6.7798 17.4687 6.69541C17.1311 6.7798 16.6248 7.03296 16.5404 7.45491C15.6121 10.4929 15.8653 12.8557 17.2999 14.5435ZM39.1561 33.6996C39.5781 33.6996 40 33.3621 40 32.8558V27.2861C40 26.8642 39.6624 26.4423 39.1561 26.4423H0.843882C0.421941 26.4423 0 26.7798 0 27.2861V32.8558C0 33.2777 0.337553 33.6996 0.843882 33.6996H39.1561ZM1.68776 28.13V32.0963H9.78903V28.13H1.68776ZM34.9367 32.0963V28.13H32.9958V32.0963H34.9367ZM38.3122 32.0963V28.13H36.5401V32.0963H38.3122ZM11.4768 32.0963V28.13H31.3924V32.0963H11.4768Z" fill="#1C2443"/>
</svg>
