<svg width="40" height="40" viewBox="0 0 40 40" fill="none" xmlns="http://www.w3.org/2000/svg">
<g clip-path="url(#clip0)">
<path d="M7.64459 16.3636H32.3505V3.63636C32.3505 2.63221 31.5604 1.81818 30.5858 1.81818H9.40929C8.43467 1.81818 7.64459 2.63221 7.64459 3.63636V16.3636ZM32.3505 18.1818H7.64459V36.3636C7.64459 37.3678 8.43467 38.1818 9.40929 38.1818H30.5858C31.5604 38.1818 32.3505 37.3678 32.3505 36.3636V18.1818ZM13.0675 12.86C13.0675 13.3621 12.6725 13.7691 12.1852 13.7691C11.6979 13.7691 11.3028 13.3621 11.3028 12.86V7.14C11.3028 6.63793 11.6979 6.23091 12.1852 6.23091C12.6725 6.23091 13.0675 6.63793 13.0675 7.14V12.86ZM13.0675 27.4055C13.0675 27.9075 12.6725 28.3145 12.1852 28.3145C11.6979 28.3145 11.3028 27.9075 11.3028 27.4055V21.6855C11.3028 21.1834 11.6979 20.7764 12.1852 20.7764C12.6725 20.7764 13.0675 21.1834 13.0675 21.6855V27.4055ZM9.40929 0H30.5858C32.535 0 34.1152 1.62806 34.1152 3.63636V36.3636C34.1152 38.3719 32.535 40 30.5858 40H9.40929C7.46005 40 5.87988 38.3719 5.87988 36.3636V3.63636C5.87988 1.62806 7.46005 0 9.40929 0Z" fill="#1C2443"/>
</g>
<defs>
<clipPath id="clip0">
<rect width="40" height="40" fill="white"/>
</clipPath>
</defs>
</svg>
