<svg width="40" height="40" viewBox="0 0 40 40" fill="none" xmlns="http://www.w3.org/2000/svg">
<g clip-path="url(#clip0)">
<path fill-rule="evenodd" clip-rule="evenodd" d="M3.38428 0H36.6212C37.853 0 38.8549 1.00187 38.8537 2.23375V35.4713C38.8537 36.7025 37.8518 37.7038 36.6199 37.7038H35.5374V39.3944C35.5374 39.7287 35.2662 40 34.9318 40H29.6549C29.3199 40 29.0487 39.7287 29.0487 39.3944V37.7038H10.9549V39.3944C10.9549 39.7287 10.6837 40 10.3487 40H5.07178C4.73678 40 4.46553 39.7287 4.46553 39.3944V37.7038H3.38365C2.1524 37.7038 1.1499 36.7031 1.1499 35.4713V2.23375C1.1499 1.00187 2.1524 0 3.38428 0ZM36.6212 1.21125H3.38428C2.82053 1.21125 2.3624 1.67062 2.3624 2.23375V8.28937H37.643V2.23375C37.643 1.67 37.1837 1.21125 36.6212 1.21125ZM5.67865 38.7881H9.74303H9.74365V37.7044H5.67865V38.7881ZM30.2612 38.7881H34.3262V37.7044H30.2612V38.7881ZM3.38428 36.4919H36.6212C37.1837 36.4919 37.643 36.0338 37.643 35.4713V9.50187H2.3624V35.4713C2.3624 36.0344 2.82115 36.4919 3.38428 36.4919ZM32.0931 4.75127C32.0931 6.09502 30.9994 7.18877 29.6556 7.18877C28.3113 7.18877 27.2175 6.09502 27.2175 4.75127C27.2175 3.40752 28.3113 2.31377 29.6556 2.31377C30.9994 2.31377 32.0931 3.40752 32.0931 4.75127ZM30.8813 4.75127C30.8813 4.07564 30.3306 3.52564 29.6556 3.52564C28.98 3.52564 28.43 4.07564 28.43 4.75127C28.43 5.42689 28.9794 5.97689 29.6556 5.97689C30.3306 5.97689 30.8813 5.42689 30.8813 4.75127ZM22.4394 4.75127C22.4394 6.09502 21.3463 7.18877 20.0025 7.18877C18.6588 7.18877 17.565 6.09502 17.565 4.75127C17.565 3.40752 18.6588 2.31377 20.0025 2.31377C21.3463 2.31377 22.4394 3.40752 22.4394 4.75127ZM21.2275 4.75127C21.2275 4.07564 20.6775 3.52564 20.0025 3.52564C19.3269 3.52564 18.7769 4.07564 18.7769 4.75127C18.7769 5.42689 19.3269 5.97689 20.0025 5.97689C20.6781 5.97689 21.2275 5.42689 21.2275 4.75127ZM12.7863 4.75127C12.7863 6.09502 11.6938 7.18877 10.3494 7.18877C9.00564 7.18877 7.91189 6.09502 7.91189 4.75127C7.91189 3.40752 9.00564 2.31377 10.3494 2.31377C11.6938 2.31377 12.7863 3.40752 12.7863 4.75127ZM11.575 4.75127C11.575 4.07564 11.025 3.52564 10.3494 3.52564C9.67377 3.52564 9.12377 4.07564 9.12377 4.75127C9.12377 5.42689 9.67377 5.97689 10.3494 5.97689C11.025 5.97689 11.575 5.42689 11.575 4.75127ZM6.76439 17.1594H33.2425C33.5781 17.1594 33.8488 17.4313 33.8494 17.7656V32.5194C33.8494 32.8544 33.5781 33.1256 33.2425 33.1256H6.76439C6.42939 33.1256 6.15814 32.8544 6.15814 32.5194V17.7656C6.15814 17.4313 6.42939 17.1594 6.76439 17.1594ZM7.37064 31.9138H32.6369V18.3719H7.37064V31.9138Z" fill="#1C2443"/>
</g>
<defs>
<clipPath id="clip0">
<rect width="40" height="40" fill="white"/>
</clipPath>
</defs>
</svg>
