<svg width="40" height="40" viewBox="0 0 40 40" fill="none" xmlns="http://www.w3.org/2000/svg">
<g clip-path="url(#clip0)">
<path d="M0 16.7304H6.06316V40H33.9368V16.7304H40L20.0421 0L0 16.7304ZM32.3368 15.0318V38.3015H7.74737V15.0318H4.71579L20.0421 2.20807L35.3684 15.0318H32.3368Z" fill="#1C2443"/>
<path d="M13.5916 21.2521V22.7949H12V34H28V22.7137H26.4084V21.1709C26.4084 17.7607 23.5602 15 20.0419 15C16.5236 15 13.5916 17.8419 13.5916 21.2521ZM13.6754 32.3761V24.4188H26.3246V32.3761H13.6754ZM24.6492 21.2521V22.7949H15.267V21.2521C15.267 18.735 17.3613 16.7051 19.9581 16.7051C22.555 16.7051 24.6492 18.735 24.6492 21.2521Z" fill="#1C2443"/>
<path d="M20.7962 26.6923H19.1208V29.859H20.7962V26.6923Z" fill="#1C2443"/>
</g>
<defs>
<clipPath id="clip0">
<rect width="40" height="40" fill="white"/>
</clipPath>
</defs>
</svg>
