<svg width="40" height="40" viewBox="0 0 40 40" fill="none" xmlns="http://www.w3.org/2000/svg">
<g clip-path="url(#clip0)">
<path fill-rule="evenodd" clip-rule="evenodd" d="M39.6585 25.0702C39.4448 24.9249 39.1732 24.8944 38.9324 24.9893L19.8327 32.5137C20.5145 31.6329 21.0523 30.6706 21.4372 29.6546C25.0672 28.2147 28.6916 26.7583 32.3276 25.3342C32.6068 25.2246 32.8168 24.9972 32.9038 24.7103C32.9908 24.4232 32.9423 24.1176 32.7707 23.8717C31.7004 22.3365 29.8619 21.6141 28.0658 21.9764L24.9515 18.1492C23.4872 16.3497 20.9464 15.8504 18.9098 16.9622L18.4706 17.2018L17.6231 11.7137C17.454 10.6202 16.9077 9.61945 16.083 8.88453C17.5254 8.24269 18.5341 6.79696 18.5341 5.11928C18.5341 2.84798 16.6861 1 14.4148 1C12.1432 1 10.2952 2.84798 10.2952 5.11928C10.2952 6.20152 10.7155 7.18701 11.4004 7.92284C10.5894 8.19447 9.85788 8.68248 9.2896 9.34873L7.84753 11.0392C6.74393 12.3333 6.23303 14.0235 6.41157 15.6923C2.16995 17.665 -0.424548 22.2256 0.0573125 26.8797C0.557465 31.7092 4.3025 35.916 9.28441 36.6693L5.58814 38.1254C5.23899 38.263 5.03695 38.6296 5.10684 38.998C5.17704 39.3666 5.49902 39.6337 5.87442 39.6337H39.2187C39.6502 39.6337 40 39.2839 40 38.8524V25.716C40 25.4575 39.8721 25.2158 39.6585 25.0702ZM38.4377 26.8635L9.98881 38.0714H38.4377V26.8635ZM6.74485 17.2662C3.29304 19.0336 1.17818 22.5403 1.61139 26.7186C2.15315 31.9437 6.82605 35.735 12.052 35.2004C13.0016 35.1032 13.675 34.9254 14.4316 34.6415L14.7322 34.5231C16.17 33.9261 17.4461 32.9788 18.455 31.7366C19.1659 30.8616 19.7061 29.8871 20.065 28.8528C20.0732 28.822 20.0833 28.7918 20.0955 28.7622C20.5219 27.4913 20.6757 26.1329 20.5335 24.7598C20.0653 20.2367 16.4673 16.7105 12.0178 16.2731L12.3181 18.1034C15.7366 18.6564 18.4047 21.442 18.767 24.9426C18.98 26.9978 18.3797 29.013 17.0768 30.6169C15.7739 32.2207 13.9244 33.2211 11.8691 33.4339C7.69467 33.8641 3.81151 30.727 3.37758 26.5357C3.06383 23.503 4.58251 20.5612 7.19227 19.0458L6.74485 17.2662ZM21.4903 21.9819C21.789 22.8111 21.9932 23.6873 22.0875 24.5986C22.1986 25.6705 22.1544 26.7341 21.9642 27.7648L25.2152 26.4753L21.5525 21.9495L21.4903 21.9819ZM27.1706 23.3516L23.7396 19.1353C22.7504 17.9197 21.034 17.5824 19.6584 18.3335L19.4204 18.4632C19.974 19.0983 20.4568 19.7985 20.8564 20.5508L21.3993 20.2691C21.7286 20.0982 22.1327 20.183 22.3662 20.4711L26.7217 25.853L30.9695 24.1881C30.1704 23.4984 29.0626 23.2613 28.0188 23.6016C27.7114 23.7014 27.3745 23.6022 27.1706 23.3516ZM16.9718 5.11897C16.9718 3.70926 15.8245 2.56201 14.4145 2.56201C13.0048 2.56201 11.8575 3.70926 11.8575 5.11897C11.8575 6.529 13.0048 7.67594 14.4145 7.67594C15.8245 7.67594 16.9718 6.529 16.9718 5.11897ZM15.8642 29.6317C16.9037 28.352 17.3829 26.7436 17.2132 25.1034C16.9425 22.4903 15.0624 20.3765 12.5885 19.753L12.7741 20.8844C12.8925 21.6059 12.6889 22.3392 12.2155 22.8965C11.7422 23.4541 11.0512 23.7737 10.32 23.7737C9.1782 23.7737 8.1863 23.0003 7.90796 21.893L7.59299 20.6393C5.74684 21.9031 4.69696 24.107 4.93196 26.3749C5.10165 28.015 5.90005 29.491 7.18006 30.5308C8.45976 31.5706 10.0676 32.0495 11.7083 31.8798C13.3484 31.7101 14.8244 30.9117 15.8642 29.6317ZM10.7927 13.6298C11.2188 13.5599 11.6204 13.8486 11.69 14.2744L11.7574 14.6851C13.5642 14.7944 15.2608 15.3404 16.7386 16.2227L16.0788 11.9518C15.8358 10.3797 14.5052 9.23856 12.9141 9.23856C11.9754 9.23856 11.0872 9.64813 10.478 10.3626L9.03628 12.0528C8.07338 13.1817 7.71446 14.7148 8.07613 16.1535L9.42328 21.5122C9.52674 21.9239 9.89542 22.2114 10.32 22.2114C10.5959 22.2114 10.8461 22.0957 11.0247 21.8854C11.2032 21.6751 11.2771 21.4093 11.2325 21.1371L10.8864 19.0272C10.8681 18.9653 10.8568 18.9006 10.8547 18.8337L10.1484 14.5271C10.0785 14.1013 10.367 13.6997 10.7927 13.6298Z" fill="#1C2443"/>
</g>
<defs>
<clipPath id="clip0">
<rect width="40" height="40" fill="white"/>
</clipPath>
</defs>
</svg>
