<svg width="40" height="40" viewBox="0 0 40 40" fill="none" xmlns="http://www.w3.org/2000/svg">
<g clip-path="url(#clip0)">
<path d="M39.3333 34.9286H34V22.7143H38V24.75C38 24.93 38.0702 25.1026 38.1953 25.2298C38.3203 25.3571 38.4899 25.4286 38.6667 25.4286C38.8435 25.4286 39.013 25.3571 39.1381 25.2298C39.2631 25.1026 39.3333 24.93 39.3333 24.75V22.0357C39.3333 21.8557 39.2631 21.6831 39.1381 21.5559C39.013 21.4286 38.8435 21.3571 38.6667 21.3571H30V5.07143H31.3333C31.5101 5.07143 31.6797 4.99994 31.8047 4.87268C31.9298 4.74542 32 4.57283 32 4.39286V1.67857C32 1.4986 31.9298 1.32601 31.8047 1.19875C31.6797 1.07149 31.5101 1 31.3333 1H8.66667C8.48986 1 8.32029 1.07149 8.19526 1.19875C8.07024 1.32601 8 1.4986 8 1.67857V4.39286C8 4.57283 8.07024 4.74542 8.19526 4.87268C8.32029 4.99994 8.48986 5.07143 8.66667 5.07143H10V21.3571H7.5505L8.641 17.4723C8.66938 17.3713 8.67434 17.265 8.65548 17.1617C8.63662 17.0584 8.59446 16.961 8.53232 16.8771C8.47018 16.7933 8.38975 16.7252 8.29738 16.6784C8.20501 16.6315 8.10321 16.6071 8 16.6071H5.60942L7.47142 14.712C7.53332 14.649 7.58243 14.5742 7.61594 14.4918C7.64944 14.4095 7.66668 14.3213 7.66668 14.2321C7.66668 14.143 7.64944 14.0548 7.61594 13.9725C7.58243 13.8901 7.53332 13.8153 7.47142 13.7523C7.40951 13.6893 7.33601 13.6393 7.25513 13.6052C7.17424 13.5711 7.08755 13.5536 7 13.5536C6.91245 13.5536 6.82576 13.5711 6.74487 13.6052C6.66399 13.6393 6.59049 13.6893 6.52858 13.7523L5.66667 14.6297L3.80475 12.7344C3.67972 12.6072 3.51015 12.5357 3.33333 12.5357C3.15652 12.5357 2.98694 12.6072 2.86192 12.7344C2.73689 12.8617 2.66665 13.0343 2.66665 13.2143C2.66665 13.3943 2.73689 13.5669 2.86192 13.6941L4.72392 15.5893L3.72392 16.6071H2C1.89679 16.6071 1.79499 16.6315 1.70262 16.6784C1.61025 16.7252 1.52982 16.7933 1.46768 16.8771C1.40554 16.961 1.36338 17.0584 1.34452 17.1617C1.32566 17.265 1.33062 17.3713 1.359 17.4723L2.4495 21.3571H1.33333C1.15652 21.3571 0.986953 21.4286 0.861929 21.5559C0.736905 21.6831 0.666667 21.8557 0.666667 22.0357V24.75C0.666667 24.93 0.736905 25.1026 0.861929 25.2298C0.986953 25.3571 1.15652 25.4286 1.33333 25.4286C1.51014 25.4286 1.67971 25.3571 1.80474 25.2298C1.92976 25.1026 2 24.93 2 24.75V22.7143H6V34.9286H0.666667C0.489856 34.9286 0.320286 35.0001 0.195262 35.1273C0.0702379 35.2546 0 35.4272 0 35.6071V38.3214C0 38.5014 0.0702379 38.674 0.195262 38.8012C0.320286 38.9285 0.489856 39 0.666667 39H39.3333C39.5101 39 39.6797 38.9285 39.8047 38.8012C39.9298 38.674 40 38.5014 40 38.3214V35.6071C40 35.4272 39.9298 35.2546 39.8047 35.1273C39.6797 35.0001 39.5101 34.9286 39.3333 34.9286ZM32.6667 22.7143V34.9286H28.6667V22.7143H32.6667ZM20.6667 21.3571V13.8929H28.6667V21.3571H20.6667ZM27.3333 22.7143V34.9286H23.3333V22.7143H27.3333ZM11.3333 21.3571V13.8929H19.3333V21.3571H11.3333ZM16.6667 22.7143V34.9286H12.6667V22.7143H16.6667ZM11.3333 12.5357V5.07143H19.3333V12.5357H11.3333ZM18 22.7143H22V34.9286H18V22.7143ZM20.6667 12.5357V5.07143H28.6667V12.5357H20.6667ZM9.33333 3.71429V2.35714H30.6667V3.71429H9.33333ZM7.33333 22.7143H11.3333V34.9286H7.33333V22.7143ZM3.83625 21.3571L2.88383 17.9643H7.11617L6.16375 21.3571H3.83625ZM38.6667 37.6429H1.33333V36.2857H38.6667V37.6429Z" fill="#1C2443"/>
</g>
<defs>
<clipPath id="clip0">
<rect width="40" height="40" fill="white"/>
</clipPath>
</defs>
</svg>
