<svg width="40" height="40" viewBox="0 0 40 40" fill="none" xmlns="http://www.w3.org/2000/svg">
<path fill-rule="evenodd" clip-rule="evenodd" d="M2.92969 3.32001H37.0703C37.847 3.32088 38.5917 3.62982 39.1409 4.17906C39.6902 4.72829 39.9991 5.47296 40 6.24969V34.9216C39.9995 35.3876 39.8141 35.8344 39.4846 36.164C39.155 36.4935 38.7082 36.6789 38.2422 36.6794H34.7266C34.2605 36.6789 33.8137 36.4935 33.4842 36.164C33.1546 35.8344 32.9693 35.3876 32.9688 34.9216V29.7263H23.125V31.9919H27.3275C27.6145 31.9916 27.8943 32.0818 28.1272 32.2496C28.36 32.4174 28.534 32.6544 28.6246 32.9267L29.2756 34.8799C29.3441 35.0854 29.3628 35.3042 29.3301 35.5184C29.2974 35.7325 29.2143 35.9359 29.0877 36.1116C28.961 36.2873 28.7944 36.4305 28.6016 36.5292C28.4087 36.6279 28.1952 36.6794 27.9786 36.6794H12.0214C11.8048 36.6794 11.5913 36.6279 11.3984 36.5292C11.2056 36.4305 11.039 36.2873 10.9123 36.1116C10.7857 35.9359 10.7026 35.7325 10.6699 35.5184C10.6372 35.3042 10.6559 35.0854 10.7244 34.8799L11.3754 32.9267C11.4659 32.6544 11.64 32.4175 11.8728 32.2496C12.1057 32.0818 12.3854 31.9916 12.6725 31.9919H16.875V29.7263H2.92969C2.15295 29.7254 1.40828 29.4164 0.859051 28.8672C0.309817 28.318 0.000874057 27.5733 0 26.7966V6.24969C0.000874057 5.47296 0.309817 4.72829 0.859051 4.17906C1.40828 3.62982 2.15295 3.32088 2.92969 3.32001ZM27.4418 33.2006C27.4085 33.1766 27.3685 33.1637 27.3275 33.1638L12.6725 33.1638C12.6315 33.1637 12.5915 33.1766 12.5582 33.2006C12.525 33.2246 12.5001 33.2584 12.4872 33.2973L11.8361 35.2504C11.8263 35.2798 11.8237 35.3111 11.8283 35.3416C11.833 35.3722 11.8449 35.4013 11.863 35.4264C11.8811 35.4515 11.9049 35.4719 11.9324 35.486C11.96 35.5001 11.9905 35.5075 12.0214 35.5075H27.9786C28.0095 35.5075 28.04 35.5001 28.0676 35.486C28.0951 35.4719 28.1189 35.4515 28.137 35.4264C28.1551 35.4013 28.167 35.3722 28.1717 35.3416C28.1763 35.3111 28.1737 35.2798 28.1639 35.2504L27.5128 33.2973C27.4999 33.2584 27.475 33.2246 27.4418 33.2006ZM18.0469 29.7263V31.9919H21.9531V29.7263H18.0469ZM32.9688 26.2106V20.9372C32.9693 20.4712 33.1546 20.0243 33.4842 19.6948C33.651 19.528 33.8479 19.3981 34.0621 19.3105C34.0608 19.2922 34.0601 19.2738 34.0601 19.2553V18.2766C34.0601 17.8658 34.3707 17.5319 34.7528 17.5319H35.3069C35.6889 17.5319 35.9995 17.8658 35.9995 18.2766V19.1794H36.4844V6.83563H3.51562V26.2106H32.9688ZM35.7225 19.1794V18.2766C35.7225 18.0302 35.536 17.8298 35.3069 17.8298H34.7528C34.5236 17.8298 34.3372 18.0302 34.3372 18.2766V19.2234C34.4639 19.1945 34.5945 19.1795 34.7266 19.1794H35.7225ZM38.6563 35.3357C38.7662 35.2259 38.828 35.0769 38.8281 34.9216V20.9372C38.828 20.7818 38.7662 20.6329 38.6563 20.5231C38.5465 20.4132 38.3975 20.3514 38.2422 20.3513H34.7266C34.5712 20.3514 34.4223 20.4132 34.3124 20.5231C34.2026 20.6329 34.1408 20.7818 34.1406 20.9372V34.9216C34.1408 35.0769 34.2026 35.2259 34.3124 35.3357C34.4223 35.4455 34.5712 35.5073 34.7266 35.5075H38.2422C38.3975 35.5073 38.5465 35.4455 38.6563 35.3357ZM38.2422 19.1794C38.4418 19.1793 38.64 19.2134 38.8281 19.2802V6.24969C38.8276 5.78365 38.6422 5.33685 38.3127 5.00731C37.9832 4.67777 37.5364 4.4924 37.0703 4.49188H2.92969C2.46365 4.4924 2.01684 4.67777 1.6873 5.00731C1.35776 5.33685 1.1724 5.78365 1.17188 6.24969V26.7966C1.1724 27.2626 1.35776 27.7094 1.6873 28.039C2.01684 28.3685 2.46365 28.5539 2.92969 28.5544H32.9688V27.3825H2.92969C2.77429 27.3825 2.62525 27.3208 2.51537 27.2109C2.40548 27.101 2.34375 26.952 2.34375 26.7966V6.24969C2.34375 6.09429 2.40548 5.94526 2.51537 5.83538C2.62525 5.72549 2.77429 5.66376 2.92969 5.66376H37.0703C37.2257 5.66376 37.3747 5.72549 37.4846 5.83538C37.5945 5.94526 37.6562 6.09429 37.6562 6.24969V19.1794H38.2422ZM35.9969 22.3559C35.9757 22.3241 35.9576 22.2904 35.943 22.2551C35.9286 22.2198 35.9176 22.1832 35.9101 22.1458C35.8945 22.07 35.8945 21.9918 35.9101 21.9161C35.9176 21.8787 35.9286 21.8421 35.943 21.8067C35.9576 21.7715 35.9757 21.7377 35.9969 21.7059C36.0401 21.6418 36.0953 21.5867 36.1594 21.5434C36.1911 21.5222 36.2249 21.5042 36.2601 21.4895C36.2955 21.4752 36.3321 21.4642 36.3695 21.4567C36.4453 21.4411 36.5234 21.4411 36.5992 21.4567C36.6366 21.4642 36.6732 21.4752 36.7086 21.4895C36.7438 21.5042 36.7776 21.5222 36.8093 21.5434C36.8734 21.5867 36.9286 21.6418 36.9719 21.7059C36.993 21.7377 37.0111 21.7715 37.0258 21.8067C37.0401 21.8421 37.0511 21.8787 37.0586 21.9161C37.0742 21.9918 37.0742 22.07 37.0586 22.1458C37.0511 22.1832 37.0401 22.2198 37.0258 22.2551C37.0111 22.2904 36.993 22.3241 36.9719 22.3559C36.9286 22.42 36.8734 22.4752 36.8093 22.5184C36.7776 22.5396 36.7438 22.5576 36.7086 22.5723C36.6732 22.5867 36.6366 22.5977 36.5992 22.6051C36.5234 22.6208 36.4453 22.6208 36.3695 22.6051C36.3321 22.5977 36.2955 22.5867 36.2601 22.5723C36.2249 22.5576 36.1911 22.5396 36.1594 22.5184C36.0953 22.4752 36.0401 22.42 35.9969 22.3559ZM35.4841 30.9916C35.594 30.8817 35.743 30.82 35.8984 30.82H37.0703C37.2257 30.82 37.3747 30.8817 37.4846 30.9916C37.5945 31.1015 37.6562 31.2505 37.6562 31.4059C37.6562 31.5613 37.5945 31.7104 37.4846 31.8203C37.3747 31.9301 37.2257 31.9919 37.0703 31.9919H35.8984C35.743 31.9919 35.594 31.9301 35.4841 31.8203C35.3742 31.7104 35.3125 31.5613 35.3125 31.4059C35.3125 31.2505 35.3742 31.1015 35.4841 30.9916ZM35.4841 33.3354C35.594 33.2255 35.743 33.1638 35.8984 33.1638H37.0703C37.2257 33.1638 37.3747 33.2255 37.4846 33.3354C37.5945 33.4453 37.6562 33.5943 37.6562 33.7497C37.6562 33.9051 37.5945 34.0541 37.4846 34.164C37.3747 34.2739 37.2257 34.3356 37.0703 34.3356H35.8984C35.743 34.3356 35.594 34.2739 35.4841 34.164C35.3742 34.0541 35.3125 33.9051 35.3125 33.7497C35.3125 33.5943 35.3742 33.4453 35.4841 33.3354ZM8.01683 16.1915H8.57094C9.0292 16.1915 9.40211 15.7905 9.40211 15.2978V13.5106C9.40211 13.0179 9.0292 12.617 8.57094 12.617H8.01683C7.55858 12.617 7.18566 13.0179 7.18566 13.5106V15.2978C7.18566 15.7905 7.55858 16.1915 8.01683 16.1915ZM7.73978 13.5106C7.73978 13.3462 7.86417 13.2127 8.01683 13.2127H8.57094C8.7236 13.2127 8.848 13.3462 8.848 13.5106V15.2978C8.848 15.4623 8.7236 15.5957 8.57094 15.5957H8.01683C7.86417 15.5957 7.73978 15.4623 7.73978 15.2978V13.5106ZM11.3415 16.1915H11.8956C12.3539 16.1915 12.7268 15.7905 12.7268 15.2978V13.5106C12.7268 13.0179 12.3539 12.617 11.8956 12.617H11.3415C10.8833 12.617 10.5103 13.0179 10.5103 13.5106V15.2978C10.5103 15.7905 10.8833 16.1915 11.3415 16.1915ZM11.0645 13.5106C11.0645 13.3462 11.1889 13.2127 11.3415 13.2127H11.8956C11.9691 13.2127 12.0396 13.2441 12.0915 13.3C12.1435 13.3558 12.1727 13.4316 12.1727 13.5106V15.2978C12.1727 15.3768 12.1435 15.4526 12.0915 15.5085C12.0396 15.5643 11.9691 15.5957 11.8956 15.5957H11.3415C11.1889 15.5957 11.0645 15.4623 11.0645 15.2978V13.5106ZM14.6662 16.1915H15.2203C15.6785 16.1915 16.0515 15.7905 16.0515 15.2978V13.5106C16.0515 13.0179 15.6785 12.617 15.2203 12.617H14.6662C14.2079 12.617 13.835 13.0179 13.835 13.5106V15.2978C13.835 15.7905 14.2079 16.1915 14.6662 16.1915ZM14.4703 13.3C14.5222 13.2441 14.5927 13.2127 14.6662 13.2127H15.2203C15.2938 13.2127 15.3642 13.2441 15.4162 13.3C15.4682 13.3558 15.4974 13.4316 15.4974 13.5106V15.2978C15.4974 15.3768 15.4682 15.4526 15.4162 15.5085C15.3642 15.5643 15.2938 15.5957 15.2203 15.5957H14.6662C14.5927 15.5957 14.5222 15.5643 14.4703 15.5085C14.4183 15.4526 14.3891 15.3768 14.3891 15.2978V13.5106C14.3891 13.4316 14.4183 13.3558 14.4703 13.3ZM9.67917 20.8085H10.2333C10.6151 20.8085 10.9259 20.4746 10.9259 20.0638V18.2766C10.9259 17.8658 10.6151 17.5319 10.2333 17.5319H9.67917C9.29739 17.5319 8.98653 17.8658 8.98653 18.2766V20.0638C8.98675 20.2612 9.05979 20.4505 9.18964 20.5901C9.31949 20.7297 9.49554 20.8082 9.67917 20.8085ZM9.26359 18.2766C9.26359 18.0302 9.45004 17.8298 9.67917 17.8298H10.2333C10.4624 17.8298 10.6489 18.0302 10.6489 18.2766V20.0638C10.6489 20.3101 10.4624 20.5106 10.2333 20.5106H9.67917C9.45004 20.5106 9.26359 20.3101 9.26359 20.0638V18.2766ZM17.9909 20.8085H18.545C18.927 20.8085 19.2376 20.4746 19.2376 20.0638V18.2766C19.2376 17.8658 18.927 17.5319 18.545 17.5319H17.9909C17.6088 17.5319 17.2982 17.8658 17.2982 18.2766V20.0638C17.2984 20.2613 17.3714 20.4506 17.5012 20.5902C17.6311 20.7298 17.8072 20.8083 17.9909 20.8085ZM17.5753 18.2766C17.5753 18.0302 17.7617 17.8298 17.9909 17.8298H18.545C18.7741 17.8298 18.9606 18.0302 18.9606 18.2766V20.0638C18.9606 20.3101 18.7741 20.5106 18.545 20.5106H17.9909C17.7617 20.5106 17.5753 20.3101 17.5753 20.0638V18.2766ZM14.6662 20.8085H15.2203C15.6024 20.8085 15.9129 20.4746 15.9129 20.0638V18.2766C15.9129 17.8658 15.6024 17.5319 15.2203 17.5319H14.6662C14.2841 17.5319 13.9735 17.8658 13.9735 18.2766V20.0638C13.9737 20.2613 14.0467 20.4506 14.1766 20.5902C14.3064 20.7298 14.4825 20.8083 14.6662 20.8085ZM14.2506 18.2766C14.2506 18.0302 14.4371 17.8298 14.6662 17.8298H15.2203C15.4494 17.8298 15.6359 18.0302 15.6359 18.2766V20.0638C15.6359 20.3101 15.4494 20.5106 15.2203 20.5106H14.6662C14.4371 20.5106 14.2506 20.3101 14.2506 20.0638V18.2766ZM5.70243 15.9989C5.72841 16.0268 5.76364 16.0425 5.80038 16.0425C5.83712 16.0425 5.87236 16.0268 5.89834 15.9989C5.92432 15.971 5.93891 15.9331 5.93891 15.8936V12.9149C5.93891 12.8754 5.92432 12.8375 5.89834 12.8096C5.87236 12.7816 5.83712 12.7659 5.80038 12.7659C5.76364 12.7659 5.72841 12.7816 5.70243 12.8096C5.67645 12.8375 5.66185 12.8754 5.66185 12.9149V15.8936C5.66185 15.9331 5.67645 15.971 5.70243 15.9989ZM4.04009 15.9989C4.06607 16.0268 4.1013 16.0425 4.13804 16.0425C4.17478 16.0425 4.21002 16.0268 4.236 15.9989C4.26198 15.971 4.27657 15.9331 4.27657 15.8936V12.9149C4.27657 12.8754 4.26198 12.8375 4.236 12.8096C4.21002 12.7816 4.17478 12.7659 4.13804 12.7659C4.1013 12.7659 4.06607 12.7816 4.04009 12.8096C4.01411 12.8375 3.99952 12.8754 3.99952 12.9149V15.8936C3.99952 15.9331 4.01411 15.971 4.04009 15.9989ZM19.0011 15.9989C19.0271 16.0268 19.0623 16.0425 19.0991 16.0425C19.1358 16.0425 19.1711 16.0268 19.197 15.9989C19.223 15.971 19.2376 15.9331 19.2376 15.8936V12.9149C19.2376 12.8754 19.223 12.8375 19.197 12.8096C19.1711 12.7816 19.1358 12.7659 19.0991 12.7659C19.0623 12.7659 19.0271 12.7816 19.0011 12.8096C18.9752 12.8375 18.9606 12.8754 18.9606 12.9149V15.8936C18.9606 15.9331 18.9752 15.971 19.0011 15.9989ZM17.3388 15.9989C17.3648 16.0268 17.4 16.0425 17.4367 16.0425C17.4735 16.0425 17.5087 16.0268 17.5347 15.9989C17.5607 15.971 17.5753 15.9331 17.5753 15.8936V12.9149C17.5753 12.8754 17.5607 12.8375 17.5347 12.8096C17.5087 12.7816 17.4735 12.7659 17.4367 12.7659C17.4 12.7659 17.3648 12.7816 17.3388 12.8096C17.3128 12.8375 17.2982 12.8754 17.2982 12.9149V15.8936C17.2982 15.9331 17.3128 15.971 17.3388 15.9989ZM4.69216 11.2766H5.24627C5.62805 11.2766 5.93891 10.9427 5.93891 10.5319V8.74465C5.93891 8.33389 5.62805 7.99997 5.24627 7.99997H4.69216C4.31037 7.99997 3.99952 8.33389 3.99952 8.74465V10.5319C3.99974 10.7293 4.07278 10.9186 4.20263 11.0582C4.33248 11.1978 4.50852 11.2763 4.69216 11.2766ZM4.27657 8.74465C4.27657 8.49831 4.46303 8.29784 4.69216 8.29784H5.24627C5.4754 8.29784 5.66185 8.49831 5.66185 8.74465V10.5319C5.66185 10.7782 5.4754 10.9787 5.24627 10.9787H4.69216C4.46303 10.9787 4.27657 10.7782 4.27657 10.5319V8.74465ZM13.0038 11.2766H13.558C13.94 11.2766 14.2506 10.9427 14.2506 10.5319V8.74465C14.2506 8.33389 13.94 7.99997 13.558 7.99997H13.0038C12.6218 7.99997 12.3112 8.33389 12.3112 8.74465V10.5319C12.3114 10.7293 12.3844 10.9187 12.5142 11.0583C12.6441 11.1979 12.8202 11.2764 13.0038 11.2766ZM12.5883 8.74465C12.5883 8.49831 12.7747 8.29784 13.0038 8.29784H13.558C13.7871 8.29784 13.9735 8.49831 13.9735 8.74465V10.5319C13.9735 10.7782 13.7871 10.9787 13.558 10.9787H13.0038C12.7747 10.9787 12.5883 10.7782 12.5883 10.5319V8.74465ZM9.0271 11.2329C9.05308 11.2609 9.08832 11.2766 9.12506 11.2766C9.1618 11.2766 9.19703 11.2609 9.22301 11.2329C9.24899 11.205 9.26359 11.1671 9.26359 11.1276V8.14891C9.26359 8.10941 9.24899 8.07152 9.22301 8.04359C9.19703 8.01566 9.1618 7.99997 9.12506 7.99997C9.08832 7.99997 9.05308 8.01566 9.0271 8.04359C9.00112 8.07152 8.98653 8.10941 8.98653 8.14891V11.1276C8.98653 11.1671 9.00112 11.205 9.0271 11.2329ZM7.36477 11.2329C7.39074 11.2609 7.42598 11.2766 7.46272 11.2766C7.49946 11.2766 7.5347 11.2609 7.56067 11.2329C7.58665 11.205 7.60125 11.1671 7.60125 11.1276V8.14891C7.60125 8.10941 7.58665 8.07152 7.56067 8.04359C7.5347 8.01566 7.49946 7.99997 7.46272 7.99997C7.42598 7.99997 7.39074 8.01566 7.36477 8.04359C7.33879 8.07152 7.32419 8.10941 7.32419 8.14891V11.1276C7.32419 11.1671 7.33879 11.205 7.36477 11.2329ZM19.0011 11.2329C19.0271 11.2609 19.0623 11.2766 19.0991 11.2766C19.1358 11.2766 19.1711 11.2609 19.197 11.2329C19.223 11.205 19.2376 11.1671 19.2376 11.1276V8.14891C19.2376 8.10941 19.223 8.07152 19.197 8.04359C19.1711 8.01566 19.1358 7.99997 19.0991 7.99997C19.0623 7.99997 19.0271 8.01566 19.0011 8.04359C18.9752 8.07152 18.9606 8.10941 18.9606 8.14891V11.1276C18.9606 11.1671 18.9752 11.205 19.0011 11.2329ZM17.3388 11.2329C17.3648 11.2609 17.4 11.2766 17.4367 11.2766C17.4735 11.2766 17.5087 11.2609 17.5347 11.2329C17.5607 11.205 17.5753 11.1671 17.5753 11.1276V8.14891C17.5753 8.10941 17.5607 8.07152 17.5347 8.04359C17.5087 8.01566 17.4735 7.99997 17.4367 7.99997C17.4 7.99997 17.3648 8.01566 17.3388 8.04359C17.3128 8.07152 17.2982 8.10941 17.2982 8.14891V11.1276C17.2982 11.1671 17.3128 11.205 17.3388 11.2329ZM15.6765 11.2329C15.7024 11.2609 15.7377 11.2766 15.7744 11.2766C15.8111 11.2766 15.8464 11.2609 15.8724 11.2329C15.8983 11.205 15.9129 11.1671 15.9129 11.1276V8.14891C15.9129 8.10941 15.8983 8.07152 15.8724 8.04359C15.8464 8.01566 15.8111 7.99997 15.7744 7.99997C15.7377 7.99997 15.7024 8.01566 15.6765 8.04359C15.6505 8.07152 15.6359 8.10941 15.6359 8.14891V11.1276C15.6359 11.1671 15.6505 11.205 15.6765 11.2329ZM10.6894 11.2329C10.7154 11.2609 10.7507 11.2766 10.7874 11.2766C10.8241 11.2766 10.8594 11.2609 10.8853 11.2329C10.9113 11.205 10.9259 11.1671 10.9259 11.1276V8.14891C10.9259 8.10941 10.9113 8.07152 10.8853 8.04359C10.8594 8.01566 10.8241 7.99997 10.7874 7.99997C10.7507 7.99997 10.7154 8.01566 10.6894 8.04359C10.6635 8.07152 10.6489 8.10941 10.6489 8.14891V11.1276C10.6489 11.1671 10.6635 11.205 10.6894 11.2329ZM4.69216 20.8085H5.24627C5.62805 20.8085 5.93891 20.4746 5.93891 20.0638V18.2766C5.93891 17.8658 5.62805 17.5319 5.24627 17.5319H4.69216C4.31037 17.5319 3.99952 17.8658 3.99952 18.2766V20.0638C3.99974 20.2612 4.07278 20.4505 4.20263 20.5901C4.33248 20.7297 4.50852 20.8082 4.69216 20.8085ZM4.27657 18.2766C4.27657 18.0302 4.46303 17.8298 4.69216 17.8298H5.24627C5.4754 17.8298 5.66185 18.0302 5.66185 18.2766V20.0638C5.66185 20.3101 5.4754 20.5106 5.24627 20.5106H4.69216C4.46303 20.5106 4.27657 20.3101 4.27657 20.0638V18.2766ZM7.36477 20.7649C7.39074 20.7928 7.42598 20.8085 7.46272 20.8085C7.49946 20.8085 7.5347 20.7928 7.56067 20.7649C7.58665 20.7369 7.60125 20.699 7.60125 20.6595V17.6808C7.60125 17.6413 7.58665 17.6034 7.56067 17.5755C7.5347 17.5476 7.49946 17.5319 7.46272 17.5319C7.42598 17.5319 7.39074 17.5476 7.36477 17.5755C7.33879 17.6034 7.32419 17.6413 7.32419 17.6808V20.6595C7.32419 20.699 7.33879 20.7369 7.36477 20.7649ZM12.3518 20.7649C12.3778 20.7928 12.413 20.8085 12.4497 20.8085C12.4865 20.8085 12.5217 20.7928 12.5477 20.7649C12.5737 20.7369 12.5883 20.699 12.5883 20.6595V17.6808C12.5883 17.6413 12.5737 17.6034 12.5477 17.5755C12.5217 17.5476 12.4865 17.5319 12.4497 17.5319C12.413 17.5319 12.3778 17.5476 12.3518 17.5755C12.3258 17.6034 12.3112 17.6413 12.3112 17.6808V20.6595C12.3112 20.699 12.3258 20.7369 12.3518 20.7649ZM24.7787 16.1915H25.3328C25.7911 16.1915 26.164 15.7905 26.164 15.2978V13.5106C26.164 13.0179 25.7911 12.617 25.3328 12.617H24.7787C24.3205 12.617 23.9476 13.0179 23.9476 13.5106V15.2978C23.9476 15.7905 24.3205 16.1915 24.7787 16.1915ZM24.5017 13.5106C24.5017 13.3462 24.6261 13.2127 24.7787 13.2127H25.3328C25.4855 13.2127 25.6099 13.3462 25.6099 13.5106V15.2978C25.6099 15.4623 25.4855 15.5957 25.3328 15.5957H24.7787C24.6261 15.5957 24.5017 15.4623 24.5017 15.2978V13.5106ZM28.1034 16.1915H28.6575C29.1158 16.1915 29.4887 15.7905 29.4887 15.2978V13.5106C29.4887 13.0179 29.1158 12.617 28.6575 12.617H28.1034C27.6452 12.617 27.2722 13.0179 27.2722 13.5106V15.2978C27.2722 15.7905 27.6452 16.1915 28.1034 16.1915ZM27.8264 13.5106C27.8264 13.3462 27.9508 13.2127 28.1034 13.2127H28.6575C28.731 13.2127 28.8015 13.2441 28.8534 13.3C28.9054 13.3558 28.9346 13.4316 28.9346 13.5106V15.2978C28.9346 15.3768 28.9054 15.4526 28.8534 15.5085C28.8015 15.5643 28.731 15.5957 28.6575 15.5957H28.1034C27.9508 15.5957 27.8264 15.4623 27.8264 15.2978V13.5106ZM31.4281 16.1915H31.9822C32.4404 16.1915 32.8134 15.7905 32.8134 15.2978V13.5106C32.8134 13.0179 32.4404 12.617 31.9822 12.617H31.4281C30.9698 12.617 30.5969 13.0179 30.5969 13.5106V15.2978C30.5969 15.7905 30.9698 16.1915 31.4281 16.1915ZM31.2322 13.3C31.2841 13.2441 31.3546 13.2127 31.4281 13.2127H31.9822C32.0557 13.2127 32.1261 13.2441 32.1781 13.3C32.2301 13.3558 32.2593 13.4316 32.2593 13.5106V15.2978C32.2593 15.3768 32.2301 15.4526 32.1781 15.5085C32.1261 15.5643 32.0557 15.5957 31.9822 15.5957H31.4281C31.3546 15.5957 31.2841 15.5643 31.2322 15.5085C31.1802 15.4526 31.151 15.3768 31.151 15.2978V13.5106C31.151 13.4316 31.1802 13.3558 31.2322 13.3ZM26.4411 20.8085H26.9952C27.377 20.8085 27.6878 20.4746 27.6878 20.0638V18.2766C27.6878 17.8658 27.377 17.5319 26.9952 17.5319H26.4411C26.0593 17.5319 25.7484 17.8658 25.7484 18.2766V20.0638C25.7487 20.2612 25.8217 20.4505 25.9515 20.5901C26.0814 20.7297 26.2574 20.8082 26.4411 20.8085ZM26.0255 18.2766C26.0255 18.0302 26.2119 17.8298 26.4411 17.8298H26.9952C27.2243 17.8298 27.4108 18.0302 27.4108 18.2766V20.0638C27.4108 20.3101 27.2243 20.5106 26.9952 20.5106H26.4411C26.2119 20.5106 26.0255 20.3101 26.0255 20.0638V18.2766ZM31.4281 20.8085H31.9822C32.3643 20.8085 32.6748 20.4746 32.6748 20.0638V18.2766C32.6748 17.8658 32.3643 17.5319 31.9822 17.5319H31.4281C31.046 17.5319 30.7354 17.8658 30.7354 18.2766V20.0638C30.7356 20.2613 30.8086 20.4506 30.9385 20.5902C31.0683 20.7298 31.2444 20.8083 31.4281 20.8085ZM31.0125 18.2766C31.0125 18.0302 31.199 17.8298 31.4281 17.8298H31.9822C32.2113 17.8298 32.3978 18.0302 32.3978 18.2766V20.0638C32.3978 20.3101 32.2113 20.5106 31.9822 20.5106H31.4281C31.199 20.5106 31.0125 20.3101 31.0125 20.0638V18.2766ZM22.4643 15.9989C22.4903 16.0268 22.5255 16.0425 22.5623 16.0425C22.599 16.0425 22.6343 16.0268 22.6602 15.9989C22.6862 15.971 22.7008 15.9331 22.7008 15.8936V12.9149C22.7008 12.8754 22.6862 12.8375 22.6602 12.8096C22.6343 12.7816 22.599 12.7659 22.5623 12.7659C22.5255 12.7659 22.4903 12.7816 22.4643 12.8096C22.4384 12.8375 22.4238 12.8754 22.4238 12.9149V15.8936C22.4238 15.9331 22.4384 15.971 22.4643 15.9989ZM20.802 15.9989C20.828 16.0268 20.8632 16.0425 20.8999 16.0425C20.9367 16.0425 20.9719 16.0268 20.9979 15.9989C21.0239 15.971 21.0385 15.9331 21.0385 15.8936V12.9149C21.0385 12.8754 21.0239 12.8375 20.9979 12.8096C20.9719 12.7816 20.9367 12.7659 20.8999 12.7659C20.8632 12.7659 20.828 12.7816 20.802 12.8096C20.776 12.8375 20.7614 12.8754 20.7614 12.9149V15.8936C20.7614 15.9331 20.776 15.971 20.802 15.9989ZM35.763 15.9989C35.789 16.0268 35.8242 16.0425 35.861 16.0425C35.8977 16.0425 35.933 16.0268 35.9589 15.9989C35.9849 15.971 35.9995 15.9331 35.9995 15.8936V12.9149C35.9995 12.8754 35.9849 12.8375 35.9589 12.8096C35.933 12.7816 35.8977 12.7659 35.861 12.7659C35.8242 12.7659 35.789 12.7816 35.763 12.8096C35.7371 12.8375 35.7225 12.8754 35.7225 12.9149V15.8936C35.7225 15.9331 35.7371 15.971 35.763 15.9989ZM34.1007 15.9989C34.1267 16.0268 34.1619 16.0425 34.1987 16.0425C34.2354 16.0425 34.2706 16.0268 34.2966 15.9989C34.3226 15.971 34.3372 15.9331 34.3372 15.8936V12.9149C34.3372 12.8754 34.3226 12.8375 34.2966 12.8096C34.2706 12.7816 34.2354 12.7659 34.1987 12.7659C34.1619 12.7659 34.1267 12.7816 34.1007 12.8096C34.0747 12.8375 34.0601 12.8754 34.0601 12.9149V15.8936C34.0601 15.9331 34.0747 15.971 34.1007 15.9989ZM21.4541 11.2766H22.0082C22.39 11.2766 22.7008 10.9427 22.7008 10.5319V8.74465C22.7008 8.33389 22.39 7.99997 22.0082 7.99997H21.4541C21.0723 7.99997 20.7614 8.33389 20.7614 8.74465V10.5319C20.7616 10.7293 20.8347 10.9186 20.9645 11.0582C21.0944 11.1978 21.2704 11.2763 21.4541 11.2766ZM21.0385 8.74465C21.0385 8.49831 21.2249 8.29784 21.4541 8.29784H22.0082C22.2373 8.29784 22.4238 8.49831 22.4238 8.74465V10.5319C22.4238 10.7782 22.2373 10.9787 22.0082 10.9787H21.4541C21.2249 10.9787 21.0385 10.7782 21.0385 10.5319V8.74465ZM29.7658 11.2766H30.3199C30.7019 11.2766 31.0125 10.9427 31.0125 10.5319V8.74465C31.0125 8.33389 30.7019 7.99997 30.3199 7.99997H29.7658C29.3837 7.99997 29.0731 8.33389 29.0731 8.74465V10.5319C29.0733 10.7293 29.1463 10.9187 29.2761 11.0583C29.406 11.1979 29.5821 11.2764 29.7658 11.2766ZM29.3502 8.74465C29.3502 8.49831 29.5366 8.29784 29.7658 8.29784H30.3199C30.549 8.29784 30.7354 8.49831 30.7354 8.74465V10.5319C30.7354 10.7782 30.549 10.9787 30.3199 10.9787H29.7658C29.5366 10.9787 29.3502 10.7782 29.3502 10.5319V8.74465ZM25.789 11.2329C25.815 11.2609 25.8502 11.2766 25.887 11.2766C25.9237 11.2766 25.9589 11.2609 25.9849 11.2329C26.0109 11.205 26.0255 11.1671 26.0255 11.1276V8.14891C26.0255 8.10941 26.0109 8.07152 25.9849 8.04359C25.9589 8.01566 25.9237 7.99997 25.887 7.99997C25.8502 7.99997 25.815 8.01566 25.789 8.04359C25.763 8.07152 25.7484 8.10941 25.7484 8.14891V11.1276C25.7484 11.1671 25.763 11.205 25.789 11.2329ZM24.1267 11.2329C24.1526 11.2609 24.1879 11.2766 24.2246 11.2766C24.2614 11.2766 24.2966 11.2609 24.3226 11.2329C24.3486 11.205 24.3632 11.1671 24.3632 11.1276V8.14891C24.3632 8.10941 24.3486 8.07152 24.3226 8.04359C24.2966 8.01566 24.2614 7.99997 24.2246 7.99997C24.1879 7.99997 24.1526 8.01566 24.1267 8.04359C24.1007 8.07152 24.0861 8.10941 24.0861 8.14891V11.1276C24.0861 11.1671 24.1007 11.205 24.1267 11.2329ZM35.763 11.2329C35.789 11.2609 35.8242 11.2766 35.861 11.2766C35.8977 11.2766 35.933 11.2609 35.9589 11.2329C35.9849 11.205 35.9995 11.1671 35.9995 11.1276V8.14891C35.9995 8.10941 35.9849 8.07152 35.9589 8.04359C35.933 8.01566 35.8977 7.99997 35.861 7.99997C35.8242 7.99997 35.789 8.01566 35.763 8.04359C35.7371 8.07152 35.7225 8.10941 35.7225 8.14891V11.1276C35.7225 11.1671 35.7371 11.205 35.763 11.2329ZM34.1007 11.2329C34.1267 11.2609 34.1619 11.2766 34.1987 11.2766C34.2354 11.2766 34.2706 11.2609 34.2966 11.2329C34.3226 11.205 34.3372 11.1671 34.3372 11.1276V8.14891C34.3372 8.10941 34.3226 8.07152 34.2966 8.04359C34.2706 8.01566 34.2354 7.99997 34.1987 7.99997C34.1619 7.99997 34.1267 8.01566 34.1007 8.04359C34.0747 8.07152 34.0601 8.10941 34.0601 8.14891V11.1276C34.0601 11.1671 34.0747 11.205 34.1007 11.2329ZM32.4384 11.2329C32.4643 11.2609 32.4996 11.2766 32.5363 11.2766C32.5731 11.2766 32.6083 11.2609 32.6343 11.2329C32.6602 11.205 32.6748 11.1671 32.6748 11.1276V8.14891C32.6748 8.10941 32.6602 8.07152 32.6343 8.04359C32.6083 8.01566 32.5731 7.99997 32.5363 7.99997C32.4996 7.99997 32.4643 8.01566 32.4384 8.04359C32.4124 8.07152 32.3978 8.10941 32.3978 8.14891V11.1276C32.3978 11.1671 32.4124 11.205 32.4384 11.2329ZM27.4513 11.2329C27.4773 11.2609 27.5126 11.2766 27.5493 11.2766C27.586 11.2766 27.6213 11.2609 27.6473 11.2329C27.6732 11.205 27.6878 11.1671 27.6878 11.1276V8.14891C27.6878 8.10941 27.6732 8.07152 27.6473 8.04359C27.6213 8.01566 27.586 7.99997 27.5493 7.99997C27.5126 7.99997 27.4773 8.01566 27.4513 8.04359C27.4254 8.07152 27.4108 8.10941 27.4108 8.14891V11.1276C27.4108 11.1671 27.4254 11.205 27.4513 11.2329ZM21.4541 20.8085H22.0082C22.39 20.8085 22.7008 20.4746 22.7008 20.0638V18.2766C22.7008 17.8658 22.39 17.5319 22.0082 17.5319H21.4541C21.0723 17.5319 20.7614 17.8658 20.7614 18.2766V20.0638C20.7616 20.2612 20.8347 20.4505 20.9645 20.5901C21.0944 20.7297 21.2704 20.8082 21.4541 20.8085ZM21.0385 18.2766C21.0385 18.0302 21.2249 17.8298 21.4541 17.8298H22.0082C22.2373 17.8298 22.4238 18.0302 22.4238 18.2766V20.0638C22.4238 20.3101 22.2373 20.5106 22.0082 20.5106H21.4541C21.2249 20.5106 21.0385 20.3101 21.0385 20.0638V18.2766ZM24.1267 20.7649C24.1526 20.7928 24.1879 20.8085 24.2246 20.8085C24.2614 20.8085 24.2966 20.7928 24.3226 20.7649C24.3486 20.7369 24.3632 20.699 24.3632 20.6595V17.6808C24.3632 17.6413 24.3486 17.6034 24.3226 17.5755C24.2966 17.5476 24.2614 17.5319 24.2246 17.5319C24.1879 17.5319 24.1526 17.5476 24.1267 17.5755C24.1007 17.6034 24.0861 17.6413 24.0861 17.6808V20.6595C24.0861 20.699 24.1007 20.7369 24.1267 20.7649ZM29.1137 20.7649C29.1397 20.7928 29.1749 20.8085 29.2116 20.8085C29.2484 20.8085 29.2836 20.7928 29.3096 20.7649C29.3356 20.7369 29.3502 20.699 29.3502 20.6595V17.6808C29.3502 17.6413 29.3356 17.6034 29.3096 17.5755C29.2836 17.5476 29.2484 17.5319 29.2116 17.5319C29.1749 17.5319 29.1397 17.5476 29.1137 17.5755C29.0877 17.6034 29.0731 17.6413 29.0731 17.6808V20.6595C29.0731 20.699 29.0877 20.7369 29.1137 20.7649ZM5.24627 25H4.69216C4.50852 24.9997 4.33248 24.9212 4.20263 24.7816C4.07278 24.642 3.99974 24.4527 3.99952 24.2553V22.4681C3.99952 22.0573 4.31037 21.7234 4.69216 21.7234H5.24627C5.62805 21.7234 5.93891 22.0573 5.93891 22.4681V24.2553C5.93891 24.6661 5.62805 25 5.24627 25ZM4.69216 22.0212C4.46303 22.0212 4.27657 22.2217 4.27657 22.4681V24.2553C4.27657 24.5016 4.46303 24.7021 4.69216 24.7021H5.24627C5.4754 24.7021 5.66185 24.5016 5.66185 24.2553V22.4681C5.66185 22.2217 5.4754 22.0212 5.24627 22.0212H4.69216ZM13.558 25H13.0038C12.8202 24.9998 12.6441 24.9213 12.5142 24.7817C12.3844 24.6421 12.3114 24.4527 12.3112 24.2553V22.4681C12.3112 22.0573 12.6218 21.7234 13.0038 21.7234H13.558C13.94 21.7234 14.2506 22.0573 14.2506 22.4681V24.2553C14.2506 24.6661 13.94 25 13.558 25ZM13.0038 22.0212C12.7747 22.0212 12.5883 22.2217 12.5883 22.4681V24.2553C12.5883 24.5016 12.7747 24.7021 13.0038 24.7021H13.558C13.7871 24.7021 13.9735 24.5016 13.9735 24.2553V22.4681C13.9735 22.2217 13.7871 22.0212 13.558 22.0212H13.0038ZM9.12506 25C9.08832 25 9.05308 24.9843 9.0271 24.9563C9.00112 24.9284 8.98653 24.8905 8.98653 24.851V21.8723C8.98653 21.8328 9.00112 21.7949 9.0271 21.767C9.05308 21.7391 9.08832 21.7234 9.12506 21.7234C9.1618 21.7234 9.19703 21.7391 9.22301 21.767C9.24899 21.7949 9.26359 21.8328 9.26359 21.8723V24.851C9.26359 24.8905 9.24899 24.9284 9.22301 24.9563C9.19703 24.9843 9.1618 25 9.12506 25ZM7.46272 25C7.42598 25 7.39074 24.9843 7.36477 24.9563C7.33879 24.9284 7.32419 24.8905 7.32419 24.851V21.8723C7.32419 21.8328 7.33879 21.7949 7.36477 21.767C7.39074 21.7391 7.42598 21.7234 7.46272 21.7234C7.49946 21.7234 7.5347 21.7391 7.56067 21.767C7.58665 21.7949 7.60125 21.8328 7.60125 21.8723V24.851C7.60125 24.8905 7.58665 24.9284 7.56067 24.9563C7.5347 24.9843 7.49946 25 7.46272 25ZM19.0991 25C19.0623 25 19.0271 24.9843 19.0011 24.9563C18.9752 24.9284 18.9606 24.8905 18.9606 24.851V21.8723C18.9606 21.8328 18.9752 21.7949 19.0011 21.767C19.0271 21.7391 19.0623 21.7234 19.0991 21.7234C19.1358 21.7234 19.1711 21.7391 19.197 21.767C19.223 21.7949 19.2376 21.8328 19.2376 21.8723V24.851C19.2376 24.8905 19.223 24.9284 19.197 24.9563C19.1711 24.9843 19.1358 25 19.0991 25ZM17.4367 25C17.4 25 17.3648 24.9843 17.3388 24.9563C17.3128 24.9284 17.2982 24.8905 17.2982 24.851V21.8723C17.2982 21.8328 17.3128 21.7949 17.3388 21.767C17.3648 21.7391 17.4 21.7234 17.4367 21.7234C17.4735 21.7234 17.5087 21.7391 17.5347 21.767C17.5607 21.7949 17.5753 21.8328 17.5753 21.8723V24.851C17.5753 24.8905 17.5607 24.9284 17.5347 24.9563C17.5087 24.9843 17.4735 25 17.4367 25ZM15.7744 25C15.7377 25 15.7024 24.9843 15.6765 24.9563C15.6505 24.9284 15.6359 24.8905 15.6359 24.851V21.8723C15.6359 21.8328 15.6505 21.7949 15.6765 21.767C15.7024 21.7391 15.7377 21.7234 15.7744 21.7234C15.8111 21.7234 15.8464 21.7391 15.8724 21.767C15.8983 21.7949 15.9129 21.8328 15.9129 21.8723V24.851C15.9129 24.8905 15.8983 24.9284 15.8724 24.9563C15.8464 24.9843 15.8111 25 15.7744 25ZM10.7874 25C10.7507 25 10.7154 24.9843 10.6894 24.9563C10.6635 24.9284 10.6489 24.8905 10.6489 24.851V21.8723C10.6489 21.8328 10.6635 21.7949 10.6894 21.767C10.7154 21.7391 10.7507 21.7234 10.7874 21.7234C10.8241 21.7234 10.8594 21.7391 10.8853 21.767C10.9113 21.7949 10.9259 21.8328 10.9259 21.8723V24.851C10.9259 24.8905 10.9113 24.9284 10.8853 24.9563C10.8594 24.9843 10.8241 25 10.7874 25ZM21.4541 25H22.0082C22.39 25 22.7008 24.6661 22.7008 24.2553V22.4681C22.7008 22.0573 22.39 21.7234 22.0082 21.7234H21.4541C21.0723 21.7234 20.7614 22.0573 20.7614 22.4681V24.2553C20.7616 24.4527 20.8347 24.642 20.9645 24.7816C21.0944 24.9212 21.2704 24.9997 21.4541 25ZM21.0385 22.4681C21.0385 22.2217 21.2249 22.0212 21.4541 22.0212H22.0082C22.2373 22.0212 22.4238 22.2217 22.4238 22.4681V24.2553C22.4238 24.5016 22.2373 24.7021 22.0082 24.7021H21.4541C21.2249 24.7021 21.0385 24.5016 21.0385 24.2553V22.4681ZM29.7658 25H30.3199C30.7019 25 31.0125 24.6661 31.0125 24.2553V22.4681C31.0125 22.0573 30.7019 21.7234 30.3199 21.7234H29.7658C29.3837 21.7234 29.0731 22.0573 29.0731 22.4681V24.2553C29.0733 24.4527 29.1463 24.6421 29.2761 24.7817C29.406 24.9213 29.5821 24.9998 29.7658 25ZM29.3502 22.4681C29.3502 22.2217 29.5366 22.0212 29.7658 22.0212H30.3199C30.549 22.0212 30.7354 22.2217 30.7354 22.4681V24.2553C30.7354 24.5016 30.549 24.7021 30.3199 24.7021H29.7658C29.5366 24.7021 29.3502 24.5016 29.3502 24.2553V22.4681ZM25.789 24.9563C25.815 24.9843 25.8502 25 25.887 25C25.9237 25 25.9589 24.9843 25.9849 24.9563C26.0109 24.9284 26.0255 24.8905 26.0255 24.851V21.8723C26.0255 21.8328 26.0109 21.7949 25.9849 21.767C25.9589 21.7391 25.9237 21.7234 25.887 21.7234C25.8502 21.7234 25.815 21.7391 25.789 21.767C25.763 21.7949 25.7484 21.8328 25.7484 21.8723V24.851C25.7484 24.8905 25.763 24.9284 25.789 24.9563ZM24.1267 24.9563C24.1526 24.9843 24.1879 25 24.2246 25C24.2614 25 24.2966 24.9843 24.3226 24.9563C24.3486 24.9284 24.3632 24.8905 24.3632 24.851V21.8723C24.3632 21.8328 24.3486 21.7949 24.3226 21.767C24.2966 21.7391 24.2614 21.7234 24.2246 21.7234C24.1879 21.7234 24.1526 21.7391 24.1267 21.767C24.1007 21.7949 24.0861 21.8328 24.0861 21.8723V24.851C24.0861 24.8905 24.1007 24.9284 24.1267 24.9563ZM32.4384 24.9563C32.4643 24.9843 32.4996 25 32.5363 25C32.5731 25 32.6083 24.9843 32.6343 24.9563C32.6602 24.9284 32.6748 24.8905 32.6748 24.851V21.8723C32.6748 21.8328 32.6602 21.7949 32.6343 21.767C32.6083 21.7391 32.5731 21.7234 32.5363 21.7234C32.4996 21.7234 32.4643 21.7391 32.4384 21.767C32.4124 21.7949 32.3978 21.8328 32.3978 21.8723V24.851C32.3978 24.8905 32.4124 24.9284 32.4384 24.9563ZM27.4513 24.9563C27.4773 24.9843 27.5126 25 27.5493 25C27.586 25 27.6213 24.9843 27.6473 24.9563C27.6732 24.9284 27.6878 24.8905 27.6878 24.851V21.8723C27.6878 21.8328 27.6732 21.7949 27.6473 21.767C27.6213 21.7391 27.586 21.7234 27.5493 21.7234C27.5126 21.7234 27.4773 21.7391 27.4513 21.767C27.4254 21.7949 27.4108 21.8328 27.4108 21.8723V24.851C27.4108 24.8905 27.4254 24.9284 27.4513 24.9563Z" fill="#1C2443"/>
</svg>
