<svg width="40" height="40" viewBox="0 0 40 40" fill="none" xmlns="http://www.w3.org/2000/svg">
<path d="M37.0703 3.32001H2.92969C2.15295 3.32088 1.40828 3.62982 0.859051 4.17906C0.309817 4.72829 0.000874057 5.47296 0 6.24969L0 26.7966C0.000874057 27.5733 0.309817 28.318 0.859051 28.8672C1.40828 29.4164 2.15295 29.7254 2.92969 29.7263H16.875V31.9919H12.6725C12.3854 31.9916 12.1057 32.0818 11.8728 32.2496C11.64 32.4175 11.4659 32.6544 11.3754 32.9267L10.7244 34.8799C10.6559 35.0854 10.6372 35.3042 10.6699 35.5184C10.7026 35.7325 10.7857 35.9359 10.9123 36.1116C11.039 36.2873 11.2056 36.4305 11.3984 36.5292C11.5913 36.6279 11.8048 36.6794 12.0214 36.6794H27.9786C28.1952 36.6794 28.4087 36.6279 28.6016 36.5292C28.7944 36.4305 28.961 36.2873 29.0877 36.1116C29.2143 35.9359 29.2974 35.7325 29.3301 35.5184C29.3628 35.3042 29.3441 35.0854 29.2756 34.8799L28.6246 32.9267C28.534 32.6543 28.36 32.4174 28.1272 32.2496C27.8943 32.0818 27.6145 31.9916 27.3275 31.9919H23.125V29.7263H32.9688V34.9216C32.9693 35.3876 33.1546 35.8344 33.4842 36.164C33.8137 36.4935 34.2605 36.6789 34.7266 36.6794H38.2422C38.7082 36.6789 39.155 36.4935 39.4846 36.164C39.8141 35.8344 39.9995 35.3876 40 34.9216V6.24969C39.9991 5.47296 39.6902 4.72829 39.1409 4.17906C38.5917 3.62982 37.847 3.32088 37.0703 3.32001V3.32001ZM27.3275 33.1638C27.3685 33.1637 27.4085 33.1766 27.4418 33.2006C27.475 33.2246 27.4999 33.2584 27.5128 33.2973L28.1639 35.2504C28.1737 35.2798 28.1763 35.3111 28.1717 35.3416C28.167 35.3722 28.1551 35.4013 28.137 35.4264C28.1189 35.4515 28.0951 35.4719 28.0676 35.486C28.04 35.5001 28.0095 35.5075 27.9786 35.5075H12.0214C11.9905 35.5075 11.96 35.5001 11.9324 35.486C11.9049 35.4719 11.8811 35.4515 11.863 35.4264C11.8449 35.4013 11.833 35.3722 11.8283 35.3416C11.8237 35.3111 11.8263 35.2798 11.8361 35.2504L12.4872 33.2973C12.5001 33.2584 12.525 33.2246 12.5582 33.2006C12.5915 33.1766 12.6315 33.1637 12.6725 33.1638L27.3275 33.1638ZM18.0469 31.9919V29.7263H21.9531V31.9919H18.0469ZM32.9688 20.9372V26.2106H3.51562V6.83563H36.4844V19.1794H34.7266C34.2605 19.1799 33.8137 19.3653 33.4842 19.6948C33.1546 20.0243 32.9693 20.4712 32.9688 20.9372V20.9372ZM38.8281 34.9216C38.828 35.0769 38.7662 35.2259 38.6563 35.3357C38.5465 35.4455 38.3975 35.5073 38.2422 35.5075H34.7266C34.5712 35.5073 34.4223 35.4455 34.3124 35.3357C34.2026 35.2259 34.1408 35.0769 34.1406 34.9216V20.9372C34.1408 20.7818 34.2026 20.6329 34.3124 20.5231C34.4223 20.4132 34.5712 20.3514 34.7266 20.3513H38.2422C38.3975 20.3514 38.5465 20.4132 38.6563 20.5231C38.7662 20.6329 38.828 20.7818 38.8281 20.9372V34.9216ZM38.8281 19.2802C38.64 19.2134 38.4418 19.1793 38.2422 19.1794H37.6562V6.24969C37.6562 6.09429 37.5945 5.94526 37.4846 5.83538C37.3747 5.72549 37.2257 5.66376 37.0703 5.66376H2.92969C2.77429 5.66376 2.62525 5.72549 2.51537 5.83538C2.40548 5.94526 2.34375 6.09429 2.34375 6.24969V26.7966C2.34375 26.952 2.40548 27.101 2.51537 27.2109C2.62525 27.3208 2.77429 27.3825 2.92969 27.3825H32.9688V28.5544H2.92969C2.46365 28.5539 2.01684 28.3685 1.6873 28.039C1.35776 27.7094 1.1724 27.2626 1.17188 26.7966V6.24969C1.1724 5.78365 1.35776 5.33685 1.6873 5.00731C2.01684 4.67777 2.46365 4.4924 2.92969 4.49188H37.0703C37.5364 4.4924 37.9832 4.67777 38.3127 5.00731C38.6422 5.33685 38.8276 5.78365 38.8281 6.24969V19.2802ZM35.943 22.2551C35.9576 22.2904 35.9757 22.3241 35.9969 22.3559C36.0401 22.42 36.0953 22.4752 36.1594 22.5184C36.1911 22.5396 36.2249 22.5576 36.2601 22.5723C36.2955 22.5867 36.3321 22.5977 36.3695 22.6051C36.4453 22.6208 36.5234 22.6208 36.5992 22.6051C36.6366 22.5977 36.6732 22.5867 36.7086 22.5723C36.7438 22.5576 36.7776 22.5396 36.8093 22.5184C36.8734 22.4752 36.9286 22.42 36.9719 22.3559C36.993 22.3241 37.0111 22.2904 37.0258 22.2551C37.0401 22.2198 37.0511 22.1832 37.0586 22.1458C37.0742 22.07 37.0742 21.9918 37.0586 21.9161C37.0511 21.8787 37.0401 21.8421 37.0258 21.8067C37.0111 21.7715 36.993 21.7377 36.9719 21.7059C36.9286 21.6418 36.8734 21.5867 36.8093 21.5434C36.7776 21.5222 36.7438 21.5042 36.7086 21.4895C36.6732 21.4752 36.6366 21.4642 36.5992 21.4567C36.5234 21.4411 36.4453 21.4411 36.3695 21.4567C36.3321 21.4642 36.2955 21.4752 36.2601 21.4895C36.2249 21.5042 36.1911 21.5222 36.1594 21.5434C36.0953 21.5867 36.0401 21.6418 35.9969 21.7059C35.9757 21.7377 35.9576 21.7715 35.943 21.8067C35.9286 21.8421 35.9176 21.8787 35.9101 21.9161C35.8945 21.9918 35.8945 22.07 35.9101 22.1458C35.9176 22.1832 35.9286 22.2198 35.943 22.2551V22.2551ZM37.0703 30.82H35.8984C35.743 30.82 35.594 30.8817 35.4841 30.9916C35.3742 31.1015 35.3125 31.2505 35.3125 31.4059C35.3125 31.5613 35.3742 31.7104 35.4841 31.8203C35.594 31.9301 35.743 31.9919 35.8984 31.9919H37.0703C37.2257 31.9919 37.3747 31.9301 37.4846 31.8203C37.5945 31.7104 37.6562 31.5613 37.6562 31.4059C37.6562 31.2505 37.5945 31.1015 37.4846 30.9916C37.3747 30.8817 37.2257 30.82 37.0703 30.82ZM37.0703 33.1638H35.8984C35.743 33.1638 35.594 33.2255 35.4841 33.3354C35.3742 33.4453 35.3125 33.5943 35.3125 33.7497C35.3125 33.9051 35.3742 34.0541 35.4841 34.164C35.594 34.2739 35.743 34.3356 35.8984 34.3356H37.0703C37.2257 34.3356 37.3747 34.2739 37.4846 34.164C37.5945 34.0541 37.6562 33.9051 37.6562 33.7497C37.6562 33.5943 37.5945 33.4453 37.4846 33.3354C37.3747 33.2255 37.2257 33.1638 37.0703 33.1638Z" fill="#1C2443"/>
</svg>
