<svg width="65" height="64" viewBox="0 0 65 64" fill="none" xmlns="http://www.w3.org/2000/svg">
<g clip-path="url(#clip0)">
<path d="M7.98837 64C7.59363 64 7.21506 63.8432 6.93593 63.5641C6.65681 63.2849 6.5 62.9064 6.5 62.5116V1.48837C6.5 1.09363 6.65681 0.715058 6.93593 0.435934C7.21506 0.15681 7.59363 0 7.98837 0C8.38311 0 8.76169 0.15681 9.04081 0.435934C9.31993 0.715058 9.47674 1.09363 9.47674 1.48837V62.5116C9.47674 62.9064 9.31993 63.2849 9.04081 63.5641C8.76169 63.8432 8.38311 64 7.98837 64Z" fill="#1C2443"/>
<path d="M64.5 11.5C64.5 12.325 63.8965 13 63.159 13H6.5V10H63.159C63.8965 10 64.5 10.66 64.5 11.5Z" fill="#1C2443"/>
<path d="M43.3069 12.1134L43.7041 12.5773L48.1135 17.732L49.6495 19.5361C49.9144 19.8325 50.2984 20 50.6691 20C50.9737 20 51.2782 19.8969 51.5166 19.7036C51.6519 19.5962 51.7638 19.4637 51.8459 19.3138C51.9279 19.1638 51.9784 18.9994 51.9945 18.8303C52.0105 18.6611 51.9917 18.4905 51.9392 18.3285C51.8867 18.1664 51.8016 18.0162 51.6887 17.8866L51.5563 17.732L47.1469 12.5773L45.3461 10.4639C45.1077 10.1933 44.7899 10.0258 44.4589 10H44.1014C43.8763 10.0515 43.6644 10.1418 43.479 10.2964C43.3449 10.4046 43.2341 10.5374 43.1529 10.6874C43.0716 10.8373 43.0216 11.0014 43.0056 11.1701C42.9896 11.3389 43.008 11.5091 43.0597 11.671C43.1114 11.8328 43.1954 11.9832 43.3069 12.1134V12.1134Z" fill="#1C2443"/>
<path d="M31.6931 12.1134L31.2959 12.5773L26.8865 17.732L25.3505 19.5361C25.0856 19.8325 24.7016 20 24.3309 20C24.0263 20 23.7218 19.8969 23.4834 19.7036C23.3481 19.5962 23.2362 19.4637 23.1541 19.3138C23.0721 19.1638 23.0216 18.9994 23.0055 18.8303C22.9895 18.6611 23.0083 18.4905 23.0608 18.3285C23.1133 18.1664 23.1984 18.0162 23.3113 17.8866L23.4437 17.732L27.8531 12.5773L29.6539 10.4639C29.8923 10.1933 30.2101 10.0258 30.5411 10H30.8986C31.1237 10.0515 31.3356 10.1418 31.521 10.2964C31.6551 10.4046 31.7659 10.5374 31.8471 10.6874C31.9284 10.8373 31.9784 11.0014 31.9944 11.1701C32.0104 11.3389 31.992 11.5091 31.9403 11.671C31.8886 11.8328 31.8046 11.9832 31.6931 12.1134V12.1134Z" fill="#1C2443"/>
<ellipse cx="8" cy="62" rx="7.5" ry="2" fill="#1C2443"/>
<path d="M25.1094 27.8281H23.0547L22.6641 29H21.418L23.5352 23.3125H24.6211L26.75 29H25.5039L25.1094 27.8281ZM23.3711 26.8789H24.793L24.0781 24.75L23.3711 26.8789ZM28.4531 26.9961V29H27.2812V23.3125H29.5C29.9271 23.3125 30.3021 23.3906 30.625 23.5469C30.9505 23.7031 31.2005 23.9258 31.375 24.2148C31.5495 24.5013 31.6367 24.8281 31.6367 25.1953C31.6367 25.7526 31.4453 26.1927 31.0625 26.5156C30.6823 26.8359 30.1549 26.9961 29.4805 26.9961H28.4531ZM28.4531 26.0469H29.5C29.8099 26.0469 30.0456 25.974 30.207 25.8281C30.3711 25.6823 30.4531 25.474 30.4531 25.2031C30.4531 24.9245 30.3711 24.6992 30.207 24.5273C30.043 24.3555 29.8164 24.2669 29.5273 24.2617H28.4531V26.0469ZM35.8672 26.5352H33.6172V28.0586H36.2578V29H32.4453V23.3125H36.25V24.2617H33.6172V25.6172H35.8672V26.5352ZM41.5742 29H40.4023V26.5625H38.1172V29H36.9453V23.3125H38.1172V25.6172H40.4023V23.3125H41.5742V29ZM47.9609 30.3984H46.8789V29H43.4492V30.3945H42.3398L42.2773 28.0586H42.707C42.9388 27.8659 43.1172 27.5833 43.2422 27.2109C43.3698 26.8359 43.4557 26.3724 43.5 25.8203L43.6641 23.3125H47.3906V28.0586H48.0547L47.9609 30.3984ZM44.0508 28.0586H46.2188V24.2617H44.7773L44.6797 25.7578C44.6016 26.7604 44.3919 27.5273 44.0508 28.0586ZM51.9453 27.8281H49.8906L49.5 29H48.2539L50.3711 23.3125H51.457L53.5859 29H52.3398L51.9453 27.8281ZM50.207 26.8789H51.6289L50.9141 24.75L50.207 26.8789Z" fill="#1C2443"/>
<rect x="18" y="19" width="39" height="15" rx="2" stroke="#1C2443" stroke-width="2"/>
</g>
<defs>
<clipPath id="clip0">
<rect width="64" height="64" fill="white" transform="translate(0.5)"/>
</clipPath>
</defs>
</svg>
