<svg width="65" height="64" viewBox="0 0 65 64" fill="none" xmlns="http://www.w3.org/2000/svg">
<g clip-path="url(#clip0)">
<path d="M57.0116 64C57.4064 64 57.7849 63.8432 58.0641 63.5641C58.3432 63.2849 58.5 62.9064 58.5 62.5116V1.48837C58.5 1.09363 58.3432 0.715058 58.0641 0.435934C57.7849 0.15681 57.4064 0 57.0116 0C56.6169 0 56.2383 0.15681 55.9592 0.435934C55.6801 0.715058 55.5233 1.09363 55.5233 1.48837V62.5116C55.5233 62.9064 55.6801 63.2849 55.9592 63.5641C56.2383 63.8432 56.6169 64 57.0116 64Z" fill="#1C2443"/>
<path d="M0.500004 11.5C0.500004 12.325 1.10347 13 1.84104 13H58.5V10H1.84104C1.10347 10 0.500004 10.66 0.500004 11.5Z" fill="#1C2443"/>
<path d="M21.6931 12.1134L21.2959 12.5773L16.8865 17.732L15.3505 19.5361C15.0856 19.8325 14.7016 20 14.3309 20C14.0263 20 13.7218 19.8969 13.4834 19.7036C13.3481 19.5962 13.2362 19.4637 13.1541 19.3138C13.0721 19.1638 13.0216 18.9994 13.0055 18.8303C12.9895 18.6611 13.0083 18.4905 13.0608 18.3285C13.1133 18.1664 13.1984 18.0162 13.3113 17.8866L13.4437 17.732L17.8531 12.5773L19.6539 10.4639C19.8923 10.1933 20.2101 10.0258 20.5411 10H20.8986C21.1237 10.0515 21.3356 10.1418 21.521 10.2964C21.6551 10.4046 21.7659 10.5374 21.8471 10.6874C21.9284 10.8373 21.9784 11.0014 21.9944 11.1701C22.0104 11.3389 21.992 11.5091 21.9403 11.671C21.8886 11.8328 21.8046 11.9832 21.6931 12.1134Z" fill="#1C2443"/>
<path d="M33.3069 12.1134L33.7041 12.5773L38.1135 17.732L39.6495 19.5361C39.9144 19.8325 40.2984 20 40.6691 20C40.9737 20 41.2782 19.8969 41.5166 19.7036C41.6519 19.5962 41.7638 19.4637 41.8459 19.3138C41.9279 19.1638 41.9784 18.9994 41.9945 18.8303C42.0105 18.6611 41.9917 18.4905 41.9392 18.3285C41.8867 18.1664 41.8016 18.0162 41.6887 17.8866L41.5563 17.732L37.1469 12.5773L35.3461 10.4639C35.1077 10.1933 34.7899 10.0258 34.4589 10H34.1014C33.8763 10.0515 33.6644 10.1418 33.479 10.2964C33.3449 10.4046 33.2341 10.5374 33.1529 10.6874C33.0716 10.8373 33.0216 11.0014 33.0056 11.1701C32.9896 11.3389 33.008 11.5091 33.0597 11.671C33.1114 11.8328 33.1954 11.9832 33.3069 12.1134Z" fill="#1C2443"/>
<ellipse rx="7.5" ry="2" transform="matrix(-1 0 0 1 57 62)" fill="#1C2443"/>
<path d="M12.1328 29H10.957V24.2617H8.67969V29H7.50781V23.3125H12.1328V29ZM14.3359 26.9961V29H13.1641V23.3125H15.3828C15.8099 23.3125 16.1849 23.3906 16.5078 23.5469C16.8333 23.7031 17.0833 23.9258 17.2578 24.2148C17.4323 24.5013 17.5195 24.8281 17.5195 25.1953C17.5195 25.7526 17.3281 26.1927 16.9453 26.5156C16.5651 26.8359 16.0378 26.9961 15.3633 26.9961H14.3359ZM14.3359 26.0469H15.3828C15.6927 26.0469 15.9284 25.974 16.0898 25.8281C16.2539 25.6823 16.3359 25.474 16.3359 25.2031C16.3359 24.9245 16.2539 24.6992 16.0898 24.5273C15.9258 24.3555 15.6992 24.2669 15.4102 24.2617H14.3359V26.0469ZM23 26.2852C23 26.8451 22.901 27.3359 22.7031 27.7578C22.5052 28.1797 22.2214 28.5052 21.8516 28.7344C21.4844 28.9635 21.0625 29.0781 20.5859 29.0781C20.1146 29.0781 19.694 28.9648 19.3242 28.7383C18.9544 28.5117 18.668 28.1888 18.4648 27.7695C18.2617 27.3477 18.1589 26.8633 18.1562 26.3164V26.0352C18.1562 25.4753 18.2565 24.9831 18.457 24.5586C18.6602 24.1315 18.9453 23.8047 19.3125 23.5781C19.6823 23.349 20.1042 23.2344 20.5781 23.2344C21.0521 23.2344 21.4727 23.349 21.8398 23.5781C22.2096 23.8047 22.4948 24.1315 22.6953 24.5586C22.8984 24.9831 23 25.474 23 26.0312V26.2852ZM21.8125 26.0273C21.8125 25.431 21.7057 24.9779 21.4922 24.668C21.2786 24.3581 20.974 24.2031 20.5781 24.2031C20.1849 24.2031 19.8815 24.3568 19.668 24.6641C19.4544 24.9688 19.3464 25.4167 19.3438 26.0078V26.2852C19.3438 26.8659 19.4505 27.3164 19.6641 27.6367C19.8776 27.957 20.1849 28.1172 20.5859 28.1172C20.9792 28.1172 21.2812 27.9635 21.4922 27.6562C21.7031 27.3464 21.8099 26.8958 21.8125 26.3047V26.0273ZM28.9922 30.3984H27.9102V29H24.4805V30.3945H23.3711L23.3086 28.0586H23.7383C23.9701 27.8659 24.1484 27.5833 24.2734 27.2109C24.401 26.8359 24.487 26.3724 24.5312 25.8203L24.6953 23.3125H28.4219V28.0586H29.0859L28.9922 30.3984ZM25.082 28.0586H27.25V24.2617H25.8086L25.7109 25.7578C25.6328 26.7604 25.4232 27.5273 25.082 28.0586ZM32.9766 27.8281H30.9219L30.5312 29H29.2852L31.4023 23.3125H32.4883L34.6172 29H33.3711L32.9766 27.8281ZM31.2383 26.8789H32.6602L31.9453 24.75L31.2383 26.8789ZM39.9453 26.6836H39.2695V29H38.0977V26.6836H37.4062L36.168 29H34.707L36.4805 25.9492L34.793 23.3125H36.25L37.5156 25.6055H38.0977V23.3125H39.2695V25.6055H39.8398L41.0742 23.3125H42.5273L40.8711 25.9453L42.6172 29H41.1523L39.9453 26.6836ZM46.3438 27.8281H44.2891L43.8984 29H42.6523L44.7695 23.3125H45.8555L47.9844 29H46.7383L46.3438 27.8281ZM44.6055 26.8789H46.0273L45.3125 24.75L44.6055 26.8789Z" fill="#1C2443"/>
<rect x="3.5" y="19" width="48" height="15" rx="2" stroke="#1C2443" stroke-width="2"/>
</g>
<defs>
<clipPath id="clip0">
<rect width="64" height="64" fill="white" transform="translate(0.5)"/>
</clipPath>
</defs>
</svg>
