<svg width="64" height="64" viewBox="0 0 64 64" fill="none" xmlns="http://www.w3.org/2000/svg">
<g clip-path="url(#clip0)">
<path d="M7.48837 64C7.09363 64 6.71506 63.8432 6.43593 63.5641C6.15681 63.2849 6 62.9064 6 62.5116V1.48837C6 1.09363 6.15681 0.715058 6.43593 0.435934C6.71506 0.15681 7.09363 0 7.48837 0C7.88311 0 8.26169 0.15681 8.54081 0.435934C8.81993 0.715058 8.97674 1.09363 8.97674 1.48837V62.5116C8.97674 62.9064 8.81993 63.2849 8.54081 63.5641C8.26169 63.8432 7.88311 64 7.48837 64Z" fill="#1C2443"/>
<path d="M64 11.5C64 12.325 63.3965 13 62.659 13H6V10H62.659C63.3965 10 64 10.66 64 11.5Z" fill="#1C2443"/>
<path d="M42.8069 12.1134L43.2041 12.5773L47.6135 17.732L49.1495 19.5361C49.4144 19.8325 49.7984 20 50.1691 20C50.4737 20 50.7782 19.8969 51.0166 19.7036C51.1519 19.5962 51.2638 19.4637 51.3459 19.3138C51.4279 19.1638 51.4784 18.9994 51.4945 18.8303C51.5105 18.6611 51.4917 18.4905 51.4392 18.3285C51.3867 18.1664 51.3016 18.0162 51.1887 17.8866L51.0563 17.732L46.6469 12.5773L44.8461 10.4639C44.6077 10.1933 44.2899 10.0258 43.9589 10H43.6014C43.3763 10.0515 43.1644 10.1418 42.979 10.2964C42.8449 10.4046 42.7341 10.5374 42.6529 10.6874C42.5716 10.8373 42.5216 11.0014 42.5056 11.1701C42.4896 11.3389 42.508 11.5091 42.5597 11.671C42.6114 11.8328 42.6954 11.9832 42.8069 12.1134V12.1134Z" fill="#1C2443"/>
<path d="M31.1931 12.1134L30.7959 12.5773L26.3865 17.732L24.8505 19.5361C24.5856 19.8325 24.2016 20 23.8309 20C23.5263 20 23.2218 19.8969 22.9834 19.7036C22.8481 19.5962 22.7362 19.4637 22.6541 19.3138C22.5721 19.1638 22.5216 18.9994 22.5055 18.8303C22.4895 18.6611 22.5083 18.4905 22.5608 18.3285C22.6133 18.1664 22.6984 18.0162 22.8113 17.8866L22.9437 17.732L27.3531 12.5773L29.1539 10.4639C29.3923 10.1933 29.7101 10.0258 30.0411 10H30.3986C30.6237 10.0515 30.8356 10.1418 31.021 10.2964C31.1551 10.4046 31.2659 10.5374 31.3471 10.6874C31.4284 10.8373 31.4784 11.0014 31.4944 11.1701C31.5104 11.3389 31.492 11.5091 31.4403 11.671C31.3886 11.8328 31.3046 11.9832 31.1931 12.1134V12.1134Z" fill="#1C2443"/>
<ellipse cx="7.5" cy="62" rx="7.5" ry="2" fill="#1C2443"/>
<path d="M24.6094 27.8281H22.5547L22.1641 29H20.918L23.0352 23.3125H24.1211L26.25 29H25.0039L24.6094 27.8281ZM22.8711 26.8789H24.293L23.5781 24.75L22.8711 26.8789ZM27.9531 26.9961V29H26.7812V23.3125H29C29.4271 23.3125 29.8021 23.3906 30.125 23.5469C30.4505 23.7031 30.7005 23.9258 30.875 24.2148C31.0495 24.5013 31.1367 24.8281 31.1367 25.1953C31.1367 25.7526 30.9453 26.1927 30.5625 26.5156C30.1823 26.8359 29.6549 26.9961 28.9805 26.9961H27.9531ZM27.9531 26.0469H29C29.3099 26.0469 29.5456 25.974 29.707 25.8281C29.8711 25.6823 29.9531 25.474 29.9531 25.2031C29.9531 24.9245 29.8711 24.6992 29.707 24.5273C29.543 24.3555 29.3164 24.2669 29.0273 24.2617H27.9531V26.0469ZM35.3672 26.5352H33.1172V28.0586H35.7578V29H31.9453V23.3125H35.75V24.2617H33.1172V25.6172H35.3672V26.5352ZM41.0742 29H39.9023V26.5625H37.6172V29H36.4453V23.3125H37.6172V25.6172H39.9023V23.3125H41.0742V29ZM47.4609 30.3984H46.3789V29H42.9492V30.3945H41.8398L41.7773 28.0586H42.207C42.4388 27.8659 42.6172 27.5833 42.7422 27.2109C42.8698 26.8359 42.9557 26.3724 43 25.8203L43.1641 23.3125H46.8906V28.0586H47.5547L47.4609 30.3984ZM43.5508 28.0586H45.7188V24.2617H44.2773L44.1797 25.7578C44.1016 26.7604 43.8919 27.5273 43.5508 28.0586ZM51.4453 27.8281H49.3906L49 29H47.7539L49.8711 23.3125H50.957L53.0859 29H51.8398L51.4453 27.8281ZM49.707 26.8789H51.1289L50.4141 24.75L49.707 26.8789Z" fill="#1C2443"/>
<rect x="17.5" y="19" width="39" height="15" rx="2" stroke="#1C2443" stroke-width="2"/>
</g>
<defs>
<clipPath id="clip0">
<rect width="64" height="64" fill="white"/>
</clipPath>
</defs>
</svg>
