<svg width="64" height="64" viewBox="0 0 64 64" fill="none" xmlns="http://www.w3.org/2000/svg">
<g clip-path="url(#clip0)">
<path d="M56.5116 64C56.9064 64 57.2849 63.8432 57.5641 63.5641C57.8432 63.2849 58 62.9064 58 62.5116V1.48837C58 1.09363 57.8432 0.715058 57.5641 0.435934C57.2849 0.15681 56.9064 0 56.5116 0C56.1169 0 55.7383 0.15681 55.4592 0.435934C55.1801 0.715058 55.0233 1.09363 55.0233 1.48837V62.5116C55.0233 62.9064 55.1801 63.2849 55.4592 63.5641C55.7383 63.8432 56.1169 64 56.5116 64Z" fill="#1C2443"/>
<path d="M2.99493e-06 11.5C2.99493e-06 12.325 0.60347 13 1.34104 13H58V10H1.34104C0.60347 10 2.99493e-06 10.66 2.99493e-06 11.5Z" fill="#1C2443"/>
<path d="M21.1931 12.1134L20.7959 12.5773L16.3865 17.732L14.8505 19.5361C14.5856 19.8325 14.2016 20 13.8309 20C13.5263 20 13.2218 19.8969 12.9834 19.7036C12.8481 19.5962 12.7362 19.4637 12.6541 19.3138C12.5721 19.1638 12.5216 18.9994 12.5055 18.8303C12.4895 18.6611 12.5083 18.4905 12.5608 18.3285C12.6133 18.1664 12.6984 18.0162 12.8113 17.8866L12.9437 17.732L17.3531 12.5773L19.1539 10.4639C19.3923 10.1933 19.7101 10.0258 20.0411 10H20.3986C20.6237 10.0515 20.8356 10.1418 21.021 10.2964C21.1551 10.4046 21.2659 10.5374 21.3471 10.6874C21.4284 10.8373 21.4784 11.0014 21.4944 11.1701C21.5104 11.3389 21.492 11.5091 21.4403 11.671C21.3886 11.8328 21.3046 11.9832 21.1931 12.1134V12.1134Z" fill="#1C2443"/>
<path d="M32.8069 12.1134L33.2041 12.5773L37.6135 17.732L39.1495 19.5361C39.4144 19.8325 39.7984 20 40.1691 20C40.4737 20 40.7782 19.8969 41.0166 19.7036C41.1519 19.5962 41.2638 19.4637 41.3459 19.3138C41.4279 19.1638 41.4784 18.9994 41.4945 18.8303C41.5105 18.6611 41.4917 18.4905 41.4392 18.3285C41.3867 18.1664 41.3016 18.0162 41.1887 17.8866L41.0563 17.732L36.6469 12.5773L34.8461 10.4639C34.6077 10.1933 34.2899 10.0258 33.9589 10H33.6014C33.3763 10.0515 33.1644 10.1418 32.979 10.2964C32.8449 10.4046 32.7341 10.5374 32.6529 10.6874C32.5716 10.8373 32.5216 11.0014 32.5056 11.1701C32.4896 11.3389 32.508 11.5091 32.5597 11.671C32.6114 11.8328 32.6954 11.9832 32.8069 12.1134V12.1134Z" fill="#1C2443"/>
<ellipse rx="7.5" ry="2" transform="matrix(-1 0 0 1 56.5 62)" fill="#1C2443"/>
<path d="M11.6328 29H10.457V24.2617H8.17969V29H7.00781V23.3125H11.6328V29ZM13.8359 26.9961V29H12.6641V23.3125H14.8828C15.3099 23.3125 15.6849 23.3906 16.0078 23.5469C16.3333 23.7031 16.5833 23.9258 16.7578 24.2148C16.9323 24.5013 17.0195 24.8281 17.0195 25.1953C17.0195 25.7526 16.8281 26.1927 16.4453 26.5156C16.0651 26.8359 15.5378 26.9961 14.8633 26.9961H13.8359ZM13.8359 26.0469H14.8828C15.1927 26.0469 15.4284 25.974 15.5898 25.8281C15.7539 25.6823 15.8359 25.474 15.8359 25.2031C15.8359 24.9245 15.7539 24.6992 15.5898 24.5273C15.4258 24.3555 15.1992 24.2669 14.9102 24.2617H13.8359V26.0469ZM22.5 26.2852C22.5 26.8451 22.401 27.3359 22.2031 27.7578C22.0052 28.1797 21.7214 28.5052 21.3516 28.7344C20.9844 28.9635 20.5625 29.0781 20.0859 29.0781C19.6146 29.0781 19.194 28.9648 18.8242 28.7383C18.4544 28.5117 18.168 28.1888 17.9648 27.7695C17.7617 27.3477 17.6589 26.8633 17.6562 26.3164V26.0352C17.6562 25.4753 17.7565 24.9831 17.957 24.5586C18.1602 24.1315 18.4453 23.8047 18.8125 23.5781C19.1823 23.349 19.6042 23.2344 20.0781 23.2344C20.5521 23.2344 20.9727 23.349 21.3398 23.5781C21.7096 23.8047 21.9948 24.1315 22.1953 24.5586C22.3984 24.9831 22.5 25.474 22.5 26.0312V26.2852ZM21.3125 26.0273C21.3125 25.431 21.2057 24.9779 20.9922 24.668C20.7786 24.3581 20.474 24.2031 20.0781 24.2031C19.6849 24.2031 19.3815 24.3568 19.168 24.6641C18.9544 24.9688 18.8464 25.4167 18.8438 26.0078V26.2852C18.8438 26.8659 18.9505 27.3164 19.1641 27.6367C19.3776 27.957 19.6849 28.1172 20.0859 28.1172C20.4792 28.1172 20.7812 27.9635 20.9922 27.6562C21.2031 27.3464 21.3099 26.8958 21.3125 26.3047V26.0273ZM28.4922 30.3984H27.4102V29H23.9805V30.3945H22.8711L22.8086 28.0586H23.2383C23.4701 27.8659 23.6484 27.5833 23.7734 27.2109C23.901 26.8359 23.987 26.3724 24.0312 25.8203L24.1953 23.3125H27.9219V28.0586H28.5859L28.4922 30.3984ZM24.582 28.0586H26.75V24.2617H25.3086L25.2109 25.7578C25.1328 26.7604 24.9232 27.5273 24.582 28.0586ZM32.4766 27.8281H30.4219L30.0312 29H28.7852L30.9023 23.3125H31.9883L34.1172 29H32.8711L32.4766 27.8281ZM30.7383 26.8789H32.1602L31.4453 24.75L30.7383 26.8789ZM39.4453 26.6836H38.7695V29H37.5977V26.6836H36.9062L35.668 29H34.207L35.9805 25.9492L34.293 23.3125H35.75L37.0156 25.6055H37.5977V23.3125H38.7695V25.6055H39.3398L40.5742 23.3125H42.0273L40.3711 25.9453L42.1172 29H40.6523L39.4453 26.6836ZM45.8438 27.8281H43.7891L43.3984 29H42.1523L44.2695 23.3125H45.3555L47.4844 29H46.2383L45.8438 27.8281ZM44.1055 26.8789H45.5273L44.8125 24.75L44.1055 26.8789Z" fill="#1C2443"/>
<rect x="3" y="19" width="48" height="15" rx="2" stroke="#1C2443" stroke-width="2"/>
</g>
<defs>
<clipPath id="clip0">
<rect width="64" height="64" fill="white"/>
</clipPath>
</defs>
</svg>
