<svg width="40" height="40" viewBox="0 0 40 40" fill="none" xmlns="http://www.w3.org/2000/svg">
<path fill-rule="evenodd" clip-rule="evenodd" d="M22 15.6609L25.5 14.2609V17.8379L22 19.2379V15.6609ZM13.3744 15.1378L17 17.2095V21.0333L19 22.1V15.8L13 12.5995V18.9L13.3744 19.0997V15.1378ZM12 15.0997V11.4994L15.5 9L24.5 5.5L28.5 11.4994V15.3497L30.0862 16.1427C30.0292 15.653 30 15.1502 30 14.6399C30 12.6383 30.444 10.7504 31.2502 9.32437C32.0978 7.82543 33.2514 6.99963 34.4986 6.99963C35.7458 6.99963 36.9009 7.82528 37.7484 9.32444C38.5546 10.7505 39 12.6382 39 14.6399C39 16.6416 38.5588 18.5294 37.7526 19.9554C37.7496 19.9608 37.7466 19.9661 37.7436 19.9714L38 20.0997V23.4994L40 24.4994L20 34.4994L0 24.4994L3 22.9994V19.5997L12 15.0997ZM35.3421 22.1524L37 22.9813V21.0212C36.4985 21.5841 35.9347 21.9675 35.3421 22.1524ZM31.3844 20.1735L28.5 18.7313V16.4677L30.2912 17.3633C30.5045 18.3218 30.8306 19.2029 31.256 19.9554C31.2981 20.0298 31.3409 20.1025 31.3844 20.1735ZM33.4188 21.2088L33.6855 21.3421C33.8349 21.4056 33.9875 21.4519 34.1428 21.4806V16.6814L32.6109 15.4364C32.5712 15.4042 32.5384 15.3647 32.5145 15.3202C32.4906 15.2757 32.476 15.2271 32.4715 15.1771C32.4671 15.1271 32.4728 15.0768 32.4884 15.029C32.5041 14.9812 32.5293 14.9368 32.5627 14.8984C32.596 14.8601 32.6369 14.8284 32.6829 14.8053C32.7289 14.7822 32.7792 14.768 32.8309 14.7637C32.8826 14.7594 32.9346 14.7649 32.984 14.78C33.0335 14.7952 33.0794 14.8195 33.1191 14.8518L34.1428 15.6814V11.7184C34.1428 11.617 34.1844 11.5198 34.2586 11.4481C34.3327 11.3764 34.4333 11.3361 34.5382 11.3361C34.643 11.3361 34.7436 11.3764 34.8177 11.4481C34.8919 11.5198 34.9335 11.617 34.9335 11.7184V17.8431L36.6483 16.8063C36.692 16.7797 36.7407 16.7618 36.7916 16.7535C36.8425 16.7453 36.8946 16.7469 36.9448 16.7582C36.9951 16.7695 37.0425 16.7904 37.0844 16.8196C37.1263 16.8487 37.1617 16.8856 37.1887 16.9282C37.2165 16.9706 37.2352 17.0178 37.244 17.0673C37.2528 17.1167 37.2515 17.1673 37.24 17.2162C37.2286 17.2652 37.2073 17.3114 37.1773 17.3524C37.1473 17.3933 37.1093 17.4281 37.0654 17.4549L34.9335 18.7443V21.4692C35.7243 21.2966 36.4621 20.6442 37.0589 19.5886C37.8026 18.2731 38.2096 16.5156 38.2096 14.6399C38.2096 12.7642 37.7973 11.0067 37.0535 9.69116C36.351 8.44864 35.4441 7.7643 34.4993 7.7643C33.5545 7.7643 32.648 8.44864 31.9455 9.69116C31.2018 11.0066 30.7936 12.7642 30.7936 14.6399C30.7936 16.5156 31.2061 18.2731 31.9498 19.5886C32.3776 20.3452 32.8743 20.8947 33.4188 21.2088ZM27.6326 19.4337L34.1428 22.6888V24.6173C34.1428 24.7187 34.1844 24.816 34.2586 24.8877C34.3327 24.9594 34.4333 24.9996 34.5382 24.9996C34.643 24.9996 34.7436 24.9594 34.8177 24.8877C34.8919 24.816 34.9335 24.7187 34.9335 24.6173V23.0842L37.7639 24.4994L20 33.3814L2.23607 24.4994L12.1136 19.5606L19.5 23.5L27.6326 19.4337ZM12 16.2178L4 20.2178V22.4814L12 18.4814V16.2178ZM16 20.5L14.3744 19.633V16.861L16 17.7899V20.5ZM20 22.132L27.5 18.382V12.4911L20 15.8249V22.132ZM19.6966 14.8654L27.2915 11.4894L24.1137 6.7232L16.5065 9.68154L19.6966 14.8654ZM18.1069 14.1902L13.4392 11.7004L15.6175 10.1449L18.1069 14.1902ZM23 17.7609L24.5 17.1609V15.7379L23 16.3379V17.7609Z" fill="#1C2443"/>
</svg>
