<svg width="40" height="40" viewBox="0 0 40 40" fill="none" xmlns="http://www.w3.org/2000/svg">
<path fill-rule="evenodd" clip-rule="evenodd" d="M39.7097 12.8637L20.3557 0.106774C20.14 -0.0355913 19.86 -0.0355913 19.6443 0.106774L0.29028 12.8637C0.108962 12.9833 0 13.1854 0 13.4022V17.6482C0 17.8857 0.130496 18.1037 0.339808 18.2164C0.54955 18.3291 0.803652 18.3175 1.00177 18.1867L3.73487 16.385V39.3548C3.73487 39.7114 4.02386 40 4.38089 40H9.59516H13.1892H16.415H23.4218H26.6476H30.4048H35.6191C35.9761 40 36.2651 39.7114 36.2651 39.3548V16.385L38.9982 18.1867C39.1059 18.2577 39.2299 18.2934 39.354 18.2934C39.4591 18.2934 39.5641 18.2676 39.6602 18.2164C39.8695 18.1037 40 17.8857 40 17.6482V13.4022C40 13.1854 39.891 12.9833 39.7097 12.8637ZM9.23726 17.9282V16.1506H30.7627V17.9282H30.4048H9.59516H9.23726ZM10.2412 21.9536H29.7584V23.3988H10.2412V21.9536ZM29.7588 19.2186V20.6633H10.2412V19.2186H29.7588ZM13.8357 38.7097V37.009H15.7694V38.7097H13.8357ZM13.7952 32.443H26.0416H27.3199V35.7192H26.6476H23.4218H16.415H13.1892H12.5169V32.443H13.7952ZM14.6514 31.1527L15.5735 27.9218H24.2637L25.1858 31.1527H14.6514ZM22.7757 37.009V38.7097H17.061V37.009H22.7757ZM24.0678 38.7097V37.009H26.0015V38.7097H24.0678ZM27.2936 38.7097V37.009H27.9659C28.3229 37.009 28.6119 36.7204 28.6119 36.3639V31.7979C28.6119 31.4413 28.3229 31.1527 27.9659 31.1527H26.5291L25.3728 27.0998C25.2935 26.8224 25.0403 26.6314 24.7517 26.6314H15.0855C14.7969 26.6314 14.5433 26.8224 14.4644 27.0998L13.3076 31.1527H11.8713C11.5143 31.1527 11.2253 31.4413 11.2253 31.7979V36.3643C11.2253 36.7209 11.5143 37.0095 11.8713 37.0095H12.5436V38.7097H10.2416V24.6891H29.7588V38.7097H27.2936ZM34.9731 38.7097H31.0509V19.2186H31.4088C31.7658 19.2186 32.0548 18.9299 32.0548 18.5734V15.5054C32.0548 15.1489 31.7658 14.8603 31.4088 14.8603H8.59124C8.2342 14.8603 7.94522 15.1489 7.94522 15.5054V18.5734C7.94522 18.9299 8.2342 19.2186 8.59124 19.2186H8.94914V38.7097H5.02692V15.5334L20 5.66418L34.9731 15.5334V38.7097ZM38.708 16.4495L35.9753 14.6482L35.9748 14.6478L20.3557 4.35278C20.14 4.21042 19.86 4.21042 19.6443 4.35278L4.02515 14.6478L4.02472 14.6482L1.29205 16.4495V13.7493L20 1.41817L38.708 13.7493V16.4495ZM16.6618 33.4357H14.3813V34.726H16.6618V33.4357ZM23.1758 33.4357H25.4562V34.726H23.1758V33.4357Z" fill="#1C2443"/>
</svg>
