<svg width="40" height="40" viewBox="0 0 40 40" fill="none" xmlns="http://www.w3.org/2000/svg">
<path fill-rule="evenodd" clip-rule="evenodd" d="M39.202 38.2964H38.2793V16.7433L38.7648 16.9851C38.8721 17.0386 38.9873 17.065 39.1021 17.065C39.2518 17.065 39.4007 17.0201 39.5309 16.9317C39.7609 16.7753 39.9002 16.5043 39.9002 16.2132V12.7919C39.9002 12.461 39.7207 12.16 39.4397 12.02L36.6917 10.6513V5.11877C36.6917 4.6484 36.3344 4.26704 35.8937 4.26704H31.1471C30.7064 4.26704 30.3491 4.6484 30.3491 5.11877V7.49244L15.4662 0.0799173C15.2332 -0.0361313 14.9621 -0.0252717 14.7381 0.109089L0.407182 8.70031C0.155711 8.85117 0 9.13501 0 9.44291V12.8642C0 13.1667 0.150324 13.4465 0.394913 13.5994C0.639601 13.7521 0.941746 13.755 1.18883 13.6069L1.62095 13.3479V38.2965H0.831222C0.390524 38.2965 0.033217 38.6779 0.033217 39.1483C0.033217 39.6186 0.390524 40 0.831222 40H2.41895H37.4813H39.202C39.6427 40 40 39.6186 40 39.1483C40 38.6779 39.6427 38.2964 39.202 38.2964ZM31.9451 8.25741V5.9705H35.0956V9.85653L31.9437 8.28668L31.9444 8.27439C31.9448 8.26877 31.9451 8.26314 31.9451 8.25741ZM1.59601 9.94139L15.1625 1.8084L38.3042 13.3345V14.876L15.4662 3.50122C15.3591 3.44778 15.2439 3.42127 15.1289 3.42127C14.9938 3.42127 14.8591 3.45789 14.7381 3.53039L1.59601 11.4089V9.94139ZM3.21696 38.2964V12.4192C3.21696 12.4138 3.21661 12.4084 3.21627 12.4031L3.21566 12.3917L15.1625 5.2296L36.6833 15.9483V38.2964H3.21696ZM18.3539 23.8236H5.61905C5.17835 23.8236 4.82104 24.205 4.82104 24.6753V35.7546C4.82104 36.2249 5.17835 36.6063 5.61905 36.6063H18.3539C18.7946 36.6063 19.1519 36.2249 19.1519 35.7546V24.6753C19.1519 24.205 18.7946 23.8236 18.3539 23.8236ZM6.41706 25.5271H11.1884V34.9028H6.41706V25.5271ZM17.5559 34.9028H12.7845V25.5271H17.5559V34.9028ZM21.5461 23.8236H34.3141C34.7548 23.8236 35.1121 24.205 35.1121 24.6753V35.7546C35.1121 36.2249 34.7548 36.6063 34.3141 36.6063H21.5461C21.1054 36.6063 20.748 36.2249 20.748 35.7546V24.6753C20.748 24.205 21.1054 23.8236 21.5461 23.8236ZM27.1321 25.5271H22.3441V34.9028H27.1321V25.5271ZM28.7281 34.9028H33.5161V25.5271H28.7281V34.9028ZM34.6516 17.0032L21.9414 10.6727C21.822 10.6132 21.6961 10.588 21.5728 10.5933C21.1243 10.5771 20.748 10.9647 20.748 11.4446V21.2928C20.748 21.7631 21.1054 22.1445 21.5461 22.1445H34.3141C34.7548 22.1445 35.1121 21.7631 35.1121 21.2928V17.7751C35.1121 17.4441 34.9326 17.1432 34.6516 17.0032ZM22.3441 12.7531L27.1321 15.1378V20.4409H22.3441V12.7531ZM33.5161 20.441H28.7281V15.9328L33.5161 18.3176V20.441ZM19.1448 9.71795C19.1462 9.73011 19.1476 9.74217 19.1485 9.75444C19.1499 9.77158 19.1506 9.78872 19.151 9.80586C19.1511 9.80869 19.1512 9.81148 19.1514 9.81427C19.1516 9.81809 19.1519 9.82189 19.1519 9.82577V21.2928C19.1519 21.7631 18.7946 22.1445 18.3539 22.1445H5.61905C5.17835 22.1445 4.82104 21.7631 4.82104 21.2928V14.4611C4.82104 14.46 4.82112 14.459 4.82119 14.458C4.82127 14.4569 4.82134 14.4559 4.82134 14.4548C4.81536 14.1506 4.96239 13.8529 5.22833 13.6934L15.0761 7.7897C15.0862 7.78367 15.0964 7.77846 15.1067 7.77324C15.1107 7.77119 15.1148 7.76913 15.1188 7.76703C15.3464 7.5871 15.657 7.5426 15.9317 7.67941L18.6915 9.05389C18.6944 9.05536 18.6971 9.057 18.6999 9.05866C18.7024 9.06012 18.7049 9.06159 18.7074 9.06294C18.7222 9.07071 18.7368 9.0788 18.7509 9.08753C18.7609 9.09371 18.7706 9.1001 18.7802 9.10659C18.7919 9.11447 18.8034 9.12256 18.8147 9.13108C18.8257 9.13949 18.8365 9.14811 18.8472 9.15705C18.8562 9.16472 18.865 9.17249 18.8738 9.18048C18.8851 9.19091 18.8962 9.20156 18.9068 9.21252C18.9145 9.2204 18.9219 9.22839 18.9293 9.23659C18.9397 9.24819 18.9498 9.2599 18.9595 9.27204C18.9629 9.27633 18.9663 9.28065 18.9696 9.285C18.9733 9.28982 18.9769 9.29469 18.9805 9.29961C18.9892 9.31133 18.9976 9.32314 19.0056 9.33528C19.0129 9.34625 19.0197 9.35743 19.0265 9.36882C19.0331 9.37989 19.0395 9.39096 19.0456 9.40235C19.0528 9.41556 19.0593 9.42897 19.0658 9.4426C19.0684 9.44807 19.071 9.45354 19.0734 9.45902C19.0756 9.4639 19.0778 9.46878 19.0799 9.47369C19.0863 9.48859 19.0921 9.5036 19.0977 9.51894C19.1013 9.52916 19.1049 9.53938 19.1082 9.5497C19.1132 9.56514 19.1177 9.58058 19.1218 9.59634C19.1249 9.60784 19.1276 9.61933 19.1302 9.63094C19.1334 9.64531 19.1362 9.65979 19.1387 9.67438C19.141 9.68854 19.143 9.7028 19.1447 9.71707L19.1448 9.71795ZM11.1884 12.074L6.41706 14.9345V20.4409H11.1884V12.074ZM12.7845 11.1172V20.4408H17.556V10.3682L15.6322 9.41002L12.7845 11.1172Z" fill="#1C2443"/>
</svg>
