<svg width="40" height="40" viewBox="0 0 40 40" fill="none" xmlns="http://www.w3.org/2000/svg">
<g clip-path="url(#clip0)">
<path d="M9.99358 16.0081C10.2555 16.0067 10.5151 16.0572 10.7575 16.1566C10.9999 16.256 11.2203 16.4024 11.406 16.5873C11.5917 16.7723 11.7391 16.9922 11.8397 17.2344C11.9402 17.4766 11.992 17.7363 11.992 17.9986V24.9971H15.9888V17.9986C15.9888 17.4707 16.1982 16.9644 16.571 16.5911C16.9438 16.2178 17.4494 16.0081 17.9766 16.0081H21.9734C22.5006 16.0081 23.0062 16.2178 23.379 16.5911C23.7518 16.9644 23.9612 17.4707 23.9612 17.9986V24.9971H27.958V17.9986C27.958 17.7363 28.0097 17.4766 28.1103 17.2344C28.2109 16.9922 28.3582 16.7723 28.5439 16.5873C28.7296 16.4024 28.95 16.256 29.1924 16.1566C29.4348 16.0572 29.6944 16.0067 29.9564 16.0081H33.9426C34.4708 16.0081 34.9775 16.2175 35.3519 16.5905C35.7264 16.9634 35.9382 17.4697 35.941 17.9986V24.9971H36.8926C37.0324 24.9827 37.1738 24.9978 37.3074 25.0415C37.441 25.0852 37.564 25.1566 37.6684 25.2509C37.7728 25.3452 37.8563 25.4604 37.9134 25.589C37.9705 25.7177 38 25.8569 38 25.9977C38 26.1384 37.9705 26.2776 37.9134 26.4063C37.8563 26.5349 37.7728 26.6501 37.6684 26.7444C37.564 26.8387 37.441 26.9101 37.3074 26.9538C37.1738 26.9975 37.0324 27.0126 36.8926 26.9982H35.941V37.9989C35.941 38.5296 35.7304 39.0386 35.3557 39.4139C34.9809 39.7891 34.4726 40 33.9426 40H29.9564C29.6935 40.0014 29.4331 39.9506 29.19 39.8505C28.9469 39.7504 28.726 39.6031 28.5402 39.417C28.3543 39.2309 28.2072 39.0097 28.1072 38.7663C28.0073 38.5229 27.9566 38.2621 27.958 37.9989V26.9982H23.9612V37.9989C23.9626 38.2612 23.9122 38.5211 23.8129 38.7639C23.7136 39.0066 23.5674 39.2273 23.3827 39.4132C23.198 39.5992 22.9784 39.7468 22.7365 39.8474C22.4947 39.9481 22.2353 40 21.9734 40H17.9766C17.7146 40 17.4553 39.9481 17.2134 39.8474C16.9716 39.7468 16.752 39.5992 16.5672 39.4132C16.3825 39.2273 16.2363 39.0066 16.137 38.7639C16.0378 38.5211 15.9874 38.2612 15.9888 37.9989V26.9982H11.992V37.9989C11.9934 38.2621 11.9426 38.5229 11.8427 38.7663C11.7428 39.0097 11.5956 39.2309 11.4098 39.417C11.2239 39.6031 11.0031 39.7504 10.76 39.8505C10.5169 39.9506 10.2564 40.0014 9.99358 40H6.00736C5.47735 40 4.96906 39.7891 4.59428 39.4139C4.21951 39.0386 4.00897 38.5296 4.00897 37.9989V26.9982H3.05735C2.78585 26.9985 2.52462 26.8943 2.32778 26.707C2.13094 26.5198 2.01357 26.2639 2 25.9924C2.01619 25.7227 2.13469 25.4694 2.33126 25.2844C2.52782 25.0994 2.78758 24.9966 3.05735 24.9971H4.00897V17.9986C4.01176 17.4697 4.22354 16.9634 4.59801 16.5905C4.97248 16.2175 5.47918 16.0081 6.00736 16.0081H9.99358ZM8.99967 17.9986H7.00127C6.74088 18.014 6.49534 18.1252 6.31187 18.3108C6.12841 18.4965 6.01995 18.7435 6.00736 19.0044V36.9401C6.00736 37.2041 6.11208 37.4572 6.29847 37.6439C6.48487 37.8305 6.73767 37.9354 7.00127 37.9354H8.99967C9.26327 37.9354 9.51607 37.8305 9.70247 37.6439C9.88886 37.4572 9.99358 37.2041 9.99358 36.9401V18.9409C9.96637 18.6913 9.85148 18.4596 9.66943 18.287C9.48738 18.1144 9.25 18.0122 8.99967 17.9986V17.9986ZM20.9689 17.9986H18.9811C18.7188 18.0114 18.4707 18.1215 18.285 18.3074C18.0993 18.4934 17.9894 18.7418 17.9766 19.0044V36.9401C17.9919 37.2009 18.103 37.4467 18.2884 37.6304C18.4738 37.8142 18.7205 37.9228 18.9811 37.9354H20.9689C21.2294 37.9228 21.4761 37.8142 21.6615 37.6304C21.847 37.4467 21.958 37.2009 21.9734 36.9401V18.9409C21.9458 18.6896 21.8294 18.4565 21.6452 18.2837C21.461 18.1108 21.2211 18.0097 20.9689 17.9986ZM32.9487 17.9986H30.9503C30.6899 18.014 30.4444 18.1252 30.2609 18.3108C30.0774 18.4965 29.969 18.7435 29.9564 19.0044V36.9401C29.9564 37.2041 30.0611 37.4572 30.2475 37.6439C30.4339 37.8305 30.6867 37.9354 30.9503 37.9354H32.9487C33.2123 37.9354 33.4651 37.8305 33.6515 37.6439C33.8379 37.4572 33.9426 37.2041 33.9426 36.9401V18.9409C33.9154 18.6913 33.8005 18.4596 33.6184 18.287C33.4364 18.1144 33.199 18.0122 32.9487 17.9986V17.9986ZM12.5735 0.507603C12.6862 0.719793 12.7105 0.96797 12.6412 1.19803C12.5718 1.4281 12.4145 1.62139 12.2034 1.73578C11.822 1.89851 11.4967 2.16994 11.2681 2.51632C11.0394 2.86269 10.9175 3.26873 10.9175 3.68393C10.9175 4.09913 11.0394 4.50517 11.2681 4.85155C11.4967 5.19793 11.822 5.46936 12.2034 5.63208C12.8767 5.94925 13.4482 6.44831 13.8535 7.07308C14.2589 7.69784 14.4821 8.42352 14.4979 9.1684C14.4859 9.87636 14.2831 10.5679 13.9109 11.1699C13.5386 11.7719 13.0108 12.262 12.3832 12.5882L12.1611 12.7153C12.0598 12.7793 11.9468 12.8226 11.8287 12.8428C11.7107 12.8631 11.5897 12.8599 11.4729 12.8333C11.3561 12.8068 11.2456 12.7574 11.1478 12.6881C11.05 12.6188 10.9668 12.5309 10.9029 12.4294C10.839 12.3279 10.7957 12.2148 10.7755 12.0966C10.7553 11.9783 10.7585 11.8572 10.785 11.7403C10.8116 11.6233 10.8608 11.5126 10.93 11.4147C10.9992 11.3168 11.087 11.2334 11.1884 11.1695V11.1695C11.5782 11.0067 11.9137 10.736 12.1553 10.389C12.3969 10.0421 12.5346 9.63334 12.5524 9.21075C12.535 8.79353 12.3996 8.38986 12.1618 8.0468C11.924 7.70374 11.5938 7.43544 11.2095 7.27319C10.5229 6.96584 9.93929 6.46681 9.5286 5.83587C9.11792 5.20493 8.89756 4.46882 8.89393 3.7157C8.89776 3.00595 9.09724 2.31104 9.47038 1.7076C9.84353 1.10416 10.3758 0.615618 11.0086 0.295847L11.2307 0.168794C11.338 0.0923118 11.4605 0.0400749 11.59 0.0156959C11.7194 -0.00868319 11.8526 -0.00462269 11.9803 0.027597C12.108 0.0598167 12.2271 0.119427 12.3296 0.202304C12.432 0.285182 12.5152 0.389349 12.5735 0.507603ZM27.2073 0.507603C27.3199 0.719793 27.3442 0.96797 27.2749 1.19803C27.2056 1.4281 27.0482 1.62139 26.8372 1.73578C26.4557 1.89851 26.1304 2.16994 25.9018 2.51632C25.6732 2.86269 25.5513 3.26873 25.5513 3.68393C25.5513 4.09913 25.6732 4.50517 25.9018 4.85155C26.1304 5.19793 26.4557 5.46936 26.8372 5.63208C27.5104 5.94925 28.0819 6.44831 28.4873 7.07308C28.8927 7.69784 29.1158 8.42352 29.1316 9.1684C29.1163 9.87561 28.9121 10.5658 28.5402 11.1672C28.1683 11.7686 27.6423 12.2593 27.0169 12.5882L26.7949 12.7153C26.6935 12.7793 26.5806 12.8226 26.4625 12.8428C26.3444 12.8631 26.2235 12.8599 26.1066 12.8333C25.9898 12.8068 25.8793 12.7574 25.7815 12.6881C25.6837 12.6188 25.6005 12.5309 25.5366 12.4294C25.4728 12.3279 25.4295 12.2148 25.4093 12.0966C25.389 11.9783 25.3923 11.8572 25.4188 11.7403C25.4453 11.6233 25.4946 11.5126 25.5638 11.4147C25.633 11.3168 25.7208 11.2334 25.8221 11.1695C26.2105 11.0046 26.5445 10.7333 26.7858 10.3868C27.0271 10.0403 27.1659 9.63268 27.1861 9.21075C27.1663 8.79419 27.0298 8.39161 26.7924 8.04899C26.5549 7.70638 26.226 7.43754 25.8433 7.27319C25.1749 6.9788 24.6033 6.50109 24.1946 5.89522C23.7859 5.28935 23.5567 4.58006 23.5335 3.84928C23.5102 3.1185 23.694 2.39605 24.0634 1.76539C24.4328 1.13473 24.9729 0.621594 25.6212 0.28526L25.8433 0.168794C26.0565 0.0568074 26.3053 0.0340443 26.5352 0.105496C26.7651 0.176948 26.9574 0.336783 27.0698 0.549954L27.2073 0.507603ZM19.8904 0.507603C20.003 0.719793 20.0273 0.96797 19.958 1.19803C19.8887 1.4281 19.7314 1.62139 19.5203 1.73578C19.1388 1.89851 18.8136 2.16994 18.5849 2.51632C18.3563 2.86269 18.2344 3.26873 18.2344 3.68393C18.2344 4.09913 18.3563 4.50517 18.5849 4.85155C18.8136 5.19793 19.1388 5.46936 19.5203 5.63208C20.1936 5.94925 20.7651 6.44831 21.1704 7.07308C21.5758 7.69784 21.7989 8.42352 21.8148 9.1684C21.8028 9.87636 21.6 10.5679 21.2277 11.1699C20.8555 11.7719 20.3276 12.262 19.7001 12.5882L19.478 12.7153C19.3753 12.7772 19.2614 12.8182 19.1428 12.836C19.0242 12.8538 18.9033 12.848 18.7869 12.819C18.6706 12.79 18.5611 12.7383 18.4647 12.6669C18.3683 12.5955 18.2868 12.5059 18.2251 12.403C18.1633 12.3001 18.1223 12.186 18.1046 12.0673C18.0868 11.9485 18.0926 11.8275 18.1215 11.7109C18.1505 11.5944 18.2021 11.4848 18.2734 11.3883C18.3446 11.2917 18.4342 11.2102 18.537 11.1483C18.9439 10.9954 19.297 10.7263 19.5526 10.3744C19.8082 10.0224 19.9551 9.60312 19.975 9.1684C19.9576 8.75118 19.8222 8.34751 19.5844 8.00445C19.3466 7.66139 19.0164 7.39309 18.6321 7.23083C17.9463 6.92241 17.3634 6.42312 16.9529 5.79242C16.5424 5.16172 16.3215 4.42617 16.3165 3.67335C16.3208 2.96231 16.5203 2.26615 16.8933 1.66109C17.2663 1.05603 17.7984 0.565395 18.4312 0.242909L18.6533 0.126443C18.8665 0.0144564 19.1153 -0.00830669 19.3452 0.063145C19.5752 0.134597 19.7674 0.294432 19.8798 0.507603H19.8904Z" fill="#1C2443"/>
</g>
<defs>
<clipPath id="clip0">
<rect width="40" height="40" fill="white"/>
</clipPath>
</defs>
</svg>
