<svg width="40" height="40" viewBox="0 0 40 40" fill="none" xmlns="http://www.w3.org/2000/svg">
<g clip-path="url(#clip0)">
<path fill-rule="evenodd" clip-rule="evenodd" d="M13.8841 24.6C13.8841 23.836 13.4867 23.0991 12.8214 22.6293C9.13651 20.0262 7.18451 15.7818 7.60006 11.2756C8.13828 5.432 12.7574 0.722667 18.5832 0.0782223C19.0543 0.0262223 19.5303 0 19.9996 0C26.8667 0 32.4538 5.58667 32.4538 12.4542C32.4538 16.5364 30.4463 20.3649 27.0845 22.6938C26.4774 23.1147 26.1152 23.8333 26.1152 24.6169V25.4733H26.3676C26.8583 25.4733 27.2565 25.8716 27.2565 26.3622C27.2565 26.8529 26.8583 27.2511 26.3676 27.2511H26.1152V29.0858H26.3676C26.8583 29.0858 27.2565 29.484 27.2565 29.9747C27.2565 30.4653 26.8583 30.8636 26.3676 30.8636H26.1152V32.4804C26.1152 32.5244 26.1123 32.5677 26.1094 32.6111C26.1075 32.6401 26.1056 32.669 26.1045 32.6982H26.3676C26.8583 32.6982 27.2565 33.0964 27.2565 33.5871C27.2565 34.0778 26.8583 34.476 26.3676 34.476H25.7765C25.4783 35.3422 24.9907 36.1387 24.3241 36.8053C23.6392 37.4902 22.8178 37.9876 21.9241 38.2831C21.9252 38.2891 21.9264 38.295 21.9275 38.301C21.9402 38.367 21.953 38.4328 21.953 38.5013C21.953 39.3293 21.0783 40 19.9996 40C18.921 40 18.0463 39.3293 18.0463 38.5018C18.0463 38.424 18.061 38.3493 18.0761 38.2747C16.3187 37.6689 14.9147 36.2556 14.2703 34.4764H13.6312C13.1405 34.4764 12.7423 34.0782 12.7423 33.5876C12.7423 33.0969 13.1405 32.6987 13.6312 32.6987H13.9032C13.9014 32.67 13.8995 32.6413 13.8976 32.6127C13.8908 32.5115 13.8841 32.4105 13.8841 32.3076V30.864H13.6316C13.141 30.864 12.7427 30.4658 12.7427 29.9751C12.7427 29.4844 13.141 29.0862 13.6316 29.0862H13.8841V27.2516H13.6316C13.141 27.2516 12.7427 26.8533 12.7427 26.3627C12.7427 25.872 13.141 25.4738 13.6316 25.4738H13.8841V24.6ZM19.9996 36.8187C21.1583 36.8187 22.2476 36.368 23.0667 35.5484C23.3867 35.2284 23.6485 34.8667 23.8512 34.4756H16.2036C16.933 35.844 18.3232 36.7884 19.9178 36.8178L19.9992 36.8187H19.9996ZM24.3315 32.6261C24.3347 32.5778 24.3378 32.5294 24.3378 32.4804H24.3374V30.8636H15.6614V32.3071C15.6614 32.4391 15.6698 32.5689 15.6805 32.6982H24.3272C24.3284 32.6741 24.3299 32.6501 24.3315 32.6261ZM15.6614 29.0858H24.3374V27.2511H15.6614V29.0858ZM18.7787 1.84533C13.7881 2.39689 9.83117 6.43156 9.36984 11.4387C9.0134 15.3049 10.6872 18.9453 13.8472 21.1773C14.9832 21.9796 15.6614 23.2591 15.6614 24.6V25.4733H24.3378V24.6169C24.3378 23.2507 24.9863 21.9853 26.0721 21.2329C28.9552 19.2356 30.6761 15.9538 30.6761 12.4542C30.6761 6.56711 25.8867 1.77778 19.9996 1.77778C19.5956 1.77778 19.185 1.80044 18.7787 1.84533ZM17.1056 12.3249C17.098 12.2982 17.0909 12.2716 17.086 12.244C17.0802 12.2116 17.078 12.1791 17.0758 12.1462C17.0754 12.1382 17.0743 12.1302 17.0732 12.1222C17.0718 12.1121 17.0704 12.102 17.0704 12.0916C17.0704 12.088 17.071 12.0846 17.0716 12.0811C17.0721 12.0777 17.0727 12.0742 17.0727 12.0707C17.0735 12.0402 17.0774 12.0104 17.0814 11.9804C17.0819 11.9767 17.0824 11.973 17.0829 11.9693C17.0839 11.9621 17.0849 11.9548 17.0858 11.9475C17.088 11.93 17.0902 11.9125 17.094 11.8956C17.0994 11.8714 17.1074 11.8482 17.1155 11.8248C17.1174 11.8194 17.1193 11.8139 17.1211 11.8084C17.1239 11.8006 17.1265 11.7927 17.1291 11.7848C17.1353 11.7659 17.1414 11.7472 17.1496 11.7293C17.1572 11.7117 17.167 11.6948 17.1769 11.6777C17.1807 11.6711 17.1845 11.6645 17.1882 11.6578L17.1902 11.6543C17.205 11.6275 17.2197 11.6012 17.2376 11.5764C17.2398 11.5733 17.2416 11.5701 17.2433 11.5669C17.2451 11.5637 17.2469 11.5604 17.2491 11.5573L21.3291 6.13422C21.6242 5.74267 22.1811 5.66311 22.574 5.95822C22.966 6.25334 23.0451 6.81067 22.75 7.20311L19.7407 11.2031H22.0393C22.0431 11.2031 22.0467 11.2037 22.0502 11.2042C22.0538 11.2048 22.0573 11.2053 22.0611 11.2053C22.094 11.2062 22.1264 11.2107 22.1589 11.2151C22.1658 11.2161 22.1728 11.2169 22.1797 11.2178C22.1985 11.2201 22.2173 11.2224 22.2358 11.2267C22.2587 11.232 22.2808 11.2395 22.303 11.2471C22.3087 11.249 22.3145 11.251 22.3202 11.2529C22.3269 11.2552 22.3337 11.2574 22.3404 11.2596C22.3613 11.2664 22.3822 11.2732 22.402 11.2822C22.4195 11.29 22.4364 11.2997 22.4532 11.3094C22.4594 11.313 22.4656 11.3165 22.4718 11.32C22.5002 11.3356 22.5282 11.3511 22.5544 11.3698C22.5576 11.372 22.5608 11.3738 22.564 11.3756C22.5672 11.3773 22.5704 11.3791 22.5736 11.3813C22.5827 11.3882 22.5905 11.3961 22.5984 11.404C22.6043 11.4099 22.6102 11.4158 22.6167 11.4213L22.6229 11.4267C22.6444 11.4453 22.6657 11.4638 22.6851 11.4844C22.7051 11.5053 22.7221 11.5274 22.7394 11.5499L22.7407 11.5516C22.758 11.5738 22.7749 11.596 22.79 11.62C22.8056 11.6449 22.8189 11.6711 22.8318 11.6973L22.8342 11.7023C22.8458 11.7259 22.8573 11.7493 22.8669 11.7742C22.8763 11.7986 22.8833 11.8236 22.8903 11.8487C22.8913 11.852 22.8922 11.8554 22.8931 11.8587C22.9007 11.8853 22.9078 11.912 22.9127 11.9396C22.9179 11.9686 22.9199 11.9979 22.9218 12.0277C22.922 12.0307 22.9222 12.0338 22.9224 12.0369C22.9228 12.0449 22.9239 12.0529 22.925 12.0609C22.9264 12.071 22.9278 12.0811 22.9278 12.0916C22.9278 12.0951 22.9272 12.0986 22.9267 12.102C22.9261 12.1054 22.9256 12.1089 22.9256 12.1124C22.9248 12.1429 22.9208 12.1727 22.9168 12.2028C22.9163 12.2064 22.9158 12.2101 22.9153 12.2138C22.9143 12.2211 22.9134 12.2283 22.9124 12.2356C22.9102 12.2532 22.908 12.2706 22.9042 12.2876C22.8988 12.3117 22.8908 12.3349 22.8827 12.3583C22.8809 12.3637 22.879 12.3692 22.8771 12.3747C22.8744 12.3826 22.8717 12.3905 22.8691 12.3984C22.863 12.4172 22.8568 12.4359 22.8487 12.4538C22.841 12.4714 22.8312 12.4883 22.8214 12.5054C22.8176 12.512 22.8137 12.5186 22.81 12.5253L22.808 12.5289C22.7932 12.5556 22.7786 12.582 22.7607 12.6067C22.7584 12.6098 22.7567 12.613 22.7549 12.6162C22.7531 12.6194 22.7513 12.6227 22.7491 12.6258L18.6691 18.0484C18.494 18.2809 18.2273 18.4031 17.9576 18.4031C17.7718 18.4031 17.5842 18.3453 17.4242 18.2249C17.0322 17.9298 16.9531 17.3724 17.2482 16.98L20.2576 12.9804H17.9589H17.9584H17.958C17.9578 12.9804 17.9576 12.9803 17.9573 12.9802C17.9571 12.9801 17.9569 12.98 17.9567 12.98C17.8709 12.98 17.7896 12.964 17.7109 12.9409C17.694 12.936 17.6776 12.9311 17.6611 12.9253C17.5811 12.8969 17.5064 12.8582 17.4389 12.8093C17.4368 12.8077 17.4344 12.8067 17.4319 12.8057C17.4296 12.8047 17.4273 12.8037 17.4251 12.8022C17.416 12.7954 17.4081 12.7875 17.4003 12.7796C17.3944 12.7737 17.3885 12.7677 17.382 12.7622C17.3799 12.7604 17.3778 12.7586 17.3757 12.7568C17.3543 12.7382 17.333 12.7198 17.3136 12.6991C17.2936 12.6783 17.2766 12.6562 17.2593 12.6337L17.258 12.632C17.2407 12.6098 17.2238 12.5876 17.2087 12.5636C17.1931 12.5387 17.1798 12.5124 17.1669 12.4862L17.1644 12.4812C17.1528 12.4576 17.1413 12.4343 17.1318 12.4093C17.1224 12.385 17.1154 12.36 17.1083 12.3348C17.1074 12.3315 17.1065 12.3282 17.1056 12.3249Z" fill="#1C2443"/>
</g>
<defs>
<clipPath id="clip0">
<rect width="40" height="40" fill="white"/>
</clipPath>
</defs>
</svg>
