<svg width="40" height="40" viewBox="0 0 40 40" fill="none" xmlns="http://www.w3.org/2000/svg">
<path fill-rule="evenodd" clip-rule="evenodd" d="M38.5161 38.7086H39.3548C39.7419 38.7086 40 38.9669 40 39.3543C40 39.7417 39.7419 40 39.3548 40H0.645161C0.258064 40 0 39.7417 0 39.3543C0 38.9669 0.258064 38.7086 0.645161 38.7086H20.6452V36.6424C20.6452 35.0928 21.7419 33.866 23.2258 33.6077V21.9208H9.67742C8.58064 21.9208 7.74194 22.7602 7.74194 23.8578C7.74194 24.2452 7.48387 24.5035 7.09677 24.5035H1.93548C1.54839 24.5035 1.29032 24.2452 1.29032 23.8578V21.4042C1.29032 18.0466 3.67742 15.1411 7.03226 14.4954L23.2258 11.6543V10.9441C23.2258 10.1257 23.7521 9.38834 24.5161 9.1172V7.84479C24.5161 7.52194 24.3226 7.26367 24 7.1991L8 3.77696C7.09677 3.58326 6.3871 2.80843 6.45161 1.90447C6.58065 0.0965454 8.19355 -0.0971608 8.77419 0.0319766L32.2581 4.48722C33.7419 4.74549 34.8387 6.10143 34.8387 7.58651V9.11942C35.5749 9.38304 36.129 10.0843 36.129 10.9441L36.0645 33.6077C37.4839 33.866 38.5161 35.0928 38.5161 36.5779V38.7086ZM34.7742 33.5431H24.5161V10.9441C24.5161 10.5567 24.8387 10.2984 25.1613 10.2984H34.1935C34.5806 10.2984 34.8387 10.6212 34.8387 10.9441L34.7742 33.5431ZM23.2258 20.6294H9.67742C8.12903 20.6294 6.83871 21.7271 6.51613 23.2121H2.58065V21.4042C2.58065 18.6278 4.58065 16.3033 7.29032 15.7867L23.2258 13.0103V20.6294ZM21.9355 38.7086V36.5779C21.9355 35.6093 22.7097 34.7699 23.7419 34.7699H35.4839C36.4516 34.7699 37.2903 35.5448 37.2903 36.5779V38.7086H21.9355ZM25.8064 7.84479C25.8064 6.94083 25.1613 6.10143 24.2581 5.90773L8.25806 2.48559C7.93548 2.42102 7.74194 2.16274 7.74194 1.90447C7.74194 1.71076 7.93548 1.19421 8.51613 1.32335L32.0645 5.77859C32.9677 5.9723 33.5484 6.74712 33.5484 7.58651V9.00703H25.8064V7.84479ZM5.37655 26.22C6.12924 27.3535 7.74214 29.9605 7.74214 31.434C7.74214 33.361 6.34429 34.8345 4.51633 34.8345C2.68838 34.8345 1.29053 33.361 1.29053 31.434C1.29053 29.9605 2.90343 27.3535 3.65612 26.22C3.9787 25.6532 4.94644 25.6532 5.37655 26.22ZM4.51633 27.0863C4.51633 27.0863 2.3658 29.783 2.3658 31.434C2.3658 32.6282 3.30892 33.631 4.51633 33.631C5.72375 33.631 6.66687 32.6282 6.66687 31.434C6.66687 29.783 4.51633 27.0863 4.51633 27.0863Z" fill="#1C2443"/>
</svg>
