<svg width="25" height="25" viewBox="0 0 25 25" fill="none" xmlns="http://www.w3.org/2000/svg">
<g clip-path="url(#clip0)">
<path fill-rule="evenodd" clip-rule="evenodd" d="M5.95223 4.76191C5.95223 2.79249 7.28744 1.19055 8.92862 1.19055C10.5698 1.19055 11.9045 2.79249 11.9045 4.76191C11.9045 6.73132 10.5698 8.33326 8.92862 8.33326C7.28744 8.33326 5.95223 6.73132 5.95223 4.76191ZM7.14268 4.76191C7.14268 6.07485 7.94391 7.14281 8.92862 7.14281V7.1444C9.91332 7.1444 10.714 6.07432 10.714 4.76191C10.714 3.44949 9.91332 2.381 8.92862 2.381C7.94391 2.381 7.14268 3.44896 7.14268 4.76191ZM2.97639 5.95233C1.33256 5.95233 0 7.5548 0 9.52369C0 11.4926 1.33521 13.0956 2.97639 13.0956C4.61757 13.0956 5.95226 11.4931 5.95226 9.52369C5.95226 7.55427 4.61704 5.95233 2.97639 5.95233ZM2.97639 11.9046C1.99169 11.9046 1.19045 10.8366 1.19045 9.52369C1.19045 8.21074 1.99169 7.14438 2.97639 7.14438C3.9611 7.14438 4.7618 8.21287 4.7618 9.52528C4.7618 10.8377 3.96269 11.9046 2.97639 11.9046ZM12.5 9.52374C8.37348 9.52374 4.16899 14.3317 4.16899 19.0505C4.16899 19.094 4.16899 19.1375 4.17323 19.181C4.17573 19.5816 4.21121 19.9814 4.27929 20.3762L4.29148 20.4361C4.29148 20.4419 4.3058 20.5056 4.30739 20.5119C4.3795 20.821 4.48401 21.1215 4.61919 21.4086C4.65069 21.4848 4.68609 21.5593 4.72524 21.6319C4.78092 21.7379 4.83713 21.844 4.90394 21.95C4.97076 22.0561 5.0381 22.1584 5.09325 22.2316C5.14616 22.3094 5.20408 22.3836 5.26665 22.4538C5.9947 23.3139 7.03668 23.807 8.12532 23.807C8.97632 23.8069 9.80092 23.5115 10.4585 22.9713C10.9153 22.5788 11.4741 22.3237 12.07 22.2358C12.3534 22.2001 12.6403 22.2001 12.9237 22.2358C13.5292 22.3238 14.0969 22.5832 14.5596 22.9835C15.2147 23.5173 16.034 23.8085 16.879 23.8081C18.0419 23.8081 19.1268 23.2593 19.8485 22.3127C19.8835 22.2687 19.9185 22.2189 19.9339 22.195L19.949 22.1736L19.949 22.1736L19.9491 22.1736L19.9492 22.1735C19.9883 22.1184 20.0289 22.0613 20.0823 21.9797C20.1428 21.8774 20.2038 21.7703 20.2647 21.6541C20.2843 21.6158 20.3033 21.5749 20.3196 21.54L20.3196 21.5399L20.3369 21.503C20.4951 21.1866 20.6155 20.8527 20.6958 20.5082L20.7112 20.4345L20.7277 20.3545C20.7945 19.9663 20.83 19.5733 20.8337 19.1794C20.8369 19.1359 20.838 19.0924 20.838 19.0489C20.8332 14.3317 16.6266 9.52374 12.5 9.52374ZM19.5372 20.2351C19.476 20.4949 19.384 20.7465 19.2631 20.9844L19.2058 21.1064C19.1581 21.1965 19.1072 21.2861 19.0727 21.3461C19.0494 21.3866 19.0249 21.4196 18.9962 21.4582L18.9962 21.4582C18.9824 21.4767 18.9678 21.4964 18.9518 21.5189L18.9073 21.5804C18.4051 22.239 17.6648 22.6171 16.8763 22.6171C16.3087 22.6174 15.7582 22.423 15.3168 22.0662C14.6832 21.5247 13.9085 21.1749 13.0833 21.0576C12.694 21.0046 12.2992 21.0046 11.9098 21.0576C11.0935 21.1752 10.3271 21.5214 9.69915 22.0561C9.2553 22.419 8.69973 22.6176 8.12638 22.6182C7.38825 22.6182 6.67716 22.2783 6.17287 21.6828C6.13465 21.6402 6.09923 21.5952 6.06682 21.5481C6.01379 21.476 5.96342 21.4007 5.91834 21.3286C5.87473 21.2592 5.8383 21.1895 5.79458 21.1059L5.7651 21.0496C5.75361 21.0296 5.74368 21.0087 5.7354 20.9871C5.72683 20.9623 5.71692 20.9381 5.70571 20.9144C5.60376 20.7029 5.525 20.4811 5.4708 20.2526L5.45118 20.1572C5.39348 19.8253 5.36421 19.4892 5.36368 19.1523C5.36368 19.1285 5.36368 19.0723 5.35944 19.0495C5.35944 14.9982 9.02996 10.7131 12.5 10.7131C15.9701 10.7131 19.6427 14.9993 19.6427 19.0505V19.0829C19.64 19.1063 19.6386 19.1298 19.6385 19.1534C19.6385 19.4902 19.6098 19.8264 19.5526 20.1583L19.5372 20.2351ZM16.0711 1.19055C14.4273 1.19055 13.0953 2.79249 13.0953 4.76191C13.0953 6.73132 14.4299 8.33326 16.0711 8.33326C17.7123 8.33326 19.0475 6.73132 19.0475 4.76191C19.0475 2.79249 17.7123 1.19055 16.0711 1.19055ZM16.0711 7.14281C15.0864 7.14281 14.2857 6.07485 14.2857 4.76191C14.2857 3.44896 15.0864 2.381 16.0711 2.381C17.0558 2.381 17.8555 3.44949 17.8555 4.76191C17.8555 6.07432 17.0558 7.1444 16.0711 7.1444V7.14281ZM19.0478 9.52369C19.0478 7.5548 20.383 5.95233 22.0236 5.95233C23.6648 5.95233 25 7.55427 25 9.52369C25 11.4931 23.6643 13.0956 22.0236 13.0956C20.383 13.0956 19.0478 11.4926 19.0478 9.52369ZM20.2382 9.52369C20.2382 10.8366 21.0389 11.9046 22.0236 11.9046C23.0083 11.9046 23.8096 10.8377 23.8096 9.52528C23.8096 8.21287 23.0099 7.14438 22.0236 7.14438C21.0373 7.14438 20.2382 8.21074 20.2382 9.52369Z" fill="#D9D9D9"/>
</g>
<defs>
<clipPath id="clip0">
<rect width="25" height="25" fill="white"/>
</clipPath>
</defs>
</svg>
