<svg width="25" height="25" viewBox="0 0 25 25" fill="none" xmlns="http://www.w3.org/2000/svg">
<path fill-rule="evenodd" clip-rule="evenodd" d="M16.7723 7.87655C16.7723 7.87655 19.0403 8.29849 18.6711 11.7795C18.6711 11.9377 18.7238 12.096 18.8293 12.2014C18.9348 12.3069 19.1457 12.3597 19.304 12.3069C19.304 12.3069 21.3609 11.8322 22.6795 12.7816C23.3651 13.2563 23.7343 14.0474 23.8398 15.155C23.8398 15.4187 24.1035 15.6297 24.3673 15.6297H24.42C24.6837 15.6297 24.8947 15.366 24.8947 15.1023C24.7892 13.6782 24.2618 12.6234 23.3124 11.9905C22.1521 11.1466 20.6225 11.1466 19.7786 11.2521C19.8314 8.66769 18.5656 7.61283 17.7217 7.19089C18.4073 5.92507 17.9327 4.39553 17.8799 4.29005C17.7744 4.02634 17.5107 3.86811 17.247 3.97359C16.9833 4.07908 16.8251 4.34279 16.9305 4.6065C16.9305 4.6065 17.4052 6.24153 16.5613 7.08541C16.4031 7.24364 16.4031 7.40186 16.4559 7.61283C16.4559 7.71832 16.6141 7.87655 16.7723 7.87655ZM10.8125 9.08963C12.2365 10.7247 15.0846 10.7247 16.3505 10.6719C16.2977 12.2542 16.6142 13.2563 17.2471 13.8365C18.091 14.6276 19.304 14.5749 20.1479 14.4694C20.8336 14.4166 21.361 14.4694 21.572 14.6803C21.7064 14.8148 21.6885 14.9873 21.6801 15.0685C21.6787 15.0829 21.6775 15.0944 21.6775 15.1023C21.6247 15.366 21.7829 15.6297 22.0467 15.6825H22.1521C22.3631 15.6825 22.5741 15.5242 22.6268 15.2605C22.6268 15.2551 22.6285 15.243 22.631 15.225C22.6527 15.0679 22.7363 14.4625 22.3104 13.942C21.8884 13.4673 21.0973 13.2563 20.0424 13.3618C18.9876 13.4673 18.3547 13.3618 17.9327 12.9926C17.458 12.5179 17.2471 11.5685 17.3526 9.98626C17.3526 9.82803 17.2998 9.6698 17.1943 9.56432C17.0889 9.45883 16.9306 9.40609 16.7724 9.45883C16.7696 9.45883 16.7562 9.46036 16.7331 9.46299L16.7331 9.463C16.3281 9.50925 12.9481 9.8953 11.5509 8.29849C10.8652 7.50736 10.7597 6.34702 11.2344 4.81748C11.3399 4.55377 11.1817 4.23731 10.918 4.18457C10.707 4.23731 10.3905 4.39554 10.3378 4.65926C9.75763 6.55799 9.91586 8.03478 10.8125 9.08963ZM24.4726 21.0622C24.7363 21.0622 25 20.8512 25 20.5348V17.0538C25 16.7901 24.789 16.5263 24.4726 16.5263H0.527426C0.263713 16.5263 0 16.7373 0 17.0538V20.5348C0 20.7985 0.21097 21.0622 0.527426 21.0622H24.4726ZM1.05485 17.5812V20.0601H6.11814V17.5812H1.05485ZM21.8354 20.0601V17.5812H20.6224V20.0601H21.8354ZM23.9451 20.0601V17.5812H22.8375V20.0601H23.9451ZM7.173 20.0601V17.5812H19.6203V20.0601H7.173Z" fill="#D9D9D9"/>
</svg>
