<svg width="25" height="25" viewBox="0 0 25 25" fill="none" xmlns="http://www.w3.org/2000/svg">
<g clip-path="url(#clip0)">
<path d="M4.77775 10.2273H20.2189V2.27273C20.2189 1.64513 19.7251 1.13636 19.116 1.13636H5.88069C5.27155 1.13636 4.77775 1.64513 4.77775 2.27273V10.2273ZM20.2189 11.3636H4.77775V22.7273C4.77775 23.3549 5.27155 23.8636 5.88069 23.8636H19.116C19.7251 23.8636 20.2189 23.3549 20.2189 22.7273V11.3636ZM8.16708 8.0375C8.16708 8.3513 7.92018 8.60568 7.61561 8.60568C7.31104 8.60568 7.06414 8.3513 7.06414 8.0375V4.4625C7.06414 4.1487 7.31104 3.89432 7.61561 3.89432C7.92018 3.89432 8.16708 4.1487 8.16708 4.4625V8.0375ZM8.16708 17.1284C8.16708 17.4422 7.92018 17.6966 7.61561 17.6966C7.31104 17.6966 7.06414 17.4422 7.06414 17.1284V13.5534C7.06414 13.2396 7.31104 12.9852 7.61561 12.9852C7.92018 12.9852 8.16708 13.2396 8.16708 13.5534V17.1284ZM5.88069 0H19.116C20.3343 0 21.3219 1.01753 21.3219 2.27273V22.7273C21.3219 23.9825 20.3343 25 19.116 25H5.88069C4.66241 25 3.6748 23.9825 3.6748 22.7273V2.27273C3.6748 1.01753 4.66241 0 5.88069 0Z" fill="#D9D9D9"/>
</g>
<defs>
<clipPath id="clip0">
<rect width="25" height="25" fill="white"/>
</clipPath>
</defs>
</svg>
