<svg width="25" height="25" viewBox="0 0 25 25" fill="none" xmlns="http://www.w3.org/2000/svg">
<g clip-path="url(#clip0)">
<path d="M22.9167 5.83232H18.75C18.6395 5.83232 18.5335 5.87621 18.4554 5.95436C18.3772 6.0325 18.3333 6.13848 18.3333 6.24898V8.74898C18.3333 8.85949 18.3772 8.96547 18.4554 9.04361C18.5335 9.12175 18.6395 9.16565 18.75 9.16565H22.9167C23.0272 9.16565 23.1332 9.12175 23.2113 9.04361C23.2894 8.96547 23.3333 8.85949 23.3333 8.74898V6.24898C23.3333 6.13848 23.2894 6.0325 23.2113 5.95436C23.1332 5.87621 23.0272 5.83232 22.9167 5.83232ZM22.5 8.33232H19.1667V6.66565H22.5V8.33232ZM6.55 10.8323C6.64641 10.8311 6.73989 10.799 6.81667 10.7407C6.9 10.6681 6.95246 10.5664 6.9633 10.4564C6.97415 10.3464 6.94256 10.2364 6.875 10.149C6.74167 9.99065 6.75 9.91565 6.94167 9.54065C7.07791 9.34173 7.16419 9.11289 7.19321 8.87354C7.22222 8.63418 7.1931 8.39136 7.10833 8.16565C7.08985 8.11224 7.0607 8.06315 7.02265 8.02137C6.9846 7.97959 6.93844 7.94598 6.887 7.92259C6.83555 7.89921 6.77988 7.88653 6.72338 7.88534C6.66688 7.88415 6.61072 7.89446 6.55833 7.91565C6.4579 7.96128 6.37915 8.04417 6.33871 8.14681C6.29828 8.24945 6.29934 8.36378 6.34167 8.46565C6.425 8.65732 6.34167 8.79898 6.20833 9.11565C6.03667 9.33434 5.94337 9.6043 5.94337 9.88232C5.94337 10.1603 6.03667 10.4303 6.20833 10.649C6.24507 10.706 6.2957 10.7527 6.35547 10.7848C6.41523 10.8169 6.48218 10.8332 6.55 10.8323V10.8323ZM8.70833 10.8323C8.8022 10.8311 8.89304 10.7989 8.96667 10.7407C9.00977 10.7059 9.04552 10.663 9.07184 10.6143C9.09815 10.5656 9.1145 10.5121 9.11993 10.4571C9.12536 10.402 9.11977 10.3464 9.10347 10.2935C9.08717 10.2406 9.06049 10.1915 9.025 10.149C8.89167 9.99065 8.9 9.91565 9.1 9.54065C9.23685 9.3419 9.32285 9.1126 9.35046 8.87287C9.37806 8.63315 9.34643 8.39031 9.25833 8.16565C9.23745 8.11549 9.20676 8.07001 9.16807 8.03186C9.12939 7.99372 9.08347 7.96367 9.03303 7.94349C8.98258 7.92332 8.92862 7.91341 8.87429 7.91435C8.81997 7.91529 8.76638 7.92707 8.71667 7.94898C8.66621 7.97073 8.62055 8.00224 8.58232 8.0417C8.54409 8.08116 8.51405 8.12779 8.49391 8.17891C8.47377 8.23002 8.46394 8.28462 8.46499 8.33955C8.46603 8.39448 8.47793 8.44867 8.5 8.49898C8.58333 8.69065 8.5 8.83232 8.35833 9.14898C8.18939 9.36885 8.09781 9.63837 8.09781 9.91565C8.09781 10.1929 8.18939 10.4624 8.35833 10.6823C8.40055 10.7333 8.45433 10.7736 8.5152 10.7996C8.57606 10.8257 8.64227 10.8369 8.70833 10.8323ZM23.75 4.16565H1.25C0.918479 4.16565 0.600537 4.29735 0.366117 4.53177C0.131696 4.76619 0 5.08413 0 5.41565V17.9157C0 18.2472 0.131696 18.5651 0.366117 18.7995C0.600537 19.034 0.918479 19.1657 1.25 19.1657H1.66667V19.999C1.66667 20.22 1.75446 20.432 1.91074 20.5882C2.06702 20.7445 2.27899 20.8323 2.5 20.8323H3.33333C3.55435 20.8323 3.76631 20.7445 3.92259 20.5882C4.07887 20.432 4.16667 20.22 4.16667 19.999V19.1657H20.8333V19.999C20.8333 20.22 20.9211 20.432 21.0774 20.5882C21.2337 20.7445 21.4457 20.8323 21.6667 20.8323H22.5C22.721 20.8323 22.933 20.7445 23.0893 20.5882C23.2455 20.432 23.3333 20.22 23.3333 19.999V19.1657H23.75C24.0815 19.1657 24.3995 19.034 24.6339 18.7995C24.8683 18.5651 25 18.2472 25 17.9157V5.41565C25 5.08413 24.8683 4.76619 24.6339 4.53177C24.3995 4.29735 24.0815 4.16565 23.75 4.16565V4.16565ZM3.33333 20.4157V19.999H2.5V19.1657H3.33333V19.999V20.4157ZM16.6667 18.3323H1.25C1.13949 18.3323 1.03351 18.2884 0.955372 18.2103C0.877232 18.1321 0.833333 18.0262 0.833333 17.9157V5.41565C0.833333 5.30514 0.877232 5.19916 0.955372 5.12102C1.03351 5.04288 1.13949 4.99898 1.25 4.99898H16.6667V18.3323ZM22.5 20.4157V19.999H21.6667V19.1657H22.5V19.999V20.4157ZM24.1667 17.9157C24.1667 18.0262 24.1228 18.1321 24.0446 18.2103C23.9665 18.2884 23.8605 18.3323 23.75 18.3323H17.5V4.99898H23.75C23.8605 4.99898 23.9665 5.04288 24.0446 5.12102C24.1228 5.19916 24.1667 5.30514 24.1667 5.41565V17.9157ZM22.0833 16.6657H19.5833C19.4728 16.6657 19.3668 16.7095 19.2887 16.7877C19.2106 16.8658 19.1667 16.9718 19.1667 17.0823C19.1667 17.1928 19.2106 17.2988 19.2887 17.3769C19.3668 17.4551 19.4728 17.499 19.5833 17.499H22.0833C22.1938 17.499 22.2998 17.4551 22.378 17.3769C22.4561 17.2988 22.5 17.1928 22.5 17.0823C22.5 16.9718 22.4561 16.8658 22.378 16.7877C22.2998 16.7095 22.1938 16.6657 22.0833 16.6657ZM13.75 11.6656C13.8605 11.6656 13.9665 11.6218 14.0446 11.5436C14.1228 11.4655 14.1667 11.3595 14.1667 11.249V8.74898C14.1667 8.63848 14.1228 8.53249 14.0446 8.45435C13.9665 8.37621 13.8605 8.33232 13.75 8.33232C13.6395 8.33232 13.5335 8.37621 13.4554 8.45435C13.3772 8.53249 13.3333 8.63848 13.3333 8.74898V11.249C13.3333 11.3595 13.3772 11.4655 13.4554 11.5436C13.5335 11.6218 13.6395 11.6656 13.75 11.6656ZM10.5917 10.8323C10.6855 10.8311 10.7764 10.7989 10.85 10.7407C10.8931 10.7059 10.9289 10.663 10.9552 10.6143C10.9815 10.5656 10.9978 10.5121 11.0033 10.4571C11.0087 10.402 11.0031 10.3464 10.9868 10.2935C10.9705 10.2406 10.9438 10.1915 10.9083 10.149C10.775 9.99065 10.7833 9.91565 10.9833 9.54065C11.1202 9.3419 11.2062 9.1126 11.2338 8.87287C11.2614 8.63315 11.2298 8.39031 11.1417 8.16565C11.1241 8.1098 11.0949 8.05827 11.0561 8.01444C11.0173 7.97061 10.9697 7.93545 10.9164 7.91126C10.863 7.88707 10.8052 7.87439 10.7467 7.87405C10.6881 7.8737 10.6301 7.8857 10.5765 7.90926C10.5229 7.93282 10.4749 7.96742 10.4356 8.01079C10.3962 8.05416 10.3665 8.10534 10.3483 8.16098C10.33 8.21662 10.3237 8.27548 10.3298 8.33372C10.3358 8.39196 10.3541 8.44827 10.3833 8.49898C10.4667 8.69065 10.3833 8.83232 10.2417 9.14898C10.0727 9.36885 9.98114 9.63837 9.98114 9.91565C9.98114 10.1929 10.0727 10.4624 10.2417 10.6823C10.2839 10.7333 10.3377 10.7736 10.3985 10.7996C10.4594 10.8257 10.5256 10.8369 10.5917 10.8323ZM20 12.0823C20 11.9718 19.9561 11.8658 19.878 11.7877C19.7998 11.7095 19.6938 11.6656 19.5833 11.6656H18.75C18.6395 11.6656 18.5335 11.7095 18.4554 11.7877C18.3772 11.8658 18.3333 11.9718 18.3333 12.0823C18.3333 12.1928 18.3772 12.2988 18.4554 12.3769C18.5335 12.4551 18.6395 12.499 18.75 12.499H19.5833C19.6938 12.499 19.7998 12.4551 19.878 12.3769C19.9561 12.2988 20 12.1928 20 12.0823ZM18.75 10.8323H19.5833C19.6938 10.8323 19.7998 10.7884 19.878 10.7103C19.9561 10.6321 20 10.5262 20 10.4156C20 10.3051 19.9561 10.1992 19.878 10.121C19.7998 10.0429 19.6938 9.99898 19.5833 9.99898H18.75C18.6395 9.99898 18.5335 10.0429 18.4554 10.121C18.3772 10.1992 18.3333 10.3051 18.3333 10.4156C18.3333 10.5262 18.3772 10.6321 18.4554 10.7103C18.5335 10.7884 18.6395 10.8323 18.75 10.8323ZM22.0833 14.999H19.5833C19.4728 14.999 19.3668 15.0429 19.2887 15.121C19.2106 15.1992 19.1667 15.3051 19.1667 15.4156C19.1667 15.5262 19.2106 15.6321 19.2887 15.7103C19.3668 15.7884 19.4728 15.8323 19.5833 15.8323H22.0833C22.1938 15.8323 22.2998 15.7884 22.378 15.7103C22.4561 15.6321 22.5 15.5262 22.5 15.4156C22.5 15.3051 22.4561 15.1992 22.378 15.121C22.2998 15.0429 22.1938 14.999 22.0833 14.999ZM2.91667 17.499H14.5833C14.9149 17.499 15.2328 17.3673 15.4672 17.1329C15.7016 16.8984 15.8333 16.5805 15.8333 16.249V7.08232C15.8333 6.7508 15.7016 6.43285 15.4672 6.19843C15.2328 5.96401 14.9149 5.83232 14.5833 5.83232H2.91667C2.58515 5.83232 2.2672 5.96401 2.03278 6.19843C1.79836 6.43285 1.66667 6.7508 1.66667 7.08232V16.249C1.66667 16.5805 1.79836 16.8984 2.03278 17.1329C2.2672 17.3673 2.58515 17.499 2.91667 17.499ZM2.5 7.08232C2.5 6.97181 2.5439 6.86583 2.62204 6.78769C2.70018 6.70955 2.80616 6.66565 2.91667 6.66565H14.5833C14.6938 6.66565 14.7998 6.70955 14.878 6.78769C14.9561 6.86583 15 6.97181 15 7.08232V14.999H10.6917C11.1566 14.6625 11.5396 14.2255 11.8123 13.7206C12.085 13.2156 12.2403 12.6556 12.2667 12.0823C12.2667 11.9718 12.2228 11.8658 12.1446 11.7877C12.0665 11.7095 11.9605 11.6656 11.85 11.6656H5.18333C5.07283 11.6656 4.96685 11.7095 4.88871 11.7877C4.81057 11.8658 4.76667 11.9718 4.76667 12.0823C4.79459 12.6562 4.95142 13.2164 5.22553 13.7213C5.49964 14.2262 5.88398 14.6629 6.35 14.999H2.5V7.08232ZM8.51667 14.999C7.83942 14.926 7.20081 14.6472 6.68679 14.2002C6.17277 13.7532 5.80803 13.1595 5.64167 12.499H11.4C11.2331 13.1607 10.8671 13.7553 10.3515 14.2024C9.83585 14.6495 9.1954 14.9276 8.51667 14.999V14.999ZM2.5 15.8323H15V16.249C15 16.3595 14.9561 16.4655 14.878 16.5436C14.7998 16.6218 14.6938 16.6657 14.5833 16.6657H2.91667C2.80616 16.6657 2.70018 16.6218 2.62204 16.5436C2.5439 16.4655 2.5 16.3595 2.5 16.249V15.8323ZM22.0833 13.3323H19.5833C19.4728 13.3323 19.3668 13.3762 19.2887 13.4544C19.2106 13.5325 19.1667 13.6385 19.1667 13.749C19.1667 13.8595 19.2106 13.9655 19.2887 14.0436C19.3668 14.1218 19.4728 14.1656 19.5833 14.1656H22.0833C22.1938 14.1656 22.2998 14.1218 22.378 14.0436C22.4561 13.9655 22.5 13.8595 22.5 13.749C22.5 13.6385 22.4561 13.5325 22.378 13.4544C22.2998 13.3762 22.1938 13.3323 22.0833 13.3323ZM22.0833 9.99898C21.8361 9.99898 21.5944 10.0723 21.3889 10.2096C21.1833 10.347 21.0231 10.5422 20.9285 10.7706C20.8339 10.999 20.8091 11.2504 20.8574 11.4928C20.9056 11.7353 21.0246 11.9581 21.1994 12.1329C21.3743 12.3077 21.597 12.4267 21.8395 12.475C22.0819 12.5232 22.3333 12.4984 22.5617 12.4038C22.7901 12.3092 22.9853 12.149 23.1227 11.9434C23.26 11.7379 23.3333 11.4962 23.3333 11.249C23.3333 10.9175 23.2016 10.5995 22.9672 10.3651C22.7328 10.1307 22.4149 9.99898 22.0833 9.99898ZM22.0833 11.6656C22.0009 11.6656 21.9204 11.6412 21.8518 11.5954C21.7833 11.5496 21.7299 11.4846 21.6984 11.4084C21.6668 11.3323 21.6586 11.2485 21.6747 11.1677C21.6907 11.0869 21.7304 11.0126 21.7887 10.9544C21.847 10.8961 21.9212 10.8564 22.002 10.8403C22.0829 10.8242 22.1666 10.8325 22.2428 10.864C22.3189 10.8956 22.384 10.949 22.4298 11.0175C22.4756 11.086 22.5 11.1666 22.5 11.249C22.5 11.3595 22.4561 11.4655 22.378 11.5436C22.2998 11.6218 22.1938 11.6656 22.0833 11.6656Z" fill="#D9D9D9"/>
</g>
<defs>
<clipPath id="clip0">
<rect width="25" height="25" fill="white"/>
</clipPath>
</defs>
</svg>
