<svg width="25" height="25" viewBox="0 0 25 25" fill="none" xmlns="http://www.w3.org/2000/svg">
<path fill-rule="evenodd" clip-rule="evenodd" d="M6.2627 0C4.97101 0 3.91895 1.05203 3.91895 2.34375V14.0625V21.0937C3.91895 21.5492 4.02581 22.1159 4.38739 22.5983C4.74872 23.0803 5.38231 23.437 6.26085 23.4375V24.6094C6.26086 24.713 6.30202 24.8124 6.37527 24.8857C6.44853 24.9589 6.54788 25 6.65148 25H8.21398C8.31758 25 8.41693 24.9589 8.49018 24.8857C8.56344 24.8124 8.6046 24.713 8.60461 24.6094V23.4375H16.4171V24.6094C16.4171 24.713 16.4583 24.8124 16.5315 24.8857C16.6048 24.9589 16.7042 25 16.8077 25H18.3703C18.4738 25 18.5732 24.9589 18.6465 24.8857C18.7197 24.8124 18.7609 24.713 18.7609 24.6094V23.4374C19.2216 23.4342 19.7803 23.3249 20.2535 22.9675C20.7339 22.6047 21.0836 21.9709 21.0836 21.0937V14.0625V2.34375C21.0836 1.05203 20.0315 0 18.7398 0H6.2627ZM8.21398 22.6562H6.65148H6.2627C5.57835 22.6562 5.23702 22.4287 5.013 22.1298C4.78899 21.831 4.7002 21.4194 4.7002 21.0937V14.0625V7.81245H20.3023V14.0625V21.0937C20.3023 21.7791 20.0775 22.1218 19.782 22.345C19.4865 22.5681 19.0777 22.6562 18.7398 22.6562H18.3703H16.8077H16.4583V21.875C16.4583 21.4124 16.3209 20.9964 16.0235 20.7138C15.726 20.4311 15.3104 20.3125 14.8546 20.3125H14.2992H12.5322H10.7637H10.1671C9.7114 20.3125 9.29942 20.4325 9.01204 20.7199C8.72465 21.0073 8.60463 21.4192 8.60463 21.875V22.6562H8.21398ZM9.38588 22.6562H15.6771V21.875C15.6771 21.5562 15.5984 21.3878 15.4848 21.2799C15.3712 21.1719 15.1802 21.0937 14.8546 21.0937H14.2992H12.5322H10.7637H10.1671C9.84161 21.0937 9.66765 21.169 9.56441 21.2722C9.46117 21.3755 9.38588 21.5494 9.38588 21.875V22.6562ZM20.3023 7.03119H4.7002V2.34375C4.7002 1.47133 5.39031 0.781251 6.2627 0.781251H18.7398C19.6122 0.781251 20.3023 1.47133 20.3023 2.34375V7.03119ZM7.82335 23.4375V24.2188H7.0421V23.4375H7.82335ZM17.9796 23.4375V24.2188H17.1984V23.4375H17.9796ZM12.5109 1.5625C11.6525 1.5625 10.9484 2.2666 10.9484 3.12496C10.9484 3.98324 11.6525 4.68746 12.5109 4.68746C13.3692 4.68746 14.0734 3.98324 14.0734 3.12496C14.0734 2.2666 13.3692 1.5625 12.5109 1.5625ZM12.5109 2.34376C12.947 2.34376 13.2921 2.68879 13.2921 3.12496C13.2921 3.56105 12.947 3.90621 12.5109 3.90621C12.0748 3.90621 11.7296 3.56105 11.7296 3.12496C11.7296 2.68879 12.0748 2.34376 12.5109 2.34376ZM6.92863 6.1357C7.00188 6.06244 7.04304 5.96311 7.04304 5.85951C7.04304 5.75591 7.00188 5.65658 6.92863 5.58333C6.85537 5.51007 6.75601 5.46889 6.65241 5.46889C6.54881 5.46889 6.44945 5.51007 6.37619 5.58333C6.30294 5.65658 6.26178 5.75591 6.26178 5.85951C6.26178 5.96311 6.30294 6.06244 6.37619 6.1357C6.44945 6.20895 6.54881 6.25014 6.65241 6.25014C6.75601 6.25014 6.85537 6.20895 6.92863 6.1357ZM10.0536 6.1357C10.1269 6.06244 10.168 5.96311 10.168 5.85951C10.168 5.75591 10.1269 5.65658 10.0536 5.58333C9.98037 5.51007 9.88101 5.46889 9.77741 5.46889C9.67381 5.46889 9.57446 5.51007 9.5012 5.58333C9.42794 5.65658 9.38678 5.75591 9.38678 5.85951C9.38678 5.96311 9.42794 6.06244 9.5012 6.1357C9.57446 6.20895 9.67381 6.25014 9.77741 6.25014C9.88101 6.25014 9.98037 6.20895 10.0536 6.1357ZM8.49113 6.1357C8.56439 6.06244 8.60554 5.96311 8.60554 5.85951C8.60554 5.75591 8.56439 5.65658 8.49113 5.58333C8.41787 5.51007 8.31851 5.46889 8.21491 5.46889C8.11131 5.46889 8.01195 5.51007 7.93869 5.58333C7.86544 5.65658 7.82428 5.75591 7.82428 5.85951C7.82428 5.96311 7.86544 6.06244 7.93869 6.1357C8.01195 6.20895 8.11131 6.25014 8.21491 6.25014C8.31851 6.25014 8.41787 6.20895 8.49113 6.1357ZM6.65148 1.5625C6.54788 1.56252 6.44853 1.60364 6.37527 1.6769C6.30202 1.75015 6.26086 1.84953 6.26085 1.95313V4.29684C6.26086 4.40043 6.30202 4.49986 6.37527 4.57312C6.44853 4.64637 6.54788 4.68745 6.65148 4.68746H9.77648C9.88008 4.68745 9.97943 4.64637 10.0527 4.57312C10.1259 4.49986 10.1671 4.40043 10.1671 4.29684V1.95313C10.1671 1.84953 10.1259 1.75015 10.0527 1.6769C9.97943 1.60364 9.88008 1.56252 9.77648 1.5625H6.65148ZM7.0421 2.34376H9.38586V3.90621H7.0421V2.34376ZM12.5109 8.59372C9.49518 8.59372 7.0421 11.0468 7.0421 14.0625C7.0421 17.0781 9.49518 19.5312 12.5109 19.5312C15.5265 19.5312 17.9796 17.0781 17.9796 14.0625C17.9796 11.0468 15.5265 8.59372 12.5109 8.59372ZM12.5109 9.37497C15.1043 9.37497 17.1984 11.469 17.1984 14.0625C17.1984 16.6559 15.1043 18.75 12.5109 18.75C9.9174 18.75 7.82335 16.6559 7.82335 14.0625C7.82335 11.469 9.9174 9.37497 12.5109 9.37497ZM14.9653 12.4793C15.0373 12.4052 15.1358 12.3627 15.2392 12.3611C15.2914 12.3603 15.3432 12.37 15.3916 12.3895C15.44 12.4091 15.484 12.4381 15.521 12.475C15.558 12.5118 15.5872 12.5557 15.6069 12.604C15.6267 12.6523 15.6365 12.7041 15.6359 12.7563V15.1199C15.6366 15.1717 15.6271 15.2231 15.6078 15.2711C15.5885 15.3192 15.5598 15.3628 15.5235 15.3997C15.4871 15.4366 15.4438 15.4658 15.396 15.4858C15.3483 15.5058 15.297 15.5161 15.2453 15.5161C15.1935 15.5161 15.1422 15.5058 15.0945 15.4858C15.0467 15.4658 15.0034 15.4366 14.9671 15.3997C14.9307 15.3628 14.9021 15.3192 14.8828 15.2711C14.8635 15.2231 14.8539 15.1717 14.8546 15.1199V12.7563C14.8534 12.653 14.8932 12.5533 14.9653 12.4793Z" fill="#D9D9D9"/>
</svg>
