<svg width="25" height="25" viewBox="0 0 25 25" fill="none" xmlns="http://www.w3.org/2000/svg">
<g clip-path="url(#clip0)">
<path fill-rule="evenodd" clip-rule="evenodd" d="M25 5.80357C25 6.54196 24.3991 7.14286 23.6607 7.14286H23.2143V21.4286H23.6607C24.3991 21.4286 25 22.0295 25 22.7679V24.5536C25 24.672 24.953 24.7855 24.8692 24.8692C24.7855 24.953 24.672 25 24.5536 25H0.446429C0.328028 25 0.214478 24.953 0.130756 24.8692C0.0470344 24.7855 0 24.672 0 24.5536V22.7679C0 22.0295 0.600893 21.4286 1.33929 21.4286H1.78571V7.14286H1.33929C0.600893 7.14286 0 6.54196 0 5.80357V0.446429C0 0.328028 0.0470344 0.214478 0.130756 0.130756C0.214478 0.0470344 0.328028 0 0.446429 0H24.5536C24.672 0 24.7855 0.0470344 24.8692 0.130756C24.953 0.214478 25 0.328028 25 0.446429V5.80357ZM24.1071 22.7679C24.1071 22.5223 23.9062 22.3214 23.6607 22.3214C15.5661 22.3214 8.50002 22.3214 1.33929 22.3214C1.09375 22.3214 0.892857 22.5223 0.892857 22.7679V24.1071C9.48287 24.1071 16.4364 24.1071 24.1071 24.1071V22.7679ZM2.67857 21.4286H4.46429V16.9634C4.46429 16.9634 4.46429 8.92857 12.5 8.92857C20.5357 8.92857 20.5357 16.9634 20.5357 16.9634C20.5357 16.9634 20.5357 19.8643 20.5357 21.4286H22.3214C22.3214 16.6542 22.3214 9.63859 22.3214 7.14286C13.9629 7.14286 11.0371 7.14286 2.67857 7.14286C2.67857 9.63859 2.67857 16.6542 2.67857 21.4286ZM13.5902 19.0062C13.6059 19.0184 13.6208 19.0315 13.6348 19.0455C14.033 19.35 14.2857 19.8643 14.2857 20.4205C14.2857 20.5911 14.2536 20.7536 14.208 20.9089C14.6423 20.6256 14.9992 20.2386 15.2465 19.7828C15.4937 19.327 15.6235 18.8168 15.6241 18.2982V18.2938C15.6241 17.7241 15.4687 17.1723 15.1786 16.6902C14.8232 17.23 14.3437 17.677 13.7804 17.9937C13.6977 18.0397 13.6026 18.0583 13.5087 18.0468C13.4149 18.0352 13.3271 17.9941 13.2581 17.9295C13.189 17.8648 13.1423 17.7799 13.1247 17.687C13.107 17.5941 13.1193 17.498 13.1598 17.4125C13.3616 16.9875 13.4643 16.5375 13.4643 16.075C13.4637 15.6072 13.3582 15.1455 13.1557 14.7238C12.9531 14.3021 12.6586 13.9312 12.2937 13.6384C11.9196 14.4994 11.3328 15.2512 10.5884 15.8232L10.5652 15.8402C9.81786 16.4179 9.375 17.3196 9.375 18.2946C9.37524 18.8136 9.50475 19.3244 9.75182 19.7808C9.99889 20.2373 10.3558 20.625 10.7902 20.9089C10.7455 20.7536 10.7143 20.592 10.7143 20.4223C10.7136 19.9719 10.8844 19.538 11.192 19.2089C11.5 18.8482 12.0062 18.3857 12.375 18.0759C12.4314 18.0288 12.4985 17.9963 12.5705 17.9813C12.6424 17.9663 12.7169 17.9693 12.7875 17.9899C12.858 18.0106 12.9223 18.0483 12.9748 18.0997C13.0273 18.1512 13.0663 18.2147 13.0884 18.2848C13.11 18.3568 13.1372 18.4269 13.1696 18.4946C13.2689 18.6951 13.4128 18.8701 13.5902 19.0062ZM13.1313 21.0537C13.2988 20.8862 13.3929 20.6591 13.3929 20.4223C13.3929 20.1437 13.2661 19.8857 13.0464 19.7161C12.8375 19.5571 12.6571 19.3616 12.5125 19.142C12.2482 19.3857 12.0116 19.6232 11.858 19.8018C11.692 19.9812 11.6071 20.1964 11.6071 20.4205V20.4223C11.6071 20.6591 11.7012 20.8862 11.8687 21.0537C12.0361 21.2211 12.2632 21.3152 12.5 21.3152C12.7368 21.3152 12.9639 21.2211 13.1313 21.0537ZM16.5179 18.2946V18.2991C16.5179 19.5705 15.9134 20.692 14.9893 21.4277H19.6429V16.9634C19.6429 13.1779 16.9643 9.82053 12.5 9.82053C8.03571 9.82053 5.35714 13.1779 5.35714 16.9634V21.4277H10.0116C9.0875 20.6911 8.48304 19.5696 8.48304 18.2982C8.48082 17.6831 8.62058 17.0758 8.89144 16.5236C9.16229 15.9714 9.55693 15.4891 10.0446 15.1143L10.0714 15.0946C10.6226 14.6659 11.0701 14.1184 11.3804 13.4929C11.4855 13.2752 11.573 13.0495 11.642 12.8179C11.6616 12.7545 11.6952 12.6963 11.7402 12.6475C11.7852 12.5988 11.8404 12.5607 11.902 12.5359C11.9636 12.5112 12.0299 12.5005 12.0961 12.5047C12.1623 12.5088 12.2268 12.5276 12.2848 12.5598C12.9487 12.9283 13.495 13.4769 13.8604 14.1425C14.2258 14.8081 14.3955 15.5635 14.35 16.3214C14.4918 16.1273 14.6105 15.9172 14.7036 15.6955C14.7325 15.6268 14.7781 15.5663 14.8364 15.5198C14.8946 15.4732 14.9636 15.4419 15.037 15.4289C15.1105 15.4158 15.186 15.4214 15.2567 15.445C15.3275 15.4687 15.3912 15.5097 15.442 15.5643C16.1336 16.3052 16.5181 17.2811 16.5179 18.2946ZM24.1071 0.892857H0.892857V5.80357C0.893093 5.9219 0.940203 6.03531 1.02387 6.11898C1.10754 6.20265 1.22096 6.24976 1.33929 6.25H23.6607C23.9062 6.25 24.1071 6.04911 24.1071 5.80357V0.892857Z" fill="#D9D9D9"/>
</g>
<defs>
<clipPath id="clip0">
<rect width="25" height="25" fill="white"/>
</clipPath>
</defs>
</svg>
