<svg width="25" height="25" viewBox="0 0 25 25" fill="none" xmlns="http://www.w3.org/2000/svg">
<path d="M24.5536 17.8748H22.3214C22.203 17.8748 22.0895 17.8277 22.0058 17.7438C21.922 17.66 21.875 17.5463 21.875 17.4277V9.82685C21.875 9.70827 21.922 9.59455 22.0058 9.5107C22.0895 9.42685 22.203 9.37975 22.3214 9.37975H24.5536C24.672 9.37975 24.7855 9.42685 24.8692 9.5107C24.953 9.59455 25 9.70827 25 9.82685V17.4277C25 17.5463 24.953 17.66 24.8692 17.7438C24.7855 17.8277 24.672 17.8748 24.5536 17.8748ZM22.5446 16.9806H24.1071V10.274H22.5446V16.9806ZM2.67857 17.8748H0.446429C0.328028 17.8748 0.214478 17.8277 0.130756 17.7438C0.0470344 17.66 0 17.5463 0 17.4277V9.82685C0 9.70827 0.0470344 9.59455 0.130756 9.5107C0.214478 9.42685 0.328028 9.37975 0.446429 9.37975H2.67857C2.79697 9.37975 2.91052 9.42685 2.99424 9.5107C3.07797 9.59455 3.125 9.70827 3.125 9.82685V17.4277C3.125 17.5463 3.07797 17.66 2.99424 17.7438C2.91052 17.8277 2.79697 17.8748 2.67857 17.8748ZM0.892857 16.9806H2.45536V10.274H0.892857V16.9806Z" fill="#D9D9D9"/>
<path d="M22.0982 18.3219H2.90179C2.78339 18.3219 2.66983 18.2748 2.58611 18.1909C2.50239 18.1071 2.45536 17.9934 2.45536 17.8748V14.2979C2.45536 14.1793 2.50239 14.0656 2.58611 13.9818C2.66983 13.8979 2.78339 13.8508 2.90179 13.8508H22.0982C22.2166 13.8508 22.3302 13.8979 22.4139 13.9818C22.4976 14.0656 22.5446 14.1793 22.5446 14.2979V17.8748C22.5446 17.9934 22.4976 18.1071 22.4139 18.1909C22.3302 18.2748 22.2166 18.3219 22.0982 18.3219ZM3.34821 17.4277H21.6518V14.745H3.34821V17.4277Z" fill="#D9D9D9"/>
<path d="M22.0982 14.745H2.90179C2.78339 14.745 2.66983 14.6979 2.58611 14.6141C2.50239 14.5302 2.45536 14.4165 2.45536 14.2979V13.4367C2.45577 13.0723 2.60048 12.723 2.85773 12.4654C3.11497 12.2077 3.46376 12.0628 3.82756 12.0624H21.1724C21.5362 12.0628 21.885 12.2077 22.1423 12.4654C22.3995 12.723 22.5442 13.0723 22.5446 13.4367V14.2979C22.5446 14.4165 22.4976 14.5302 22.4139 14.6141C22.3302 14.6979 22.2166 14.745 22.0982 14.745ZM3.34821 13.8508H21.6518V13.4367C21.6517 13.3094 21.6011 13.1873 21.5113 13.0973C21.4214 13.0073 21.2995 12.9567 21.1724 12.9566H3.82756C3.70046 12.9567 3.5786 13.0073 3.48873 13.0973C3.39886 13.1873 3.34832 13.3094 3.34821 13.4367V13.8508Z" fill="#D9D9D9"/>
<path d="M9.30067 12.9566H2.90179C2.78339 12.9566 2.66983 12.9095 2.58611 12.8256C2.50239 12.7418 2.45536 12.6281 2.45536 12.5095V7.62429C2.45577 7.25993 2.60048 6.91062 2.85773 6.65298C3.11497 6.39534 3.46376 6.25042 3.82756 6.25H8.37488C8.73868 6.25042 9.08746 6.39534 9.34471 6.65298C9.60196 6.91062 9.74666 7.25993 9.74708 7.62429V12.5095C9.74707 12.6281 9.70004 12.7418 9.61632 12.8256C9.53261 12.9095 9.41906 12.9566 9.30067 12.9566ZM3.34821 12.0624H8.85424V7.62429C8.85413 7.497 8.80359 7.37495 8.71372 7.28495C8.62385 7.19494 8.50199 7.14432 8.3749 7.14421H3.82758C3.70048 7.14432 3.57861 7.19493 3.48874 7.28494C3.39886 7.37495 3.34832 7.49699 3.34821 7.62429V12.0624Z" fill="#D9D9D9"/>
<path d="M15.699 12.9566H9.30067C9.18227 12.9566 9.06836 12.9095 8.98464 12.8256C8.90091 12.7418 8.85388 12.6281 8.85388 12.5095L8.85424 7.62429C8.85461 7.25995 8.99891 6.91065 9.25612 6.653C9.51333 6.39536 9.86208 6.25043 10.2259 6.25H14.7734C15.1372 6.25043 15.4859 6.39536 15.7432 6.653C16.0004 6.91065 16.145 7.25995 16.1454 7.62429V12.5095C16.1454 12.6281 16.0984 12.7418 16.0146 12.8256C15.9309 12.9095 15.8174 12.9566 15.699 12.9566ZM9.74674 12.0624H15.2525V7.62429C15.2524 7.49703 15.2019 7.37501 15.1121 7.28501C15.0223 7.195 14.9005 7.14437 14.7734 7.14421H10.2259C10.0988 7.14437 9.97699 7.195 9.88716 7.28501C9.79734 7.37501 9.74718 7.49703 9.74708 7.62429L9.74674 12.0624Z" fill="#D9D9D9"/>
<path d="M22.0982 12.9566H15.699C15.5806 12.9566 15.4674 12.9095 15.3837 12.8256C15.2999 12.7418 15.2529 12.6281 15.2529 12.5095L15.2525 7.62429C15.253 7.25993 15.398 6.91062 15.6553 6.65298C15.9125 6.39534 16.2613 6.25042 16.6251 6.25H21.1724C21.5362 6.25041 21.885 6.39534 22.1423 6.65297C22.3995 6.91061 22.5442 7.25993 22.5446 7.62429V12.5095C22.5446 12.6281 22.4976 12.7418 22.4139 12.8256C22.3302 12.9095 22.2166 12.9566 22.0982 12.9566ZM16.1458 12.0624H21.6518V7.62429C21.6517 7.497 21.6011 7.37495 21.5113 7.28495C21.4214 7.19494 21.2995 7.14432 21.1724 7.14421H16.6251C16.498 7.14432 16.3762 7.19494 16.2863 7.28495C16.1964 7.37495 16.1455 7.497 16.1454 7.62429L16.1458 12.0624ZM22.7679 18.75C22.6495 18.75 22.5359 18.7029 22.4522 18.619C22.3685 18.5352 22.3214 18.4215 22.3214 18.3029V17.8938C22.3214 17.7752 22.3685 17.6615 22.4522 17.5776C22.5359 17.4938 22.6495 17.4467 22.7679 17.4467C22.8863 17.4467 22.9998 17.4938 23.0835 17.5776C23.1673 17.6615 23.2143 17.7752 23.2143 17.8938V18.3029C23.2143 18.4215 23.1673 18.5352 23.0835 18.619C22.9998 18.7029 22.8863 18.75 22.7679 18.75ZM2.23214 18.75C2.11374 18.75 2.00019 18.7029 1.91647 18.619C1.83275 18.5352 1.78571 18.4215 1.78571 18.3029V17.8938C1.78571 17.7752 1.83275 17.6615 1.91647 17.5776C2.00019 17.4938 2.11374 17.4467 2.23214 17.4467C2.35054 17.4467 2.46409 17.4938 2.54782 17.5776C2.63154 17.6615 2.67857 17.7752 2.67857 17.8938V18.3029C2.67857 18.4215 2.63154 18.5352 2.54782 18.619C2.46409 18.7029 2.35054 18.75 2.23214 18.75Z" fill="#D9D9D9"/>
</svg>
