<svg width="25" height="25" viewBox="0 0 25 25" fill="none" xmlns="http://www.w3.org/2000/svg">
<g clip-path="url(#clip0)">
<path d="M20.3125 14.0625C20.3119 13.5447 20.106 13.0482 19.7398 12.6821C19.3737 12.3159 18.8772 12.11 18.3594 12.1094H17.0144C16.6884 11.3152 16.3208 10.5387 15.9132 9.78317C15.8111 9.60284 15.663 9.45288 15.4839 9.34865C15.3048 9.24442 15.1012 9.18966 14.8939 9.18999H5.41867C5.21145 9.18965 5.00786 9.24441 4.82875 9.34864C4.64965 9.45287 4.50147 9.60283 4.39939 9.78317C3.99183 10.5387 3.62427 11.3152 3.29823 12.1094H1.95322C1.43541 12.11 0.938965 12.3159 0.572811 12.6821C0.206658 13.0482 0.000692432 13.5447 0.000100029 14.0625C0.000105209 14.1661 0.0412619 14.2655 0.114517 14.3387C0.187772 14.412 0.287126 14.4531 0.390725 14.4531H1.96608C1.13649 15.2074 -0.102599 16.7821 0.00677581 19.4019C0.115303 22.0032 0.49868 22.4882 0.896744 22.6248C0.922869 22.6334 0.949576 22.6402 0.976662 22.645V23.8281C0.977001 24.1388 1.10058 24.4367 1.32027 24.6564C1.53997 24.8761 1.83784 24.9997 2.14854 25H4.10165C4.41235 24.9997 4.71022 24.8761 4.92992 24.6564C5.14961 24.4367 5.27319 24.1388 5.27352 23.8281V22.5733H5.45034C5.55284 22.5733 5.65125 22.533 5.72431 22.4611L6.20172 21.9912H14.1109L14.5883 22.4611C14.6614 22.533 14.7598 22.5733 14.8623 22.5733H15.0391V23.8281C15.0394 24.1388 15.163 24.4367 15.3827 24.6564C15.6024 24.8761 15.9003 24.9997 16.211 25H18.1641C18.4748 24.9997 18.7727 24.8761 18.9924 24.6564C19.212 24.4367 19.3356 24.1388 19.336 23.8281V22.6425C19.4394 22.6229 19.5362 22.5773 19.6173 22.5101C19.8868 22.2874 20.2086 21.7325 20.3058 19.4019C20.4152 16.7821 19.1761 15.2074 18.3465 14.4531H19.9219C20.0255 14.4531 20.1249 14.412 20.1981 14.3387C20.2714 14.2655 20.3125 14.1661 20.3125 14.0625ZM4.05641 12.3235C4.36088 11.5874 4.70265 10.8673 5.08041 10.166C5.11447 10.1064 5.16374 10.057 5.22318 10.0228C5.28262 9.9886 5.35009 9.9708 5.41867 9.97124H14.8939C14.9625 9.9708 15.03 9.9886 15.0894 10.0228C15.1489 10.057 15.1982 10.1064 15.2322 10.166C15.8576 11.3641 16.4077 12.6004 16.8789 13.8672H3.46422L4.06046 12.6747C4.08737 12.62 4.10103 12.5596 4.10032 12.4986C4.09962 12.4376 4.08458 12.3777 4.05641 12.3235ZM0.848297 13.6719C0.929331 13.4435 1.07903 13.2459 1.27686 13.106C1.47468 12.9661 1.71094 12.8909 1.95322 12.8906H2.9771C2.8633 13.1748 2.76058 13.439 2.67226 13.6719H0.848297ZM0.920836 17.7734H3.86107C3.77228 18.1614 3.5546 18.5078 3.24357 18.7561C2.93254 19.0044 2.54652 19.14 2.14853 19.1406H0.782803C0.777124 18.6811 0.82343 18.2225 0.920836 17.7734ZM4.49227 23.8281C4.49216 23.9317 4.45096 24.031 4.37773 24.1042C4.3045 24.1774 4.20521 24.2186 4.10165 24.2188H2.14854C2.04497 24.2186 1.94569 24.1774 1.87245 24.1042C1.79922 24.031 1.75803 23.9317 1.75791 23.8281V22.5733H4.49227V23.8281ZM18.5547 23.8281C18.5546 23.9317 18.5134 24.031 18.4402 24.1042C18.3669 24.1774 18.2677 24.2186 18.1641 24.2188H16.211C16.1074 24.2186 16.0081 24.1774 15.9349 24.1042C15.8617 24.031 15.8205 23.9317 15.8203 23.8281V22.5733H18.49C18.511 22.5733 18.5334 22.5768 18.5547 22.5777V23.8281ZM19.1532 21.8611L19.1221 21.8563C18.9135 21.8182 18.7021 21.7967 18.49 21.792H15.0223L14.5449 21.3221C14.4719 21.2502 14.3734 21.2099 14.2709 21.2099H6.0417C5.93919 21.2099 5.84078 21.2502 5.76771 21.3221L5.29031 21.792H1.25638C1.21457 21.792 1.17304 21.7987 1.13335 21.8119C1.04784 21.6333 0.898533 21.1543 0.816864 19.9219H2.14854C2.75362 19.9208 3.33846 19.7038 3.79782 19.31C4.25718 18.9161 4.5609 18.3713 4.65434 17.7734H15.6583C15.7517 18.3713 16.0554 18.9161 16.5148 19.31C16.9742 19.7038 17.559 19.9208 18.1641 19.9219H19.4955C19.4047 21.2907 19.2305 21.7308 19.1532 21.8611ZM19.5298 19.1406H18.1641C17.7661 19.14 17.3801 19.0044 17.069 18.7561C16.758 18.5078 16.5403 18.1614 16.4516 17.7734H19.3918C19.4892 18.2225 19.5355 18.6811 19.5298 19.1406ZM19.1587 16.9922H1.15395C1.5107 16.0455 2.14506 15.2286 2.97393 14.6484H17.3386C18.1674 15.2286 18.8018 16.0455 19.1587 16.9922ZM17.6536 13.6719L17.3606 12.8906H18.3594C18.6017 12.8909 18.8379 12.9661 19.0358 13.106C19.2336 13.2459 19.3833 13.4435 19.4643 13.6719H17.6536Z" fill="#D9D9D9"/>
<path d="M16.0156 20.8984C16.0156 21.002 16.0567 21.1014 16.13 21.1746C16.2032 21.2479 16.3026 21.2891 16.4062 21.2891H18.3593C18.4629 21.2891 18.5623 21.2479 18.6355 21.1746C18.7088 21.1014 18.7499 21.002 18.7499 20.8984C18.7499 20.7948 18.7088 20.6955 18.6355 20.6222C18.5623 20.549 18.4629 20.5078 18.3593 20.5078H16.4062C16.3026 20.5078 16.2032 20.549 16.13 20.6222C16.0567 20.6955 16.0156 20.7948 16.0156 20.8984ZM3.90624 20.5078H1.95312C1.84952 20.5078 1.75017 20.549 1.67691 20.6222C1.60365 20.6955 1.5625 20.7948 1.5625 20.8984C1.5625 21.002 1.60365 21.1014 1.67691 21.1746C1.75017 21.2479 1.84952 21.2891 1.95312 21.2891H3.90624C4.00984 21.2891 4.10919 21.2479 4.18245 21.1746C4.25571 21.1014 4.29686 21.002 4.29686 20.8984C4.29686 20.7948 4.25571 20.6955 4.18245 20.6222C4.10919 20.549 4.00984 20.5078 3.90624 20.5078ZM12.3046 19.1406H8.00779C7.90419 19.1406 7.80483 19.1818 7.73157 19.255C7.65832 19.3283 7.61716 19.4276 7.61716 19.5312C7.61716 19.6348 7.65832 19.7342 7.73157 19.8075C7.80483 19.8807 7.90419 19.9219 8.00779 19.9219H12.3046C12.4082 19.9219 12.5076 19.8807 12.5809 19.8075C12.6541 19.7342 12.6953 19.6348 12.6953 19.5312C12.6953 19.4276 12.6541 19.3283 12.5809 19.255C12.5076 19.1818 12.4082 19.1406 12.3046 19.1406ZM15.9179 0H9.08199C8.66774 0.000468357 8.27058 0.165239 7.97766 0.458164C7.68474 0.751088 7.51997 1.14824 7.51951 1.5625V5.85937C7.51998 6.27363 7.68474 6.67078 7.97767 6.96371C8.27059 7.25663 8.66774 7.4214 9.08199 7.42187H15.9179C16.3322 7.4214 16.7293 7.25663 17.0222 6.96371C17.3152 6.67079 17.4799 6.27363 17.4804 5.85937V1.5625C17.4799 1.14824 17.3152 0.751084 17.0222 0.458159C16.7293 0.165235 16.3322 0.000465255 15.9179 0ZM16.6992 5.85937C16.6992 6.06657 16.6168 6.26529 16.4703 6.4118C16.3238 6.55831 16.1251 6.64062 15.9179 6.64062H9.08199C8.8748 6.64062 8.67609 6.55831 8.52957 6.4118C8.38306 6.26528 8.30076 6.06657 8.30076 5.85937V1.5625C8.30076 1.3553 8.38306 1.15659 8.52957 1.01008C8.67609 0.863564 8.8748 0.781253 9.08199 0.78125H15.9179C16.1251 0.78125 16.3238 0.86356 16.4703 1.01007C16.6168 1.15659 16.6992 1.3553 16.6992 1.5625V5.85937Z" fill="#D9D9D9"/>
<path d="M12.5 1.82705C12.1569 1.82743 11.828 1.96388 11.5855 2.20646C11.3429 2.44904 11.2064 2.77794 11.2061 3.12099C11.2061 3.13197 11.2074 3.1426 11.2077 3.1535C11.2075 3.15903 11.2061 3.16423 11.2061 3.16982V5.2042C11.2058 5.25567 11.2157 5.3067 11.2352 5.35434C11.2547 5.40198 11.2834 5.44529 11.3197 5.48179C11.356 5.51829 11.3992 5.54726 11.4467 5.56702C11.4942 5.58679 11.5452 5.59696 11.5967 5.59696C11.6482 5.59696 11.6991 5.58679 11.7467 5.56702C11.7942 5.54726 11.8373 5.51829 11.8736 5.48179C11.9099 5.44529 11.9387 5.40198 11.9582 5.35434C11.9777 5.3067 11.9876 5.25567 11.9873 5.2042V4.30849C12.1637 4.38466 12.3548 4.42059 12.5468 4.41367C12.7388 4.40676 12.9268 4.35716 13.0973 4.2685C13.2677 4.17983 13.4163 4.05432 13.5321 3.90107C13.648 3.74783 13.7283 3.5707 13.7672 3.38255C13.8061 3.1944 13.8025 2.99996 13.7569 2.81334C13.7112 2.62672 13.6246 2.45262 13.5032 2.30366C13.3819 2.15471 13.2289 2.03466 13.0554 1.95222C12.8818 1.86977 12.6921 1.82702 12.5 1.82705ZM12.5 3.63369C12.3986 3.63369 12.2995 3.60362 12.2152 3.54728C12.1308 3.49095 12.0651 3.41088 12.0263 3.31719C11.9875 3.22351 11.9774 3.12043 11.9971 3.02097C12.0169 2.92152 12.0658 2.83017 12.1375 2.75846C12.2092 2.68676 12.3005 2.63793 12.4 2.61815C12.4994 2.59837 12.6025 2.60852 12.6962 2.64733C12.7899 2.68613 12.8699 2.75184 12.9263 2.83616C12.9826 2.92047 13.0127 3.01959 13.0127 3.12099C13.0125 3.25692 12.9585 3.38723 12.8623 3.48334C12.7662 3.57946 12.6359 3.63352 12.5 3.63369ZM24.2621 18.75H24.2187V3.71094C24.2184 3.40024 24.0948 3.10237 23.8751 2.88267C23.6554 2.66298 23.3575 2.5394 23.0468 2.53906H17.4804V3.32031H23.0468C23.1504 3.32043 23.2497 3.36162 23.3229 3.43485C23.3961 3.50809 23.4373 3.60737 23.4375 3.71094V18.75H22.6562V4.49219C22.6562 4.38859 22.615 4.28923 22.5418 4.21598C22.4685 4.14272 22.3692 4.10157 22.2656 4.10156H17.4804V4.88281H21.875V18.75H21.8316C21.6302 18.7561 21.4396 18.8418 21.3013 18.9882C21.163 19.1346 21.0883 19.3299 21.0937 19.5312V24.6094C21.0937 24.713 21.1349 24.8123 21.2081 24.8856C21.2814 24.9588 21.3807 25 21.4843 25C21.5879 25 21.6873 24.9588 21.7605 24.8856C21.8338 24.8123 21.875 24.713 21.875 24.6094L21.8786 19.5312H24.2187V24.6094C24.2187 24.713 24.2598 24.8123 24.3331 24.8856C24.4064 24.9588 24.5057 25 24.6093 25C24.7129 25 24.8123 24.9588 24.8855 24.8856C24.9588 24.8123 24.9999 24.713 24.9999 24.6094V19.5312C25.0053 19.3299 24.9307 19.1346 24.7924 18.9882C24.6541 18.8418 24.4634 18.7561 24.2621 18.75Z" fill="#D9D9D9"/>
</g>
<defs>
<clipPath id="clip0">
<rect width="25" height="25" fill="white"/>
</clipPath>
</defs>
</svg>
