<svg width="25" height="25" viewBox="0 0 25 25" fill="none" xmlns="http://www.w3.org/2000/svg">
<path d="M23.1689 2.07507H1.83105C1.3456 2.07562 0.880178 2.26871 0.536907 2.61198C0.193636 2.95525 0.000546285 3.42067 0 3.90613L0 16.7479C0.000546285 17.2334 0.193636 17.6988 0.536907 18.0421C0.880178 18.3853 1.3456 18.5784 1.83105 18.579H10.5469V19.995H7.92029C7.74091 19.9948 7.56603 20.0512 7.42051 20.1561C7.27499 20.261 7.16622 20.4091 7.10964 20.5793L6.70274 21.8C6.65993 21.9284 6.64825 22.0652 6.66868 22.1991C6.6891 22.3329 6.74103 22.46 6.8202 22.5698C6.89937 22.6796 7.0035 22.7691 7.12402 22.8308C7.24453 22.8925 7.37799 22.9247 7.51338 22.9247H17.4866C17.622 22.9247 17.7555 22.8925 17.876 22.8308C17.9965 22.7691 18.1006 22.6796 18.1798 22.5698C18.259 22.46 18.3109 22.3329 18.3313 22.1991C18.3517 22.0652 18.3401 21.9284 18.2973 21.8L17.8904 20.5793C17.8338 20.409 17.725 20.261 17.5795 20.1561C17.434 20.0512 17.2591 19.9948 17.0797 19.995H14.4531V18.579H20.6055V21.826C20.6058 22.1173 20.7216 22.3966 20.9276 22.6025C21.1336 22.8085 21.4128 22.9244 21.7041 22.9247H23.9014C24.1926 22.9244 24.4719 22.8085 24.6779 22.6025C24.8838 22.3966 24.9997 22.1173 25 21.826V3.90613C24.9995 3.42067 24.8064 2.95525 24.4631 2.61198C24.1198 2.26871 23.6544 2.07562 23.1689 2.07507V2.07507ZM17.0797 20.7274C17.1053 20.7274 17.1303 20.7354 17.1511 20.7504C17.1719 20.7654 17.1874 20.7866 17.1955 20.8109L17.6024 22.0316C17.6085 22.0499 17.6102 22.0695 17.6073 22.0886C17.6044 22.1077 17.597 22.1259 17.5856 22.1416C17.5743 22.1573 17.5595 22.17 17.5422 22.1788C17.525 22.1877 17.506 22.1923 17.4866 22.1923H7.51338C7.49404 22.1923 7.47497 22.1877 7.45776 22.1788C7.44054 22.17 7.42566 22.1573 7.41436 22.1416C7.40305 22.1259 7.39563 22.1077 7.39271 22.0886C7.3898 22.0695 7.39146 22.0499 7.39758 22.0316L7.80449 20.8109C7.81256 20.7866 7.8281 20.7654 7.84889 20.7504C7.86968 20.7354 7.89466 20.7274 7.92029 20.7274L17.0797 20.7274ZM11.2793 19.995V18.579H13.7207V19.995H11.2793ZM20.6055 13.0858V16.3817H2.19727V4.27234H22.8027V11.9872H21.7041C21.4128 11.9875 21.1336 12.1034 20.9276 12.3093C20.7216 12.5153 20.6058 12.7945 20.6055 13.0858V13.0858ZM24.2676 21.826C24.2675 21.9231 24.2289 22.0162 24.1602 22.0849C24.0915 22.1535 23.9985 22.1922 23.9014 22.1923H21.7041C21.607 22.1922 21.5139 22.1535 21.4453 22.0849C21.3766 22.0162 21.338 21.9231 21.3379 21.826V13.0858C21.338 12.9887 21.3766 12.8956 21.4453 12.827C21.5139 12.7583 21.607 12.7197 21.7041 12.7196H23.9014C23.9985 12.7197 24.0915 12.7583 24.1602 12.827C24.2289 12.8956 24.2675 12.9887 24.2676 13.0858V21.826ZM24.2676 12.0502C24.15 12.0084 24.0261 11.9871 23.9014 11.9872H23.5352V3.90613C23.5352 3.809 23.4966 3.71586 23.4279 3.64718C23.3592 3.5785 23.2661 3.53992 23.1689 3.53992H1.83105C1.73393 3.53992 1.64078 3.5785 1.57211 3.64718C1.50343 3.71586 1.46484 3.809 1.46484 3.90613V16.7479C1.46484 16.845 1.50343 16.9382 1.57211 17.0069C1.64078 17.0756 1.73393 17.1141 1.83105 17.1141H20.6055V17.8466H1.83105C1.53978 17.8462 1.26053 17.7304 1.05456 17.5244C0.848601 17.3185 0.732748 17.0392 0.732422 16.7479V3.90613C0.732748 3.61485 0.848601 3.3356 1.05456 3.12964C1.26053 2.92367 1.53978 2.80782 1.83105 2.8075H23.1689C23.4602 2.80782 23.7395 2.92367 23.9454 3.12964C24.1514 3.3356 24.2673 3.61485 24.2676 3.90613V12.0502ZM22.4643 13.9095C22.4735 13.9316 22.4848 13.9527 22.498 13.9725C22.5251 14.0126 22.5595 14.0471 22.5996 14.0741C22.6195 14.0873 22.6406 14.0986 22.6626 14.1078C22.6847 14.1167 22.7076 14.1236 22.7309 14.1283C22.7783 14.1381 22.8271 14.1381 22.8745 14.1283C22.8979 14.1236 22.9208 14.1167 22.9429 14.1078C22.9649 14.0986 22.986 14.0873 23.0058 14.0741C23.0459 14.0471 23.0804 14.0126 23.1074 13.9725C23.1206 13.9527 23.1319 13.9316 23.1411 13.9095C23.1501 13.8874 23.1569 13.8646 23.1616 13.8412C23.1714 13.7938 23.1714 13.745 23.1616 13.6976C23.1569 13.6742 23.1501 13.6514 23.1411 13.6293C23.1319 13.6072 23.1206 13.5861 23.1074 13.5663C23.0804 13.5262 23.0459 13.4917 23.0058 13.4647C22.986 13.4515 22.9649 13.4402 22.9429 13.431C22.9208 13.422 22.8979 13.4152 22.8745 13.4105C22.8271 13.4007 22.7783 13.4007 22.7309 13.4105C22.7076 13.4152 22.6847 13.422 22.6626 13.431C22.6406 13.4402 22.6195 13.4515 22.5996 13.4647C22.5595 13.4917 22.5251 13.5262 22.498 13.5663C22.4848 13.5861 22.4735 13.6072 22.4643 13.6293C22.4554 13.6514 22.4485 13.6742 22.4438 13.6976C22.4341 13.745 22.4341 13.7938 22.4438 13.8412C22.4485 13.8646 22.4554 13.8874 22.4643 13.9095V13.9095ZM23.1689 19.2626H22.4365C22.3394 19.2626 22.2463 19.3012 22.1776 19.3698C22.1089 19.4385 22.0703 19.5317 22.0703 19.6288C22.0703 19.7259 22.1089 19.8191 22.1776 19.8877C22.2463 19.9564 22.3394 19.995 22.4365 19.995H23.1689C23.2661 19.995 23.3592 19.9564 23.4279 19.8877C23.4966 19.8191 23.5352 19.7259 23.5352 19.6288C23.5352 19.5317 23.4966 19.4385 23.4279 19.3698C23.3592 19.3012 23.2661 19.2626 23.1689 19.2626ZM23.1689 20.7274H22.4365C22.3394 20.7274 22.2463 20.766 22.1776 20.8347C22.1089 20.9034 22.0703 20.9965 22.0703 21.0936C22.0703 21.1908 22.1089 21.2839 22.1776 21.3526C22.2463 21.4213 22.3394 21.4598 22.4365 21.4598H23.1689C23.2661 21.4598 23.3592 21.4213 23.4279 21.3526C23.4966 21.2839 23.5352 21.1908 23.5352 21.0936C23.5352 20.9965 23.4966 20.9034 23.4279 20.8347C23.3592 20.766 23.2661 20.7274 23.1689 20.7274Z" fill="#D9D9D9"/>
</svg>
