<svg width="25" height="25" viewBox="0 0 25 25" fill="none" xmlns="http://www.w3.org/2000/svg">
<path fill-rule="evenodd" clip-rule="evenodd" d="M25 12.5C25 15.2538 24.1042 17.8019 22.5897 19.8698L23.5146 20.7946C23.7024 20.9823 23.7024 21.2867 23.5146 21.4745L21.4748 23.5144C21.3809 23.6083 21.2578 23.6552 21.1348 23.6552C21.0118 23.6552 20.8887 23.6083 20.7949 23.5144L19.8699 22.5895C17.802 24.1041 15.2538 25 12.5 25C9.74612 25 7.19792 24.1041 5.12999 22.5895L4.20508 23.5144C4.11123 23.6083 3.98814 23.6553 3.86512 23.6553C3.74211 23.6553 3.61902 23.6083 3.52517 23.5144L1.48533 21.4746C1.39513 21.3844 1.34449 21.2621 1.34449 21.1346C1.34449 21.0071 1.39513 20.8848 1.48533 20.7947L2.41031 19.8698C0.895749 17.8019 0 15.2538 0 12.5C0 9.74618 0.895813 7.19798 2.41044 5.12999L1.48533 4.20488C1.29756 4.01718 1.29756 3.71275 1.48533 3.52498L3.52517 1.48514C3.71287 1.29737 4.01731 1.29737 4.20508 1.48514L5.13025 2.41031C7.19811 0.895813 9.74618 0 12.5 0C15.2538 0 17.8018 0.895749 19.8698 2.41031L20.7949 1.4852C20.9827 1.29744 21.2871 1.29744 21.4748 1.4852L23.5146 3.52504C23.7024 3.71274 23.7024 4.01718 23.5146 4.20495L22.5895 5.13006C24.1041 7.19798 25 9.74618 25 12.5ZM22.4947 3.865L21.1348 2.50506L20.6283 3.01169C21.1155 3.42965 21.5702 3.88436 21.9881 4.37156L22.4947 3.865ZM3.86512 2.50512L2.50525 3.865L3.01175 4.37156C3.42978 3.88436 3.88448 3.42965 4.37169 3.01169L3.86512 2.50512ZM2.50525 21.1346L3.86512 22.4945L4.3715 21.9882C3.88429 21.5702 3.42959 21.1155 3.01162 20.6283L2.50525 21.1346ZM12.5 0.961585C6.13767 0.961585 0.961585 6.13773 0.961585 12.5C0.961585 18.8623 6.13767 24.0384 12.5 24.0384C18.8623 24.0384 24.0384 18.8623 24.0384 12.5C24.0384 6.13773 18.8623 0.961585 12.5 0.961585ZM20.6284 21.9882L21.1348 22.4945L22.4947 21.1346L21.9883 20.6283C21.5703 21.1155 21.1156 21.5702 20.6284 21.9882ZM12.5 1.94082C6.67768 1.94082 1.94091 6.67765 1.94091 12.5C1.94091 18.3223 6.67775 23.0591 12.5 23.0591C18.3223 23.0591 23.0591 18.3223 23.0591 12.5C23.0592 6.67765 18.3224 1.94082 12.5 1.94082ZM12.5 22.0975C7.2079 22.0975 2.9025 17.792 2.9025 12.5C2.9025 7.20787 7.20796 2.9024 12.5 2.9024C17.7921 2.9024 22.0975 7.20787 22.0975 12.5C22.0976 17.792 17.7921 22.0975 12.5 22.0975ZM20.5355 13.6755H17.9501V11.3242H20.5355C20.801 11.3242 21.0163 11.109 21.0163 10.8434C21.0163 10.5779 20.801 10.3626 20.5355 10.3626H17.9501V8.01188H19.0256C19.2912 8.01188 19.5064 7.79661 19.5064 7.53109C19.5064 7.26556 19.2912 7.05029 19.0256 7.05029H17.9501V5.97473C17.9501 5.7092 17.7349 5.49394 17.4693 5.49394C17.2038 5.49394 16.9886 5.7092 16.9886 5.97473V7.05023H14.6373V4.46491C14.6373 4.19938 14.4221 3.98412 14.1565 3.98412C13.8909 3.98412 13.6757 4.19938 13.6757 4.46491V7.05023H11.3244V4.46491C11.3244 4.19938 11.1092 3.98412 10.8436 3.98412C10.5781 3.98412 10.3628 4.19938 10.3628 4.46491V7.05023H8.01209V5.97422C8.01209 5.70869 7.79682 5.49342 7.5313 5.49342C7.26577 5.49342 7.05051 5.70869 7.05051 5.97422V7.05023H5.97443C5.7089 7.05023 5.49363 7.2655 5.49363 7.53102C5.49363 7.79655 5.7089 8.01181 5.97443 8.01181H7.05044V10.3626H4.46512C4.1996 10.3626 3.98433 10.5778 3.98433 10.8434C3.98433 11.1089 4.1996 11.3242 4.46512 11.3242H7.05044V13.6754H4.46512C4.1996 13.6754 3.98433 13.8907 3.98433 14.1562C3.98433 14.4217 4.1996 14.637 4.46512 14.637H7.05044V16.9883H5.97443C5.7089 16.9883 5.49363 17.2035 5.49363 17.4691C5.49363 17.7346 5.7089 17.9499 5.97443 17.9499H7.05044V19.0259C7.05044 19.2914 7.26571 19.5067 7.53123 19.5067C7.79676 19.5067 8.01203 19.2914 8.01203 19.0259V17.9499H10.3628V20.5352C10.3628 20.8007 10.578 21.016 10.8436 21.016C11.1091 21.016 11.3244 20.8007 11.3244 20.5352V17.9499H13.6756V20.5352C13.6756 20.8007 13.8908 21.016 14.1564 21.016C14.422 21.016 14.6372 20.8007 14.6372 20.5352V17.9499H16.9886V19.0254C16.9886 19.2909 17.2038 19.5062 17.4693 19.5062C17.7349 19.5062 17.9501 19.2909 17.9501 19.0254V17.9499H19.0256C19.2912 17.9499 19.5064 17.7346 19.5064 17.4691C19.5064 17.2035 19.2912 16.9883 19.0256 16.9883H17.9501V14.637H20.5355C20.801 14.637 21.0163 14.4217 21.0163 14.1562C21.0163 13.8907 20.801 13.6755 20.5355 13.6755ZM16.9886 13.6755H14.6373V11.3242H16.9886V13.6755H16.9886ZM13.6757 13.6755H11.3244V11.3242H13.6757V13.6755ZM16.9886 8.01181V10.3626H14.6373V8.01181H16.9886ZM13.6757 8.01181V10.3626H11.3244V8.01181H13.6757ZM8.01203 8.01181H10.3628V10.3626H8.01203V8.01181ZM8.01203 11.3242H10.3628V13.6754H8.01203V11.3242ZM8.01203 16.9883V14.6371H10.3628V16.9883H8.01203ZM11.3244 16.9883V14.6371H13.6756V16.9883H11.3244ZM16.9886 16.9883H14.6373V14.6371H16.9886V16.9883H16.9886Z" fill="#D9D9D9"/>
</svg>
