<svg width="25" height="25" viewBox="0 0 25 25" fill="none" xmlns="http://www.w3.org/2000/svg">
<path fill-rule="evenodd" clip-rule="evenodd" d="M24.0726 24.1929H24.5968C24.8387 24.1929 25 24.3543 25 24.5964C25 24.8386 24.8387 25 24.5968 25H0.403226C0.16129 25 0 24.8386 0 24.5964C0 24.3543 0.16129 24.1929 0.403226 24.1929H12.9032V22.9015C12.9032 21.933 13.5887 21.1662 14.5161 21.0048V13.7005H6.04839C5.3629 13.7005 4.83871 14.2251 4.83871 14.9111C4.83871 15.1533 4.67742 15.3147 4.43548 15.3147H1.20968C0.967742 15.3147 0.806452 15.1533 0.806452 14.9111V13.3776C0.806452 11.2792 2.29839 9.46316 4.39516 9.0596L14.5161 7.28396V6.84005C14.5161 6.32856 14.8451 5.86771 15.3226 5.69825V4.90299C15.3226 4.70122 15.2016 4.53979 15 4.49944L5 2.3606C4.43548 2.23953 3.99194 1.75527 4.03226 1.19029C4.1129 0.0603409 5.12097 -0.0607255 5.48387 0.0199854L20.1613 2.80451C21.0887 2.96593 21.7742 3.8134 21.7742 4.74157V5.69963C22.2343 5.8644 22.5806 6.30271 22.5806 6.84005L22.5403 21.0048C23.4274 21.1662 24.0726 21.933 24.0726 22.8612V24.1929ZM21.7339 20.9645H15.3226V6.84005C15.3226 6.59792 15.5242 6.4365 15.7258 6.4365H21.371C21.6129 6.4365 21.7742 6.63828 21.7742 6.84005L21.7339 20.9645ZM14.5161 12.8934H6.04839C5.08065 12.8934 4.27419 13.5794 4.07258 14.5076H1.6129V13.3776C1.6129 11.6424 2.8629 10.1896 4.55645 9.86671L14.5161 8.13143V12.8934ZM13.7097 24.1929V22.8612C13.7097 22.2558 14.1935 21.7312 14.8387 21.7312H22.1774C22.7823 21.7312 23.3065 22.2155 23.3065 22.8612V24.1929H13.7097ZM16.129 4.90299C16.129 4.33802 15.7258 3.8134 15.1613 3.69233L5.16129 1.55349C4.95968 1.51314 4.83871 1.35171 4.83871 1.19029C4.83871 1.06923 4.95968 0.746383 5.32258 0.827094L20.0403 3.61162C20.6048 3.73269 20.9677 4.21695 20.9677 4.74157V5.62939L16.129 5.62939V4.90299ZM3.36021 16.3875C3.83064 17.0959 4.8387 18.7253 4.8387 19.6462C4.8387 20.8506 3.96505 21.7715 2.82257 21.7715C1.6801 21.7715 0.806443 20.8506 0.806443 19.6462C0.806443 18.7253 1.81451 17.0959 2.28494 16.3875C2.48655 16.0332 3.09139 16.0332 3.36021 16.3875ZM2.82257 16.9289C2.82257 16.9289 1.47849 18.6143 1.47849 19.6462C1.47849 20.3926 2.06794 21.0194 2.82257 21.0194C3.57721 21.0194 4.16666 20.3926 4.16666 19.6462C4.16666 18.6143 2.82257 16.9289 2.82257 16.9289Z" fill="#D9D9D9"/>
</svg>
