<svg width="25" height="25" viewBox="0 0 25 25" fill="none" xmlns="http://www.w3.org/2000/svg">
<g clip-path="url(#clip0)">
<path fill-rule="evenodd" clip-rule="evenodd" d="M21.9176 9.69444H21.9377C23.633 9.69444 25.0133 11.0976 24.9999 12.8346C24.9999 14.4625 23.767 15.8044 22.2058 15.9474C21.5156 18.2157 19.9946 20.1434 17.8705 21.4171C17.5823 21.5874 17.2138 21.492 17.0463 21.1992C16.8788 20.9063 16.9726 20.5316 17.2607 20.3613C19.2441 19.1693 20.6311 17.337 21.1672 15.1914L21.2811 14.7282H21.931C22.9629 14.7282 23.8005 13.8767 23.8005 12.8278C23.8005 11.7788 22.9629 10.9273 21.931 10.9273H21.0801L20.9326 10.5255C19.6997 7.11287 16.3025 4.81738 12.4765 4.81738C8.65046 4.81738 5.25326 7.11287 4.02036 10.5255L3.87294 10.9273H3.06887C2.03698 10.9273 1.19941 11.7788 1.19941 12.8278C1.19941 13.8767 2.03698 14.7282 3.06887 14.7282H3.67192L3.78583 15.1914C4.32188 17.3438 5.7223 19.1897 7.71238 20.375C8.00051 20.5452 8.09431 20.9199 7.9268 21.2128C7.81289 21.4035 7.61187 21.5125 7.40415 21.5125C7.30364 21.5125 7.19644 21.4852 7.10263 21.4307C4.97184 20.157 3.4307 18.2157 2.74054 15.9338C1.20611 15.7635 0 14.4353 0 12.8278C0 11.1112 1.36692 9.71488 3.04877 9.70126C4.25488 6.79273 6.8413 4.66071 9.93698 3.89782C10.205 3.57086 10.922 2.53551 10.7947 1.03015C10.7813 0.805372 10.9421 0.607837 11.1632 0.587403C11.3843 0.566968 11.5786 0.737257 11.5987 0.962038C11.6925 2.12681 11.3709 3.06 11.0359 3.68666C11.257 3.65941 11.4781 3.63217 11.6992 3.61854C12.4162 3.07362 13.4548 2.02464 13.9305 0.301318C13.9908 0.0833481 14.212 -0.0460712 14.4264 0.0152328C14.6408 0.0765367 14.7681 0.301317 14.7078 0.519287C14.3259 1.90884 13.6156 2.91014 12.9388 3.59811C13.2404 3.61173 13.5352 3.63898 13.83 3.67304C14.8485 3.26434 16.3494 2.36522 17.3813 0.410302C17.4818 0.205956 17.7298 0.131029 17.9241 0.240014C18.1251 0.342187 18.1988 0.594214 18.0916 0.791749C17.254 2.37203 16.1417 3.33246 15.15 3.91825C18.1921 4.70839 20.7316 6.82678 21.9176 9.69444ZM15.4781 18.2361C15.4781 18.6516 15.0225 19.0263 14.3122 19.2578C15.0962 19.8368 15.6054 20.77 15.5987 21.8258C15.5987 23.5764 14.1983 25 12.4762 25C10.7542 25 9.35376 23.5764 9.35376 21.8258C9.35376 20.7564 9.88311 19.8028 10.6872 19.2306C10.0305 18.9922 9.60838 18.638 9.60838 18.2361C9.60838 17.5209 10.9217 16.9487 12.5432 16.9487C14.1648 16.9487 15.4781 17.5277 15.4781 18.2361ZM10.5666 21.8258C10.5666 22.902 11.4242 23.7739 12.4829 23.7739C13.5416 23.7739 14.3993 22.902 14.3993 21.8258C14.3993 20.7496 13.5416 19.8777 12.4829 19.8777C11.4242 19.8777 10.5666 20.7496 10.5666 21.8258ZM10.4393 12.5144C10.5934 12.6779 10.5934 12.9367 10.4393 13.0934C10.2784 13.2501 10.0238 13.2501 9.86971 13.0934C9.70889 12.9299 9.49447 12.8414 9.26665 12.8414C8.93832 12.8414 8.6502 13.0253 8.50278 13.3182C8.42908 13.4612 8.28837 13.543 8.14095 13.543C8.08065 13.543 8.02034 13.5225 7.96004 13.4953C7.76572 13.3931 7.68531 13.1479 7.78582 12.9435C8.07395 12.3782 8.6368 12.024 9.26665 12.024C9.70889 12.024 10.1243 12.1943 10.4393 12.5144ZM15.6925 12.024C16.3224 12.024 16.8852 12.3714 17.1734 12.9435C17.2739 13.1411 17.2002 13.3863 16.9991 13.4953C16.9388 13.5293 16.8785 13.543 16.8182 13.543C16.6708 13.543 16.5301 13.4612 16.4564 13.3182C16.309 13.0253 16.0141 12.8414 15.6925 12.8414C15.4647 12.8414 15.2503 12.9299 15.0895 13.0934C14.9287 13.2501 14.674 13.2501 14.5199 13.0934C14.3658 12.9299 14.3658 12.6711 14.5199 12.5144C14.8348 12.2011 15.2503 12.024 15.6925 12.024Z" fill="#E82431"/>
</g>
<defs>
<clipPath id="clip0">
<rect width="25" height="25" fill="white"/>
</clipPath>
</defs>
</svg>
