<svg width="25" height="25" viewBox="0 0 25 25" fill="none" xmlns="http://www.w3.org/2000/svg">
<g clip-path="url(#clip0)">
<path fill-rule="evenodd" clip-rule="evenodd" d="M2.11523 0H22.8883C23.6582 0 24.2844 0.626172 24.2836 1.39609V22.1695C24.2836 22.9391 23.6574 23.5648 22.8875 23.5648H22.2109V24.6215C22.2109 24.8305 22.0414 25 21.8324 25H18.5344C18.325 25 18.1555 24.8305 18.1555 24.6215V23.5648H6.84687V24.6215C6.84687 24.8305 6.67734 25 6.46797 25H3.16992C2.96055 25 2.79102 24.8305 2.79102 24.6215V23.5648H2.11484C1.34531 23.5648 0.71875 22.9395 0.71875 22.1695V1.39609C0.71875 0.626172 1.34531 0 2.11523 0ZM22.8883 0.757031H2.11523C1.76289 0.757031 1.47656 1.04414 1.47656 1.39609V5.18086H23.527V1.39609C23.527 1.04375 23.2398 0.757031 22.8883 0.757031ZM3.54922 24.2426H6.08945H6.08984V23.5652H3.54922V24.2426ZM18.9133 24.2426H21.4539V23.5652H18.9133V24.2426ZM2.11523 22.8074H22.8883C23.2398 22.8074 23.527 22.5211 23.527 22.1695V5.93867H1.47656V22.1695C1.47656 22.5215 1.76328 22.8074 2.11523 22.8074ZM20.0583 2.96957C20.0583 3.80941 19.3747 4.493 18.5349 4.493C17.6947 4.493 17.0111 3.80941 17.0111 2.96957C17.0111 2.12972 17.6947 1.44613 18.5349 1.44613C19.3747 1.44613 20.0583 2.12972 20.0583 2.96957ZM19.3009 2.96957C19.3009 2.5473 18.9568 2.20355 18.5349 2.20355C18.1126 2.20355 17.7689 2.5473 17.7689 2.96957C17.7689 3.39183 18.1122 3.73558 18.5349 3.73558C18.9568 3.73558 19.3009 3.39183 19.3009 2.96957ZM14.0247 2.96957C14.0247 3.80941 13.3415 4.493 12.5017 4.493C11.6619 4.493 10.9783 3.80941 10.9783 2.96957C10.9783 2.12972 11.6619 1.44613 12.5017 1.44613C13.3415 1.44613 14.0247 2.12972 14.0247 2.96957ZM13.2673 2.96957C13.2673 2.5473 12.9236 2.20355 12.5017 2.20355C12.0794 2.20355 11.7357 2.5473 11.7357 2.96957C11.7357 3.39183 12.0794 3.73558 12.5017 3.73558C12.924 3.73558 13.2673 3.39183 13.2673 2.96957ZM7.99154 2.96957C7.99154 3.80941 7.30873 4.493 6.4685 4.493C5.62865 4.493 4.94506 3.80941 4.94506 2.96957C4.94506 2.12972 5.62865 1.44613 6.4685 1.44613C7.30873 1.44613 7.99154 2.12972 7.99154 2.96957ZM7.23451 2.96957C7.23451 2.5473 6.89076 2.20355 6.4685 2.20355C6.04623 2.20355 5.70248 2.5473 5.70248 2.96957C5.70248 3.39183 6.04623 3.73558 6.4685 3.73558C6.89076 3.73558 7.23451 3.39183 7.23451 2.96957ZM4.22787 10.7246H20.7767C20.9865 10.7246 21.1556 10.8946 21.156 11.1035V20.3246C21.156 20.534 20.9865 20.7036 20.7767 20.7036H4.22787C4.0185 20.7036 3.84897 20.534 3.84897 20.3246V11.1035C3.84897 10.8946 4.0185 10.7246 4.22787 10.7246ZM4.60678 19.9461H20.3982V11.4825H4.60678V19.9461Z" fill="#E82431"/>
</g>
<defs>
<clipPath id="clip0">
<rect width="25" height="25" fill="white"/>
</clipPath>
</defs>
</svg>
