<svg width="25" height="25" viewBox="0 0 25 25" fill="none" xmlns="http://www.w3.org/2000/svg">
<g clip-path="url(#clip0)">
<path d="M1.5625 13.9563H23.4375C24.2991 13.9563 25 13.2554 25 12.3938V4.19067C25 3.32906 24.2991 2.62817 23.4375 2.62817H1.5625C0.700887 2.62817 0 3.32906 0 4.19067V12.3938C0 13.2554 0.700887 13.9563 1.5625 13.9563ZM1.04167 4.19067C1.04167 3.90355 1.27538 3.66984 1.5625 3.66984H23.4375C23.7246 3.66984 23.9583 3.90355 23.9583 4.19067V12.3938C23.9583 12.6809 23.7246 12.9146 23.4375 12.9146H1.5625C1.27538 12.9146 1.04167 12.6809 1.04167 12.3938V4.19067Z" fill="#E82431"/>
<path d="M6.15235 9.48751H18.8477C19.1353 9.48751 19.3685 9.2543 19.3685 8.96667C19.3685 8.67905 19.1353 8.44584 18.8477 8.44584H6.15235C5.86472 8.44584 5.63151 8.67905 5.63151 8.96667C5.63151 9.2543 5.86472 9.48751 6.15235 9.48751ZM4.73175 11.8313H20.2683C20.5559 11.8313 20.7891 11.5981 20.7891 11.3104C20.7891 11.0228 20.5559 10.7896 20.2683 10.7896H4.73175C4.44413 10.7896 4.21092 11.0228 4.21092 11.3104C4.21092 11.5981 4.44413 11.8313 4.73175 11.8313ZM17.9715 16.2121C17.9715 15.9244 17.7383 15.6912 17.4507 15.6912C17.1631 15.6912 16.9299 15.9244 16.9299 16.2121C16.9299 16.5134 16.8396 16.6388 16.6898 16.8466C16.5054 17.1024 16.2529 17.4528 16.2529 18.0907C16.2529 18.729 16.5052 19.0794 16.6893 19.3355C16.8393 19.5441 16.9299 19.6697 16.9299 19.9723C16.9299 20.2747 16.8393 20.4006 16.6896 20.6089C16.5052 20.8647 16.2529 21.2154 16.2529 21.8537C16.2529 22.1414 16.4861 22.3746 16.7737 22.3746C17.0614 22.3746 17.2946 22.1414 17.2946 21.8537C17.2946 21.5514 17.3851 21.4255 17.5349 21.2172C17.7193 20.9614 17.9715 20.6107 17.9715 19.9723C17.9715 19.334 17.7193 18.9833 17.5349 18.7272C17.3851 18.5189 17.2946 18.393 17.2946 18.0907C17.2946 17.7891 17.3851 17.6637 17.5349 17.4556C17.719 17.2001 17.9715 16.8499 17.9715 16.2121ZM13.3593 16.2121C13.3593 15.9244 13.1261 15.6912 12.8385 15.6912C12.5509 15.6912 12.3177 15.9244 12.3177 16.2121C12.3177 16.5134 12.2274 16.6388 12.0776 16.8466C11.8932 17.1024 11.6407 17.4528 11.6407 18.0907C11.6407 18.729 11.893 19.0794 12.0771 19.3355C12.2271 19.5441 12.3177 19.6697 12.3177 19.9723C12.3177 20.2747 12.2271 20.4006 12.0773 20.6089C11.893 20.8647 11.6407 21.2154 11.6407 21.8537C11.6407 22.1414 11.8739 22.3746 12.1615 22.3746C12.4491 22.3746 12.6823 22.1414 12.6823 21.8537C12.6823 21.5514 12.7729 21.4255 12.9227 21.2172C13.107 20.9614 13.3593 20.6107 13.3593 19.9723C13.3593 19.334 13.107 18.9833 12.9227 18.7272C12.7729 18.5189 12.6823 18.393 12.6823 18.0907C12.6823 17.7891 12.7729 17.6637 12.9227 17.4556C13.1068 17.2001 13.3593 16.8499 13.3593 16.2121ZM8.7471 16.2121C8.7471 15.9244 8.5139 15.6912 8.22627 15.6912C7.93864 15.6912 7.70544 15.9244 7.70544 16.2121C7.70544 16.5134 7.61516 16.6388 7.46536 16.8466C7.28099 17.1024 7.02846 17.4528 7.02846 18.0907C7.02846 18.729 7.28073 19.0794 7.46486 19.3355C7.6149 19.5441 7.70544 19.6697 7.70544 19.9723C7.70544 20.2747 7.6149 20.4006 7.46511 20.6089C7.28073 20.8647 7.02846 21.2154 7.02846 21.8537C7.02846 22.1414 7.26166 22.3746 7.54929 22.3746C7.83692 22.3746 8.07012 22.1414 8.07012 21.8537C8.07012 21.5514 8.16066 21.4255 8.31045 21.2172C8.49483 20.9614 8.7471 20.6107 8.7471 19.9723C8.7471 19.334 8.49483 18.9833 8.31045 18.7272C8.16066 18.5189 8.07012 18.393 8.07012 18.0907C8.07012 17.7891 8.16066 17.6637 8.31045 17.4556C8.49457 17.2001 8.7471 16.8499 8.7471 16.2121ZM22.2005 6.63208C22.4881 6.63208 22.7214 6.39887 22.7214 6.11125V5.59041C22.7214 5.30279 22.4881 5.06958 22.2005 5.06958C21.9129 5.06958 21.6797 5.30279 21.6797 5.59041V6.11125C21.6797 6.39887 21.9129 6.63208 22.2005 6.63208Z" fill="#E82431"/>
</g>
<defs>
<clipPath id="clip0">
<rect width="25" height="25" fill="white"/>
</clipPath>
</defs>
</svg>
