<svg width="25" height="25" viewBox="0 0 25 25" fill="none" xmlns="http://www.w3.org/2000/svg">
<g clip-path="url(#clip0)">
<path d="M24.5833 0H0.416667C0.30616 0 0.200179 0.0438987 0.122039 0.122039C0.0438987 0.200179 0 0.30616 0 0.416667V24.5833C0 24.6938 0.0438987 24.7998 0.122039 24.878C0.200179 24.9561 0.30616 25 0.416667 25H24.5833C24.6938 25 24.7998 24.9561 24.878 24.878C24.9561 24.7998 25 24.6938 25 24.5833V0.416667C25 0.30616 24.9561 0.200179 24.878 0.122039C24.7998 0.0438987 24.6938 0 24.5833 0ZM6.66667 24.1667H6.25V6.25H6.66667V24.1667ZM12.0833 24.1667H7.5V6.25H12.0833V24.1667ZM17.5 24.1667H12.9167V6.25H17.5V24.1667ZM18.75 24.1667H18.3333V6.25H18.75V24.1667ZM24.1667 24.1667H19.5833V5.83333C19.5833 5.72283 19.5394 5.61685 19.4613 5.53871C19.3832 5.46057 19.2772 5.41667 19.1667 5.41667H5.83333C5.72283 5.41667 5.61685 5.46057 5.53871 5.53871C5.46057 5.61685 5.41667 5.72283 5.41667 5.83333V24.1667H0.833333V0.833333H24.1667V24.1667Z" fill="#E82431"/>
<path d="M20.4167 16.6667H22.9167C23.0272 16.6667 23.1332 16.6228 23.2113 16.5446C23.2894 16.4665 23.3333 16.3605 23.3333 16.25V12.0833C23.3333 11.9728 23.2894 11.8668 23.2113 11.7887C23.1332 11.7106 23.0272 11.6667 22.9167 11.6667H20.4167C20.3062 11.6667 20.2002 11.7106 20.122 11.7887C20.0439 11.8668 20 11.9728 20 12.0833V16.25C20 16.3605 20.0439 16.4665 20.122 16.5446C20.2002 16.6228 20.3062 16.6667 20.4167 16.6667ZM20.8333 12.5H22.5V15.8333H20.8333V12.5Z" fill="#E82431"/>
<path d="M7.91667 3.33333H7.08333V4.16667H7.91667V3.33333Z" fill="#E82431"/>
<path d="M9.58333 3.33333H8.75V4.16667H9.58333V3.33333Z" fill="#E82431"/>
<path d="M11.25 3.33333H10.4167V4.16667H11.25V3.33333Z" fill="#E82431"/>
<path d="M12.9167 3.33333H12.0833V4.16667H12.9167V3.33333Z" fill="#E82431"/>
<path d="M14.5833 3.33333H13.75V4.16667H14.5833V3.33333Z" fill="#E82431"/>
<path d="M16.25 3.33333H15.4167V4.16667H16.25V3.33333Z" fill="#E82431"/>
<path d="M17.9167 3.33333H17.0833V4.16667H17.9167V3.33333Z" fill="#E82431"/>
<path d="M22.0833 12.9167H21.25V13.75H22.0833V12.9167Z" fill="#E82431"/>
<path d="M22.0833 14.5833H21.25V15.4167H22.0833V14.5833Z" fill="#E82431"/>
</g>
<defs>
<clipPath id="clip0">
<rect width="25" height="25" fill="white"/>
</clipPath>
</defs>
</svg>
