<svg width="25" height="25" viewBox="0 0 25 25" fill="none" xmlns="http://www.w3.org/2000/svg">
<g clip-path="url(#clip0)">
<path fill-rule="evenodd" clip-rule="evenodd" d="M24.7866 15.6689C24.653 15.5781 24.4833 15.559 24.3328 15.6183L12.3954 20.3211C12.8216 19.7705 13.1577 19.1691 13.3982 18.5341C15.667 17.6342 17.9323 16.7239 20.2047 15.8339C20.3793 15.7654 20.5105 15.6233 20.5649 15.444C20.6192 15.2645 20.5889 15.0735 20.4817 14.9198C19.8128 13.9603 18.6637 13.5088 17.5411 13.7352L15.5947 11.3432C14.6795 10.2186 13.0915 9.9065 11.8186 10.6014L11.5441 10.7511L11.0144 7.32108C10.9087 6.63762 10.5673 6.01215 10.0519 5.55283C10.9534 5.15168 11.5838 4.2481 11.5838 3.19955C11.5838 1.77999 10.4288 0.625 9.00926 0.625C7.58951 0.625 6.43452 1.77999 6.43452 3.19955C6.43452 3.87595 6.69718 4.49188 7.12522 4.95178C6.6184 5.12154 6.16118 5.42655 5.806 5.84296L4.90471 6.89952C4.21496 7.7083 3.89564 8.76467 4.00723 9.80769C1.35622 11.0406 -0.265342 13.891 0.0358203 16.7998C0.348416 19.8182 2.68906 22.4475 5.80276 22.9183L3.49259 23.8284C3.27437 23.9144 3.14809 24.1435 3.19177 24.3737C3.23565 24.6041 3.43689 24.7711 3.67151 24.7711H24.5117C24.7814 24.7711 25 24.5525 25 24.2827V16.0725C25 15.9109 24.9201 15.7598 24.7866 15.6689ZM24.0236 16.7897L6.24301 23.7946H24.0236V16.7897ZM4.21553 10.7914C2.05815 11.896 0.736363 14.0877 1.00712 16.6991C1.34572 19.9648 4.26628 22.3344 7.53248 22.0002C8.12599 21.9395 8.54688 21.8284 9.01975 21.651L9.20764 21.577C10.1063 21.2038 10.9038 20.6118 11.5344 19.8354C11.9787 19.2885 12.3163 18.6795 12.5406 18.033C12.5458 18.0137 12.5521 17.9949 12.5597 17.9764C12.8262 17.1821 12.9223 16.333 12.8334 15.4749C12.5408 12.648 10.2921 10.444 7.51111 10.1707L7.69881 11.3146C9.8354 11.6603 11.5029 13.4012 11.7294 15.5891C11.8625 16.8736 11.4873 18.1332 10.673 19.1355C9.85867 20.1379 8.70272 20.7632 7.41822 20.8962C4.80917 21.165 2.38219 19.2044 2.11099 16.5848C1.9149 14.6894 2.86407 12.8507 4.49517 11.9037L4.21553 10.7914ZM13.4314 13.7387C13.6182 14.2569 13.7458 14.8046 13.8047 15.3742C13.8741 16.0441 13.8465 16.7088 13.7276 17.353L15.7595 16.5471L13.4703 13.7184L13.4314 13.7387ZM16.9816 14.5947L14.8372 11.9595C14.219 11.1998 13.1462 10.989 12.2865 11.4584L12.1377 11.5395C12.4838 11.9365 12.7855 12.374 13.0352 12.8442L13.3746 12.6682C13.5804 12.5614 13.8329 12.6144 13.9789 12.7945L16.701 16.1581L19.3559 15.1176C18.8565 14.6865 18.1641 14.5383 17.5117 14.751C17.3197 14.8133 17.1091 14.7514 16.9816 14.5947ZM10.6074 3.19936C10.6074 2.31829 9.89033 1.60126 9.00907 1.60126C8.128 1.60126 7.41097 2.31829 7.41097 3.19936C7.41097 4.08062 8.128 4.79746 9.00907 4.79746C9.89033 4.79746 10.6074 4.08062 10.6074 3.19936ZM9.91513 18.5198C10.5648 17.72 10.8643 16.7147 10.7582 15.6897C10.589 14.0565 9.41403 12.7353 7.86781 12.3456L7.98379 13.0527C8.0578 13.5037 7.93057 13.962 7.63472 14.3103C7.33886 14.6588 6.90701 14.8586 6.44997 14.8586C5.73638 14.8586 5.11644 14.3752 4.94248 13.6832L4.74562 12.8996C3.59178 13.6894 2.9356 15.0669 3.08247 16.4843C3.18853 17.5094 3.68753 18.4319 4.48754 19.0818C5.28735 19.7316 6.29222 20.0309 7.31769 19.9249C8.34278 19.8188 9.26525 19.3198 9.91513 18.5198ZM6.74544 8.51861C7.01173 8.47492 7.26275 8.65537 7.30625 8.92147L7.3484 9.17822C8.47764 9.24651 9.53802 9.58776 10.4616 10.1392L10.0492 7.46986C9.89739 6.48731 9.06572 5.7741 8.07134 5.7741C7.4846 5.7741 6.92951 6.03008 6.54878 6.47663L5.64768 7.533C5.04586 8.23858 4.82154 9.19672 5.04758 10.0959L5.88955 13.4451C5.95421 13.7024 6.18464 13.8821 6.44997 13.8821C6.62241 13.8821 6.77882 13.8098 6.89041 13.6784C7.002 13.547 7.04816 13.3808 7.02031 13.2107L6.804 11.892C6.79256 11.8533 6.7855 11.8129 6.78416 11.7711L6.34277 9.07941C6.29909 8.81331 6.47935 8.56229 6.74544 8.51861Z" fill="#E82431"/>
</g>
<defs>
<clipPath id="clip0">
<rect width="25" height="25" fill="white"/>
</clipPath>
</defs>
</svg>
