<svg width="25" height="25" viewBox="0 0 25 25" fill="none" xmlns="http://www.w3.org/2000/svg">
<g clip-path="url(#clip0)">
<path d="M24.5833 21.8304H21.25V14.1964H23.75V15.4687C23.75 15.5812 23.7939 15.6891 23.872 15.7686C23.9502 15.8482 24.0562 15.8929 24.1667 15.8929C24.2772 15.8929 24.3832 15.8482 24.4613 15.7686C24.5394 15.6891 24.5833 15.5812 24.5833 15.4687V13.7723C24.5833 13.6598 24.5394 13.552 24.4613 13.4724C24.3832 13.3929 24.2772 13.3482 24.1667 13.3482H18.75V3.16964H19.5833C19.6938 3.16964 19.7998 3.12496 19.878 3.04542C19.9561 2.96589 20 2.85802 20 2.74554V1.04911C20 0.936627 19.9561 0.828754 19.878 0.749218C19.7998 0.669683 19.6938 0.625 19.5833 0.625H5.41667C5.30616 0.625 5.20018 0.669683 5.12204 0.749218C5.0439 0.828754 5 0.936627 5 1.04911V2.74554C5 2.85802 5.0439 2.96589 5.12204 3.04542C5.20018 3.12496 5.30616 3.16964 5.41667 3.16964H6.25V13.3482H4.71906L5.40062 10.9202C5.41836 10.8571 5.42146 10.7906 5.40967 10.7261C5.39789 10.6615 5.37154 10.6006 5.3327 10.5482C5.29386 10.4958 5.24359 10.4533 5.18586 10.424C5.12813 10.3947 5.0645 10.3795 5 10.3795H3.50589L4.66964 9.19499C4.70833 9.1556 4.73902 9.10885 4.75996 9.05739C4.7809 9.00594 4.79168 8.95078 4.79168 8.89509C4.79168 8.83939 4.7809 8.78424 4.75996 8.73279C4.73902 8.68133 4.70833 8.63457 4.66964 8.59519C4.63094 8.55581 4.58501 8.52457 4.53446 8.50325C4.4839 8.48194 4.42972 8.47097 4.375 8.47097C4.32028 8.47097 4.2661 8.48194 4.21554 8.50325C4.16499 8.52457 4.11906 8.55581 4.08036 8.59519L3.54167 9.14356L2.37797 7.95903C2.29983 7.87949 2.19384 7.83481 2.08333 7.83481C1.97282 7.83481 1.86684 7.87949 1.7887 7.95903C1.71056 8.03857 1.66666 8.14644 1.66666 8.25893C1.66666 8.37141 1.71056 8.47929 1.7887 8.55882L2.95245 9.7433L2.32745 10.3795H1.25C1.1855 10.3795 1.12187 10.3947 1.06414 10.424C1.00641 10.4533 0.95614 10.4958 0.917302 10.5482C0.878464 10.6006 0.852114 10.6615 0.840326 10.7261C0.828539 10.7906 0.831636 10.8571 0.849375 10.9202L1.53094 13.3482H0.833333C0.722826 13.3482 0.616846 13.3929 0.538705 13.4724C0.460565 13.552 0.416667 13.6598 0.416667 13.7723V15.4687C0.416667 15.5812 0.460565 15.6891 0.538705 15.7686C0.616846 15.8482 0.722826 15.8929 0.833333 15.8929C0.94384 15.8929 1.04982 15.8482 1.12796 15.7686C1.2061 15.6891 1.25 15.5812 1.25 15.4687V14.1964H3.75V21.8304H0.416667C0.30616 21.8304 0.200179 21.875 0.122039 21.9546C0.0438987 22.0341 0 22.142 0 22.2545V23.9509C0 24.0634 0.0438987 24.1712 0.122039 24.2508C0.200179 24.3303 0.30616 24.375 0.416667 24.375H24.5833C24.6938 24.375 24.7998 24.3303 24.878 24.2508C24.9561 24.1712 25 24.0634 25 23.9509V22.2545C25 22.142 24.9561 22.0341 24.878 21.9546C24.7998 21.875 24.6938 21.8304 24.5833 21.8304ZM20.4167 14.1964V21.8304H17.9167V14.1964H20.4167ZM12.9167 13.3482V8.68303H17.9167V13.3482H12.9167ZM17.0833 14.1964V21.8304H14.5833V14.1964H17.0833ZM7.08333 13.3482V8.68303H12.0833V13.3482H7.08333ZM10.4167 14.1964V21.8304H7.91667V14.1964H10.4167ZM7.08333 7.83482V3.16964H12.0833V7.83482H7.08333ZM11.25 14.1964H13.75V21.8304H11.25V14.1964ZM12.9167 7.83482V3.16964H17.9167V7.83482H12.9167ZM5.83333 2.32143V1.47321H19.1667V2.32143H5.83333ZM4.58333 14.1964H7.08333V21.8304H4.58333V14.1964ZM2.39766 13.3482L1.8024 11.2277H4.4476L3.85234 13.3482H2.39766ZM24.1667 23.5268H0.833333V22.6786H24.1667V23.5268Z" fill="#E82431"/>
</g>
<defs>
<clipPath id="clip0">
<rect width="25" height="25" fill="white"/>
</clipPath>
</defs>
</svg>
