<svg width="25" height="25" viewBox="0 0 25 25" fill="none" xmlns="http://www.w3.org/2000/svg">
<g clip-path="url(#clip0)">
<path d="M0 10.4565H3.78947V25H21.2105V10.4565H25L12.5263 0L0 10.4565ZM20.2105 9.3949V23.9384H4.84211V9.3949H2.94737L12.5263 1.38004L22.1053 9.3949H20.2105Z" fill="#E82431"/>
<path d="M8.49476 13.2826V14.2468H7.5V21.25H17.5V14.196H16.5052V13.2318C16.5052 11.1004 14.7251 9.375 12.5262 9.375C10.3272 9.375 8.49476 11.1512 8.49476 13.2826ZM8.54712 20.235V15.2618H16.4529V20.235H8.54712ZM15.4058 13.2826V14.2468H9.54188V13.2826C9.54188 11.7094 10.8508 10.4407 12.4738 10.4407C14.0969 10.4407 15.4058 11.7094 15.4058 13.2826Z" fill="#E82431"/>
<path d="M12.9976 16.6827H11.9505V18.6618H12.9976V16.6827Z" fill="#E82431"/>
</g>
<defs>
<clipPath id="clip0">
<rect width="25" height="25" fill="white"/>
</clipPath>
</defs>
</svg>
