<svg width="25" height="25" viewBox="0 0 25 25" fill="none" xmlns="http://www.w3.org/2000/svg">
<path fill-rule="evenodd" clip-rule="evenodd" d="M1.83105 2.07507H23.1689C23.6544 2.07562 24.1198 2.26871 24.4631 2.61198C24.8064 2.95525 24.9995 3.42067 25 3.90613V21.826C24.9997 22.1173 24.8838 22.3966 24.6779 22.6025C24.4719 22.8085 24.1926 22.9244 23.9014 22.9247H21.7041C21.4128 22.9244 21.1336 22.8085 20.9276 22.6025C20.7216 22.3966 20.6058 22.1173 20.6055 21.826V18.579H14.4531V19.995H17.0797C17.2591 19.9948 17.434 20.0512 17.5795 20.1561C17.725 20.261 17.8338 20.409 17.8904 20.5793L18.2973 21.8C18.3401 21.9284 18.3517 22.0652 18.3313 22.1991C18.3109 22.3329 18.259 22.46 18.1798 22.5698C18.1006 22.6796 17.9965 22.7691 17.876 22.8308C17.7555 22.8925 17.622 22.9247 17.4866 22.9247H7.51338C7.37799 22.9247 7.24453 22.8925 7.12402 22.8308C7.0035 22.7691 6.89937 22.6796 6.8202 22.5698C6.74103 22.46 6.6891 22.3329 6.66868 22.1991C6.64825 22.0652 6.65993 21.9284 6.70274 21.8L7.10964 20.5793C7.16621 20.4091 7.27499 20.261 7.42051 20.1561C7.56603 20.0512 7.74091 19.9948 7.92029 19.995H10.5469V18.579H1.83105C1.3456 18.5784 0.880178 18.3853 0.536907 18.0421C0.193636 17.6988 0.000546285 17.2334 0 16.7479V3.90613C0.000546285 3.42067 0.193636 2.95525 0.536907 2.61198C0.880178 2.26871 1.3456 2.07562 1.83105 2.07507ZM17.1511 20.7504C17.1303 20.7354 17.1053 20.7274 17.0797 20.7274L7.92029 20.7274C7.89466 20.7274 7.86968 20.7354 7.84889 20.7504C7.8281 20.7654 7.81256 20.7866 7.80449 20.8109L7.39758 22.0316C7.39146 22.0499 7.3898 22.0695 7.39271 22.0886C7.39563 22.1077 7.40305 22.1259 7.41436 22.1416C7.42566 22.1573 7.44054 22.17 7.45776 22.1788C7.47497 22.1877 7.49404 22.1923 7.51338 22.1923H17.4866C17.506 22.1923 17.525 22.1877 17.5422 22.1788C17.5595 22.17 17.5743 22.1573 17.5856 22.1416C17.597 22.1259 17.6044 22.1077 17.6073 22.0886C17.6102 22.0695 17.6085 22.0499 17.6024 22.0316L17.1955 20.8109C17.1874 20.7866 17.1719 20.7654 17.1511 20.7504ZM11.2793 18.579V19.995H13.7207V18.579H11.2793ZM20.6055 16.3817V13.0858C20.6058 12.7945 20.7216 12.5153 20.9276 12.3093C21.0318 12.2051 21.1547 12.124 21.2885 12.0692C21.2877 12.0578 21.2873 12.0462 21.2873 12.0346V11.4229C21.2873 11.1662 21.4814 10.9575 21.7202 10.9575H22.0665C22.3053 10.9575 22.4994 11.1662 22.4994 11.4229V11.9872H22.8027V4.27234H2.19727V16.3817H20.6055ZM22.3263 11.9872V11.4229C22.3263 11.269 22.2097 11.1437 22.0665 11.1437H21.7202C21.577 11.1437 21.4605 11.269 21.4605 11.4229V12.0148C21.5398 11.9967 21.6215 11.9873 21.7041 11.9872H22.3263ZM24.1602 22.0849C24.2289 22.0162 24.2675 21.9231 24.2676 21.826V13.0858C24.2675 12.9887 24.2289 12.8956 24.1602 12.827C24.0915 12.7583 23.9985 12.7197 23.9014 12.7196H21.7041C21.607 12.7197 21.5139 12.7583 21.4453 12.827C21.3766 12.8956 21.338 12.9887 21.3379 13.0858V21.826C21.338 21.9231 21.3766 22.0162 21.4453 22.0849C21.5139 22.1535 21.607 22.1922 21.7041 22.1923H23.9014C23.9985 22.1922 24.0915 22.1535 24.1602 22.0849ZM23.9014 11.9872C24.0261 11.9871 24.15 12.0084 24.2676 12.0502V3.90613C24.2673 3.61485 24.1514 3.3356 23.9454 3.12964C23.7395 2.92367 23.4602 2.80782 23.1689 2.8075H1.83105C1.53978 2.80782 1.26053 2.92367 1.05456 3.12964C0.848601 3.3356 0.732748 3.61485 0.732422 3.90613V16.7479C0.732748 17.0392 0.848601 17.3185 1.05456 17.5244C1.26053 17.7304 1.53978 17.8462 1.83105 17.8466H20.6055V17.1141H1.83105C1.73393 17.1141 1.64078 17.0756 1.57211 17.0069C1.50343 16.9382 1.46484 16.845 1.46484 16.7479V3.90613C1.46484 3.809 1.50343 3.71586 1.57211 3.64718C1.64078 3.5785 1.73393 3.53992 1.83105 3.53992H23.1689C23.2661 3.53992 23.3592 3.5785 23.4279 3.64718C23.4966 3.71586 23.5352 3.809 23.5352 3.90613V11.9872H23.9014ZM22.498 13.9725C22.4848 13.9527 22.4735 13.9316 22.4643 13.9095C22.4554 13.8874 22.4485 13.8646 22.4438 13.8412C22.4341 13.7938 22.4341 13.745 22.4438 13.6976C22.4485 13.6742 22.4554 13.6514 22.4643 13.6293C22.4735 13.6072 22.4848 13.5861 22.498 13.5663C22.5251 13.5262 22.5595 13.4917 22.5996 13.4647C22.6195 13.4515 22.6406 13.4402 22.6626 13.431C22.6847 13.422 22.7076 13.4152 22.7309 13.4105C22.7783 13.4007 22.8271 13.4007 22.8745 13.4105C22.8979 13.4152 22.9208 13.422 22.9429 13.431C22.9649 13.4402 22.986 13.4515 23.0058 13.4647C23.0459 13.4917 23.0804 13.5262 23.1074 13.5663C23.1206 13.5861 23.1319 13.6072 23.1411 13.6293C23.1501 13.6514 23.1569 13.6742 23.1616 13.6976C23.1714 13.745 23.1714 13.7938 23.1616 13.8412C23.1569 13.8646 23.1501 13.8874 23.1411 13.9095C23.1319 13.9316 23.1206 13.9527 23.1074 13.9725C23.0804 14.0126 23.0459 14.0471 23.0058 14.0741C22.986 14.0873 22.9649 14.0986 22.9429 14.1078C22.9208 14.1167 22.8979 14.1236 22.8745 14.1283C22.8271 14.1381 22.7783 14.1381 22.7309 14.1283C22.7076 14.1236 22.6847 14.1167 22.6626 14.1078C22.6406 14.0986 22.6195 14.0873 22.5996 14.0741C22.5595 14.0471 22.5251 14.0126 22.498 13.9725ZM22.1776 19.3698C22.2463 19.3012 22.3394 19.2626 22.4365 19.2626H23.1689C23.2661 19.2626 23.3592 19.3012 23.4279 19.3698C23.4966 19.4385 23.5352 19.5317 23.5352 19.6288C23.5352 19.7259 23.4966 19.8191 23.4279 19.8877C23.3592 19.9564 23.2661 19.995 23.1689 19.995H22.4365C22.3394 19.995 22.2463 19.9564 22.1776 19.8877C22.1089 19.8191 22.0703 19.7259 22.0703 19.6288C22.0703 19.5317 22.1089 19.4385 22.1776 19.3698ZM22.1776 20.8347C22.2463 20.766 22.3394 20.7274 22.4365 20.7274H23.1689C23.2661 20.7274 23.3592 20.766 23.4279 20.8347C23.4966 20.9034 23.5352 20.9965 23.5352 21.0936C23.5352 21.1908 23.4966 21.2839 23.4279 21.3526C23.3592 21.4213 23.2661 21.4598 23.1689 21.4598H22.4365C22.3394 21.4598 22.2463 21.4213 22.1776 21.3526C22.1089 21.2839 22.0703 21.1908 22.0703 21.0936C22.0703 20.9965 22.1089 20.9034 22.1776 20.8347ZM5.01024 10.1197H5.35656C5.64297 10.1197 5.87604 9.86916 5.87604 9.56124V8.44422C5.87604 8.13629 5.64297 7.88571 5.35656 7.88571H5.01024C4.72384 7.88571 4.49076 8.13629 4.49076 8.44422V9.56124C4.49076 9.86916 4.72384 10.1197 5.01024 10.1197ZM4.83708 8.44422C4.83708 8.34145 4.91483 8.25805 5.01024 8.25805H5.35656C5.45198 8.25805 5.52972 8.34145 5.52972 8.44422V9.56124C5.52972 9.664 5.45198 9.74741 5.35656 9.74741H5.01024C4.91483 9.74741 4.83708 9.664 4.83708 9.56124V8.44422ZM7.08817 10.1197H7.43449C7.72089 10.1197 7.95397 9.86916 7.95397 9.56124V8.44422C7.95397 8.13629 7.72089 7.88571 7.43449 7.88571H7.08817C6.80176 7.88571 6.56869 8.13629 6.56869 8.44422V9.56124C6.56869 9.86916 6.80176 10.1197 7.08817 10.1197ZM6.91501 8.44422C6.91501 8.34145 6.99275 8.25805 7.08817 8.25805H7.43449C7.48041 8.25805 7.52445 8.27766 7.55693 8.31258C7.5894 8.34749 7.60765 8.39484 7.60765 8.44422V9.56124C7.60765 9.61061 7.5894 9.65797 7.55693 9.69288C7.52445 9.7278 7.48041 9.74741 7.43449 9.74741H7.08817C6.99275 9.74741 6.91501 9.664 6.91501 9.56124V8.44422ZM9.16609 10.1197H9.51241C9.79881 10.1197 10.0319 9.86916 10.0319 9.56124V8.44422C10.0319 8.13629 9.79881 7.88571 9.51241 7.88571H9.16609C8.87968 7.88571 8.64661 8.13629 8.64661 8.44422V9.56124C8.64661 9.86916 8.87968 10.1197 9.16609 10.1197ZM9.04364 8.31258C9.07612 8.27766 9.12016 8.25805 9.16609 8.25805H9.51241C9.55833 8.25805 9.60238 8.27766 9.63485 8.31258C9.66733 8.34749 9.68557 8.39484 9.68557 8.44422V9.56124C9.68557 9.61061 9.66733 9.65797 9.63485 9.69288C9.60238 9.7278 9.55833 9.74741 9.51241 9.74741H9.16609C9.12016 9.74741 9.07612 9.7278 9.04364 9.69288C9.01117 9.65797 8.99293 9.61061 8.99293 9.56124V8.44422C8.99293 8.39484 9.01117 8.34749 9.04364 8.31258ZM6.0492 13.0054H6.39552C6.63414 13.0054 6.82843 12.7967 6.82843 12.54V11.4229C6.82843 11.1662 6.63414 10.9575 6.39552 10.9575H6.0492C5.81059 10.9575 5.6163 11.1662 5.6163 11.4229V12.54C5.61644 12.6634 5.6621 12.7817 5.74325 12.8689C5.8244 12.9562 5.93443 13.0052 6.0492 13.0054ZM5.78946 11.4229C5.78946 11.269 5.906 11.1437 6.0492 11.1437H6.39552C6.53873 11.1437 6.65527 11.269 6.65527 11.4229V12.54C6.65527 12.6939 6.53873 12.8192 6.39552 12.8192H6.0492C5.906 12.8192 5.78946 12.6939 5.78946 12.54V11.4229ZM11.244 13.0054H11.5903C11.8291 13.0054 12.0232 12.7967 12.0232 12.54V11.4229C12.0232 11.1662 11.8291 10.9575 11.5903 10.9575H11.244C11.0052 10.9575 10.8111 11.1662 10.8111 11.4229V12.54C10.8112 12.6634 10.8568 12.7817 10.938 12.869C11.0192 12.9562 11.1292 13.0053 11.244 13.0054ZM10.9843 11.4229C10.9843 11.269 11.1008 11.1437 11.244 11.1437H11.5903C11.7335 11.1437 11.8501 11.269 11.8501 11.4229V12.54C11.8501 12.6939 11.7335 12.8192 11.5903 12.8192H11.244C11.1008 12.8192 10.9843 12.6939 10.9843 12.54V11.4229ZM9.16609 13.0054H9.51241C9.7512 13.0054 9.94531 12.7967 9.94531 12.54V11.4229C9.94531 11.1662 9.7512 10.9575 9.51241 10.9575H9.16609C8.9273 10.9575 8.73319 11.1662 8.73319 11.4229V12.54C8.73328 12.6634 8.77892 12.7817 8.86008 12.869C8.94125 12.9562 9.0513 13.0053 9.16609 13.0054ZM8.90635 11.4229C8.90635 11.269 9.02288 11.1437 9.16609 11.1437H9.51241C9.65561 11.1437 9.77215 11.269 9.77215 11.4229V12.54C9.77215 12.6939 9.65561 12.8192 9.51241 12.8192H9.16609C9.02288 12.8192 8.90635 12.6939 8.90635 12.54V11.4229ZM3.56374 9.9994C3.57998 10.0169 3.602 10.0267 3.62496 10.0267C3.64792 10.0267 3.66995 10.0169 3.68618 9.9994C3.70242 9.98194 3.71154 9.95827 3.71154 9.93358V8.07188C3.71154 8.04719 3.70242 8.02351 3.68618 8.00606C3.66995 7.9886 3.64792 7.97879 3.62496 7.97879C3.602 7.97879 3.57998 7.9886 3.56374 8.00606C3.5475 8.02351 3.53838 8.04719 3.53838 8.07188V9.93358C3.53838 9.95827 3.5475 9.98194 3.56374 9.9994ZM2.52478 9.9994C2.54102 10.0169 2.56304 10.0267 2.586 10.0267C2.60896 10.0267 2.63099 10.0169 2.64722 9.9994C2.66346 9.98194 2.67258 9.95827 2.67258 9.93358V8.07188C2.67258 8.04719 2.66346 8.02351 2.64722 8.00606C2.63099 7.9886 2.60896 7.97879 2.586 7.97879C2.56304 7.97879 2.54102 7.9886 2.52478 8.00606C2.50854 8.02351 2.49942 8.04719 2.49942 8.07188V9.93358C2.49942 9.95827 2.50854 9.98194 2.52478 9.9994ZM11.8754 9.9994C11.8917 10.0169 11.9137 10.0267 11.9367 10.0267C11.9596 10.0267 11.9816 10.0169 11.9979 9.9994C12.0141 9.98194 12.0232 9.95827 12.0232 9.93358V8.07188C12.0232 8.04719 12.0141 8.02351 11.9979 8.00606C11.9816 7.9886 11.9596 7.97879 11.9367 7.97879C11.9137 7.97879 11.8917 7.9886 11.8754 8.00606C11.8592 8.02351 11.8501 8.04719 11.8501 8.07188V9.93358C11.8501 9.95827 11.8592 9.98194 11.8754 9.9994ZM10.8365 9.9994C10.8527 10.0169 10.8747 10.0267 10.8977 10.0267C10.9207 10.0267 10.9427 10.0169 10.9589 9.9994C10.9751 9.98194 10.9843 9.95827 10.9843 9.93358V8.07188C10.9843 8.04719 10.9751 8.02351 10.9589 8.00606C10.9427 7.9886 10.9207 7.97879 10.8977 7.97879C10.8747 7.97879 10.8527 7.9886 10.8365 8.00606C10.8202 8.02351 10.8111 8.04719 10.8111 8.07188V9.93358C10.8111 9.95827 10.8202 9.98194 10.8365 9.9994ZM2.93232 7.04794H3.27864C3.51726 7.04794 3.71154 6.83924 3.71154 6.58252V5.46549C3.71154 5.20876 3.51726 5.00007 3.27864 5.00007H2.93232C2.69371 5.00007 2.49942 5.20876 2.49942 5.46549V6.58252C2.49956 6.70591 2.54521 6.8242 2.62637 6.91146C2.70752 6.99871 2.81755 7.04779 2.93232 7.04794ZM2.67258 5.46549C2.67258 5.31153 2.78912 5.18624 2.93232 5.18624H3.27864C3.42185 5.18624 3.53838 5.31153 3.53838 5.46549V6.58252C3.53838 6.73648 3.42185 6.86177 3.27864 6.86177H2.93232C2.78912 6.86177 2.67258 6.73648 2.67258 6.58252V5.46549ZM8.12713 7.04794H8.47345C8.71223 7.04794 8.90635 6.83924 8.90635 6.58252V5.46549C8.90635 5.20876 8.71223 5.00007 8.47345 5.00007H8.12713C7.88834 5.00007 7.69423 5.20876 7.69423 5.46549V6.58252C7.69432 6.70592 7.73996 6.82425 7.82112 6.91151C7.90229 6.99877 8.01234 7.04784 8.12713 7.04794ZM7.86739 5.46549C7.86739 5.31153 7.98392 5.18624 8.12713 5.18624H8.47345C8.61665 5.18624 8.73319 5.31153 8.73319 5.46549V6.58252C8.73319 6.73648 8.61665 6.86177 8.47345 6.86177H8.12713C7.98392 6.86177 7.86739 6.73648 7.86739 6.58252V5.46549ZM5.64166 7.02068C5.6579 7.03813 5.67992 7.04794 5.70288 7.04794C5.72585 7.04794 5.74787 7.03813 5.76411 7.02068C5.78034 7.00322 5.78946 6.97954 5.78946 6.95486V5.09315C5.78946 5.06847 5.78034 5.04479 5.76411 5.02733C5.74787 5.00988 5.72585 5.00007 5.70288 5.00007C5.67992 5.00007 5.6579 5.00988 5.64166 5.02733C5.62543 5.04479 5.6163 5.06847 5.6163 5.09315V6.95486C5.6163 6.97954 5.62543 7.00322 5.64166 7.02068ZM4.6027 7.02068C4.61894 7.03813 4.64096 7.04794 4.66392 7.04794C4.68689 7.04794 4.70891 7.03813 4.72514 7.02068C4.74138 7.00322 4.7505 6.97954 4.7505 6.95486V5.09315C4.7505 5.06847 4.74138 5.04479 4.72514 5.02733C4.70891 5.00988 4.68689 5.00007 4.66392 5.00007C4.64096 5.00007 4.61894 5.00988 4.6027 5.02733C4.58646 5.04479 4.57734 5.06847 4.57734 5.09315V6.95486C4.57734 6.97954 4.58646 7.00322 4.6027 7.02068ZM11.8754 7.02068C11.8917 7.03813 11.9137 7.04794 11.9367 7.04794C11.9596 7.04794 11.9816 7.03813 11.9979 7.02068C12.0141 7.00322 12.0232 6.97954 12.0232 6.95486V5.09315C12.0232 5.06847 12.0141 5.04479 11.9979 5.02733C11.9816 5.00988 11.9596 5.00007 11.9367 5.00007C11.9137 5.00007 11.8917 5.00988 11.8754 5.02733C11.8592 5.04479 11.8501 5.06847 11.8501 5.09315V6.95486C11.8501 6.97954 11.8592 7.00322 11.8754 7.02068ZM10.8365 7.02068C10.8527 7.03813 10.8747 7.04794 10.8977 7.04794C10.9207 7.04794 10.9427 7.03813 10.9589 7.02068C10.9751 7.00322 10.9843 6.97954 10.9843 6.95486V5.09315C10.9843 5.06847 10.9751 5.04479 10.9589 5.02733C10.9427 5.00988 10.9207 5.00007 10.8977 5.00007C10.8747 5.00007 10.8527 5.00988 10.8365 5.02733C10.8202 5.04479 10.8111 5.06847 10.8111 5.09315V6.95486C10.8111 6.97954 10.8202 7.00322 10.8365 7.02068ZM9.79751 7.02068C9.81374 7.03813 9.83577 7.04794 9.85873 7.04794C9.88169 7.04794 9.90371 7.03813 9.91995 7.02068C9.93619 7.00322 9.94531 6.97954 9.94531 6.95486V5.09315C9.94531 5.06847 9.93619 5.04479 9.91995 5.02733C9.90371 5.00988 9.88169 5.00007 9.85873 5.00007C9.83577 5.00007 9.81374 5.00988 9.79751 5.02733C9.78127 5.04479 9.77215 5.06847 9.77215 5.09315V6.95486C9.77215 6.97954 9.78127 7.00322 9.79751 7.02068ZM6.68062 7.02068C6.69686 7.03813 6.71888 7.04794 6.74185 7.04794C6.76481 7.04794 6.78683 7.03813 6.80307 7.02068C6.8193 7.00322 6.82843 6.97954 6.82843 6.95486V5.09315C6.82843 5.06847 6.8193 5.04479 6.80307 5.02733C6.78683 5.00988 6.76481 5.00007 6.74185 5.00007C6.71888 5.00007 6.69686 5.00988 6.68062 5.02733C6.66439 5.04479 6.65527 5.06847 6.65527 5.09315V6.95486C6.65527 6.97954 6.66439 7.00322 6.68062 7.02068ZM2.93232 13.0054H3.27864C3.51726 13.0054 3.71154 12.7967 3.71154 12.54V11.4229C3.71154 11.1662 3.51726 10.9575 3.27864 10.9575H2.93232C2.69371 10.9575 2.49942 11.1662 2.49942 11.4229V12.54C2.49956 12.6634 2.54521 12.7817 2.62637 12.8689C2.70752 12.9562 2.81755 13.0052 2.93232 13.0054ZM2.67258 11.4229C2.67258 11.269 2.78912 11.1437 2.93232 11.1437H3.27864C3.42185 11.1437 3.53838 11.269 3.53838 11.4229V12.54C3.53838 12.6939 3.42185 12.8192 3.27864 12.8192H2.93232C2.78912 12.8192 2.67258 12.6939 2.67258 12.54V11.4229ZM4.6027 12.9781C4.61894 12.9956 4.64096 13.0054 4.66392 13.0054C4.68689 13.0054 4.70891 12.9956 4.72514 12.9781C4.74138 12.9607 4.7505 12.937 4.7505 12.9123V11.0506C4.7505 11.0259 4.74138 11.0022 4.72514 10.9848C4.70891 10.9673 4.68689 10.9575 4.66392 10.9575C4.64096 10.9575 4.61894 10.9673 4.6027 10.9848C4.58646 11.0022 4.57734 11.0259 4.57734 11.0506V12.9123C4.57734 12.937 4.58646 12.9607 4.6027 12.9781ZM7.71958 12.9781C7.73582 12.9956 7.75784 13.0054 7.78081 13.0054C7.80377 13.0054 7.82579 12.9956 7.84203 12.9781C7.85826 12.9607 7.86739 12.937 7.86739 12.9123V11.0506C7.86739 11.0259 7.85826 11.0022 7.84203 10.9848C7.82579 10.9673 7.80377 10.9575 7.78081 10.9575C7.75784 10.9575 7.73582 10.9673 7.71958 10.9848C7.70335 11.0022 7.69423 11.0259 7.69423 11.0506V12.9123C7.69423 12.937 7.70335 12.9607 7.71958 12.9781ZM15.4864 10.1197H15.8328C16.1192 10.1197 16.3522 9.86916 16.3522 9.56124V8.44422C16.3522 8.13629 16.1192 7.88571 15.8328 7.88571H15.4864C15.2 7.88571 14.967 8.13629 14.967 8.44422V9.56124C14.967 9.86916 15.2 10.1197 15.4864 10.1197ZM15.3133 8.44422C15.3133 8.34145 15.391 8.25805 15.4864 8.25805H15.8328C15.9282 8.25805 16.0059 8.34145 16.0059 8.44422V9.56124C16.0059 9.664 15.9282 9.74741 15.8328 9.74741H15.4864C15.391 9.74741 15.3133 9.664 15.3133 9.56124V8.44422ZM17.5644 10.1197H17.9107C18.1971 10.1197 18.4302 9.86916 18.4302 9.56124V8.44422C18.4302 8.13629 18.1971 7.88571 17.9107 7.88571H17.5644C17.2779 7.88571 17.0449 8.13629 17.0449 8.44422V9.56124C17.0449 9.86916 17.2779 10.1197 17.5644 10.1197ZM17.3912 8.44422C17.3912 8.34145 17.4689 8.25805 17.5644 8.25805H17.9107C17.9566 8.25805 18.0006 8.27766 18.0331 8.31258C18.0656 8.34749 18.0838 8.39484 18.0838 8.44422V9.56124C18.0838 9.61061 18.0656 9.65797 18.0331 9.69288C18.0006 9.7278 17.9566 9.74741 17.9107 9.74741H17.5644C17.4689 9.74741 17.3912 9.664 17.3912 9.56124V8.44422ZM19.6423 10.1197H19.9886C20.275 10.1197 20.5081 9.86916 20.5081 9.56124V8.44422C20.5081 8.13629 20.275 7.88571 19.9886 7.88571H19.6423C19.3559 7.88571 19.1228 8.13629 19.1228 8.44422V9.56124C19.1228 9.86916 19.3559 10.1197 19.6423 10.1197ZM19.5198 8.31258C19.5523 8.27766 19.5964 8.25805 19.6423 8.25805H19.9886C20.0345 8.25805 20.0786 8.27766 20.111 8.31258C20.1435 8.34749 20.1618 8.39484 20.1618 8.44422V9.56124C20.1618 9.61061 20.1435 9.65797 20.111 9.69288C20.0786 9.7278 20.0345 9.74741 19.9886 9.74741H19.6423C19.5964 9.74741 19.5523 9.7278 19.5198 9.69288C19.4874 9.65797 19.4691 9.61061 19.4691 9.56124V8.44422C19.4691 8.39484 19.4874 8.34749 19.5198 8.31258ZM16.5254 13.0054H16.8717C17.1103 13.0054 17.3046 12.7967 17.3046 12.54V11.4229C17.3046 11.1662 17.1103 10.9575 16.8717 10.9575H16.5254C16.2868 10.9575 16.0925 11.1662 16.0925 11.4229V12.54C16.0926 12.6634 16.1383 12.7817 16.2194 12.8689C16.3006 12.9562 16.4106 13.0052 16.5254 13.0054ZM16.2657 11.4229C16.2657 11.269 16.3822 11.1437 16.5254 11.1437H16.8717C17.0149 11.1437 17.1315 11.269 17.1315 11.4229V12.54C17.1315 12.6939 17.0149 12.8192 16.8717 12.8192H16.5254C16.3822 12.8192 16.2657 12.6939 16.2657 12.54V11.4229ZM19.6423 13.0054H19.9886C20.2274 13.0054 20.4215 12.7967 20.4215 12.54V11.4229C20.4215 11.1662 20.2274 10.9575 19.9886 10.9575H19.6423C19.4035 10.9575 19.2094 11.1662 19.2094 11.4229V12.54C19.2095 12.6634 19.2551 12.7817 19.3363 12.869C19.4174 12.9562 19.5275 13.0053 19.6423 13.0054ZM19.3825 11.4229C19.3825 11.269 19.4991 11.1437 19.6423 11.1437H19.9886C20.1318 11.1437 20.2483 11.269 20.2483 11.4229V12.54C20.2483 12.6939 20.1318 12.8192 19.9886 12.8192H19.6423C19.4991 12.8192 19.3825 12.6939 19.3825 12.54V11.4229ZM14.0399 9.9994C14.0562 10.0169 14.0782 10.0267 14.1012 10.0267C14.1241 10.0267 14.1461 10.0169 14.1624 9.9994C14.1786 9.98194 14.1877 9.95827 14.1877 9.93358V8.07188C14.1877 8.04719 14.1786 8.02351 14.1624 8.00606C14.1461 7.9886 14.1241 7.97879 14.1012 7.97879C14.0782 7.97879 14.0562 7.9886 14.0399 8.00606C14.0237 8.02351 14.0146 8.04719 14.0146 8.07188V9.93358C14.0146 9.95827 14.0237 9.98194 14.0399 9.9994ZM13.001 9.9994C13.0172 10.0169 13.0392 10.0267 13.0622 10.0267C13.0852 10.0267 13.1072 10.0169 13.1234 9.9994C13.1396 9.98194 13.1488 9.95827 13.1488 9.93358V8.07188C13.1488 8.04719 13.1396 8.02351 13.1234 8.00606C13.1072 7.9886 13.0852 7.97879 13.0622 7.97879C13.0392 7.97879 13.0172 7.9886 13.001 8.00606C12.9847 8.02351 12.9756 8.04719 12.9756 8.07188V9.93358C12.9756 9.95827 12.9847 9.98194 13.001 9.9994ZM22.3516 9.9994C22.3679 10.0169 22.3899 10.0267 22.4128 10.0267C22.4358 10.0267 22.4578 10.0169 22.4741 9.9994C22.4903 9.98194 22.4994 9.95827 22.4994 9.93358V8.07188C22.4994 8.04719 22.4903 8.02351 22.4741 8.00606C22.4578 7.9886 22.4358 7.97879 22.4128 7.97879C22.3899 7.97879 22.3679 7.9886 22.3516 8.00606C22.3354 8.02351 22.3263 8.04719 22.3263 8.07188V9.93358C22.3263 9.95827 22.3354 9.98194 22.3516 9.9994ZM21.3127 9.9994C21.3289 10.0169 21.3509 10.0267 21.3739 10.0267C21.3968 10.0267 21.4189 10.0169 21.4351 9.9994C21.4513 9.98194 21.4605 9.95827 21.4605 9.93358V8.07188C21.4605 8.04719 21.4513 8.02351 21.4351 8.00606C21.4189 7.9886 21.3968 7.97879 21.3739 7.97879C21.3509 7.97879 21.3289 7.9886 21.3127 8.00606C21.2964 8.02351 21.2873 8.04719 21.2873 8.07188V9.93358C21.2873 9.95827 21.2964 9.98194 21.3127 9.9994ZM13.4085 7.04794H13.7548C13.9934 7.04794 14.1877 6.83924 14.1877 6.58252V5.46549C14.1877 5.20876 13.9934 5.00007 13.7548 5.00007H13.4085C13.1699 5.00007 12.9756 5.20876 12.9756 5.46549V6.58252C12.9757 6.70591 13.0214 6.8242 13.1026 6.91146C13.1837 6.99871 13.2937 7.04779 13.4085 7.04794ZM13.1488 5.46549C13.1488 5.31153 13.2653 5.18624 13.4085 5.18624H13.7548C13.898 5.18624 14.0146 5.31153 14.0146 5.46549V6.58252C14.0146 6.73648 13.898 6.86177 13.7548 6.86177H13.4085C13.2653 6.86177 13.1488 6.73648 13.1488 6.58252V5.46549ZM18.6033 7.04794H18.9496C19.1884 7.04794 19.3825 6.83924 19.3825 6.58252V5.46549C19.3825 5.20876 19.1884 5.00007 18.9496 5.00007H18.6033C18.3645 5.00007 18.1704 5.20876 18.1704 5.46549V6.58252C18.1705 6.70592 18.2161 6.82425 18.2973 6.91151C18.3785 6.99877 18.4885 7.04784 18.6033 7.04794ZM18.3436 5.46549C18.3436 5.31153 18.4601 5.18624 18.6033 5.18624H18.9496C19.0928 5.18624 19.2094 5.31153 19.2094 5.46549V6.58252C19.2094 6.73648 19.0928 6.86177 18.9496 6.86177H18.6033C18.4601 6.86177 18.3436 6.73648 18.3436 6.58252V5.46549ZM16.1179 7.02068C16.1341 7.03813 16.1561 7.04794 16.1791 7.04794C16.202 7.04794 16.2241 7.03813 16.2403 7.02068C16.2565 7.00322 16.2657 6.97954 16.2657 6.95486V5.09315C16.2657 5.06847 16.2565 5.04479 16.2403 5.02733C16.2241 5.00988 16.202 5.00007 16.1791 5.00007C16.1561 5.00007 16.1341 5.00988 16.1179 5.02733C16.1016 5.04479 16.0925 5.06847 16.0925 5.09315V6.95486C16.0925 6.97954 16.1016 7.00322 16.1179 7.02068ZM15.0789 7.02068C15.0951 7.03813 15.1172 7.04794 15.1401 7.04794C15.1631 7.04794 15.1851 7.03813 15.2013 7.02068C15.2176 7.00322 15.2267 6.97954 15.2267 6.95486V5.09315C15.2267 5.06847 15.2176 5.04479 15.2013 5.02733C15.1851 5.00988 15.1631 5.00007 15.1401 5.00007C15.1172 5.00007 15.0951 5.00988 15.0789 5.02733C15.0627 5.04479 15.0535 5.06847 15.0535 5.09315V6.95486C15.0535 6.97954 15.0627 7.00322 15.0789 7.02068ZM22.3516 7.02068C22.3679 7.03813 22.3899 7.04794 22.4128 7.04794C22.4358 7.04794 22.4578 7.03813 22.4741 7.02068C22.4903 7.00322 22.4994 6.97954 22.4994 6.95486V5.09315C22.4994 5.06847 22.4903 5.04479 22.4741 5.02733C22.4578 5.00988 22.4358 5.00007 22.4128 5.00007C22.3899 5.00007 22.3679 5.00988 22.3516 5.02733C22.3354 5.04479 22.3263 5.06847 22.3263 5.09315V6.95486C22.3263 6.97954 22.3354 7.00322 22.3516 7.02068ZM21.3127 7.02068C21.3289 7.03813 21.3509 7.04794 21.3739 7.04794C21.3968 7.04794 21.4189 7.03813 21.4351 7.02068C21.4513 7.00322 21.4605 6.97954 21.4605 6.95486V5.09315C21.4605 5.06847 21.4513 5.04479 21.4351 5.02733C21.4189 5.00988 21.3968 5.00007 21.3739 5.00007C21.3509 5.00007 21.3289 5.00988 21.3127 5.02733C21.2964 5.04479 21.2873 5.06847 21.2873 5.09315V6.95486C21.2873 6.97954 21.2964 7.00322 21.3127 7.02068ZM20.2737 7.02068C20.2899 7.03813 20.312 7.04794 20.3349 7.04794C20.3579 7.04794 20.3799 7.03813 20.3961 7.02068C20.4124 7.00322 20.4215 6.97954 20.4215 6.95486V5.09315C20.4215 5.06847 20.4124 5.04479 20.3961 5.02733C20.3799 5.00988 20.3579 5.00007 20.3349 5.00007C20.312 5.00007 20.2899 5.00988 20.2737 5.02733C20.2575 5.04479 20.2483 5.06847 20.2483 5.09315V6.95486C20.2483 6.97954 20.2575 7.00322 20.2737 7.02068ZM17.1568 7.02068C17.173 7.03813 17.1951 7.04794 17.218 7.04794C17.241 7.04794 17.263 7.03813 17.2793 7.02068C17.2955 7.00322 17.3046 6.97954 17.3046 6.95486V5.09315C17.3046 5.06847 17.2955 5.04479 17.2793 5.02733C17.263 5.00988 17.241 5.00007 17.218 5.00007C17.1951 5.00007 17.173 5.00988 17.1568 5.02733C17.1406 5.04479 17.1315 5.06847 17.1315 5.09315V6.95486C17.1315 6.97954 17.1406 7.00322 17.1568 7.02068ZM13.4085 13.0054H13.7548C13.9934 13.0054 14.1877 12.7967 14.1877 12.54V11.4229C14.1877 11.1662 13.9934 10.9575 13.7548 10.9575H13.4085C13.1699 10.9575 12.9756 11.1662 12.9756 11.4229V12.54C12.9757 12.6634 13.0214 12.7817 13.1026 12.8689C13.1837 12.9562 13.2937 13.0052 13.4085 13.0054ZM13.1488 11.4229C13.1488 11.269 13.2653 11.1437 13.4085 11.1437H13.7548C13.898 11.1437 14.0146 11.269 14.0146 11.4229V12.54C14.0146 12.6939 13.898 12.8192 13.7548 12.8192H13.4085C13.2653 12.8192 13.1488 12.6939 13.1488 12.54V11.4229ZM15.0789 12.9781C15.0951 12.9956 15.1172 13.0054 15.1401 13.0054C15.1631 13.0054 15.1851 12.9956 15.2013 12.9781C15.2176 12.9607 15.2267 12.937 15.2267 12.9123V11.0506C15.2267 11.0259 15.2176 11.0022 15.2013 10.9848C15.1851 10.9673 15.1631 10.9575 15.1401 10.9575C15.1172 10.9575 15.0951 10.9673 15.0789 10.9848C15.0627 11.0022 15.0535 11.0259 15.0535 11.0506V12.9123C15.0535 12.937 15.0627 12.9607 15.0789 12.9781ZM18.1958 12.9781C18.212 12.9956 18.234 13.0054 18.257 13.0054C18.28 13.0054 18.302 12.9956 18.3182 12.9781C18.3345 12.9607 18.3436 12.937 18.3436 12.9123V11.0506C18.3436 11.0259 18.3345 11.0022 18.3182 10.9848C18.302 10.9673 18.28 10.9575 18.257 10.9575C18.234 10.9575 18.212 10.9673 18.1958 10.9848C18.1795 11.0022 18.1704 11.0259 18.1704 11.0506V12.9123C18.1704 12.937 18.1795 12.9607 18.1958 12.9781ZM3.27864 15.6251H2.93232C2.81755 15.6249 2.70752 15.5758 2.62637 15.4886C2.54521 15.4013 2.49956 15.283 2.49942 15.1596V14.0426C2.49942 13.7859 2.69371 13.5772 2.93232 13.5772H3.27864C3.51726 13.5772 3.71154 13.7859 3.71154 14.0426V15.1596C3.71154 15.4164 3.51726 15.6251 3.27864 15.6251ZM2.93232 13.7634C2.78912 13.7634 2.67258 13.8887 2.67258 14.0426V15.1596C2.67258 15.3136 2.78912 15.4389 2.93232 15.4389H3.27864C3.42185 15.4389 3.53838 15.3136 3.53838 15.1596V14.0426C3.53838 13.8887 3.42185 13.7634 3.27864 13.7634H2.93232ZM8.47345 15.6251H8.12713C8.01234 15.625 7.90229 15.5759 7.82112 15.4886C7.73996 15.4014 7.69432 15.2831 7.69423 15.1596V14.0426C7.69423 13.7859 7.88834 13.5772 8.12713 13.5772H8.47345C8.71223 13.5772 8.90635 13.7859 8.90635 14.0426V15.1596C8.90635 15.4164 8.71223 15.6251 8.47345 15.6251ZM8.12713 13.7634C7.98392 13.7634 7.86739 13.8887 7.86739 14.0426V15.1596C7.86739 15.3136 7.98392 15.4389 8.12713 15.4389H8.47345C8.61665 15.4389 8.73319 15.3136 8.73319 15.1596V14.0426C8.73319 13.8887 8.61665 13.7634 8.47345 13.7634H8.12713ZM5.70288 15.6251C5.67992 15.6251 5.6579 15.6153 5.64166 15.5978C5.62543 15.5803 5.6163 15.5567 5.6163 15.532V13.6703C5.6163 13.6456 5.62543 13.6219 5.64166 13.6045C5.6579 13.587 5.67992 13.5772 5.70288 13.5772C5.72585 13.5772 5.74787 13.587 5.76411 13.6045C5.78034 13.6219 5.78946 13.6456 5.78946 13.6703V15.532C5.78946 15.5567 5.78034 15.5803 5.76411 15.5978C5.74787 15.6153 5.72585 15.6251 5.70288 15.6251ZM4.66392 15.6251C4.64096 15.6251 4.61894 15.6153 4.6027 15.5978C4.58646 15.5803 4.57734 15.5567 4.57734 15.532V13.6703C4.57734 13.6456 4.58646 13.6219 4.6027 13.6045C4.61894 13.587 4.64096 13.5772 4.66392 13.5772C4.68689 13.5772 4.70891 13.587 4.72514 13.6045C4.74138 13.6219 4.7505 13.6456 4.7505 13.6703V15.532C4.7505 15.5567 4.74138 15.5803 4.72514 15.5978C4.70891 15.6153 4.68689 15.6251 4.66392 15.6251ZM11.9367 15.6251C11.9137 15.6251 11.8917 15.6153 11.8754 15.5978C11.8592 15.5803 11.8501 15.5567 11.8501 15.532V13.6703C11.8501 13.6456 11.8592 13.6219 11.8754 13.6045C11.8917 13.587 11.9137 13.5772 11.9367 13.5772C11.9596 13.5772 11.9816 13.587 11.9979 13.6045C12.0141 13.6219 12.0232 13.6456 12.0232 13.6703V15.532C12.0232 15.5567 12.0141 15.5803 11.9979 15.5978C11.9816 15.6153 11.9596 15.6251 11.9367 15.6251ZM10.8977 15.6251C10.8747 15.6251 10.8527 15.6153 10.8365 15.5978C10.8202 15.5803 10.8111 15.5567 10.8111 15.532V13.6703C10.8111 13.6456 10.8202 13.6219 10.8365 13.6045C10.8527 13.587 10.8747 13.5772 10.8977 13.5772C10.9207 13.5772 10.9427 13.587 10.9589 13.6045C10.9751 13.6219 10.9843 13.6456 10.9843 13.6703V15.532C10.9843 15.5567 10.9751 15.5803 10.9589 15.5978C10.9427 15.6153 10.9207 15.6251 10.8977 15.6251ZM9.85873 15.6251C9.83577 15.6251 9.81374 15.6153 9.79751 15.5978C9.78127 15.5803 9.77215 15.5567 9.77215 15.532V13.6703C9.77215 13.6456 9.78127 13.6219 9.79751 13.6045C9.81374 13.587 9.83577 13.5772 9.85873 13.5772C9.88169 13.5772 9.90371 13.587 9.91995 13.6045C9.93619 13.6219 9.94531 13.6456 9.94531 13.6703V15.532C9.94531 15.5567 9.93619 15.5803 9.91995 15.5978C9.90371 15.6153 9.88169 15.6251 9.85873 15.6251ZM6.74185 15.6251C6.71888 15.6251 6.69686 15.6153 6.68062 15.5978C6.66439 15.5803 6.65527 15.5567 6.65527 15.532V13.6703C6.65527 13.6456 6.66439 13.6219 6.68062 13.6045C6.69686 13.587 6.71888 13.5772 6.74185 13.5772C6.76481 13.5772 6.78683 13.587 6.80307 13.6045C6.8193 13.6219 6.82843 13.6456 6.82843 13.6703V15.532C6.82843 15.5567 6.8193 15.5803 6.80307 15.5978C6.78683 15.6153 6.76481 15.6251 6.74185 15.6251ZM13.4085 15.6251H13.7548C13.9934 15.6251 14.1877 15.4164 14.1877 15.1596V14.0426C14.1877 13.7859 13.9934 13.5772 13.7548 13.5772H13.4085C13.1699 13.5772 12.9756 13.7859 12.9756 14.0426V15.1596C12.9757 15.283 13.0214 15.4013 13.1026 15.4886C13.1837 15.5758 13.2937 15.6249 13.4085 15.6251ZM13.1488 14.0426C13.1488 13.8887 13.2653 13.7634 13.4085 13.7634H13.7548C13.898 13.7634 14.0146 13.8887 14.0146 14.0426V15.1596C14.0146 15.3136 13.898 15.4389 13.7548 15.4389H13.4085C13.2653 15.4389 13.1488 15.3136 13.1488 15.1596V14.0426ZM18.6033 15.6251H18.9496C19.1884 15.6251 19.3825 15.4164 19.3825 15.1596V14.0426C19.3825 13.7859 19.1884 13.5772 18.9496 13.5772H18.6033C18.3645 13.5772 18.1704 13.7859 18.1704 14.0426V15.1596C18.1705 15.2831 18.2161 15.4014 18.2973 15.4886C18.3785 15.5759 18.4885 15.625 18.6033 15.6251ZM18.3436 14.0426C18.3436 13.8887 18.4601 13.7634 18.6033 13.7634H18.9496C19.0928 13.7634 19.2094 13.8887 19.2094 14.0426V15.1596C19.2094 15.3136 19.0928 15.4389 18.9496 15.4389H18.6033C18.4601 15.4389 18.3436 15.3136 18.3436 15.1596V14.0426ZM16.1179 15.5978C16.1341 15.6153 16.1561 15.6251 16.1791 15.6251C16.202 15.6251 16.2241 15.6153 16.2403 15.5978C16.2565 15.5803 16.2657 15.5567 16.2657 15.532V13.6703C16.2657 13.6456 16.2565 13.6219 16.2403 13.6045C16.2241 13.587 16.202 13.5772 16.1791 13.5772C16.1561 13.5772 16.1341 13.587 16.1179 13.6045C16.1016 13.6219 16.0925 13.6456 16.0925 13.6703V15.532C16.0925 15.5567 16.1016 15.5803 16.1179 15.5978ZM15.0789 15.5978C15.0951 15.6153 15.1172 15.6251 15.1401 15.6251C15.1631 15.6251 15.1851 15.6153 15.2013 15.5978C15.2176 15.5803 15.2267 15.5567 15.2267 15.532V13.6703C15.2267 13.6456 15.2176 13.6219 15.2013 13.6045C15.1851 13.587 15.1631 13.5772 15.1401 13.5772C15.1172 13.5772 15.0951 13.587 15.0789 13.6045C15.0627 13.6219 15.0535 13.6456 15.0535 13.6703V15.532C15.0535 15.5567 15.0627 15.5803 15.0789 15.5978ZM20.2737 15.5978C20.2899 15.6153 20.312 15.6251 20.3349 15.6251C20.3579 15.6251 20.3799 15.6153 20.3961 15.5978C20.4124 15.5803 20.4215 15.5567 20.4215 15.532V13.6703C20.4215 13.6456 20.4124 13.6219 20.3961 13.6045C20.3799 13.587 20.3579 13.5772 20.3349 13.5772C20.312 13.5772 20.2899 13.587 20.2737 13.6045C20.2575 13.6219 20.2483 13.6456 20.2483 13.6703V15.532C20.2483 15.5567 20.2575 15.5803 20.2737 15.5978ZM17.1568 15.5978C17.173 15.6153 17.1951 15.6251 17.218 15.6251C17.241 15.6251 17.263 15.6153 17.2793 15.5978C17.2955 15.5803 17.3046 15.5567 17.3046 15.532V13.6703C17.3046 13.6456 17.2955 13.6219 17.2793 13.6045C17.263 13.587 17.241 13.5772 17.218 13.5772C17.1951 13.5772 17.173 13.587 17.1568 13.6045C17.1406 13.6219 17.1315 13.6456 17.1315 13.6703V15.532C17.1315 15.5567 17.1406 15.5803 17.1568 15.5978Z" fill="#E82431"/>
</svg>
