<svg width="25" height="25" viewBox="0 0 25 25" fill="none" xmlns="http://www.w3.org/2000/svg">
<path d="M4.15029 10.9762C6.23299 8.59231 9.27618 7.22513 12.4993 7.22513C15.723 7.22513 18.7661 8.5929 20.8483 10.9768C20.8986 11.0351 20.96 11.0827 21.0289 11.1171C21.0978 11.1515 21.1729 11.1719 21.2497 11.1771C21.3265 11.1824 21.4036 11.1723 21.4765 11.1476C21.5494 11.1229 21.6168 11.084 21.6745 11.0331C21.7915 10.9309 21.8631 10.7865 21.8736 10.6316C21.8842 10.4766 21.8328 10.3239 21.7308 10.2068C19.426 7.56678 16.0617 6.0531 12.4993 6.0531C8.93746 6.0531 5.57314 7.5662 3.26774 10.205C3.16643 10.3222 3.11562 10.4747 3.12643 10.6292C3.13724 10.7837 3.20878 10.9277 3.32541 11.0296C3.44205 11.1315 3.5943 11.1831 3.74887 11.1731C3.90344 11.1631 4.04776 11.0923 4.15029 10.9762Z" fill="#E82431"/>
<path d="M18.4203 13.2998C18.4687 13.3597 18.5284 13.4094 18.5961 13.446C18.6638 13.4827 18.7381 13.5056 18.8147 13.5135C18.8913 13.5213 18.9686 13.5139 19.0424 13.4917C19.1161 13.4696 19.1847 13.433 19.2442 13.3842C19.3647 13.2862 19.4413 13.1443 19.4572 12.9898C19.4731 12.8353 19.4271 12.6808 19.3292 12.5603C17.6649 10.5145 15.1749 9.34127 12.4991 9.34127C9.82398 9.34127 7.33458 10.5145 5.66911 12.5591C5.62052 12.6188 5.58415 12.6874 5.56209 12.7612C5.54003 12.8349 5.53271 12.9123 5.54054 12.9888C5.55637 13.1435 5.63297 13.2855 5.7535 13.3836C5.87403 13.4818 6.02861 13.528 6.18324 13.5122C6.33787 13.4964 6.47988 13.4198 6.57803 13.2992C8.01963 11.5289 10.1785 10.5127 12.4991 10.5127C14.8209 10.5133 16.9792 11.5289 18.4203 13.2998Z" fill="#E82431"/>
<path d="M15.9339 15.5701C16.0265 15.6883 16.1608 15.7666 16.3093 15.7888C16.4578 15.8111 16.6091 15.7756 16.7323 15.6897C16.8554 15.6038 16.941 15.4739 16.9713 15.3269C17.0017 15.1798 16.9746 15.0267 16.8956 14.8991C15.9034 13.4774 14.2602 12.6288 12.4993 12.6288C10.7119 12.6288 9.05523 13.4973 8.06662 14.9518C7.9845 15.0805 7.95576 15.2361 7.98651 15.3856C8.01726 15.5351 8.10508 15.6667 8.23132 15.7525C8.35755 15.8383 8.51226 15.8716 8.6626 15.8452C8.81293 15.8187 8.94705 15.7348 9.03648 15.6111C9.8065 14.4771 11.101 13.8009 12.4998 13.8009C13.877 13.8009 15.1615 14.4625 15.9339 15.5701Z" fill="#E82431"/>
<path d="M12.4996 18.9455C13.1469 18.9455 13.6716 18.4289 13.6716 17.7916C13.6716 17.1543 13.1469 16.6377 12.4996 16.6377C11.8523 16.6377 11.3276 17.1543 11.3276 17.7916C11.3276 18.4289 11.8523 18.9455 12.4996 18.9455Z" fill="#E82431"/>
</svg>
