<svg width="25" height="25" viewBox="0 0 25 25" fill="none" xmlns="http://www.w3.org/2000/svg">
<g clip-path="url(#clip0)">
<path d="M6.24598 10.0051C6.40969 10.0042 6.57196 10.0357 6.72346 10.0979C6.87495 10.16 7.01269 10.2515 7.12876 10.3671C7.24483 10.4827 7.33693 10.6201 7.39978 10.7715C7.46263 10.9229 7.49498 11.0852 7.49498 11.2491V15.6232H9.99297V11.2491C9.99297 10.9192 10.1239 10.6027 10.3569 10.3694C10.5899 10.1361 10.9059 10.0051 11.2354 10.0051H13.7334C14.0629 10.0051 14.3789 10.1361 14.6119 10.3694C14.8448 10.6027 14.9757 10.9192 14.9757 11.2491V15.6232H17.4737V11.2491C17.4737 11.0852 17.5061 10.9229 17.5689 10.7715C17.6318 10.6201 17.7239 10.4827 17.84 10.3671C17.956 10.2515 18.0938 10.16 18.2453 10.0979C18.3968 10.0357 18.559 10.0042 18.7227 10.0051H21.2141C21.5442 10.0051 21.8609 10.1359 22.095 10.369C22.329 10.6021 22.4614 10.9186 22.4631 11.2491V15.6232H23.0579C23.1453 15.6142 23.2336 15.6236 23.3171 15.651C23.4007 15.6783 23.4775 15.7228 23.5428 15.7818C23.608 15.8407 23.6602 15.9127 23.6959 15.9931C23.7316 16.0735 23.75 16.1605 23.75 16.2485C23.75 16.3365 23.7316 16.4235 23.6959 16.5039C23.6602 16.5843 23.608 16.6563 23.5428 16.7153C23.4775 16.7742 23.4007 16.8188 23.3171 16.8461C23.2336 16.8734 23.1453 16.8829 23.0579 16.8739H22.4631V23.7493C22.4631 24.081 22.3315 24.3991 22.0973 24.6337C21.8631 24.8682 21.5454 25 21.2141 25H18.7227C18.5585 25.0009 18.3957 24.9691 18.2437 24.9066C18.0918 24.844 17.9538 24.7519 17.8376 24.6356C17.7214 24.5193 17.6295 24.3811 17.567 24.229C17.5046 24.0768 17.4729 23.9138 17.4737 23.7493V16.8739H14.9757V23.7493C14.9766 23.9132 14.9451 24.0757 14.8831 24.2274C14.821 24.3791 14.7297 24.517 14.6142 24.6333C14.4987 24.7495 14.3615 24.8417 14.2103 24.9047C14.0592 24.9676 13.8971 25 13.7334 25H11.2354C11.0717 25 10.9096 24.9676 10.7584 24.9047C10.6072 24.8417 10.47 24.7495 10.3545 24.6333C10.2391 24.517 10.1477 24.3791 10.0856 24.2274C10.0236 24.0757 9.9921 23.9132 9.99297 23.7493V16.8739H7.49498V23.7493C7.49586 23.9138 7.46415 24.0768 7.40169 24.229C7.33923 24.3811 7.24727 24.5193 7.13111 24.6356C7.01496 24.7519 6.87692 24.844 6.72499 24.9066C6.57306 24.9691 6.41025 25.0009 6.24598 25H3.7546C3.42335 25 3.10566 24.8682 2.87143 24.6337C2.63719 24.3991 2.5056 24.081 2.5056 23.7493V16.8739H1.91084C1.74116 16.8741 1.57789 16.8089 1.45486 16.6919C1.33184 16.5749 1.25848 16.4149 1.25 16.2452C1.26012 16.0767 1.33418 15.9184 1.45704 15.8028C1.57989 15.6871 1.74224 15.6229 1.91084 15.6232H2.5056V11.2491C2.50735 10.9186 2.63971 10.6021 2.87376 10.369C3.1078 10.1359 3.42449 10.0051 3.7546 10.0051H6.24598ZM5.62479 11.2491H4.37579C4.21305 11.2587 4.05959 11.3282 3.94492 11.4443C3.83025 11.5603 3.76247 11.7147 3.7546 11.8778V23.0876C3.7546 23.2525 3.82005 23.4108 3.93654 23.5274C4.05304 23.6441 4.21104 23.7096 4.37579 23.7096H5.62479C5.78954 23.7096 5.94754 23.6441 6.06404 23.5274C6.18054 23.4108 6.24598 23.2525 6.24598 23.0876V11.8381C6.22898 11.6821 6.15718 11.5372 6.04339 11.4294C5.92961 11.3215 5.78125 11.2576 5.62479 11.2491ZM13.1056 11.2491H11.8632C11.6992 11.2571 11.5442 11.3259 11.4281 11.4421C11.3121 11.5584 11.2434 11.7136 11.2354 11.8778V23.0876C11.245 23.2505 11.3144 23.4042 11.4303 23.519C11.5461 23.6338 11.7003 23.7017 11.8632 23.7096H13.1056C13.2684 23.7017 13.4226 23.6338 13.5385 23.519C13.6543 23.4042 13.7238 23.2505 13.7334 23.0876V11.8381C13.7161 11.681 13.6434 11.5353 13.5283 11.4273C13.4131 11.3193 13.2632 11.2561 13.1056 11.2491ZM20.5929 11.2491H19.3439C19.1812 11.2587 19.0277 11.3282 18.913 11.4443C18.7984 11.5603 18.7306 11.7147 18.7227 11.8778V23.0876C18.7227 23.2525 18.7882 23.4108 18.9047 23.5274C19.0212 23.6441 19.1792 23.7096 19.3439 23.7096H20.5929C20.7577 23.7096 20.9157 23.6441 21.0322 23.5274C21.1487 23.4108 21.2141 23.2525 21.2141 23.0876V11.8381C21.1971 11.6821 21.1253 11.5372 21.0115 11.4294C20.8977 11.3215 20.7494 11.2576 20.5929 11.2491ZM7.85845 0.317252C7.92885 0.44987 7.94405 0.604981 7.90072 0.748772C7.85739 0.892562 7.75906 1.01337 7.62715 1.08486C7.38873 1.18657 7.18543 1.35621 7.04254 1.5727C6.89964 1.78918 6.82345 2.04296 6.82345 2.30246C6.82345 2.56196 6.89964 2.81573 7.04254 3.03222C7.18543 3.2487 7.38873 3.41835 7.62715 3.52005C8.04794 3.71828 8.40511 4.03019 8.65847 4.42067C8.91182 4.81115 9.05129 5.2647 9.06118 5.73025C9.05371 6.17273 8.92694 6.60495 8.69428 6.98121C8.46162 7.35746 8.13173 7.66374 7.73949 7.86765L7.60072 7.94706C7.53736 7.98704 7.46677 8.01412 7.39296 8.02678C7.31916 8.03943 7.24358 8.03741 7.17056 8.02082C7.09753 8.00423 7.02849 7.97339 6.96736 7.93008C6.90624 7.88677 6.85423 7.83183 6.81431 7.76839C6.77439 7.70496 6.74734 7.63427 6.7347 7.56036C6.72206 7.48645 6.72409 7.41078 6.74065 7.33766C6.75722 7.26453 6.78801 7.19539 6.83127 7.13419C6.87452 7.07298 6.92939 7.0209 6.99274 6.98093C7.2364 6.8792 7.44603 6.70998 7.59703 6.49314C7.74803 6.2763 7.83413 6.02083 7.84523 5.75672C7.83438 5.49596 7.74972 5.24366 7.60112 5.02925C7.45252 4.81484 7.24611 4.64715 7.00596 4.54574C6.57681 4.35365 6.21205 4.04176 5.95538 3.64742C5.6987 3.25308 5.56098 2.79301 5.55871 2.32231C5.5611 1.87872 5.68577 1.4444 5.91899 1.06725C6.15221 0.690099 6.4849 0.384761 6.8804 0.184905L7.01917 0.105496C7.08622 0.0576948 7.16284 0.0250468 7.24373 0.00980992C7.32462 -0.00542699 7.40784 -0.00288918 7.48766 0.0172481C7.56747 0.0373855 7.64196 0.0746417 7.70598 0.12644C7.77 0.178239 7.82202 0.243343 7.85845 0.317252ZM17.0045 0.317252C17.0749 0.44987 17.0901 0.604981 17.0468 0.748772C17.0035 0.892562 16.9051 1.01337 16.7732 1.08486C16.5348 1.18657 16.3315 1.35621 16.1886 1.5727C16.0457 1.78918 15.9695 2.04296 15.9695 2.30246C15.9695 2.56196 16.0457 2.81573 16.1886 3.03222C16.3315 3.2487 16.5348 3.41835 16.7732 3.52005C17.194 3.71828 17.5512 4.03019 17.8046 4.42067C18.0579 4.81115 18.1974 5.2647 18.2073 5.73025C18.1977 6.17225 18.0701 6.60362 17.8376 6.97951C17.6052 7.35539 17.2765 7.66207 16.8856 7.86765L16.7468 7.94706C16.6835 7.98704 16.6129 8.01412 16.5391 8.02678C16.4652 8.03943 16.3897 8.03741 16.3166 8.02082C16.2436 8.00423 16.1746 7.97339 16.1135 7.93008C16.0523 7.88677 16.0003 7.83183 15.9604 7.76839C15.9205 7.70496 15.8934 7.63427 15.8808 7.56036C15.8682 7.48645 15.8702 7.41078 15.8867 7.33766C15.9033 7.26453 15.9341 7.19539 15.9774 7.13419C16.0206 7.07298 16.0755 7.0209 16.1388 6.98093C16.3816 6.87787 16.5903 6.70832 16.7411 6.49176C16.8919 6.2752 16.9787 6.02042 16.9913 5.75672C16.9789 5.49637 16.8936 5.24475 16.7452 5.03062C16.5968 4.81649 16.3913 4.64846 16.152 4.54574C15.7343 4.36175 15.3771 4.06318 15.1216 3.68451C14.8662 3.30584 14.7229 2.86254 14.7084 2.4058C14.6939 1.94906 14.8087 1.49753 15.0396 1.10337C15.2705 0.709206 15.6081 0.388496 16.0133 0.178287L16.152 0.105496C16.2853 0.0355046 16.4408 0.0212777 16.5845 0.065935C16.7282 0.110592 16.8484 0.210489 16.9186 0.343721L17.0045 0.317252ZM12.4315 0.317252C12.5019 0.44987 12.5171 0.604981 12.4738 0.748772C12.4304 0.892562 12.3321 1.01337 12.2002 1.08486C11.9618 1.18657 11.7585 1.35621 11.6156 1.5727C11.4727 1.78918 11.3965 2.04296 11.3965 2.30246C11.3965 2.56196 11.4727 2.81573 11.6156 3.03222C11.7585 3.2487 11.9618 3.41835 12.2002 3.52005C12.621 3.71828 12.9782 4.03019 13.2315 4.42067C13.4849 4.81115 13.6243 5.2647 13.6342 5.73025C13.6268 6.17273 13.5 6.60495 13.2673 6.98121C13.0347 7.35746 12.7048 7.66374 12.3125 7.86765L12.1738 7.94706C12.1095 7.98573 12.0383 8.01136 11.9642 8.02248C11.8901 8.03359 11.8146 8.02999 11.7418 8.01186C11.6691 7.99373 11.6007 7.96144 11.5404 7.91683C11.4802 7.87222 11.4293 7.81616 11.3907 7.75185C11.352 7.68754 11.3264 7.61625 11.3153 7.54204C11.3042 7.46783 11.3078 7.39216 11.3259 7.31934C11.3441 7.24653 11.3763 7.17799 11.4209 7.11766C11.4654 7.05732 11.5214 7.00636 11.5856 6.96769C11.8399 6.87214 12.0606 6.70395 12.2204 6.48399C12.3801 6.26402 12.4719 6.00195 12.4844 5.73025C12.4735 5.46949 12.3888 5.21719 12.2403 5.00278C12.0917 4.78837 11.8852 4.62068 11.6451 4.51927C11.2164 4.3265 10.8521 4.01445 10.5956 3.62026C10.339 3.22608 10.2009 2.76636 10.1978 2.29584C10.2005 1.85144 10.3252 1.41634 10.5583 1.03818C10.7915 0.660017 11.124 0.353372 11.5195 0.151818L11.6583 0.0790271C11.7915 0.00903524 11.9471 -0.00519168 12.0908 0.0394656C12.2345 0.0841229 12.3546 0.18402 12.4249 0.317252H12.4315Z" fill="#E82431"/>
</g>
<defs>
<clipPath id="clip0">
<rect width="25" height="25" fill="white"/>
</clipPath>
</defs>
</svg>
