<svg width="25" height="25" viewBox="0 0 25 25" fill="none" xmlns="http://www.w3.org/2000/svg">
<path fill-rule="evenodd" clip-rule="evenodd" d="M21.4853 10.8036H23.4694C24.263 10.8036 24.9433 11.4821 25 12.2173C25 12.4435 24.9433 12.6696 24.8299 12.8958L24.093 14.3661C23.8095 14.9881 23.1859 15.3274 22.5624 15.3274H21.542V22.1131C21.542 23.3571 20.5215 24.375 19.2744 24.375H5.66893C4.42177 24.375 3.40136 23.3571 3.40136 22.1131V15.3274H2.43764C1.75737 15.3274 1.19048 14.9316 0.90703 14.3661L0.170068 12.9524C0.0566894 12.7262 0 12.5 0 12.2738C0 11.4821 0.680272 10.8036 1.47392 10.8036H3.45805C3.7415 8.88095 5.38549 7.41072 7.36962 7.41072H9.75057L9.97733 6.44941C10.1474 5.65774 10.8277 5.14881 11.6213 5.14881H14.3991C15.1927 5.14881 15.873 5.65774 16.0998 6.44941L16.3265 7.41072H17.5737C19.5578 7.41072 21.2018 8.88095 21.4853 10.8036ZM11.678 6.27976C11.3946 6.27976 11.1678 6.50595 11.1111 6.73214L10.9977 7.41072H15.1927L15.0227 6.73214C14.966 6.44941 14.7392 6.27976 14.4558 6.27976H11.678ZM17.5737 8.54167H7.36962C6.00907 8.54167 4.87528 9.50298 4.59184 10.8036H20.3515C20.068 9.50298 18.9342 8.54167 17.5737 8.54167ZM1.87075 13.8571C1.98413 14.0833 2.1542 14.1964 2.38095 14.1964H3.40136V11.9345H1.47392C1.30385 11.9345 1.13379 12.1042 1.13379 12.2738V12.4435L1.87075 13.8571ZM19.2744 23.2441C19.898 23.2441 20.4082 22.7351 20.4082 22.1131V14.7619V11.9345H4.53515V14.7619V22.1131C4.53515 22.7351 5.04535 23.2441 5.66893 23.2441H19.2744ZM23.0159 13.9137L23.7528 12.4435C23.8095 12.3869 23.8095 12.3304 23.8095 12.3304C23.8095 12.1607 23.6395 11.9911 23.4694 11.9911H21.542V14.253H22.5057C22.7324 14.253 22.9025 14.0833 23.0159 13.9137ZM19.4444 6.05357C19.2177 5.82738 19.2744 5.4881 19.5011 5.26191C19.7279 5.09226 19.8413 4.86607 19.8413 4.58333C19.8413 4.3006 19.7279 4.07441 19.4444 3.84821C19.2177 3.67857 19.161 3.28274 19.3878 3.05655C19.5578 2.83036 19.9546 2.77381 20.1814 3C20.6916 3.45238 20.9751 3.96131 20.9751 4.58333C20.9751 5.20536 20.6916 5.71429 20.2381 6.16667C20.1814 6.22322 20.0113 6.27976 19.898 6.27976C19.7279 6.27976 19.5578 6.16667 19.4444 6.05357ZM17.5737 4.58333C17.5737 4.3006 17.4603 4.07441 17.1769 3.90476C17.1769 3.84822 17.1769 3.84821 17.1202 3.79167C16.6667 3.39583 16.4399 2.88691 16.4399 2.32143C16.4399 1.6994 16.7234 1.19048 17.1769 0.738095C17.2903 0.681548 17.4603 0.625 17.5737 0.625C17.7438 0.625 17.9138 0.681548 17.9705 0.851191C18.1973 1.07738 18.1406 1.41667 17.9138 1.64286C17.6871 1.8125 17.5737 2.03869 17.5737 2.32143C17.5737 2.60417 17.6871 2.83036 17.9705 3.05655L18.0272 3.1131C18.4807 3.50893 18.7075 4.01786 18.7075 4.58333C18.7075 5.20536 18.424 5.71429 17.9705 6.16667C17.9138 6.22322 17.7438 6.27976 17.6304 6.27976C17.4603 6.27976 17.2903 6.16667 17.1769 6.05357C16.9501 5.82738 17.0068 5.4881 17.2336 5.26191C17.4603 5.09226 17.5737 4.86607 17.5737 4.58333ZM20.4079 1.75596C20.4079 2.06826 20.1541 2.32143 19.841 2.32143C19.5279 2.32143 19.2741 2.06826 19.2741 1.75596C19.2741 1.44365 19.5279 1.19048 19.841 1.19048C20.1541 1.19048 20.4079 1.44365 20.4079 1.75596Z" fill="#E82431"/>
</svg>
