<svg width="25" height="25" viewBox="0 0 25 25" fill="none" xmlns="http://www.w3.org/2000/svg">
<g clip-path="url(#clip0)">
<path fill-rule="evenodd" clip-rule="evenodd" d="M23.75 14.2534C23.75 14.7609 23.5542 15.2383 23.1988 15.5973C22.9327 15.8658 22.6004 16.0442 22.2392 16.117V24.2547H22.6835C22.8838 24.2547 23.046 24.4187 23.046 24.6209C23.046 24.8233 22.8838 24.9871 22.6835 24.9871H21.9703C21.9404 24.9953 21.9091 25.0001 21.8766 25.0001H3.12358C3.0911 25.0001 3.05976 24.9953 3.02992 24.9871H2.31671C2.11655 24.9871 1.95415 24.8233 1.95415 24.6209C1.95415 24.4187 2.11655 24.2547 2.31671 24.2547H2.76084V16.1163C1.90033 15.9408 1.25 15.1708 1.25 14.2534C1.25 14.1239 1.29966 14.0014 1.38974 13.9083L1.3954 13.9026C1.48755 13.8116 1.60878 13.7615 1.737 13.7615H2.9712L4.16102 12.7138L5.20186 7.07128C5.40504 5.97055 6.13658 5.05522 7.15853 4.62263L7.9739 4.2774C8.04792 4.24612 8.1227 4.21732 8.19823 4.19062C7.94879 3.89708 7.79753 3.51599 7.79753 3.09981V1.67751C7.79753 0.752637 8.54266 0 9.45849 0H9.75911C10.6748 0 11.4199 0.752637 11.4199 1.67751V3.09981C11.4199 3.52705 11.2605 3.91749 10.9992 4.21389C11.063 4.23773 11.1263 4.26272 11.1888 4.28961L11.9894 4.63541C12.9708 5.05998 13.6881 5.94308 13.9085 6.99765L15.1417 12.9043L16.1543 13.7615H23.263C23.5315 13.7615 23.75 13.9821 23.75 14.2534ZM5.9147 7.20555C6.07294 6.3482 6.64283 5.63505 7.43876 5.29821L8.25413 4.95279C8.51037 4.84446 8.7787 4.76873 9.0527 4.72639C9.18261 4.75958 9.31838 4.77732 9.45849 4.77732H9.75911C9.88695 4.77732 10.0112 4.76206 10.1309 4.7344C10.3964 4.77961 10.6561 4.85609 10.9036 4.96309L11.7041 5.3087C12.4685 5.63943 13.0274 6.32741 13.1991 7.1489L14.4325 13.0565C14.4648 13.2144 14.5501 13.3588 14.6733 13.4633L15.0254 13.7615H14.7004C14.2616 13.7615 13.8787 13.4616 13.7691 13.0321L12.5011 8.06061C12.4471 7.85157 12.254 7.71958 12.0413 7.74724C11.8291 7.77489 11.675 7.9517 11.675 8.168V11.9287H10.6268C10.5724 11.9127 10.5135 11.9091 10.4542 11.9211C10.4438 11.9232 10.434 11.9258 10.424 11.9287H7.44045L7.28863 8.01312C7.28165 7.80827 7.12379 7.64157 6.92136 7.62536C6.71874 7.60915 6.53671 7.74915 6.49819 7.9498L5.53024 12.9377C5.43752 13.4151 5.02077 13.7615 4.53925 13.7615H4.07454L4.65482 13.2507C4.76642 13.1534 4.8427 13.0186 4.86952 12.8713L5.9147 7.20555ZM8.52265 3.09981V1.67751C8.52265 1.15642 8.94242 0.732419 9.45849 0.732419H9.75911C10.275 0.732419 10.6948 1.15642 10.6948 1.67751V3.09981C10.6948 3.6209 10.275 4.0449 9.75911 4.0449H9.45849C8.94242 4.0449 8.52265 3.6209 8.52265 3.09981ZM13.0671 13.2148C13.118 13.4151 13.2034 13.599 13.315 13.7615H12.8172L12.4001 12.2451V10.6002L13.0671 13.2148ZM11.762 12.6613L12.5899 15.6709C12.6048 15.7249 12.6159 15.7806 12.6241 15.8407C12.6318 15.8943 12.6358 15.9515 12.6358 16.0104V17.327C12.0468 17.55 11.4314 17.7121 10.8062 17.8087C10.7622 17.8155 10.7182 17.8218 10.674 17.8281C10.3783 17.4598 9.9251 16.7613 9.99534 16.0068C10.0358 15.5724 10.253 15.0342 10.2563 15.026C10.3549 14.7846 10.4417 14.6417 10.5256 14.5038L10.5256 14.5038C10.5909 14.3964 10.6585 14.2852 10.7244 14.1412C10.9216 13.7103 10.9952 13.2139 10.9459 12.6613H11.762ZM7.71143 24.2547C7.95105 24.0804 8.15292 23.8542 8.29756 23.5911L8.80249 22.6722L8.84517 22.7832L8.26867 24.2547H7.71143ZM8.10778 20.8678L8.46071 21.7847L7.66346 23.2356C7.49748 23.5375 7.21348 23.7645 6.88454 23.858L6.77388 23.8893L8.10778 20.8678ZM9.07215 24.1944L9.57179 22.9192C9.6054 22.8334 9.60578 22.7378 9.57274 22.6516L9.1981 21.679L9.19734 21.6771L8.47242 19.794L8.46845 19.7835L7.99033 18.5411C8.39235 18.6006 8.79815 18.6355 9.20414 18.6446L9.56613 19.9912L9.5667 19.9931L10.325 22.8143C10.3466 22.9177 10.3184 23.0266 10.2495 23.1067L9.63071 23.8231C9.47983 23.9976 9.28609 24.125 9.07215 24.1944ZM9.95248 18.6328C10.0356 18.6284 10.1185 18.6231 10.2015 18.6166L10.0312 18.9262L9.95248 18.6328ZM10.2176 12.6613C10.2671 13.1116 10.2165 13.5053 10.0662 13.8339C10.0182 13.9386 9.96704 14.0227 9.90777 14.1202L9.90776 14.1202L9.90772 14.1202L9.90708 14.1213L9.90708 14.1213L9.90706 14.1213L9.90705 14.1213C9.81299 14.2761 9.70633 14.4517 9.58577 14.7472C9.55914 14.8128 9.32329 15.4041 9.27344 15.9381C9.23681 16.3329 9.27722 17.0581 9.82993 17.9059C9.71304 17.9111 9.59634 17.9143 9.47983 17.9149C8.82024 17.9191 8.1582 17.8506 7.51221 17.7112C7.50636 17.7097 7.50031 17.7081 7.49427 17.707C7.05958 17.6128 6.62735 17.485 6.20946 17.3272V16.0724C6.20946 15.9982 6.21588 15.924 6.22854 15.8517C6.24138 15.7794 6.25969 15.7094 6.2833 15.6434L7.34661 12.6613H10.2176ZM6.24194 13.0786L6.67323 10.856L6.72686 12.2381L6.18359 13.7615H5.94907C6.09069 13.5623 6.19285 13.3312 6.24194 13.0786ZM1.99985 14.4939H5.92244L5.60143 15.3943L5.59738 15.4062L5.59505 15.4134L5.59236 15.4216H3.12528C2.57276 15.4186 2.10975 15.0203 1.99985 14.4939ZM3.48595 16.154H5.48435V17.3402C5.48435 17.6357 5.66752 17.9038 5.94076 18.0078C6.33485 18.1573 6.74084 18.2819 7.15003 18.3793L7.73805 19.9069L6.10787 23.5995C6.0127 23.8156 6.02649 24.0558 6.13903 24.2547H3.48595V16.154ZM10.2202 24.2547L10.7962 23.5879C11.0184 23.33 11.106 22.9775 11.0307 22.6449L11.0298 22.6412L11.0271 22.6306L10.3037 19.9393L11.0934 18.5029C11.7114 18.3957 12.3197 18.23 12.9035 18.0078C13.177 17.904 13.3609 17.6355 13.3609 17.3396V16.154H21.514V24.2547H10.2202ZM13.2739 15.4216L13.0187 14.4939H23.0005C22.955 14.7142 22.8472 14.9164 22.6859 15.0792C22.4693 15.2982 22.1812 15.4197 21.8766 15.4216H13.2739ZM16.3196 10.9012C16.3196 11.0938 16.1642 11.25 15.9722 11.25C15.7804 11.25 15.6248 11.0938 15.625 10.9012C15.625 10.0752 15.9015 9.64519 16.1455 9.26566C16.3652 8.92409 16.555 8.62886 16.555 8.00877C16.555 7.38875 16.3654 7.09369 16.1458 6.75211L16.1455 6.75171L16.1455 6.7517C15.9015 6.37216 15.6249 5.94214 15.6249 5.11622C15.6249 4.29029 15.9016 3.86025 16.1456 3.4809L16.1459 3.48049C16.3655 3.13892 16.5551 2.84385 16.5551 2.22401C16.5551 2.03125 16.7107 1.875 16.9025 1.875C17.0945 1.875 17.2499 2.03125 17.2499 2.22401C17.2499 3.04976 16.9734 3.47981 16.7293 3.85934C16.5095 4.2009 16.3199 4.49596 16.3199 5.11622C16.3199 5.73649 16.5094 6.03152 16.7293 6.37326L16.7297 6.37389C16.9735 6.75327 17.2498 7.1833 17.2498 8.00877C17.2498 8.83446 16.9733 9.26449 16.7295 9.64376L16.7293 9.6441C16.5094 9.98585 16.3196 10.2809 16.3196 10.9012ZM19.0973 11.25C19.2893 11.25 19.4447 11.0938 19.4447 10.9012C19.4447 10.2809 19.6345 9.98585 19.8543 9.6441L19.8545 9.64376C20.0984 9.26449 20.3749 8.83446 20.3749 8.00877C20.3749 7.1833 20.0985 6.75327 19.8547 6.37389L19.8543 6.37326C19.6345 6.03152 19.445 5.73649 19.445 5.11622C19.445 4.49596 19.6346 4.2009 19.8544 3.85934C20.0985 3.47981 20.375 3.04976 20.375 2.22401C20.375 2.03125 20.2195 1.875 20.0276 1.875C19.8358 1.875 19.6802 2.03125 19.6802 2.22401C19.6802 2.84385 19.4905 3.13892 19.271 3.48049L19.2707 3.4809C19.0266 3.86025 18.75 4.29029 18.75 5.11622C18.75 5.94214 19.0265 6.37216 19.2706 6.75169L19.2706 6.75171L19.2709 6.75211L19.2709 6.75212C19.4904 7.09369 19.6801 7.38876 19.6801 8.00877C19.6801 8.62886 19.4903 8.92409 19.2706 9.26566C19.0265 9.64519 18.7501 10.0752 18.7501 10.9012C18.7499 11.0938 18.9055 11.25 19.0973 11.25ZM22.5697 10.9012C22.5697 11.0938 22.4143 11.25 22.2223 11.25C22.0305 11.25 21.8749 11.0938 21.8751 10.9012C21.8751 10.0752 22.1516 9.64519 22.3957 9.26566C22.6153 8.92409 22.8051 8.62886 22.8051 8.00877C22.8051 7.38875 22.6155 7.09369 22.3959 6.75211L22.3957 6.75171L22.3957 6.75169C22.1516 6.37216 21.875 5.94214 21.875 5.11622C21.875 4.29029 22.1517 3.86025 22.3958 3.4809L22.396 3.4805C22.6156 3.13892 22.8052 2.84386 22.8052 2.22401C22.8052 2.03125 22.9608 1.875 23.1526 1.875C23.3446 1.875 23.5 2.03125 23.5 2.22401C23.5 3.04976 23.2236 3.47981 22.9795 3.85934C22.7596 4.2009 22.57 4.49596 22.57 5.11622C22.57 5.73649 22.7595 6.03152 22.9794 6.37326L22.9798 6.37389C23.2236 6.75327 23.4999 7.1833 23.4999 8.00877C23.4999 8.83446 23.2235 9.26449 22.9796 9.64376L22.9794 9.6441C22.7595 9.98585 22.5697 10.2809 22.5697 10.9012Z" fill="#E82431"/>
</g>
<defs>
<clipPath id="clip0">
<rect width="25" height="25" fill="white"/>
</clipPath>
</defs>
</svg>
