<svg width="25" height="25" viewBox="0 0 25 25" fill="none" xmlns="http://www.w3.org/2000/svg">
<g clip-path="url(#clip0)">
<path fill-rule="evenodd" clip-rule="evenodd" d="M8.67778 15.375C8.67778 14.8975 8.42945 14.4369 8.01362 14.1433C5.71056 12.5164 4.49056 9.86361 4.75028 7.04722C5.08667 3.395 7.97362 0.451667 11.6147 0.0488889C11.9092 0.0163889 12.2067 0 12.5 0C16.792 0 20.2839 3.49167 20.2839 7.78389C20.2839 10.3353 19.0292 12.7281 16.9281 14.1836C16.5486 14.4467 16.3222 14.8958 16.3222 15.3856V15.9208H16.48C16.7867 15.9208 17.0356 16.1697 17.0356 16.4764C17.0356 16.7831 16.7867 17.0319 16.48 17.0319H16.3222V18.1786H16.48C16.7867 18.1786 17.0356 18.4275 17.0356 18.7342C17.0356 19.0408 16.7867 19.2897 16.48 19.2897H16.3222V20.3003C16.3222 20.3278 16.3204 20.3548 16.3186 20.3819C16.3174 20.4 16.3162 20.4181 16.3156 20.4364H16.48C16.7867 20.4364 17.0356 20.6853 17.0356 20.9919C17.0356 21.2986 16.7867 21.5475 16.48 21.5475H16.1106C15.9242 22.0889 15.6195 22.5867 15.2028 23.0033C14.7747 23.4314 14.2614 23.7422 13.7028 23.9269C13.7035 23.9307 13.7042 23.9344 13.7049 23.9381C13.7129 23.9794 13.7208 24.0205 13.7208 24.0633C13.7208 24.5808 13.1742 25 12.5 25C11.8258 25 11.2792 24.5808 11.2792 24.0636C11.2792 24.015 11.2883 23.9683 11.2978 23.9217C10.1995 23.5431 9.32195 22.6597 8.91917 21.5478H8.51973C8.21306 21.5478 7.96417 21.2989 7.96417 20.9922C7.96417 20.6856 8.21306 20.4367 8.51973 20.4367H8.68973C8.68863 20.4187 8.68743 20.4008 8.68623 20.3829C8.682 20.3197 8.67778 20.2565 8.67778 20.1922V19.29H8.52001C8.21334 19.29 7.96445 19.0411 7.96445 18.7344C7.96445 18.4278 8.21334 18.1789 8.52001 18.1789H8.67778V17.0322H8.52001C8.21334 17.0322 7.96445 16.7833 7.96445 16.4767C7.96445 16.17 8.21334 15.9211 8.52001 15.9211H8.67778V15.375ZM12.5 23.0117C13.2242 23.0117 13.905 22.73 14.417 22.2178C14.617 22.0178 14.7806 21.7917 14.9072 21.5472H10.1275C10.5833 22.4025 11.4522 22.9928 12.4489 23.0111L12.4997 23.0117H12.5ZM15.2074 20.3913C15.2094 20.3611 15.2114 20.3309 15.2114 20.3003H15.2111V19.2897H9.78862V20.1919C9.78862 20.2744 9.7939 20.3556 9.80056 20.4364H15.2047C15.2055 20.4213 15.2065 20.4063 15.2074 20.3913ZM9.78862 18.1786H15.2111V17.0319H9.78862V18.1786ZM11.737 1.15333C8.61778 1.49806 6.14473 4.01972 5.85639 7.14917C5.63362 9.56556 6.67973 11.8408 8.65473 13.2358C9.36473 13.7372 9.78862 14.5369 9.78862 15.375V15.9208H15.2114V15.3856C15.2114 14.5317 15.6167 13.7408 16.2953 13.2706C18.0972 12.0222 19.1728 9.97111 19.1728 7.78389C19.1728 4.10444 16.1795 1.11111 12.5 1.11111C12.2475 1.11111 11.9908 1.12528 11.737 1.15333ZM10.6913 7.70308C10.6866 7.68642 10.6822 7.66975 10.6791 7.65253C10.6755 7.63225 10.6741 7.61197 10.6727 7.59142C10.6725 7.58638 10.6718 7.5814 10.6711 7.57641C10.6703 7.5701 10.6694 7.56376 10.6694 7.55725C10.6694 7.55503 10.6697 7.55288 10.6701 7.55072C10.6704 7.54857 10.6708 7.54642 10.6708 7.5442C10.6713 7.52514 10.6738 7.50652 10.6763 7.48775C10.6766 7.48546 10.6769 7.48316 10.6772 7.48086C10.6778 7.47631 10.6784 7.47176 10.679 7.46722C10.6804 7.45625 10.6818 7.44536 10.6841 7.43475C10.6875 7.41966 10.6925 7.40512 10.6976 7.39053C10.6987 7.38713 10.6999 7.38372 10.7011 7.38031C10.7028 7.37538 10.7044 7.37043 10.706 7.3655C10.7099 7.35372 10.7138 7.34202 10.7188 7.33086C10.7236 7.31984 10.7298 7.30926 10.7359 7.29859C10.7383 7.29446 10.7407 7.29032 10.743 7.28614L10.7442 7.28398C10.7535 7.26722 10.7627 7.25075 10.7738 7.23531C10.7752 7.23336 10.7763 7.23135 10.7775 7.22933C10.7786 7.22732 10.7797 7.22531 10.7811 7.22336L13.3311 3.83392C13.5155 3.5892 13.8636 3.53947 14.1091 3.72392C14.3541 3.90836 14.4036 4.2567 14.2191 4.50197L12.3383 7.00197H13.775C13.7773 7.00197 13.7795 7.00232 13.7818 7.00267C13.784 7.00301 13.7862 7.00336 13.7886 7.00336C13.8091 7.00392 13.8294 7.00669 13.8497 7.00947C13.854 7.01007 13.8584 7.01061 13.8627 7.01115C13.8745 7.01261 13.8862 7.01406 13.8977 7.0167C13.9121 7.02 13.9259 7.02471 13.9397 7.02943C13.9433 7.03066 13.9469 7.03188 13.9505 7.03308C13.9547 7.03451 13.9589 7.03588 13.9631 7.03725C13.9762 7.04151 13.9892 7.04575 14.0016 7.05142C14.0126 7.05629 14.0231 7.06235 14.0336 7.06841C14.0375 7.07064 14.0413 7.07286 14.0452 7.07503C14.063 7.08475 14.0805 7.09447 14.0969 7.10614C14.0988 7.10753 14.1009 7.10864 14.1029 7.10975C14.1049 7.11086 14.1069 7.11197 14.1088 7.11336C14.1146 7.11765 14.1195 7.12257 14.1244 7.1275C14.128 7.1312 14.1317 7.13491 14.1358 7.13836L14.1397 7.14173C14.1531 7.15335 14.1664 7.16489 14.1786 7.17781C14.191 7.19082 14.2016 7.20462 14.2125 7.2187L14.2133 7.21975C14.2241 7.23364 14.2347 7.24753 14.2441 7.26253C14.2538 7.27808 14.2622 7.29447 14.2702 7.31086L14.2718 7.31397C14.279 7.32874 14.2862 7.34334 14.2922 7.35892C14.2981 7.37413 14.3024 7.38977 14.3068 7.40547C14.3074 7.40754 14.308 7.40962 14.3086 7.41169C14.3133 7.42836 14.3177 7.44503 14.3208 7.46225C14.3241 7.48039 14.3253 7.49875 14.3265 7.51734C14.3266 7.51925 14.3268 7.52117 14.3269 7.52308C14.3271 7.52812 14.3278 7.5331 14.3285 7.5381C14.3294 7.5444 14.3302 7.55074 14.3302 7.55725C14.3302 7.55947 14.3299 7.56163 14.3295 7.56378C14.3292 7.56593 14.3288 7.56808 14.3288 7.57031C14.3283 7.58937 14.3259 7.608 14.3234 7.62677C14.3231 7.62906 14.3228 7.63135 14.3225 7.63364C14.3218 7.63819 14.3212 7.64274 14.3206 7.64727C14.3193 7.65825 14.3179 7.66914 14.3155 7.67975C14.3121 7.69483 14.3071 7.70937 14.3021 7.72395C14.3009 7.72736 14.2997 7.73077 14.2986 7.73419C14.2968 7.73912 14.2952 7.74408 14.2936 7.74902C14.2897 7.76079 14.2859 7.77249 14.2808 7.78364C14.276 7.79465 14.2699 7.80523 14.2637 7.8159C14.2613 7.82003 14.2589 7.82417 14.2566 7.82836L14.2554 7.83057C14.2461 7.84731 14.237 7.86376 14.2258 7.8792C14.2244 7.88114 14.2233 7.88315 14.2222 7.88517C14.2211 7.88718 14.22 7.88919 14.2186 7.89114L11.6686 11.2803C11.5591 11.4256 11.3925 11.502 11.2238 11.502C11.1077 11.502 10.9905 11.4659 10.8905 11.3906C10.6455 11.2061 10.5961 10.8578 10.7805 10.6125L12.6613 8.11281H11.2247H11.2244H11.2241L11.2233 8.11253C11.1697 8.11253 11.1188 8.10253 11.0697 8.08808C11.0591 8.08503 11.0488 8.08197 11.0386 8.07836C10.9886 8.06058 10.9419 8.03642 10.8997 8.00586C10.8984 8.00486 10.8969 8.00422 10.8953 8.00357C10.8939 8.00297 10.8924 8.00236 10.8911 8.00142C10.8854 7.99713 10.8805 7.99221 10.8755 7.98728C10.8719 7.98358 10.8682 7.97987 10.8641 7.97642C10.8628 7.97529 10.8615 7.97416 10.8602 7.97303C10.8468 7.96141 10.8335 7.94989 10.8213 7.93697C10.8089 7.92396 10.7983 7.91016 10.7874 7.89608L10.7866 7.89503C10.7758 7.88114 10.7652 7.86725 10.7558 7.85225C10.7461 7.8367 10.7377 7.82031 10.7297 7.80392L10.7281 7.80081C10.7209 7.78604 10.7137 7.77144 10.7077 7.75586C10.7018 7.74065 10.6975 7.72501 10.6931 7.70931C10.6925 7.70724 10.6919 7.70516 10.6913 7.70308Z" fill="#E82431"/>
</g>
<defs>
<clipPath id="clip0">
<rect width="25" height="25" fill="white"/>
</clipPath>
</defs>
</svg>
