<svg width="25" height="25" viewBox="0 0 25 25" fill="none" xmlns="http://www.w3.org/2000/svg">
<path d="M24.6338 1.46484H16.9678C16.9197 1.46484 16.8721 1.47431 16.8276 1.49271C16.7832 1.51111 16.7428 1.53809 16.7088 1.5721C16.6748 1.6061 16.6478 1.64648 16.6294 1.69091C16.611 1.73534 16.6016 1.78296 16.6016 1.83105V4.3457H15.8691V1.58691C15.8694 1.36037 15.9595 1.14317 16.1197 0.982982C16.2799 0.82279 16.4971 0.73268 16.7236 0.732422H24.6338C24.7309 0.732422 24.8241 0.693839 24.8927 0.625161C24.9614 0.556483 25 0.463336 25 0.366211C25 0.269086 24.9614 0.175939 24.8927 0.107261C24.8241 0.0385828 24.7309 0 24.6338 0L16.7236 0C16.3029 0.000470042 15.8995 0.167813 15.602 0.465316C15.3045 0.762818 15.1372 1.16618 15.1367 1.58691V4.38569C14.9051 4.44972 14.7009 4.58794 14.5554 4.77916C14.4099 4.97038 14.3311 5.20404 14.3311 5.44434C14.3311 5.68463 14.4099 5.91829 14.5554 6.10951C14.7009 6.30073 14.9051 6.43895 15.1367 6.50299V8.29725H9.86328V6.50299C10.0949 6.43895 10.2991 6.30073 10.4446 6.10951C10.5901 5.91829 10.6689 5.68463 10.6689 5.44434C10.6689 5.20404 10.5901 4.97038 10.4446 4.77916C10.2991 4.58794 10.0949 4.44972 9.86328 4.38569V1.58691C9.86281 1.16618 9.69546 0.762821 9.39796 0.46532C9.10046 0.167819 8.6971 0.00047417 8.27637 0L0.366211 0C0.269086 0 0.175939 0.0385828 0.107261 0.107261C0.0385828 0.175939 0 0.269086 0 0.366211C0 0.463336 0.0385828 0.556483 0.107261 0.625161C0.175939 0.693839 0.269086 0.732422 0.366211 0.732422H8.27637C8.50291 0.73268 8.72011 0.82279 8.8803 0.982982C9.04049 1.14317 9.1306 1.36037 9.13086 1.58691V4.3457H8.39844V1.83105C8.39844 1.78296 8.38897 1.73534 8.37056 1.69091C8.35216 1.64648 8.32519 1.60611 8.29118 1.5721C8.25717 1.53809 8.2168 1.51112 8.17237 1.49272C8.12794 1.47431 8.08032 1.46484 8.03223 1.46484H0.366211C0.269086 1.46484 0.175939 1.50343 0.107261 1.5721C0.0385828 1.64078 0 1.73393 0 1.83105C0 1.92818 0.0385828 2.02133 0.107261 2.09C0.175939 2.15868 0.269086 2.19727 0.366211 2.19727H7.66602V4.38569C7.43441 4.44972 7.2302 4.58794 7.08467 4.77916C6.93915 4.97038 6.86035 5.20404 6.86035 5.44434C6.86035 5.68463 6.93915 5.91829 7.08467 6.10951C7.2302 6.30073 7.43441 6.43895 7.66602 6.50299V8.29725H6.09069C5.60523 8.2978 5.13981 8.49089 4.79654 8.83416C4.45327 9.17743 4.26018 9.64285 4.25963 10.1283V23.1689C4.26018 23.6544 4.45327 24.1198 4.79654 24.4631C5.13981 24.8064 5.60523 24.9995 6.09069 25H18.1769C18.6623 24.9995 19.1278 24.8064 19.471 24.4631C19.8143 24.1198 20.0074 23.6544 20.0079 23.1689V10.1283C20.0074 9.64285 19.8143 9.17743 19.471 8.83416C19.1278 8.49089 18.6623 8.2978 18.1769 8.29725H17.334V6.50299C17.5656 6.43895 17.7698 6.30073 17.9153 6.10951C18.0608 5.91829 18.1396 5.68463 18.1396 5.44434C18.1396 5.20404 18.0608 4.97038 17.9153 4.77916C17.7698 4.58794 17.5656 4.44972 17.334 4.38569V2.19727H24.6338C24.7309 2.19727 24.8241 2.15868 24.8927 2.09C24.9614 2.02133 25 1.92818 25 1.83105C25 1.73393 24.9614 1.64078 24.8927 1.5721C24.8241 1.50343 24.7309 1.46484 24.6338 1.46484ZM7.59277 5.44434C7.59288 5.34724 7.6315 5.25416 7.70015 5.1855C7.76881 5.11685 7.86189 5.07823 7.95898 5.07812H9.57031C9.66744 5.07812 9.76058 5.11671 9.82926 5.18539C9.89794 5.25406 9.93652 5.34721 9.93652 5.44434C9.93652 5.54146 9.89794 5.63461 9.82926 5.70329C9.76058 5.77196 9.66744 5.81055 9.57031 5.81055H7.95898C7.86189 5.81044 7.76881 5.77182 7.70015 5.70317C7.6315 5.63451 7.59288 5.54143 7.59277 5.44434ZM9.13086 6.54297V8.29725H8.39844V6.54297H9.13086ZM18.1769 9.02967C18.4682 9.03001 18.7474 9.14586 18.9534 9.35183C19.1593 9.55779 19.2752 9.83703 19.2755 10.1283V23.1689C19.2752 23.4602 19.1593 23.7395 18.9534 23.9454C18.7474 24.1514 18.4682 24.2672 18.1769 24.2676H6.09069C5.79941 24.2672 5.52016 24.1514 5.3142 23.9454C5.10824 23.7395 4.99239 23.4602 4.99206 23.1689V10.1283C4.99239 9.83703 5.10824 9.55778 5.3142 9.35182C5.52016 9.14586 5.79941 9.03 6.09069 9.02967H8.03034C8.03098 9.02967 8.03159 9.02977 8.03223 9.02977C8.03286 9.02977 8.03348 9.02967 8.03412 9.02967H9.49518C9.49582 9.02967 9.49643 9.02977 9.49707 9.02977C9.49771 9.02977 9.49832 9.02967 9.49896 9.02967H15.501C15.5017 9.02967 15.5023 9.02977 15.5029 9.02977C15.5036 9.02977 15.5042 9.02967 15.5048 9.02967H16.9659C16.9665 9.02967 16.9671 9.02977 16.9678 9.02977C16.9684 9.02977 16.969 9.02967 16.9697 9.02967H18.1769ZM15.8691 8.29725V6.54297H16.6016V8.29725H15.8691ZM17.4072 5.44434C17.4071 5.54143 17.3685 5.63451 17.2998 5.70317C17.2312 5.77182 17.1381 5.81044 17.041 5.81055H15.4297C15.3326 5.81055 15.2394 5.77196 15.1707 5.70329C15.1021 5.63461 15.0635 5.54146 15.0635 5.44434C15.0635 5.34721 15.1021 5.25406 15.1707 5.18539C15.2394 5.11671 15.3326 5.07812 15.4297 5.07812H17.041C17.1381 5.07823 17.2312 5.11685 17.2998 5.1855C17.3685 5.25416 17.4071 5.34724 17.4072 5.44434ZM16.1423 10.428H8.12531C7.85952 10.4283 7.60471 10.5341 7.41677 10.722C7.22883 10.9099 7.12312 11.1648 7.12283 11.4305V13.084C7.12312 13.3498 7.22883 13.6046 7.41677 13.7926C7.60471 13.9805 7.85952 14.0862 8.12531 14.0865H16.1423C16.4081 14.0862 16.6629 13.9805 16.8508 13.7926C17.0387 13.6046 17.1444 13.3498 17.1447 13.084V11.4305C17.1444 11.1648 17.0387 10.91 16.8508 10.722C16.6629 10.5341 16.4081 10.4284 16.1423 10.428ZM16.4123 13.084C16.4122 13.1556 16.3838 13.2243 16.3331 13.2749C16.2825 13.3255 16.2139 13.354 16.1423 13.3541H8.12531C8.0537 13.354 7.98506 13.3255 7.93443 13.2749C7.8838 13.2243 7.85533 13.1556 7.85525 13.084V11.4305C7.85533 11.3589 7.8838 11.2903 7.93443 11.2397C7.98506 11.189 8.0537 11.1606 8.12531 11.1605H16.1423C16.2139 11.1606 16.2825 11.189 16.3331 11.2397C16.3838 11.2903 16.4122 11.359 16.4123 11.4305V13.084ZM13.2472 15.6567C13.0048 15.5677 12.7517 15.5112 12.4945 15.4886C12.4243 15.4824 12.3538 15.4965 12.2914 15.5293C12.229 15.5622 12.1774 15.6123 12.1429 15.6737C12.1083 15.7352 12.0921 15.8053 12.0964 15.8756C12.1007 15.946 12.1252 16.0136 12.167 16.0704C12.314 16.2688 12.4074 16.5018 12.4378 16.7468C12.4717 17.0347 12.4154 17.3107 12.3396 17.4566C12.2248 17.201 12.0885 16.9555 11.9323 16.7229C11.8538 16.6061 11.762 16.4988 11.6588 16.4031C11.3852 16.1509 11.0466 15.9802 10.6812 15.9102C10.6221 15.898 10.5609 15.9006 10.503 15.9178C10.4452 15.935 10.3925 15.9662 10.3496 16.0087C10.3067 16.0511 10.275 16.1035 10.2572 16.1612C10.2395 16.2189 10.2363 16.28 10.2479 16.3393C10.322 16.7032 10.3237 17.0782 10.2527 17.4428C10.1698 17.8556 10.0447 18.0898 9.88643 18.3863C9.76286 18.6091 9.65341 18.8395 9.55873 19.076C9.2959 19.7483 9.2986 20.4954 9.56628 21.1657C9.85384 21.8697 10.451 22.4461 11.2047 22.7472C11.5486 22.8849 11.9144 22.9597 12.2848 22.968C12.3665 22.9817 12.4493 22.9886 12.5321 22.9887C12.6364 22.989 12.7404 22.9773 12.842 22.9539C12.9211 22.9357 12.9983 22.91 13.0726 22.8774C13.2161 22.84 13.3561 22.7907 13.4913 22.73C14.64 22.213 15.4949 21.0025 15.6188 19.7179C15.785 17.9923 14.7433 16.2083 13.2472 15.6567ZM13.3138 21.1854C13.2983 21.414 13.1784 21.9863 12.8184 22.1854C12.6669 22.2196 12.5121 22.237 12.3569 22.2375C12.2174 22.2053 12.0864 22.1439 11.9725 22.0574C11.8046 21.9317 11.6913 21.7676 11.6839 21.6392C11.6801 21.5744 11.7027 21.3934 11.992 21.1141C12.0891 21.0216 12.2014 20.9466 12.3241 20.8924C12.4674 20.8211 12.6458 20.7323 12.7932 20.5206C12.8707 20.4086 12.9263 20.283 12.957 20.1503C13.2082 20.4599 13.3383 20.8232 13.3138 21.1854ZM14.8897 19.6476C14.8246 20.3228 14.4938 20.9877 14.0143 21.477C14.0287 21.3969 14.0387 21.3162 14.0445 21.235V21.2349C14.103 20.3707 13.6015 19.5224 12.7357 19.0212C12.6728 18.9848 12.6005 18.9679 12.5279 18.9728C12.4554 18.9776 12.3859 19.0039 12.3283 19.0484C12.2708 19.0929 12.2278 19.1535 12.2048 19.2224C12.1818 19.2914 12.1799 19.3657 12.1993 19.4358C12.2585 19.65 12.3054 19.9395 12.1922 20.1021C12.1536 20.1574 12.1147 20.1785 11.9977 20.2368C11.808 20.3242 11.6342 20.4426 11.4833 20.5872C11.0184 21.0359 10.9381 21.4299 10.9527 21.6814C10.9549 21.7164 10.959 21.7513 10.9649 21.7858C10.5848 21.5212 10.3061 21.1351 10.1745 20.6911C10.0429 20.247 10.0664 19.7714 10.241 19.3425C10.3253 19.1328 10.4227 18.9287 10.5325 18.7313C10.6968 18.4237 10.8666 18.1056 10.9708 17.5871C11.02 17.3409 11.0421 17.09 11.0365 16.8389C11.0795 16.8692 11.1204 16.9025 11.1589 16.9384C11.2223 16.9969 11.2786 17.0627 11.3265 17.1345C11.5253 17.4272 11.769 17.8971 11.8345 18.2375C11.844 18.2867 11.8634 18.3335 11.8917 18.3748C11.92 18.4162 11.9564 18.4513 11.9988 18.4781C12.2829 18.6572 12.4997 18.4098 12.674 18.211C12.7604 18.1124 12.87 17.9808 12.8993 17.9405C13.1171 17.6409 13.2215 17.1388 13.1652 16.6612C13.1546 16.5708 13.1381 16.4813 13.1157 16.393C14.2308 16.8818 15.0187 18.309 14.8897 19.6476V19.6476Z" fill="#E82431"/>
</svg>
