<svg width="12" height="11" viewBox="0 0 12 11" fill="none" xmlns="http://www.w3.org/2000/svg">
<path d="M9.68176 5.5C9.68176 5.41984 9.64168 5.32966 9.58156 5.26954L4.91222 0.600201C4.8521 0.540081 4.76192 0.5 4.68176 0.5C4.6016 0.5 4.51142 0.540081 4.4513 0.600201L3.9503 1.1012C3.89018 1.16132 3.8501 1.2515 3.8501 1.33166C3.8501 1.41182 3.89018 1.502 3.9503 1.56212L7.88817 5.5L3.9503 9.43788C3.89018 9.498 3.8501 9.58818 3.8501 9.66834C3.8501 9.75852 3.89018 9.83868 3.9503 9.8988L4.4513 10.3998C4.51142 10.4599 4.6016 10.5 4.68176 10.5C4.76192 10.5 4.8521 10.4599 4.91222 10.3998L9.58156 5.73046C9.64168 5.67034 9.68176 5.58016 9.68176 5.5Z" fill="#1C2443"/>
<path d="M5.85022 5.5C5.85022 5.41984 5.81014 5.32966 5.75002 5.26954L1.08068 0.600201C1.02056 0.540081 0.930378 0.5 0.850218 0.5C0.770058 0.5 0.679877 0.540081 0.619757 0.600201L0.118755 1.1012C0.0586348 1.16132 0.0185547 1.2515 0.0185547 1.33166C0.0185547 1.41182 0.0586348 1.502 0.118755 1.56212L4.05663 5.5L0.118755 9.43788C0.0586348 9.498 0.0185547 9.58818 0.0185547 9.66834C0.0185547 9.75852 0.0586348 9.83868 0.118755 9.8988L0.619757 10.3998C0.679877 10.4599 0.770058 10.5 0.850218 10.5C0.930378 10.5 1.02056 10.4599 1.08068 10.3998L5.75002 5.73046C5.81014 5.67034 5.85022 5.58016 5.85022 5.5Z" fill="#1C2443"/>
<rect x="10.6816" y="0.5" width="1.3" height="10" rx="0.2" fill="#1C2443"/>
</svg>
