<svg width="24" height="24" viewBox="0 0 24 24" fill="none" xmlns="http://www.w3.org/2000/svg">
<path d="M17.4 0.924988C15.3 0.924988 13.3201 1.89087 12 3.46039C10.6798 1.89087 8.7 0.924988 6.6 0.924988C2.87988 0.924988 0 3.82235 0 7.56508C0 12.1525 4.07988 15.8352 10.2598 21.509L12 23.0788L13.7402 21.509C19.9201 15.8351 24 12.1525 24 7.56508C24 3.82235 21.1201 0.924988 17.4 0.924988ZM12.7405 19.9206L12.4971 20.144L12 20.5925L11.5029 20.1441L11.2598 19.9209C8.35108 17.2508 5.83898 14.9447 4.17831 12.8828C2.5654 10.8801 1.84615 9.24006 1.84615 7.56508C1.84615 6.24595 2.33204 5.0306 3.21433 4.14301C4.09367 3.25835 5.29604 2.77114 6.6 2.77114C8.10773 2.77114 9.59827 3.47308 10.5871 4.64874L12 6.32851L13.4128 4.64874C14.4017 3.47308 15.8922 2.77114 17.4 2.77114C18.704 2.77114 19.9063 3.25835 20.7857 4.14295C21.668 5.0306 22.1538 6.24589 22.1538 7.56508C22.1538 9.24006 21.4346 10.88 19.8218 12.8826C18.1613 14.9444 15.6497 17.25 12.7414 19.9198L12.7405 19.9206Z" fill="#E82431"/>
<path d="M12.7405 19.9206L12.4971 20.144L12 20.5925L11.5029 20.1441L11.2598 19.9209C8.35108 17.2508 5.83898 14.9447 4.17831 12.8828C2.5654 10.8801 1.84615 9.24006 1.84615 7.56508C1.84615 6.24595 2.33204 5.0306 3.21433 4.14301C4.09367 3.25835 5.29604 2.77114 6.6 2.77114C8.10773 2.77114 9.59827 3.47308 10.5871 4.64874L12 6.32851L13.4128 4.64874C14.4017 3.47308 15.8922 2.77114 17.4 2.77114C18.704 2.77114 19.9063 3.25835 20.7857 4.14295C21.668 5.0306 22.1538 6.24589 22.1538 7.56508C22.1538 9.24006 21.4346 10.88 19.8218 12.8826C18.1613 14.9444 15.6497 17.25 12.7414 19.9198L12.7405 19.9206Z" fill="#E82431"/>
</svg>
