<svg width="16" height="16" viewBox="0 0 16 16" fill="none" xmlns="http://www.w3.org/2000/svg">
<path d="M1 4.99957C1.55228 4.99957 2 4.55186 2 3.99957C2 3.44729 1.55228 2.99957 1 2.99957C0.447715 2.99957 0 3.44729 0 3.99957C0 4.55186 0.447715 4.99957 1 4.99957Z" fill="white"/>
<path d="M15 2.99957H4C3.44772 2.99957 3 3.44729 3 3.99957C3 4.55186 3.44772 4.99957 4 4.99957H15C15.5523 4.99957 16 4.55186 16 3.99957C16 3.44729 15.5523 2.99957 15 2.99957Z" fill="white"/>
<path d="M1 8.99957C1.55228 8.99957 2 8.55186 2 7.99957C2 7.44729 1.55228 6.99957 1 6.99957C0.447715 6.99957 0 7.44729 0 7.99957C0 8.55186 0.447715 8.99957 1 8.99957Z" fill="white"/>
<path d="M15 6.99957H4C3.44772 6.99957 3 7.44729 3 7.99957C3 8.55186 3.44772 8.99957 4 8.99957H15C15.5523 8.99957 16 8.55186 16 7.99957C16 7.44729 15.5523 6.99957 15 6.99957Z" fill="white"/>
<path d="M1 12.9996C1.55229 12.9996 2 12.5519 2 11.9996C2 11.4473 1.55229 10.9996 1 10.9996C0.447715 10.9996 0 11.4473 0 11.9996C0 12.5519 0.447715 12.9996 1 12.9996Z" fill="white"/>
<path d="M15 10.9996H4C3.44772 10.9996 3 11.4473 3 11.9996C3 12.5519 3.44772 12.9996 4 12.9996H15C15.5523 12.9996 16 12.5519 16 11.9996C16 11.4473 15.5523 10.9996 15 10.9996Z" fill="white"/>
</svg>
