<svg width="16" height="17" viewBox="0 0 16 17" fill="none" xmlns="http://www.w3.org/2000/svg">
<path fill-rule="evenodd" clip-rule="evenodd" d="M4.99085 0.592299C5.17605 0.475963 5.40906 0.469142 5.60065 0.574447L10.6687 3.36014L15.0749 0.592299C15.2614 0.475116 15.4964 0.469108 15.6886 0.576603C15.8808 0.6841 16 0.888186 16 1.1097V12.9342C16 13.1446 15.8923 13.3402 15.715 13.4516L11.0091 16.4077C10.824 16.524 10.5909 16.5309 10.3994 16.4255L5.33127 13.6399L0.925114 16.4077C0.73857 16.5249 0.503631 16.5309 0.311428 16.4234C0.119225 16.3159 0 16.1118 0 15.8903V4.06582C0 3.85535 0.107725 3.65976 0.28497 3.54842L4.99085 0.592299ZM5.33127 1.81538L1.21008 4.40421V14.7918L4.99085 12.4168C5.17605 12.3004 5.40906 12.2936 5.60065 12.3989L10.6687 15.1846L14.7899 12.5958V2.20824L11.0091 4.58322C10.824 4.69956 10.5909 4.70638 10.3994 4.60107L5.33127 1.81538Z" fill="#E82431"/>
<path fill-rule="evenodd" clip-rule="evenodd" d="M5.31088 0.5C5.64504 0.5 5.91592 0.772972 5.91592 1.1097V12.9342C5.91592 13.2709 5.64504 13.5439 5.31088 13.5439C4.97673 13.5439 4.70584 13.2709 4.70584 12.9342V1.1097C4.70584 0.772972 4.97673 0.5 5.31088 0.5Z" fill="#E82431"/>
<path fill-rule="evenodd" clip-rule="evenodd" d="M10.689 3.45612C11.0232 3.45612 11.2941 3.72909 11.2941 4.06582V15.8903C11.2941 16.227 11.0232 16.5 10.689 16.5C10.3549 16.5 10.084 16.227 10.084 15.8903V4.06582C10.084 3.72909 10.3549 3.45612 10.689 3.45612Z" fill="#E82431"/>
</svg>
