<svg width="7" height="11" viewBox="0 0 7 11" fill="none" xmlns="http://www.w3.org/2000/svg">
<path d="M6.75977 5.21429C6.75977 5.13393 6.71959 5.04353 6.65932 4.98326L1.97852 0.302455C1.91825 0.242188 1.82785 0.202008 1.74749 0.202008C1.66713 0.202008 1.57673 0.242188 1.51646 0.302455L1.01423 0.804688C0.953962 0.864955 0.913783 0.955357 0.913783 1.03571C0.913783 1.11607 0.953962 1.20647 1.01423 1.26674L4.96177 5.21429L1.01423 9.16183C0.953962 9.2221 0.913783 9.3125 0.913783 9.39286C0.913783 9.48326 0.953962 9.56362 1.01423 9.62388L1.51646 10.1261C1.57673 10.1864 1.66713 10.2266 1.74749 10.2266C1.82785 10.2266 1.91825 10.1864 1.97852 10.1261L6.65932 5.44531C6.71959 5.38504 6.75977 5.29464 6.75977 5.21429Z" fill="#1C2443"/>
</svg>
