<svg width="17" height="16" viewBox="0 0 17 16" fill="none" xmlns="http://www.w3.org/2000/svg">
<g clip-path="url(#clip0)">
<path d="M15.8043 1.91306H1.19565C0.813043 1.91306 0.5 2.2261 0.5 2.60871V13.3913C0.5 13.7739 0.813043 14.087 1.19565 14.087H15.8043C16.187 14.087 16.5 13.7739 16.5 13.3913V2.60871C16.5 2.2261 16.187 1.91306 15.8043 1.91306ZM15.1087 3.30436V9.13045L13.9435 8.15653C13.6826 7.94784 13.3174 7.94784 13.0565 8.15653L11.1783 9.72175L6.81304 5.93045C6.55217 5.70436 6.18696 5.70436 5.92609 5.91306L1.8913 9.16523V3.30436H15.1087ZM1.8913 12.6957V10.9565L6.34348 7.35653L10.7087 11.1478C10.9696 11.3739 11.3522 11.3739 11.613 11.1652L13.4913 9.60001L15.1087 10.9565V12.6957H1.8913ZM9.56087 5.66958C9.56087 4.97393 10.1348 4.40001 10.8478 4.40001C11.5609 4.40001 12.1348 4.97393 12.1348 5.66958C12.1348 6.36523 11.5609 6.93914 10.8478 6.93914C10.1348 6.93914 9.56087 6.36523 9.56087 5.66958Z" fill="#E82431"/>
</g>
<defs>
<clipPath id="clip0">
<rect width="16" height="16" fill="white" transform="translate(0.5)"/>
</clipPath>
</defs>
</svg>
