<svg width="17" height="17" viewBox="0 0 17 17" fill="none" xmlns="http://www.w3.org/2000/svg">
<path fill-rule="evenodd" clip-rule="evenodd" d="M5.73823 11.7036C5.85287 11.7552 5.97721 11.7819 6.10295 11.7817L6.21501 11.7758L8.7865 11.4455C8.97993 11.4209 9.16007 11.334 9.29962 11.1978L14.2136 6.27927C14.2178 6.27659 14.2219 6.27387 14.226 6.27112C14.3272 6.20345 14.4128 6.11597 14.4781 6.01456L15.6989 4.79265C15.9447 4.56724 16.1423 4.2944 16.2799 3.99056C16.4175 3.68672 16.4921 3.35818 16.4994 3.02473C16.5066 2.69127 16.4462 2.35981 16.3219 2.0503C16.1976 1.74079 16.012 1.45965 15.7761 1.22381C15.5403 0.987962 15.2592 0.802301 14.9496 0.678007C14.6401 0.553713 14.3087 0.493358 13.9752 0.500579C13.6418 0.5078 13.3132 0.582447 13.0094 0.720023C12.7055 0.857599 12.4327 1.05526 12.2073 1.30109L11.0233 2.484C10.9405 2.52611 10.8648 2.58105 10.7989 2.64693C10.7332 2.71262 10.6784 2.78813 10.6363 2.8706L5.80216 7.70033C5.66598 7.83988 5.57902 8.02002 5.55444 8.21344L5.22416 10.7849C5.20823 10.9097 5.21908 11.0364 5.25597 11.1566C5.29287 11.2768 5.35496 11.3877 5.43812 11.4821C5.52128 11.5764 5.62359 11.6519 5.73823 11.7036ZM11.4573 4.55566L7.28253 8.73836L7.13509 9.87666L8.26159 9.71741L12.4443 5.54269L11.4573 4.55566ZM13.7128 4.27662L14.4485 3.5423C14.5141 3.47755 14.5662 3.40042 14.6018 3.31537C14.6374 3.23032 14.6557 3.13906 14.6557 3.04687C14.6557 2.95469 14.6374 2.86342 14.6018 2.77837C14.5662 2.69332 14.5141 2.61619 14.4485 2.55145C14.3155 2.42315 14.1379 2.35146 13.9531 2.35146C13.7683 2.35146 13.5907 2.42315 13.4576 2.55145L12.713 3.29749L13.7128 4.27662ZM1.38469 16.5H14.3601C14.5947 16.5 14.8198 16.4068 14.9857 16.2409C15.1516 16.075 15.2448 15.8499 15.2448 15.6153V9.12761C15.2448 8.89297 15.1516 8.66795 14.9857 8.50204C14.8198 8.33613 14.5947 8.24292 14.3601 8.24292C14.1255 8.24292 13.9004 8.33613 13.7345 8.50204C13.5686 8.66795 13.4754 8.89297 13.4754 9.12761V14.7306H2.26937V3.52459H7.87239C8.10703 3.52459 8.33205 3.43138 8.49796 3.26547C8.66387 3.09956 8.75708 2.87454 8.75708 2.6399C8.75708 2.40527 8.66387 2.18024 8.49796 2.01433C8.33205 1.84842 8.10703 1.75521 7.87239 1.75521H1.38469C1.15005 1.75521 0.92503 1.84842 0.759119 2.01433C0.593208 2.18024 0.5 2.40527 0.5 2.6399V15.6153C0.5 15.8499 0.593208 16.075 0.759119 16.2409C0.92503 16.4068 1.15005 16.5 1.38469 16.5Z" fill="white"/>
</svg>
