<svg width="120" height="121" viewBox="0 0 120 121" fill="none" xmlns="http://www.w3.org/2000/svg">
<rect y="0.5" width="120" height="120" rx="60" fill="#E82431"/>
<g clip-path="url(#clip0)">
<path fill-rule="evenodd" clip-rule="evenodd" d="M90.722 74.4757L68.3955 37.4492C67.4927 36.0369 66.2489 34.8746 64.7787 34.0695C63.3085 33.2644 61.6593 32.8424 59.9831 32.8424C58.3069 32.8424 56.6576 33.2644 55.1874 34.0695C53.7172 34.8746 52.4734 36.0369 51.5706 37.4492L29.2441 74.4757C28.4554 75.7904 28.0268 77.2896 28.0012 78.8225C27.9757 80.3554 28.3541 81.8681 29.0986 83.2083C29.9593 84.717 31.2051 85.97 32.7087 86.8394C34.2123 87.7089 35.9197 88.1635 37.6566 88.1568H82.3095C84.035 88.1753 85.7347 87.7382 87.2373 86.8898C88.7399 86.0414 89.9921 84.8117 90.8675 83.3248C91.6338 81.9706 92.0244 80.4362 91.9988 78.8804C91.9732 77.3247 91.5324 75.804 90.722 74.4757ZM85.7735 80.443C85.4236 81.0444 84.9159 81.5386 84.3054 81.8721C83.6948 82.2056 83.0046 82.3657 82.3095 82.3351H37.6566C36.9615 82.3657 36.2713 82.2056 35.6608 81.8721C35.0502 81.5386 34.5425 81.0444 34.1926 80.443C33.9371 80.0005 33.8026 79.4985 33.8026 78.9876C33.8026 78.4766 33.9371 77.9746 34.1926 77.5321L56.5482 40.4766C56.9499 39.9459 57.4691 39.5156 58.0651 39.2193C58.661 38.923 59.3175 38.7688 59.9831 38.7688C60.6486 38.7688 61.3051 38.923 61.901 39.2193C62.497 39.5156 63.0162 39.9459 63.4179 40.4766L85.7444 77.503C86.0097 77.9464 86.1523 78.4524 86.1574 78.9691C86.1625 79.4857 86.03 79.9945 85.7735 80.443ZM59.9824 76.5131C61.5901 76.5131 62.8933 75.2099 62.8933 73.6023C62.8933 71.9946 61.5901 70.6914 59.9824 70.6914C58.3748 70.6914 57.0716 71.9946 57.0716 73.6023C57.0716 75.2099 58.3748 76.5131 59.9824 76.5131ZM57.9241 51.1678C58.47 50.6219 59.2104 50.3152 59.9824 50.3152C60.7545 50.3152 61.4949 50.6219 62.0408 51.1678C62.5867 51.7137 62.8933 52.4541 62.8933 53.2261V64.8696C62.8933 65.6416 62.5867 66.382 62.0408 66.9279C61.4949 67.4738 60.7545 67.7805 59.9824 67.7805C59.2104 67.7805 58.47 67.4738 57.9241 66.9279C57.3782 66.382 57.0716 65.6416 57.0716 64.8696V53.2261C57.0716 52.4541 57.3782 51.7137 57.9241 51.1678Z" fill="white"/>
</g>
<defs>
<clipPath id="clip0">
<rect width="64" height="64" fill="white" transform="translate(28 28.5)"/>
</clipPath>
</defs>
</svg>
