<svg width="120" height="121" viewBox="0 0 120 121" fill="none" xmlns="http://www.w3.org/2000/svg">
<rect y="0.5" width="120" height="120" rx="60" fill="#5DC087"/>
<g clip-path="url(#clip0)">
<path fill-rule="evenodd" clip-rule="evenodd" d="M73.0964 92.2652H85.0321C85.5125 92.2652 85.9732 92.0744 86.3128 91.7347C86.6525 91.3951 86.8433 90.9344 86.8433 90.454V59.622C86.8433 59.1417 86.6525 58.681 86.3128 58.3413C85.9732 58.0016 85.5125 57.8108 85.0321 57.8108H73.0964C72.6161 57.8108 72.1554 58.0016 71.8157 58.3413C71.476 58.681 71.2852 59.1417 71.2852 59.622V59.7358C69.0377 59.1545 65.4523 57.9172 63.0962 55.5614C61.8529 54.2246 60.895 52.6484 60.2809 50.9292C59.6669 49.2099 59.4095 47.3836 59.5246 45.5616C59.5246 43.5323 57.3071 41.4109 54.8721 41.1108C53.3156 40.9192 49.4963 41.224 47.7522 48.1994C47.1855 51.1261 47.0844 54.1239 47.4528 57.0821H40.2804C39.2093 57.068 38.1512 57.3181 37.1998 57.8104C36.2485 58.3027 35.4331 59.0219 34.8261 59.9045C33.2608 62.1196 32.0042 66.4761 34.8909 74.6637L38.1348 86.3818C38.4693 88.1048 39.393 89.6577 40.7475 90.7741C42.1019 91.8904 43.8026 92.5006 45.5578 92.5H54.312C57.5558 92.5 66.1244 91.9643 71.2852 89.8469V90.454C71.2852 90.9344 71.476 91.3951 71.8157 91.7347C72.1554 92.0744 72.6161 92.2652 73.0964 92.2652ZM74.9076 86.6598V61.4332H83.2209V88.6428H74.9076V86.6769C74.9077 86.6712 74.9077 86.6655 74.9076 86.6598ZM71.2852 85.8218C68.6223 87.5963 60.5055 88.8776 54.3122 88.8776H45.558C44.6359 88.8779 43.7429 88.5546 43.0347 87.9641C42.3265 87.3735 41.848 86.5532 41.6826 85.646C41.673 85.593 41.6605 85.5405 41.6464 85.4879L38.3653 73.6367C38.3535 73.596 38.3412 73.5553 38.327 73.5152C35.7104 66.1282 37.0758 62.9987 37.7846 61.9959C38.0575 61.5872 38.4296 61.2544 38.8661 61.0287C39.3026 60.803 39.7892 60.6917 40.2804 60.7052H49.5091C49.7722 60.7052 50.0321 60.648 50.2708 60.5374C50.5096 60.4269 50.7213 60.2656 50.8914 60.0649C51.0615 59.8642 51.1858 59.6289 51.2557 59.3752C51.3256 59.1216 51.3394 58.8558 51.2962 58.5963L51.2961 58.5958C51.2824 58.5114 50.3455 52.7636 51.2667 49.0785C51.9412 46.3817 53.0344 44.7433 54.1916 44.6967C54.5332 44.7082 54.8669 44.8018 55.1647 44.9695C55.4625 45.1372 55.7156 45.3741 55.9026 45.6601C55.7942 47.9425 56.1487 50.2233 56.9448 52.3651C57.7409 54.5069 58.9621 56.4655 60.535 58.123C63.8361 61.424 68.7849 62.8985 71.2852 63.4636V85.8218ZM52.7566 36.7135C53.0963 37.0531 53.557 37.244 54.0374 37.244C54.5177 37.244 54.9784 37.0531 55.3181 36.7135C55.6578 36.3738 55.8486 35.9131 55.8486 35.4327V30.3112C55.8486 29.8309 55.6578 29.3702 55.3181 29.0305C54.9784 28.6908 54.5177 28.5 54.0374 28.5C53.557 28.5 53.0963 28.6908 52.7566 29.0305C52.417 29.3702 52.2261 29.8309 52.2261 30.3112V35.4327C52.2261 35.9131 52.417 36.3738 52.7566 36.7135ZM62.2744 42.1714C62.5899 42.4109 62.9751 42.5403 63.3712 42.5399C63.6999 42.54 64.0224 42.4503 64.3038 42.2805L68.6922 39.6393C68.9002 39.5188 69.0821 39.3581 69.2274 39.1666C69.3726 38.975 69.4783 38.7565 69.5382 38.5237C69.5982 38.2909 69.6112 38.0485 69.5764 37.8106C69.5417 37.5727 69.46 37.3441 69.336 37.1381C69.2121 36.9322 69.0483 36.7529 68.8544 36.6109C68.6604 36.4689 68.4402 36.3668 68.2064 36.3108C67.9726 36.2548 67.73 36.2458 67.4928 36.2845C67.2555 36.3232 67.0283 36.4087 66.8244 36.5361L62.4355 39.1769C62.0962 39.3811 61.8331 39.6909 61.6866 40.0589C61.5402 40.4268 61.5183 40.8327 61.6245 41.2142C61.7307 41.5958 61.9589 41.932 62.2744 42.1714ZM43.7721 42.2805C44.0534 42.4502 44.3756 42.5399 44.7042 42.5399V42.5403C45.1002 42.5407 45.4855 42.4112 45.8009 42.1718C46.1164 41.9324 46.3447 41.5961 46.4508 41.2146C46.557 40.833 46.5351 40.4272 46.3887 40.0592C46.2422 39.6913 45.9792 39.3815 45.6398 39.1772L41.251 36.5365C40.8399 36.2977 40.3513 36.2301 39.8908 36.3484C39.4303 36.4667 39.0347 36.7613 38.7896 37.1687C38.5444 37.576 38.4692 38.0635 38.5802 38.5258C38.6913 38.9881 38.9797 39.3882 39.3832 39.6397L43.7721 42.2805Z" fill="white"/>
</g>
<defs>
<clipPath id="clip0">
<rect width="64" height="64" fill="white" transform="translate(28 28.5)"/>
</clipPath>
</defs>
</svg>
