<svg width="13" height="17" viewBox="0 0 13 17" fill="none" xmlns="http://www.w3.org/2000/svg">
<path fill-rule="evenodd" clip-rule="evenodd" d="M10.4121 16.5H0.631355C0.543423 16.5 0.459092 16.4649 0.396914 16.4024C0.334736 16.3399 0.299805 16.2551 0.299805 16.1667V3.13333C0.299805 3.04493 0.334736 2.96014 0.396914 2.89763C0.459092 2.83512 0.543423 2.8 0.631355 2.8H2.25595V0.833333C2.25595 0.744928 2.29088 0.660143 2.35306 0.597631C2.41524 0.535119 2.49957 0.5 2.5875 0.5H9.49039C9.5312 0.501008 9.57154 0.508895 9.60975 0.523333L9.64954 0.546667L9.69927 0.583333L12.5771 2.91667C12.6156 2.94804 12.6466 2.98768 12.6678 3.03267C12.689 3.07767 12.7 3.12687 12.6998 3.17667V13.8667C12.6998 13.9551 12.6649 14.0399 12.6027 14.1024C12.5405 14.1649 12.4562 14.2 12.3683 14.2H10.7437V16.1667C10.7437 16.2551 10.7087 16.3399 10.6465 16.4024C10.5844 16.4649 10.5 16.5 10.4121 16.5ZM9.67274 5.30333L7.86579 3.83333V5.30333H9.67274ZM11.4797 2.86667L9.82194 1.53333V2.86667H11.4797ZM9.15884 1.16667H2.91906V2.8H7.53756C7.57944 2.80101 7.62088 2.80889 7.66023 2.82333L7.69339 2.85667C7.71153 2.86222 7.72842 2.87128 7.74312 2.88333L10.621 5.21667C10.6594 5.24804 10.6904 5.28768 10.7117 5.33267C10.7329 5.37767 10.7438 5.42687 10.7437 5.47667V13.5467H12.0367V3.54667H9.49039C9.40246 3.54667 9.31813 3.51155 9.25595 3.44904C9.19377 3.38652 9.15884 3.30174 9.15884 3.21333V1.16667ZM7.20269 3.46667H0.962906V15.8333H10.0806V5.97H7.53424C7.44631 5.97 7.36198 5.93488 7.2998 5.87237C7.23762 5.80986 7.20269 5.72507 7.20269 5.63667V3.46667ZM2.58751 7.07666H8.45596C8.54389 7.07666 8.62822 7.11178 8.6904 7.17429C8.75258 7.2368 8.78751 7.32159 8.78751 7.40999C8.78751 7.4984 8.75258 7.58318 8.6904 7.6457C8.62822 7.70821 8.54389 7.74333 8.45596 7.74333H2.58751C2.49958 7.74333 2.41525 7.70821 2.35307 7.6457C2.29089 7.58318 2.25596 7.4984 2.25596 7.40999C2.25596 7.32159 2.29089 7.2368 2.35307 7.17429C2.41525 7.11178 2.49958 7.07666 2.58751 7.07666ZM2.58751 8.68999H8.45596C8.54389 8.68999 8.62822 8.72511 8.6904 8.78763C8.75258 8.85014 8.78751 8.93492 8.78751 9.02333C8.78751 9.11173 8.75258 9.19652 8.6904 9.25903C8.62822 9.32154 8.54389 9.35666 8.45596 9.35666H2.58751C2.49958 9.35666 2.41525 9.32154 2.35307 9.25903C2.29089 9.19652 2.25596 9.11173 2.25596 9.02333C2.25596 8.93492 2.29089 8.85014 2.35307 8.78763C2.41525 8.72511 2.49958 8.68999 2.58751 8.68999ZM2.58751 10.3033H8.45596C8.54389 10.3033 8.62822 10.3384 8.6904 10.401C8.75258 10.4635 8.78751 10.5483 8.78751 10.6367C8.78751 10.7251 8.75258 10.8099 8.6904 10.8724C8.62822 10.9349 8.54389 10.97 8.45596 10.97H2.58751C2.49958 10.97 2.41525 10.9349 2.35307 10.8724C2.29089 10.8099 2.25596 10.7251 2.25596 10.6367C2.25596 10.5483 2.29089 10.4635 2.35307 10.401C2.41525 10.3384 2.49958 10.3033 2.58751 10.3033ZM2.58751 11.92H8.45596C8.54389 11.92 8.62822 11.9551 8.6904 12.0176C8.75258 12.0801 8.78751 12.1649 8.78751 12.2533C8.78751 12.3417 8.75258 12.4265 8.6904 12.489C8.62822 12.5515 8.54389 12.5867 8.45596 12.5867H2.58751C2.49958 12.5867 2.41525 12.5515 2.35307 12.489C2.29089 12.4265 2.25596 12.3417 2.25596 12.2533C2.25596 12.1649 2.29089 12.0801 2.35307 12.0176C2.41525 11.9551 2.49958 11.92 2.58751 11.92ZM2.58751 13.5333H8.45596C8.54389 13.5333 8.62822 13.5684 8.6904 13.631C8.75258 13.6935 8.78751 13.7783 8.78751 13.8667C8.78751 13.9551 8.75258 14.0399 8.6904 14.1024C8.62822 14.1649 8.54389 14.2 8.45596 14.2H2.58751C2.49958 14.2 2.41525 14.1649 2.35307 14.1024C2.29089 14.0399 2.25596 13.9551 2.25596 13.8667C2.25596 13.7783 2.29089 13.6935 2.35307 13.631C2.41525 13.5684 2.49958 13.5333 2.58751 13.5333Z" fill="white"/>
</svg>
