<svg width="16" height="17" viewBox="0 0 16 17" fill="none" xmlns="http://www.w3.org/2000/svg">
<path d="M4.152 7.412C5.168 6.9 6.176 5.9 6.28 5.78L4.152 7.412ZM4.152 7.412C4.20496 7.52819 4.26513 7.64736 4.33181 7.76882M4.152 7.412L4.33181 7.76882M4.33181 7.76882L4.37701 7.85851C4.3783 7.85786 4.37959 7.85721 4.38088 7.85655C5.33248 9.52762 7.46633 11.5952 9.048 12.324C9.568 11.332 10.576 10.324 10.688 10.22C10.7836 10.1266 10.901 10.0587 11.0295 10.0223C11.1581 9.98602 11.2937 9.98246 11.424 10.012L4.33181 7.76882ZM15.327 11.7901L15.327 11.7901L15.3289 11.7955C15.3864 11.9574 15.4299 12.1239 15.4586 12.2933C15.4864 12.4673 15.5002 12.6432 15.5 12.8194V12.82C15.5 13.2376 15.4177 13.6511 15.2579 14.0369C15.0981 14.4227 14.8639 14.7733 14.5686 15.0686C14.2733 15.3639 13.9227 15.5981 13.5369 15.7579C13.1513 15.9177 12.738 15.9999 12.3206 16C9.18686 15.9959 6.1826 14.7492 3.96667 12.5333C1.75083 10.3175 0.504149 7.31335 0.5 4.17968C0.500084 3.33641 0.835109 2.52769 1.4314 1.9314C2.02596 1.33684 2.83171 1.00203 3.67234 1.00001C3.84434 1.00574 4.01539 1.0282 4.18306 1.06708L4.20278 1.07165L4.22281 1.07461C4.38669 1.09887 4.5478 1.13914 4.70382 1.19487L4.70381 1.19491L4.70994 1.19701C4.7581 1.21351 4.80127 1.24199 4.83538 1.27978C4.86949 1.31757 4.89343 1.36341 4.90494 1.41301L4.90815 1.42684L4.91214 1.44047L6.00275 5.16606C6.01117 5.21136 6.00906 5.25805 5.9965 5.30249C5.98287 5.3507 5.95739 5.39473 5.92238 5.43056L5.91194 5.44125L5.90216 5.45253C5.90234 5.45232 5.90231 5.45236 5.90203 5.45266C5.90101 5.45379 5.89664 5.45862 5.88769 5.46804C5.87729 5.47898 5.86318 5.49353 5.84536 5.51149C5.80978 5.54737 5.76154 5.59474 5.70232 5.65094C5.58383 5.76339 5.42392 5.90877 5.23656 6.06601C4.8573 6.38432 4.38524 6.73456 3.92699 6.96549L3.4976 7.18187L3.69704 7.61939C4.12567 8.55971 4.96366 9.63764 5.89438 10.5711C6.82515 11.5047 7.90054 12.3458 8.83875 12.7781L9.27026 12.9769L9.49085 12.5561C9.97057 11.641 10.9279 10.6796 11.0282 10.5864L11.0283 10.5865L11.0374 10.5776C11.0733 10.5426 11.1173 10.5171 11.1655 10.5035C11.2102 10.4909 11.2571 10.4888 11.3027 10.4974L15.0854 11.5884L15.0981 11.5921L15.111 11.5951C15.1606 11.6066 15.2064 11.6305 15.2442 11.6646C15.282 11.6987 15.3105 11.7419 15.327 11.7901ZM10.8506 5.64939C10.3068 5.10554 9.56913 4.8 8.8 4.8C8.72043 4.8 8.64413 4.76839 8.58787 4.71213C8.53161 4.65587 8.5 4.57957 8.5 4.5C8.5 4.42043 8.53161 4.34413 8.58787 4.28787C8.64413 4.23161 8.72044 4.2 8.8 4.2C9.72826 4.2 10.6185 4.56875 11.2749 5.22513C11.9313 5.8815 12.3 6.77174 12.3 7.7C12.3 7.77957 12.2684 7.85587 12.2121 7.91213C12.1559 7.96839 12.0796 8 12 8C11.9204 8 11.8441 7.96839 11.7879 7.91213C11.7316 7.85587 11.7 7.77957 11.7 7.7C11.7 6.93087 11.3945 6.19325 10.8506 5.64939ZM13.1134 3.38665C11.9694 2.24268 10.4178 1.6 8.8 1.6C8.72043 1.6 8.64413 1.56839 8.58787 1.51213C8.53161 1.45587 8.5 1.37957 8.5 1.3C8.5 1.22043 8.53161 1.14413 8.58787 1.08787C8.64413 1.03161 8.72043 1 8.8 1C10.5769 1 12.2811 1.70589 13.5376 2.96238C14.7941 4.21888 15.5 5.92305 15.5 7.7C15.5 7.77956 15.4684 7.85587 15.4121 7.91213C15.3559 7.96839 15.2796 8 15.2 8C15.1204 8 15.0441 7.96839 14.9879 7.91213C14.9316 7.85587 14.9 7.77957 14.9 7.7C14.9 6.08218 14.2573 4.53062 13.1134 3.38665Z" stroke="white"/>
</svg>
