<svg width="16" height="17" viewBox="0 0 16 17" fill="none" xmlns="http://www.w3.org/2000/svg">
<path d="M7.98088 9.29235C8.4206 9.29235 8.77706 8.93589 8.77706 8.49618C8.77706 8.05646 8.4206 7.7 7.98088 7.7C7.54117 7.7 7.18471 8.05646 7.18471 8.49618C7.18471 8.93589 7.54117 9.29235 7.98088 9.29235Z" fill="#E82431"/>
<path d="M11.1656 9.29235C11.6053 9.29235 11.9618 8.93589 11.9618 8.49618C11.9618 8.05646 11.6053 7.7 11.1656 7.7C10.7259 7.7 10.3694 8.05646 10.3694 8.49618C10.3694 8.93589 10.7259 9.29235 11.1656 9.29235Z" fill="#E82431"/>
<path d="M4.79618 9.29235C5.23589 9.29235 5.59235 8.93589 5.59235 8.49618C5.59235 8.05646 5.23589 7.7 4.79618 7.7C4.35646 7.7 4 8.05646 4 8.49618C4 8.93589 4.35646 9.29235 4.79618 9.29235Z" fill="#E82431"/>
<path d="M13.6099 2.85382C12.3035 1.53697 10.5793 0.717847 8.73459 0.537665C6.88983 0.357483 5.04011 0.827537 3.50432 1.86679C1.96852 2.90604 0.842896 4.44936 0.321503 6.23068C-0.199891 8.012 -0.0843794 9.91969 0.648123 11.6249C0.724469 11.7833 0.749519 11.9617 0.719779 12.1352L0.0191432 15.508C-0.00785019 15.6374 -0.00233809 15.7714 0.0351842 15.898C0.0727066 16.0247 0.141063 16.14 0.234111 16.2336C0.310388 16.3095 0.401208 16.3691 0.501096 16.4088C0.600984 16.4485 0.707873 16.4676 0.81532 16.4649H0.974555L4.38219 15.7791C4.55538 15.7583 4.73101 15.783 4.89174 15.8509C6.59437 16.5845 8.49921 16.7002 10.2779 16.178C12.0565 15.6558 13.5976 14.5285 14.6353 12.9904C15.673 11.4524 16.1423 9.59986 15.9624 7.75235C15.7825 5.90484 14.9646 4.17808 13.6497 2.86977L13.6099 2.85382ZM14.2707 9.51981C14.115 10.4719 13.7458 11.3761 13.1907 12.1646C12.6357 12.9531 11.9093 13.6052 11.0662 14.0719C10.2231 14.5386 9.28536 14.8076 8.32344 14.8589C7.36152 14.9102 6.40052 14.7423 5.51276 14.3678C5.19791 14.2337 4.85968 14.1632 4.51754 14.1605C4.36808 14.1615 4.21896 14.1749 4.07168 14.2004L1.82646 14.6549L2.28029 12.4063C2.37067 11.9193 2.3124 11.4164 2.11309 10.963C1.7392 10.074 1.57153 9.11152 1.62272 8.14816C1.6739 7.18481 1.9426 6.24562 2.40858 5.40129C2.87457 4.55696 3.52571 3.82948 4.313 3.2736C5.10029 2.71771 6.00322 2.34791 6.95384 2.19201C7.95167 2.028 8.97415 2.10428 9.9367 2.41452C10.8993 2.72477 11.7742 3.26007 12.4892 3.97615C13.2042 4.69222 13.7387 5.5685 14.0485 6.53249C14.3583 7.49649 14.4345 8.52049 14.2707 9.51981Z" fill="#E82431"/>
</svg>
