<svg width="120" height="121" viewBox="0 0 120 121" fill="none" xmlns="http://www.w3.org/2000/svg">
<rect y="0.5" width="120" height="120" rx="60" fill="#2390F5"/>
<g clip-path="url(#clip0)">
<path fill-rule="evenodd" clip-rule="evenodd" d="M60 82.6538C53.1621 82.7419 46.4581 80.7542 40.7729 76.9528C35.0877 73.1515 30.6884 67.7152 28.1557 61.3615C27.9481 60.8059 27.9481 60.194 28.1557 59.6384C30.6884 53.2846 35.0877 47.8484 40.7729 44.047C46.4581 40.2457 53.1621 38.2579 60 38.3461C66.8379 38.2579 73.5419 40.2457 79.2271 44.047C84.9123 47.8484 89.3116 53.2846 91.8443 59.6384C92.0519 60.194 92.0519 60.8059 91.8443 61.3615C89.3116 67.7152 84.9123 73.1515 79.2271 76.9528C73.5419 80.7542 66.8379 82.7419 60 82.6538ZM33.1267 60.4999C35.426 65.6894 39.1987 70.0889 43.9762 73.1522C48.7538 76.2155 54.3257 77.8076 60 77.7307C65.6743 77.8076 71.2462 76.2155 76.0238 73.1522C80.8013 70.0889 84.574 65.6894 86.8733 60.4999C84.574 55.3105 80.8013 50.9109 76.0238 47.8476C75.7181 47.6516 75.4091 47.4616 75.0971 47.2777C76.4905 49.8136 77.2269 52.6673 77.2269 55.5769C77.2269 60.1468 75.412 64.5295 72.1814 67.7609C68.9508 70.9923 64.5692 72.8076 60.0004 72.8076C56.5934 72.8076 53.2628 71.7971 50.4299 69.9037C47.597 68.0104 45.3891 65.3193 44.0853 62.1708C42.7814 59.0223 42.4403 55.5578 43.105 52.2153C43.4506 50.4774 44.06 48.8131 44.9042 47.277C44.5917 47.4611 44.2824 47.6513 43.9762 47.8476C39.1987 50.9109 35.426 55.3105 33.1267 60.4999ZM60.0004 43.2692C57.5668 43.2692 55.1878 43.991 53.1644 45.3434C51.1409 46.6958 49.5638 48.618 48.6324 50.8669C47.7011 53.1159 47.4575 55.5905 47.9322 57.978C48.407 60.3654 49.5789 62.5585 51.2998 64.2797C53.0206 66.001 55.2131 67.1732 57.5999 67.6481C59.9868 68.123 62.4608 67.8792 64.7092 66.9477C66.9576 66.0162 68.8793 64.4387 70.2313 62.4147C71.5834 60.3907 72.3051 58.0111 72.3051 55.5769C72.3051 52.3127 71.0087 49.1822 68.7011 46.874C66.3936 44.5659 63.2638 43.2692 60.0004 43.2692ZM55.8985 61.7169C57.1125 62.5284 58.5399 62.9615 60.0001 62.9615C61.9581 62.9615 63.836 62.1834 65.2205 60.7986C66.605 59.4137 67.3829 57.5354 67.3829 55.5768C67.3829 54.1163 66.9499 52.6886 66.1386 51.4742C65.3274 50.2598 64.1744 49.3133 62.8254 48.7544C61.4763 48.1954 59.9919 48.0492 58.5598 48.3341C57.1277 48.6191 55.8122 49.3224 54.7797 50.3551C53.7472 51.3879 53.0441 52.7037 52.7592 54.1362C52.4743 55.5687 52.6205 57.0535 53.1793 58.4028C53.7381 59.7522 54.6844 60.9055 55.8985 61.7169ZM58.6329 53.5302C59.0376 53.2597 59.5134 53.1153 60.0001 53.1153C60.6528 53.1153 61.2787 53.3746 61.7402 53.8363C62.2018 54.2979 62.461 54.924 62.461 55.5768C62.461 56.0637 62.3167 56.5396 62.0463 56.9444C61.7759 57.3492 61.3915 57.6647 60.9419 57.851C60.4922 58.0373 59.9974 58.0861 59.52 57.9911C59.0426 57.8961 58.6041 57.6617 58.26 57.3174C57.9158 56.9732 57.6814 56.5346 57.5865 56.0571C57.4915 55.5796 57.5402 55.0846 57.7265 54.6349C57.9128 54.1851 58.2282 53.8006 58.6329 53.5302Z" fill="white"/>
</g>
<defs>
<clipPath id="clip0">
<rect width="64" height="64" fill="white" transform="translate(28 28.5)"/>
</clipPath>
</defs>
</svg>
