<svg width="59" height="57" viewBox="0 0 59 57" fill="none" xmlns="http://www.w3.org/2000/svg">
<path d="M11.8442 8.3078C12.6045 7.9606 13.3346 7.58597 13.9706 7.12319C16.2822 5.44088 17.8718 2.16039 20.649 1.25868C23.3285 0.388663 26.5304 2.07984 29.5 2.07984C32.4696 2.07984 35.6715 0.388663 38.351 1.25868C41.1282 2.16039 42.7178 5.44088 45.0294 7.12319C47.3642 8.82232 50.969 9.33212 52.6681 11.6669C54.3504 13.9785 53.7323 17.556 54.6341 20.3332C55.5041 23.0127 58.1357 25.5304 58.1357 28.5C58.1357 31.4696 55.5041 33.9872 54.6341 36.6668C53.7324 39.4439 54.3505 43.0215 52.6681 45.3331C50.969 47.6678 47.3641 48.1776 45.0294 49.8768C42.7178 51.5591 41.1282 54.8396 38.351 55.7413C35.6715 56.6113 32.4696 54.9201 29.5 54.9201C26.5304 54.9201 23.3285 56.6113 20.649 55.7413C17.8718 54.8396 16.2822 51.5591 13.9706 49.8768C11.6358 48.1776 8.03103 47.6678 6.3319 45.3331C4.64959 43.0215 5.26771 39.4439 4.366 36.6668C3.49587 33.9873 0.864258 31.4696 0.864258 28.5C0.864258 25.5304 3.49587 23.0127 4.36588 20.3332C5.26759 17.556 4.64948 13.9785 6.3319 11.6669C6.86797 10.9303 7.5936 10.3754 8.40934 9.90748" fill="#E82431"/>
<path d="M52.7141 28.5C52.7141 30.9072 50.5808 32.9483 49.8755 35.1204C49.1446 37.3718 49.6457 40.2719 48.2819 42.1458C46.9045 44.0384 43.9822 44.4516 42.0895 45.8292C40.2156 47.193 38.927 49.8522 36.6757 50.5833C34.5035 51.2886 31.9079 49.9177 29.5006 49.9177C27.0934 49.9177 24.4977 51.2886 22.3255 50.5833C20.0742 49.8523 18.7857 47.193 16.9117 45.8292C15.0191 44.4518 12.0969 44.0385 10.7194 42.1458C9.35557 40.2719 9.85661 37.3718 9.12568 35.1205C8.42033 32.9484 6.28711 30.9075 6.28711 28.5001C6.28711 26.0929 8.42044 24.0518 9.12568 21.8797C9.85661 19.6283 9.35557 16.7282 10.7194 14.8544C12.0968 12.9618 15.019 12.5486 16.9117 11.171C18.7857 9.80724 20.0742 7.14798 22.3255 6.41693C24.4977 5.71158 27.0934 7.08252 29.5006 7.08252C31.9079 7.08252 34.5035 5.71158 36.6757 6.41693C38.927 7.14786 40.2156 9.80724 42.0895 11.171C43.9821 12.5484 46.9043 12.9617 48.2819 14.8544C49.6457 16.7283 49.1446 19.6284 49.8755 21.8797C50.5808 24.0517 52.7141 26.0927 52.7141 28.5Z" fill="white"/>
<path d="M54.6338 20.3332C53.7321 17.556 54.3502 13.9785 52.6678 11.6669C50.9687 9.33209 47.3638 8.82229 45.0292 7.12316C42.7176 5.44086 41.1279 2.16036 38.3507 1.25865C37.2163 0.89025 35.9881 0.981515 34.7236 1.20876C34.7804 1.22478 34.8374 1.24033 34.8937 1.25865C37.6709 2.16036 39.2605 5.44086 41.5721 7.12316C43.9069 8.82229 47.5117 9.33209 49.2108 11.6669C50.8931 13.9785 50.275 17.556 51.1767 20.3332C52.0468 23.0126 54.6784 25.5304 54.6784 28.4999C54.6784 31.4695 52.0468 33.9872 51.1768 36.6667C50.2751 39.4439 50.8932 43.0214 49.2108 45.333C47.5117 47.6678 43.9068 48.1776 41.5721 49.8767C39.2605 51.559 37.6709 54.8395 34.8937 55.7412C34.8374 55.7596 34.7804 55.7751 34.7236 55.7913C35.9881 56.0184 37.2163 56.1096 38.3507 55.7412C41.1279 54.8395 42.7176 51.559 45.0292 49.8767C47.3639 48.1776 50.9687 47.6678 52.6678 45.333C54.3501 43.0214 53.7321 39.4439 54.6338 36.6667C55.5038 33.9872 58.1355 31.4695 58.1355 28.4999C58.1355 25.5304 55.5038 23.0126 54.6338 20.3332Z" fill="#CF202C"/>
<path d="M49.8744 21.8796C49.1435 19.6282 49.6445 16.7281 48.2807 14.8543C46.9033 12.9617 43.9811 12.5483 42.0884 11.1711C40.2144 9.80725 38.9259 7.14788 36.6745 6.41694C35.6327 6.07862 34.4934 6.21828 33.3242 6.45486C35.5095 7.23407 36.7874 9.82903 38.6313 11.1709C40.5239 12.5483 43.4463 12.9616 44.8237 14.8542C46.1875 16.7281 45.6865 19.6282 46.4174 21.8794C47.1227 24.0516 49.2559 26.0925 49.2559 28.4999C49.2559 30.9071 47.1226 32.9482 46.4174 35.1203C45.6865 37.3717 46.1875 40.2718 44.8237 42.1456C43.4463 44.0382 40.5241 44.4515 38.6313 45.8289C36.7875 47.1708 35.5095 49.7658 33.3242 50.545C34.4934 50.7816 35.6327 50.9213 36.6745 50.5831C38.9259 49.852 40.2144 47.1927 42.0884 45.8289C43.981 44.4515 46.9032 44.0383 48.2807 42.1456C49.6445 40.2716 49.1435 37.3715 49.8744 35.1203C50.5798 32.9482 52.713 30.9072 52.713 28.4999C52.7131 26.0926 50.5798 24.0517 49.8744 21.8796Z" fill="#D9D9D9"/>
<path d="M23.6029 37.7873L19.3123 32.6249C18.6648 31.8458 18.7714 30.6892 19.5506 30.0417L20.7535 29.042C21.5326 28.3945 22.6891 28.5012 23.3367 29.2803L25.4982 31.8812C26.0147 32.5026 26.9578 32.5346 27.5152 31.9495L38.5657 21.1677C39.2645 20.4341 40.4256 20.406 41.1591 21.1048L42.2916 22.1836C43.025 22.8824 43.0533 24.0435 42.3545 24.777L29.0067 37.9703C27.5132 39.5379 24.9867 39.4524 23.6029 37.7873Z" fill="#CF202C"/>
<path d="M42.293 22.1836L41.1605 21.1048C40.4269 20.406 39.2659 20.4343 38.5671 21.1677L38.1731 21.5522L38.8359 22.1836C39.5694 22.8824 39.5976 24.0435 38.8989 24.777L25.551 37.9703C25.2827 38.252 24.9806 38.4794 24.6582 38.6548C26.0479 39.4101 27.8426 39.1937 29.0081 37.9703L42.356 24.777C43.0547 24.0434 43.0266 22.8823 42.293 22.1836Z" fill="#B51C26"/>
<path d="M56.94 22.9921C56.3362 21.9782 55.7659 21.0203 55.4562 20.0662C55.1272 19.0528 55.0167 17.9054 54.8998 16.6906C54.7129 14.7495 54.5198 12.7423 53.367 11.1582C52.2022 9.55775 50.3449 8.75422 48.5487 7.97708C47.4363 7.49586 46.3858 7.04126 45.538 6.4243C44.7062 5.81897 43.9598 4.96808 43.1696 4.06729C41.8711 2.58722 40.5285 1.05679 38.6179 0.436488C36.79 -0.157084 34.839 0.27539 32.9523 0.69346C31.7945 0.950087 30.5974 1.21536 29.5 1.21536C28.4027 1.21536 27.2055 0.949972 26.0477 0.69346C24.161 0.27539 22.2099 -0.157084 20.382 0.436603C18.4715 1.05691 17.1289 2.58734 15.8304 4.06741C15.0403 4.96808 14.2938 5.81897 13.462 6.4243C13.1693 6.63736 12.8354 6.84317 12.441 7.05348C12.0199 7.27807 11.8606 7.80158 12.0852 8.22276C12.3098 8.64394 12.8333 8.80308 13.2546 8.57849C13.7204 8.33004 14.1211 8.08252 14.4792 7.82174C15.4664 7.10326 16.3121 6.13932 17.1299 5.20719C18.327 3.84282 19.4576 2.55403 20.916 2.08042C22.2964 1.63239 23.9369 1.99595 25.6739 2.38095C26.9224 2.65763 28.2136 2.94376 29.5002 2.94376C30.7868 2.94376 32.0779 2.65763 33.3266 2.38084C35.0637 1.99595 36.7046 1.63239 38.0844 2.08031C39.5428 2.5538 40.6735 3.84259 41.8705 5.20708C42.6883 6.13921 43.5339 7.10314 44.5213 7.82163C45.5238 8.55129 46.7128 9.0657 47.8627 9.56317C49.5187 10.2796 51.0828 10.9563 51.9698 12.1751C52.8448 13.3774 53.0074 15.0671 53.1796 16.856C53.3003 18.1099 53.4251 19.4064 53.8126 20.5997C54.1822 21.738 54.8294 22.825 55.4553 23.8762C56.389 25.4456 57.2715 26.9276 57.2715 28.5C57.2715 30.0723 56.389 31.5545 55.4547 33.1236C54.8289 34.1748 54.1817 35.2617 53.8121 36.3999C53.4246 37.5932 53.2999 38.8897 53.1792 40.1437C53.007 41.9325 52.8444 43.6223 51.9693 44.8247C51.0824 46.0434 49.5183 46.72 47.8623 47.4364C46.7123 47.9339 45.5233 48.4483 44.5208 49.178C43.5336 49.8965 42.6879 50.8604 41.8701 51.7925C40.673 53.1569 39.5424 54.4457 38.084 54.9192C36.7039 55.3673 35.0633 55.0037 33.3261 54.6187C32.0774 54.342 30.7864 54.0559 29.4999 54.0559C28.2133 54.0559 26.9222 54.342 25.6735 54.6187C23.9365 55.0037 22.2959 55.3672 20.9156 54.9192C19.4572 54.4457 18.3265 53.1569 17.1296 51.7924C16.3118 50.8603 15.4662 49.8963 14.4789 49.1779C13.4763 48.4482 12.2872 47.9338 11.1374 47.4363C9.48148 46.7199 7.91729 46.0431 7.03033 44.8245C6.15536 43.6222 5.99276 41.9325 5.82049 40.1436C5.69984 38.8897 5.57504 37.5932 5.18762 36.3999C4.81806 35.2617 4.17091 34.1747 3.54507 33.1236C2.61098 31.5545 1.72852 30.0723 1.72852 28.5C1.72852 26.9276 2.61098 25.4456 3.5453 23.8764C4.17114 22.8253 4.8183 21.7383 5.18785 20.6001C5.57538 19.4067 5.70007 18.1101 5.82083 16.8562C5.99299 15.0673 6.15559 13.3777 7.03068 12.1753C7.53483 11.4826 8.29008 10.9091 9.47964 10.3158C9.90681 10.1027 10.0804 9.58368 9.86729 9.15662C9.65422 8.72944 9.13521 8.5559 8.70815 8.76897C7.73142 9.25618 6.49922 9.9681 5.633 11.1584C4.4802 12.7424 4.28706 14.7495 4.10015 16.6908C3.98331 17.9056 3.8728 19.0529 3.5438 20.0664C3.23405 21.0206 2.66376 21.9783 2.06005 22.9922C1.04725 24.6931 0 26.452 0 28.5C0 30.548 1.04725 32.307 2.06005 34.0079C2.66376 35.0219 3.23405 35.9796 3.5438 36.9337C3.8728 37.9471 3.98319 39.0945 4.10015 40.3092C4.28695 42.2504 4.4802 44.2577 5.633 45.8417C6.79779 47.4422 8.65514 48.2457 10.4513 49.0229C11.5637 49.5041 12.6144 49.9587 13.462 50.5757C14.2938 51.181 15.0402 52.0318 15.8304 52.9325C17.1289 54.4126 18.4716 55.9432 20.3821 56.5633C21.0259 56.7724 21.6847 56.8542 22.3507 56.8542C23.576 56.8542 24.8254 56.5773 26.0477 56.3065C27.2055 56.0499 28.4027 55.7846 29.5 55.7846C30.5974 55.7846 31.7945 56.0499 32.9523 56.3065C34.839 56.7246 36.79 57.157 38.618 56.5633C40.5285 55.943 41.8711 54.4126 43.1694 52.9325C43.9597 52.0318 44.7062 51.181 45.538 50.5755C46.3856 49.9587 47.4363 49.5041 48.5487 49.0228C50.3449 48.2456 52.2022 47.4421 53.367 45.8416C54.5198 44.2576 54.7129 42.2503 54.8998 40.3092C55.0167 39.0944 55.1272 37.947 55.4562 36.9336C55.7659 35.9795 56.3362 35.0218 56.94 34.0078C57.9527 32.3069 59 30.5479 59 28.5C59 26.452 57.9527 24.6931 56.94 22.9921Z" fill="black"/>
<path d="M8.30371 21.6128C8.05826 22.3688 7.60044 23.1374 7.11587 23.9513C6.28354 25.3492 5.42285 26.7947 5.42285 28.5C5.42285 30.2052 6.28354 31.6507 7.11587 33.0487C7.60044 33.8626 8.05815 34.6314 8.30371 35.3873C8.56495 36.1919 8.65356 37.1133 8.74748 38.0889C8.90097 39.6843 9.05976 41.3341 10.0206 42.6543C10.9911 43.9879 12.5176 44.6483 13.9938 45.287C14.8869 45.6735 15.7306 46.0384 16.4031 46.5278C17.0627 47.0079 17.6619 47.6909 18.2963 48.4141C19.3634 49.6306 20.4669 50.8884 22.0585 51.4052C22.5995 51.5808 23.1504 51.6494 23.7052 51.6494C24.7142 51.6494 25.7368 51.4227 26.7374 51.201C27.7101 50.9854 28.6289 50.7818 29.5005 50.7818C30.3721 50.7818 31.2909 50.9854 32.2636 51.201C33.8146 51.5448 35.4181 51.9003 36.9425 51.4052C38.534 50.8884 39.6374 49.6306 40.7046 48.4141C41.339 47.691 41.9383 47.0079 42.5978 46.5278C43.2703 46.0384 44.1139 45.6735 45.0071 45.287C46.4833 44.6482 48.0098 43.9879 48.9803 42.6543C49.9411 41.3341 50.0998 39.6844 50.2534 38.089C50.3473 37.1134 50.4361 36.1919 50.6973 35.3874C50.9427 34.6314 51.4004 33.8626 51.8851 33.0487C52.7175 31.6508 53.5781 30.2053 53.5781 28.5001C53.5781 26.795 52.7175 25.3493 51.8851 23.9514C51.4006 23.1375 50.9429 22.3688 50.6973 21.6128C50.4361 20.8083 50.3473 19.8868 50.2534 18.9112C50.0999 17.3158 49.9411 15.6661 48.9803 14.3459C48.0098 13.0122 46.4833 12.3518 45.0071 11.7132C44.1139 11.3267 43.2703 10.9618 42.5978 10.4724C41.9382 9.9923 41.339 9.3093 40.7046 8.58609C39.6374 7.36956 38.534 6.11178 36.9425 5.59495C35.418 5.10002 33.8145 5.4554 32.2636 5.79915C31.2909 6.01475 30.3721 6.21837 29.5005 6.21837C28.6289 6.21837 27.7101 6.01475 26.7374 5.79915C25.1865 5.4554 23.5828 5.10002 22.0585 5.59495C20.4669 6.11166 19.3634 7.36956 18.2963 8.58609C17.6619 9.30919 17.0627 9.9923 16.4031 10.4724C15.7306 10.9618 14.8869 11.3268 13.9938 11.7132C12.5176 12.3518 10.9911 13.0122 10.0206 14.3459C9.05976 15.6661 8.90109 17.3158 8.74748 18.9112C8.65356 19.8867 8.56495 20.8081 8.30371 21.6128ZM10.468 19.0767C10.6054 17.6494 10.7352 16.3014 11.4182 15.3628C12.1108 14.4111 13.3588 13.8711 14.6802 13.2994C15.6205 12.8926 16.5929 12.4719 17.4202 11.8697C18.2353 11.2766 18.9269 10.4883 19.5958 9.72587C20.5508 8.63714 21.453 7.60879 22.5924 7.23889C23.6686 6.88961 24.9776 7.17954 26.3635 7.48664C27.3842 7.71284 28.4398 7.94677 29.5006 7.94677C30.5615 7.94677 31.617 7.71284 32.6378 7.48664C34.0234 7.17942 35.3323 6.88926 36.4088 7.23889C37.5482 7.60879 38.4504 8.63714 39.4055 9.72587C40.0743 10.4883 40.7659 11.2766 41.581 11.8697C42.4084 12.4719 43.3807 12.8926 44.321 13.2994C45.6423 13.8711 46.8903 14.411 47.5831 15.3628C48.2661 16.3014 48.3958 17.6494 48.5332 19.0767C48.6318 20.1019 48.7339 21.1621 49.0536 22.1465C49.3588 23.0867 49.8882 23.9758 50.4002 24.8356C51.1458 26.0878 51.85 27.2704 51.85 28.5C51.85 29.7295 51.1458 30.9123 50.4002 32.1643C49.8882 33.0241 49.3588 33.9132 49.0536 34.8534C48.7339 35.8379 48.6318 36.898 48.5332 37.9233C48.3958 39.3506 48.2661 40.6987 47.5831 41.6371C46.8904 42.5889 45.6424 43.1289 44.321 43.7005C43.3807 44.1073 42.4084 44.528 41.581 45.1302C40.7659 45.7234 40.0743 46.5118 39.4055 47.2741C38.4504 48.3628 37.5482 49.391 36.4088 49.7611C35.3325 50.1106 34.0236 49.8204 32.6378 49.5133C31.617 49.2871 30.5615 49.0532 29.5006 49.0532C28.4398 49.0532 27.3842 49.2871 26.3635 49.5133C24.9778 49.8204 23.6687 50.1106 22.5924 49.7611C21.453 49.3912 20.5508 48.3628 19.5958 47.2741C18.9269 46.5117 18.2353 45.7234 17.4202 45.1302C16.5929 44.528 15.6205 44.1074 14.6802 43.7005C13.3589 43.1289 12.1109 42.589 11.4182 41.6371C10.7352 40.6986 10.6054 39.3504 10.468 37.9233C10.3694 36.898 10.2674 35.838 9.94776 34.8535C9.6425 33.9133 9.11312 33.0243 8.60113 32.1644C7.85556 30.9123 7.15137 29.7296 7.15137 28.5C7.15137 27.2704 7.85556 26.0878 8.60113 24.8356C9.113 23.9758 9.6425 23.0866 9.94776 22.1465C10.2673 21.1621 10.3694 20.1019 10.468 19.0767Z" fill="black"/>
<path d="M26.3866 39.9574C26.3361 39.9574 26.2858 39.9566 26.2352 39.9549C24.9575 39.9116 23.756 39.3229 22.9389 38.3398L18.6484 33.1774C17.6974 32.033 17.8545 30.3282 18.9989 29.3771L20.2017 28.3774C21.3463 27.4264 23.0508 27.5835 24.0021 28.7279L26.1636 31.3288C26.2851 31.4749 26.44 31.5013 26.5214 31.5041C26.6021 31.5068 26.759 31.491 26.8902 31.3533C26.8974 31.3457 26.9048 31.3382 26.9124 31.3309L37.9526 20.5592C38.4485 20.0449 39.1143 19.7525 39.8291 19.7351C40.5487 19.7171 41.2341 19.9818 41.756 20.4789L42.8884 21.5577C43.9658 22.584 44.0073 24.2955 42.981 25.3729C42.975 25.3792 42.9689 25.3853 42.9628 25.3914L37.0961 31.1902C36.7565 31.5258 36.2093 31.5225 35.874 31.183C35.5384 30.8435 35.5416 30.2963 35.881 29.9608L41.737 24.1726C42.0982 23.7848 42.0808 23.1755 41.6962 22.809L40.5636 21.7302C40.376 21.5515 40.1299 21.4558 39.871 21.4628C39.6119 21.4691 39.3709 21.5758 39.1921 21.7634C39.1848 21.771 39.1774 21.7785 39.1699 21.7859L28.1293 32.5579C27.6945 33.0072 27.0858 33.2528 26.4628 33.2311C25.8314 33.2098 25.2378 32.9189 24.8342 32.4331L22.6726 29.8322C22.3307 29.4208 21.7178 29.3644 21.3065 29.7062L20.1036 30.7058C19.6922 31.0477 19.6357 31.6605 19.9775 32.0719L24.268 37.2343C24.7701 37.8385 25.5084 38.2002 26.2935 38.2267C27.0779 38.2539 27.8396 37.9424 28.3814 37.3736C28.3874 37.3673 28.3935 37.3612 28.3996 37.3551L33.2451 32.5657C33.5847 32.23 34.132 32.2334 34.4674 32.5729C34.803 32.9123 34.7997 33.4596 34.4604 33.795L29.6236 38.5758C28.7775 39.4591 27.6057 39.9574 26.3866 39.9574Z" fill="black"/>
</svg>
