<svg width="16" height="16" viewBox="0 0 16 16" fill="none" xmlns="http://www.w3.org/2000/svg">
<path d="M9.97468 0H6.02597C5.82853 0 5.66699 0.161538 5.66699 0.358974V4.30769C5.66699 4.50513 5.82853 4.66667 6.02597 4.66667H9.97468C10.1721 4.66667 10.3337 4.50513 10.3337 4.30769V0.358974C10.3337 0.161538 10.1721 0 9.97468 0ZM9.61571 3.94872H6.38494V0.717949H9.61571V3.94872Z" fill="#E82431"/>
<path d="M15.6407 0H11.692C11.4945 0 11.333 0.161538 11.333 0.358974V4.30769C11.333 4.50513 11.4945 4.66667 11.692 4.66667H15.6407C15.8381 4.66667 15.9997 4.50513 15.9997 4.30769V0.358974C15.9997 0.161538 15.8381 0 15.6407 0ZM15.2817 3.94872H12.051V0.717949H15.2817V3.94872Z" fill="#E82431"/>
<path d="M4.30769 0H0.358974C0.161538 0 0 0.161538 0 0.358974V4.30769C0 4.50513 0.161538 4.66667 0.358974 4.66667H4.30769C4.50513 4.66667 4.66667 4.50513 4.66667 4.30769V0.358974C4.66667 0.161538 4.50513 0 4.30769 0ZM3.94872 3.94872H0.717949V0.717949H3.94872V3.94872Z" fill="#E82431"/>
<path d="M9.97468 5.66663H6.02597C5.82853 5.66663 5.66699 5.82816 5.66699 6.0256V9.97432C5.66699 10.1718 5.82853 10.3333 6.02597 10.3333H9.97468C10.1721 10.3333 10.3337 10.1718 10.3337 9.97432V6.0256C10.3337 5.82816 10.1721 5.66663 9.97468 5.66663ZM9.61571 9.61534H6.38494V6.38457H9.61571V9.61534Z" fill="#E82431"/>
<path d="M15.6407 5.66663H11.692C11.4945 5.66663 11.333 5.82816 11.333 6.0256V9.97432C11.333 10.1718 11.4945 10.3333 11.692 10.3333H15.6407C15.8381 10.3333 15.9997 10.1718 15.9997 9.97432V6.0256C15.9997 5.82816 15.8381 5.66663 15.6407 5.66663ZM15.2817 9.61534H12.051V6.38457H15.2817V9.61534Z" fill="#E82431"/>
<path d="M9.97468 11.3333H6.02597C5.82853 11.3333 5.66699 11.4949 5.66699 11.6923V15.641C5.66699 15.8384 5.82853 16 6.02597 16H9.97468C10.1721 16 10.3337 15.8384 10.3337 15.641V11.6923C10.3337 11.4949 10.1721 11.3333 9.97468 11.3333ZM9.61571 15.282H6.38494V12.0513H9.61571V15.282Z" fill="#E82431"/>
<path d="M15.6407 11.3333H11.692C11.4945 11.3333 11.333 11.4949 11.333 11.6923V15.641C11.333 15.8384 11.4945 16 11.692 16H15.6407C15.8381 16 15.9997 15.8384 15.9997 15.641V11.6923C15.9997 11.4949 15.8381 11.3333 15.6407 11.3333ZM15.2817 15.282H12.051V12.0513H15.2817V15.282Z" fill="#E82431"/>
<path d="M4.30769 5.66663H0.358974C0.161538 5.66663 0 5.82816 0 6.0256V9.97432C0 10.1718 0.161538 10.3333 0.358974 10.3333H4.30769C4.50513 10.3333 4.66667 10.1718 4.66667 9.97432V6.0256C4.66667 5.82816 4.50513 5.66663 4.30769 5.66663ZM3.94872 9.61534H0.717949V6.38457H3.94872V9.61534Z" fill="#E82431"/>
<path d="M4.30769 11.3333H0.358974C0.161538 11.3333 0 11.4949 0 11.6923V15.641C0 15.8384 0.161538 16 0.358974 16H4.30769C4.50513 16 4.66667 15.8384 4.66667 15.641V11.6923C4.66667 11.4949 4.50513 11.3333 4.30769 11.3333ZM3.94872 15.282H0.717949V12.0513H3.94872V15.282Z" fill="#E82431"/>
</svg>
