<svg width="98" height="17" viewBox="0 0 98 17" fill="none" xmlns="http://www.w3.org/2000/svg">
<path d="M16.7143 7.07031C16.7143 6.76897 16.3929 6.64844 16.1518 6.60826L11.1094 5.875L8.84933 1.30469C8.75893 1.11384 8.58817 0.892857 8.35714 0.892857C8.12612 0.892857 7.95536 1.11384 7.86496 1.30469L5.60491 5.875L0.5625 6.60826C0.311384 6.64844 0 6.76897 0 7.07031C0 7.25112 0.13058 7.42187 0.251116 7.55246L3.90737 11.1083L3.04353 16.1306C3.03348 16.2009 3.02344 16.2612 3.02344 16.3315C3.02344 16.5926 3.15402 16.8337 3.44531 16.8337C3.58594 16.8337 3.71652 16.7835 3.8471 16.7132L8.35714 14.3426L12.8672 16.7132C12.9877 16.7835 13.1283 16.8337 13.269 16.8337C13.5603 16.8337 13.6808 16.5926 13.6808 16.3315C13.6808 16.2612 13.6808 16.2009 13.6708 16.1306L12.8069 11.1083L16.4531 7.55246C16.5837 7.42187 16.7143 7.25112 16.7143 7.07031ZM37.0311 7.07031C37.0311 6.76897 36.7097 6.64844 36.4686 6.60826L31.4262 5.875L29.1661 1.30469C29.0757 1.11384 28.905 0.892857 28.6739 0.892857C28.4429 0.892857 28.2722 1.11384 28.1818 1.30469L25.9217 5.875L20.8793 6.60826C20.6282 6.64844 20.3168 6.76897 20.3168 7.07031C20.3168 7.25112 20.4474 7.42187 20.5679 7.55246L24.2242 11.1083L23.3603 16.1306C23.3503 16.2009 23.3402 16.2612 23.3402 16.3315C23.3402 16.5926 23.4708 16.8337 23.7621 16.8337C23.9027 16.8337 24.0333 16.7835 24.1639 16.7132L28.6739 14.3426L33.184 16.7132C33.3045 16.7835 33.4451 16.8337 33.5858 16.8337C33.8771 16.8337 33.9976 16.5926 33.9976 16.3315C33.9976 16.2612 33.9976 16.2009 33.9876 16.1306L33.1237 11.1083L36.7699 7.55246C36.9005 7.42187 37.0311 7.25112 37.0311 7.07031ZM57.3479 7.07031C57.3479 6.76897 57.0265 6.64844 56.7854 6.60826L51.743 5.875L49.4829 1.30469C49.3925 1.11384 49.2218 0.892857 48.9907 0.892857C48.7597 0.892857 48.589 1.11384 48.4986 1.30469L46.2385 5.875L41.1961 6.60826C40.945 6.64844 40.6336 6.76897 40.6336 7.07031C40.6336 7.25112 40.7642 7.42187 40.8847 7.55246L44.541 11.1083L43.6771 16.1306C43.6671 16.2009 43.657 16.2612 43.657 16.3315C43.657 16.5926 43.7876 16.8337 44.0789 16.8337C44.2195 16.8337 44.3501 16.7835 44.4807 16.7132L48.9907 14.3426L53.5008 16.7132C53.6213 16.7835 53.7619 16.8337 53.9026 16.8337C54.1939 16.8337 54.3144 16.5926 54.3144 16.3315C54.3144 16.2612 54.3144 16.2009 54.3044 16.1306L53.4405 11.1083L57.0867 7.55246C57.2173 7.42187 57.3479 7.25112 57.3479 7.07031ZM72.8633 10.1842L72.3711 10.6562L72.4917 11.3192L73.0944 14.885L69.9002 13.1975L69.3075 12.8862V3.21317L70.9046 6.44754L71.206 7.05022L71.8689 7.15067L75.4448 7.67299L72.8633 10.1842ZM77.4035 7.55246C77.8455 7.12054 77.7049 6.69866 77.1022 6.60826L72.0598 5.875L69.7997 1.30469C69.6591 1.03348 69.4883 0.892857 69.3075 0.892857C69.1267 0.892857 68.9459 1.03348 68.8153 1.30469L66.5553 5.875L61.5129 6.60826C60.9102 6.69866 60.7696 7.12054 61.2015 7.55246L64.8578 11.1083L63.9939 16.1306C63.9236 16.5725 64.0843 16.8337 64.3957 16.8337C64.5062 16.8337 64.6468 16.7935 64.7975 16.7132L69.3075 14.3426L73.8176 16.7132C73.9682 16.7935 74.1089 16.8337 74.2194 16.8337C74.5307 16.8337 74.6915 16.5725 74.6211 16.1306L73.7573 11.1083L77.4035 7.55246ZM92.6879 10.6562L93.4112 14.885L89.6243 12.8862L85.8275 14.885L86.5607 10.6562L83.4871 7.67299L87.7259 7.05022L89.6243 3.21317L91.5228 7.05022L95.7616 7.67299L92.6879 10.6562ZM97.9815 7.07031C97.9815 6.76897 97.66 6.64844 97.419 6.60826L92.3766 5.875L90.1165 1.30469C90.0261 1.11384 89.8554 0.892857 89.6243 0.892857C89.3933 0.892857 89.2225 1.11384 89.1321 1.30469L86.8721 5.875L81.8297 6.60826C81.5786 6.64844 81.2672 6.76897 81.2672 7.07031C81.2672 7.25112 81.3978 7.42187 81.5183 7.55246L85.1746 11.1083L84.3107 16.1306C84.3007 16.2009 84.2906 16.2612 84.2906 16.3315C84.2906 16.5926 84.4212 16.8337 84.7125 16.8337C84.8531 16.8337 84.9837 16.7835 85.1143 16.7132L89.6243 14.3426L94.1344 16.7132C94.2549 16.7835 94.3955 16.8337 94.5362 16.8337C94.8275 16.8337 94.948 16.6027 94.948 16.3315C94.948 16.2612 94.948 16.2009 94.9379 16.1306L94.0741 11.1083L97.7203 7.55246C97.8509 7.42187 97.9815 7.25112 97.9815 7.07031Z" fill="#E82431"/>
</svg>
