<svg width="24" height="24" viewBox="0 0 24 24" fill="none" xmlns="http://www.w3.org/2000/svg">
<path d="M0 4C0 1.79086 1.79086 0 4 0H20C22.2091 0 24 1.79086 24 4V20C24 22.2091 22.2091 24 20 24H4C1.79086 24 0 22.2091 0 20V4Z" fill="#E82431"/>
<path fill-rule="evenodd" clip-rule="evenodd" d="M20 7.03952C19.4117 7.30028 18.7783 7.47715 18.1149 7.55609C18.7927 7.14943 19.3126 6.50648 19.559 5.74019C18.9243 6.11572 18.2214 6.38931 17.4741 6.5365C16.8753 5.89816 16.0218 5.5 15.0774 5.5C13.2639 5.5 11.7951 6.97039 11.7951 8.78231C11.7951 9.03934 11.8235 9.29063 11.8798 9.53082C9.152 9.39342 6.73268 8.08671 5.11412 6.1001C4.83082 6.58544 4.66957 7.14943 4.66957 7.75074C4.66957 8.89005 5.2491 9.89523 6.12895 10.4834C5.59095 10.4666 5.08541 10.3185 4.64198 10.0721C4.64198 10.0865 4.64198 10.0997 4.64198 10.1141C4.64198 11.7038 5.7739 13.0307 7.27527 13.3321C7.00047 13.4074 6.71006 13.4481 6.41105 13.4481C6.19965 13.4481 5.99398 13.4276 5.79291 13.3894C6.21154 14.6936 7.4237 15.6425 8.86044 15.6688C7.73675 16.5498 6.32143 17.0734 4.78304 17.0734C4.51743 17.0734 4.25581 17.0591 4 17.0281C5.45236 17.9593 7.17737 18.5031 9.0312 18.5031C15.0692 18.5031 18.372 13.5004 18.372 9.16266C18.372 9.02041 18.3683 8.87927 18.3625 8.73822C19.0042 8.27553 19.5602 7.69712 20 7.03951L20 7.03952Z" fill="white"/>
</svg>
