<svg width="24" height="24" viewBox="0 0 24 24" fill="none" xmlns="http://www.w3.org/2000/svg">
<path d="M0 4C0 1.79086 1.79086 0 4 0H20C22.2091 0 24 1.79086 24 4V20C24 22.2091 22.2091 24 20 24H4C1.79086 24 0 22.2091 0 20V4Z" fill="#E82431"/>
<path d="M17.8122 6.51721L17.5621 7.05169C17.5621 7.05169 16.3763 9.57025 14.9325 11.1569C14.4683 11.6702 14.2326 11.8248 13.9763 11.8248C13.7701 11.8248 13.6749 11.653 13.6749 11.1905V6.40009H9.18541V6.76705C9.18541 7.30153 10.0057 7.42249 10.0057 8.87041V11.8577C10.0057 12.4594 9.97285 12.6922 9.68869 12.6922C8.93389 12.6922 7.14181 10.1057 6.13549 7.16881L5.88541 6.40009H2.95261C2.63389 6.40009 2.39941 6.61705 2.39941 6.93457C2.39941 7.51897 3.08677 10.2218 5.78389 13.8446C7.59325 16.2814 9.97285 17.5999 12.1168 17.5999C13.4245 17.5999 13.7418 17.383 13.7418 16.8329V14.9633C13.7418 14.4955 13.9264 14.2954 14.1952 14.2954C14.4966 14.2954 15.028 14.3914 16.2717 15.6142C16.2731 15.6142 18.2653 17.5999 18.2653 17.5999H21.1139C21.3654 17.5999 21.5997 17.4838 21.5997 17.0664C21.5997 16.5146 20.8794 15.5304 19.7733 14.3623C19.3216 13.7616 18.5841 13.11 18.3496 12.809C18.0153 12.4591 18.1151 12.2592 18.3496 11.892C18.3496 11.892 20.8794 8.33593 21.1309 7.16857C21.2154 6.75145 21.0309 6.51697 20.595 6.51697L17.8122 6.51721Z" fill="white"/>
</svg>
