<svg width="40" height="40" viewBox="0 0 40 40" fill="none" xmlns="http://www.w3.org/2000/svg">
<path fill-rule="evenodd" clip-rule="evenodd" d="M9.52361 7.61916C9.52361 4.4681 11.66 1.905 14.2858 1.905C16.9117 1.905 19.0472 4.4681 19.0472 7.61916C19.0472 10.7702 16.9117 13.3333 14.2858 13.3333C11.66 13.3333 9.52361 10.7702 9.52361 7.61916ZM11.4283 7.61916C11.4283 9.71987 12.7103 11.4286 14.2858 11.4286V11.4312C15.8614 11.4312 17.1425 9.71902 17.1425 7.61916C17.1425 5.5193 15.8614 3.80972 14.2858 3.80972C12.7103 3.80972 11.4283 5.51846 11.4283 7.61916ZM4.76223 9.52388C2.1321 9.52388 0 12.0878 0 15.238C0 18.3883 2.13634 20.9531 4.76223 20.9531C7.38811 20.9531 9.52361 18.3891 9.52361 15.238C9.52361 12.087 7.38727 9.52388 4.76223 9.52388ZM4.76223 19.0475C3.1867 19.0475 1.90472 17.3388 1.90472 15.238C1.90472 13.1373 3.1867 11.4312 4.76223 11.4312C6.33776 11.4312 7.61889 13.1407 7.61889 15.2406C7.61889 17.3405 6.3403 19.0475 4.76223 19.0475ZM20 15.238C13.3975 15.238 6.67035 22.9307 6.67035 30.4809C6.67035 30.5505 6.67035 30.6201 6.67714 30.6896C6.68114 31.3307 6.7379 31.9703 6.84683 32.602L6.86634 32.6979C6.86634 32.7072 6.88925 32.809 6.89179 32.8192C7.00717 33.3136 7.17439 33.7945 7.39067 34.2539C7.44107 34.3758 7.49771 34.495 7.56036 34.6111C7.64944 34.7808 7.73937 34.9504 7.84628 35.1201C7.95318 35.2898 8.06093 35.4536 8.14917 35.5706C8.23383 35.695 8.3265 35.8138 8.4266 35.9261C9.59149 37.3023 11.2587 38.0913 13.0005 38.0913C14.3621 38.091 15.6814 37.6185 16.7336 36.7542C17.4645 36.1261 18.3585 35.718 19.3119 35.5774C19.7655 35.5202 20.2244 35.5202 20.6779 35.5774C21.6467 35.7181 22.5549 36.1332 23.2953 36.7737C24.3435 37.6277 25.6543 38.0937 27.0063 38.093C28.8669 38.093 30.6028 37.2149 31.7575 35.7004C31.8135 35.63 31.8695 35.5503 31.8941 35.5121L31.9183 35.478C31.981 35.3898 32.046 35.2984 32.1317 35.1676C32.2284 35.0039 32.326 34.8325 32.4235 34.6467C32.4549 34.5852 32.4854 34.5197 32.5114 34.4638L32.5389 34.4049C32.7921 33.8987 32.9848 33.3645 33.1133 32.8132L33.1379 32.6953L33.1642 32.5672C33.2712 31.9461 33.328 31.3173 33.3339 30.6871C33.339 30.6175 33.3407 30.5479 33.3407 30.4784C33.3331 22.9307 26.6025 15.238 20 15.238ZM31.2595 32.3763C31.1616 32.792 31.0144 33.1944 30.8209 33.5751L30.7292 33.7703C30.6529 33.9145 30.5714 34.0579 30.5163 34.1538C30.479 34.2186 30.4397 34.2714 30.3938 34.3332L30.3938 34.3333L30.3936 34.3335C30.3717 34.363 30.3483 34.3945 30.3228 34.4304L30.2516 34.5288C29.4481 35.5825 28.2637 36.1874 27.0021 36.1874C26.0939 36.188 25.2131 35.8768 24.5069 35.3059C23.4931 34.4396 22.2535 33.8799 20.9333 33.6922C20.3103 33.6074 19.6787 33.6074 19.0557 33.6922C17.7496 33.8804 16.5233 34.4343 15.5186 35.2898C14.8084 35.8705 13.9195 36.1882 13.0022 36.1891C11.8212 36.1891 10.6834 35.6453 9.87656 34.6925C9.81541 34.6244 9.75873 34.5524 9.70688 34.477C9.62204 34.3616 9.54144 34.2411 9.46932 34.1258C9.39954 34.0148 9.34123 33.9033 9.27128 33.7695L9.22412 33.6795C9.20574 33.6474 9.18985 33.6139 9.17661 33.5794C9.1629 33.5398 9.14704 33.501 9.1291 33.4631C8.96598 33.1248 8.83996 32.7698 8.75325 32.4043L8.72185 32.2516C8.62954 31.7206 8.5827 31.1827 8.58186 30.6438C8.58186 30.6056 8.58186 30.5157 8.57508 30.4792C8.57508 23.9972 14.4479 17.1411 20 17.1411C25.5521 17.1411 31.4283 23.9989 31.4283 30.4809V30.5327C31.4239 30.5701 31.4217 30.6078 31.4216 30.6455C31.4216 31.1844 31.3756 31.7222 31.2841 32.2533L31.2595 32.3763ZM25.7142 1.905C23.084 1.905 20.9528 4.4681 20.9528 7.61916C20.9528 10.7702 23.0883 13.3333 25.7142 13.3333C28.34 13.3333 30.4764 10.7702 30.4764 7.61916C30.4764 4.4681 28.34 1.905 25.7142 1.905ZM25.7142 11.4286C24.1386 11.4286 22.8575 9.71987 22.8575 7.61916C22.8575 5.51846 24.1386 3.80972 25.7142 3.80972C27.2897 3.80972 28.5691 5.5193 28.5691 7.61916C28.5691 9.71902 27.2897 11.4312 25.7142 11.4312V11.4286ZM30.4764 15.238C30.4764 12.0878 32.6127 9.52388 35.2378 9.52388C37.8637 9.52388 40 12.087 40 15.238C40 18.3891 37.8628 20.9531 35.2378 20.9531C32.6127 20.9531 30.4764 18.3883 30.4764 15.238ZM32.3811 15.238C32.3811 17.3388 33.6622 19.0475 35.2378 19.0475C36.8133 19.0475 38.0953 17.3405 38.0953 15.2406C38.0953 13.1407 36.8158 11.4312 35.2378 11.4312C33.6597 11.4312 32.3811 13.1373 32.3811 15.238Z" fill="#F2F2F2"/>
</svg>
