<svg width="40" height="40" viewBox="0 0 40 40" fill="none" xmlns="http://www.w3.org/2000/svg">
<g clip-path="url(#clip0)">
<path d="M36.6667 9.33164H30C29.8232 9.33164 29.6536 9.40188 29.5286 9.52691C29.4036 9.65193 29.3333 9.8215 29.3333 9.99831V13.9983C29.3333 14.1751 29.4036 14.3447 29.5286 14.4697C29.6536 14.5947 29.8232 14.665 30 14.665H36.6667C36.8435 14.665 37.013 14.5947 37.1381 14.4697C37.2631 14.3447 37.3333 14.1751 37.3333 13.9983V9.99831C37.3333 9.8215 37.2631 9.65193 37.1381 9.52691C37.013 9.40188 36.8435 9.33164 36.6667 9.33164ZM36 13.3316H30.6667V10.665H36V13.3316ZM10.48 17.3316C10.6343 17.3297 10.7838 17.2783 10.9067 17.185C11.04 17.0688 11.1239 16.9061 11.1413 16.7302C11.1586 16.5542 11.1081 16.3783 11 16.2383C10.7867 15.985 10.8 15.865 11.1067 15.265C11.3247 14.9467 11.4627 14.5806 11.5091 14.1976C11.5555 13.8146 11.509 13.4261 11.3733 13.065C11.3438 12.9795 11.2971 12.901 11.2362 12.8341C11.1754 12.7673 11.1015 12.7135 11.0192 12.6761C10.9369 12.6387 10.8478 12.6184 10.7574 12.6165C10.667 12.6146 10.5772 12.6311 10.4933 12.665C10.3326 12.738 10.2066 12.8706 10.1419 13.0348C10.0773 13.1991 10.0789 13.382 10.1467 13.545C10.28 13.8516 10.1467 14.0783 9.93333 14.585C9.65868 14.9349 9.5094 15.3668 9.5094 15.8116C9.5094 16.2565 9.65868 16.6884 9.93333 17.0383C9.99211 17.1295 10.0731 17.2043 10.1687 17.2556C10.2644 17.307 10.3715 17.3331 10.48 17.3316V17.3316ZM13.9333 17.3316C14.0835 17.3297 14.2289 17.2782 14.3467 17.185C14.4156 17.1294 14.4728 17.0607 14.5149 16.9828C14.557 16.9049 14.5832 16.8194 14.5919 16.7312C14.6006 16.6431 14.5916 16.5541 14.5655 16.4695C14.5395 16.3849 14.4968 16.3063 14.44 16.2383C14.2267 15.985 14.24 15.865 14.56 15.265C14.779 14.947 14.9166 14.5801 14.9607 14.1965C15.0049 13.813 14.9543 13.4244 14.8133 13.065C14.7799 12.9847 14.7308 12.912 14.6689 12.8509C14.607 12.7899 14.5336 12.7418 14.4528 12.7095C14.3721 12.6772 14.2858 12.6614 14.1989 12.6629C14.112 12.6644 14.0262 12.6832 13.9467 12.7183C13.8659 12.7531 13.7929 12.8035 13.7317 12.8667C13.6706 12.9298 13.6225 13.0044 13.5903 13.0862C13.558 13.168 13.5423 13.2553 13.544 13.3432C13.5457 13.4311 13.5647 13.5178 13.6 13.5983C13.7333 13.905 13.6 14.1316 13.3733 14.6383C13.103 14.9901 12.9565 15.4213 12.9565 15.865C12.9565 16.3086 13.103 16.7398 13.3733 17.0916C13.4409 17.1733 13.5269 17.2376 13.6243 17.2794C13.7217 17.3211 13.8276 17.339 13.9333 17.3316ZM38 6.66498H2C1.46957 6.66498 0.960859 6.87569 0.585787 7.25076C0.210714 7.62584 0 8.13454 0 8.66498V28.665C0 29.1954 0.210714 29.7041 0.585787 30.0792C0.960859 30.4543 1.46957 30.665 2 30.665H2.66667V31.9983C2.66667 32.3519 2.80714 32.6911 3.05719 32.9411C3.30724 33.1912 3.64638 33.3316 4 33.3316H5.33333C5.68696 33.3316 6.02609 33.1912 6.27614 32.9411C6.52619 32.6911 6.66667 32.3519 6.66667 31.9983V30.665H33.3333V31.9983C33.3333 32.3519 33.4738 32.6911 33.7239 32.9411C33.9739 33.1912 34.313 33.3316 34.6667 33.3316H36C36.3536 33.3316 36.6928 33.1912 36.9428 32.9411C37.1929 32.6911 37.3333 32.3519 37.3333 31.9983V30.665H38C38.5304 30.665 39.0391 30.4543 39.4142 30.0792C39.7893 29.7041 40 29.1954 40 28.665V8.66498C40 8.13454 39.7893 7.62584 39.4142 7.25076C39.0391 6.87569 38.5304 6.66498 38 6.66498V6.66498ZM5.33333 32.665V31.9983H4V30.665H5.33333V31.9983V32.665ZM26.6667 29.3316H2C1.82319 29.3316 1.65362 29.2614 1.5286 29.1364C1.40357 29.0114 1.33333 28.8418 1.33333 28.665V8.66498C1.33333 8.48817 1.40357 8.3186 1.5286 8.19357C1.65362 8.06855 1.82319 7.99831 2 7.99831H26.6667V29.3316ZM36 32.665V31.9983H34.6667V30.665H36V31.9983V32.665ZM38.6667 28.665C38.6667 28.8418 38.5964 29.0114 38.4714 29.1364C38.3464 29.2614 38.1768 29.3316 38 29.3316H28V7.99831H38C38.1768 7.99831 38.3464 8.06855 38.4714 8.19357C38.5964 8.3186 38.6667 8.48817 38.6667 8.66498V28.665ZM35.3333 26.665H31.3333C31.1565 26.665 30.987 26.7352 30.8619 26.8602C30.7369 26.9853 30.6667 27.1548 30.6667 27.3316C30.6667 27.5085 30.7369 27.678 30.8619 27.803C30.987 27.9281 31.1565 27.9983 31.3333 27.9983H35.3333C35.5101 27.9983 35.6797 27.9281 35.8047 27.803C35.9298 27.678 36 27.5085 36 27.3316C36 27.1548 35.9298 26.9853 35.8047 26.8602C35.6797 26.7352 35.5101 26.665 35.3333 26.665ZM22 18.665C22.1768 18.665 22.3464 18.5947 22.4714 18.4697C22.5964 18.3447 22.6667 18.1751 22.6667 17.9983V13.9983C22.6667 13.8215 22.5964 13.6519 22.4714 13.5269C22.3464 13.4019 22.1768 13.3316 22 13.3316C21.8232 13.3316 21.6536 13.4019 21.5286 13.5269C21.4036 13.6519 21.3333 13.8215 21.3333 13.9983V17.9983C21.3333 18.1751 21.4036 18.3447 21.5286 18.4697C21.6536 18.5947 21.8232 18.665 22 18.665ZM16.9467 17.3316C17.0969 17.3297 17.2422 17.2782 17.36 17.185C17.429 17.1294 17.4862 17.0607 17.5283 16.9828C17.5704 16.9049 17.5965 16.8194 17.6052 16.7312C17.6139 16.6431 17.605 16.5541 17.5789 16.4695C17.5528 16.3849 17.5101 16.3063 17.4533 16.2383C17.24 15.985 17.2533 15.865 17.5733 15.265C17.7923 14.947 17.9299 14.5801 17.9741 14.1965C18.0182 13.813 17.9676 13.4244 17.8267 13.065C17.7985 12.9756 17.7519 12.8932 17.6898 12.823C17.6277 12.7529 17.5515 12.6967 17.4662 12.658C17.3809 12.6193 17.2883 12.599 17.1947 12.5984C17.101 12.5979 17.0082 12.6171 16.9225 12.6548C16.8367 12.6925 16.7598 12.7478 16.6969 12.8172C16.634 12.8866 16.5864 12.9685 16.5572 13.0575C16.528 13.1465 16.518 13.2407 16.5276 13.3339C16.5373 13.4271 16.5665 13.5172 16.6133 13.5983C16.7467 13.905 16.6133 14.1316 16.3867 14.6383C16.1164 14.9901 15.9698 15.4213 15.9698 15.865C15.9698 16.3086 16.1164 16.7398 16.3867 17.0916C16.4542 17.1733 16.5403 17.2376 16.6376 17.2794C16.735 17.3211 16.841 17.339 16.9467 17.3316ZM32 19.3316C32 19.1548 31.9298 18.9853 31.8047 18.8602C31.6797 18.7352 31.5101 18.665 31.3333 18.665H30C29.8232 18.665 29.6536 18.7352 29.5286 18.8602C29.4036 18.9853 29.3333 19.1548 29.3333 19.3316C29.3333 19.5085 29.4036 19.678 29.5286 19.803C29.6536 19.9281 29.8232 19.9983 30 19.9983H31.3333C31.5101 19.9983 31.6797 19.9281 31.8047 19.803C31.9298 19.678 32 19.5085 32 19.3316ZM30 17.3316H31.3333C31.5101 17.3316 31.6797 17.2614 31.8047 17.1364C31.9298 17.0114 32 16.8418 32 16.665C32 16.4882 31.9298 16.3186 31.8047 16.1936C31.6797 16.0685 31.5101 15.9983 31.3333 15.9983H30C29.8232 15.9983 29.6536 16.0685 29.5286 16.1936C29.4036 16.3186 29.3333 16.4882 29.3333 16.665C29.3333 16.8418 29.4036 17.0114 29.5286 17.1364C29.6536 17.2614 29.8232 17.3316 30 17.3316ZM35.3333 23.9983H31.3333C31.1565 23.9983 30.987 24.0685 30.8619 24.1936C30.7369 24.3186 30.6667 24.4882 30.6667 24.665C30.6667 24.8418 30.7369 25.0114 30.8619 25.1364C30.987 25.2614 31.1565 25.3316 31.3333 25.3316H35.3333C35.5101 25.3316 35.6797 25.2614 35.8047 25.1364C35.9298 25.0114 36 24.8418 36 24.665C36 24.4882 35.9298 24.3186 35.8047 24.1936C35.6797 24.0685 35.5101 23.9983 35.3333 23.9983ZM4.66667 27.9983H23.3333C23.8638 27.9983 24.3725 27.7876 24.7475 27.4125C25.1226 27.0374 25.3333 26.5287 25.3333 25.9983V11.3316C25.3333 10.8012 25.1226 10.2925 24.7475 9.91743C24.3725 9.54236 23.8638 9.33164 23.3333 9.33164H4.66667C4.13623 9.33164 3.62753 9.54236 3.25245 9.91743C2.87738 10.2925 2.66667 10.8012 2.66667 11.3316V25.9983C2.66667 26.5287 2.87738 27.0374 3.25245 27.4125C3.62753 27.7876 4.13623 27.9983 4.66667 27.9983ZM4 11.3316C4 11.1548 4.07024 10.9853 4.19526 10.8602C4.32029 10.7352 4.48986 10.665 4.66667 10.665H23.3333C23.5101 10.665 23.6797 10.7352 23.8047 10.8602C23.9298 10.9853 24 11.1548 24 11.3316V23.9983H17.1067C17.8505 23.46 18.4634 22.7608 18.8997 21.9528C19.336 21.1449 19.5845 20.2489 19.6267 19.3316C19.6267 19.1548 19.5564 18.9853 19.4314 18.8602C19.3064 18.7352 19.1368 18.665 18.96 18.665H8.29333C8.11652 18.665 7.94695 18.7352 7.82193 18.8602C7.6969 18.9853 7.62667 19.1548 7.62667 19.3316C7.67134 20.2498 7.92228 21.1461 8.36085 21.954C8.79943 22.7619 9.41436 23.4607 10.16 23.9983H4V11.3316ZM13.6267 23.9983C12.5431 23.8815 11.5213 23.4354 10.6989 22.7203C9.87644 22.0051 9.29285 21.0552 9.02667 19.9983H18.24C17.973 21.0571 17.3874 22.0085 16.5624 22.7238C15.7374 23.4392 14.7126 23.884 13.6267 23.9983V23.9983ZM4 25.3316H24V25.9983C24 26.1751 23.9298 26.3447 23.8047 26.4697C23.6797 26.5947 23.5101 26.665 23.3333 26.665H4.66667C4.48986 26.665 4.32029 26.5947 4.19526 26.4697C4.07024 26.3447 4 26.1751 4 25.9983V25.3316ZM35.3333 21.3316H31.3333C31.1565 21.3316 30.987 21.4019 30.8619 21.5269C30.7369 21.6519 30.6667 21.8215 30.6667 21.9983C30.6667 22.1751 30.7369 22.3447 30.8619 22.4697C30.987 22.5947 31.1565 22.665 31.3333 22.665H35.3333C35.5101 22.665 35.6797 22.5947 35.8047 22.4697C35.9298 22.3447 36 22.1751 36 21.9983C36 21.8215 35.9298 21.6519 35.8047 21.5269C35.6797 21.4019 35.5101 21.3316 35.3333 21.3316ZM35.3333 15.9983C34.9378 15.9983 34.5511 16.1156 34.2222 16.3354C33.8933 16.5551 33.637 16.8675 33.4856 17.2329C33.3342 17.5984 33.2946 18.0005 33.3718 18.3885C33.4489 18.7765 33.6394 19.1328 33.9191 19.4125C34.1988 19.6922 34.5552 19.8827 34.9432 19.9599C35.3311 20.0371 35.7332 19.9974 36.0987 19.8461C36.4642 19.6947 36.7765 19.4383 36.9963 19.1095C37.216 18.7806 37.3333 18.3939 37.3333 17.9983C37.3333 17.4679 37.1226 16.9592 36.7475 16.5841C36.3725 16.209 35.8638 15.9983 35.3333 15.9983ZM35.3333 18.665C35.2015 18.665 35.0726 18.6259 34.963 18.5526C34.8533 18.4794 34.7679 18.3752 34.7174 18.2534C34.667 18.1316 34.6538 17.9976 34.6795 17.8682C34.7052 17.7389 34.7687 17.6201 34.8619 17.5269C34.9552 17.4337 35.074 17.3702 35.2033 17.3445C35.3326 17.3187 35.4666 17.3319 35.5885 17.3824C35.7103 17.4328 35.8144 17.5183 35.8876 17.6279C35.9609 17.7376 36 17.8665 36 17.9983C36 18.1751 35.9298 18.3447 35.8047 18.4697C35.6797 18.5947 35.5101 18.665 35.3333 18.665Z" fill="#F2F2F2"/>
</g>
<defs>
<clipPath id="clip0">
<rect width="40" height="40" fill="white"/>
</clipPath>
</defs>
</svg>
