<svg width="40" height="40" viewBox="0 0 40 40" fill="none" xmlns="http://www.w3.org/2000/svg">
<path fill-rule="evenodd" clip-rule="evenodd" d="M10.02 0C7.95332 0 6.27002 1.68325 6.27002 3.75001V22.5V33.75C6.27002 34.4787 6.441 35.3855 7.01953 36.1572C7.59774 36.9286 8.61165 37.4993 10.0176 37.5V39.375C10.0176 39.5408 10.0835 39.6998 10.2007 39.817C10.3179 39.9343 10.4768 40 10.6426 40H13.1426C13.3083 40 13.4673 39.9343 13.5845 39.817C13.7017 39.6998 13.7676 39.5408 13.7676 39.375V37.5H26.2676V39.375C26.2676 39.5408 26.3335 39.6998 26.4507 39.817C26.5679 39.9343 26.7269 40 26.8926 40H29.3926C29.5584 40 29.7173 39.9343 29.8346 39.817C29.9518 39.6998 30.0176 39.5408 30.0176 39.375V37.4999C30.7547 37.4947 31.6484 37.3197 32.4053 36.748C33.174 36.1675 33.7334 35.1534 33.7334 33.75V22.5V12.4999V11.2499V3.75001C33.7334 1.68325 32.0501 0 29.9834 0H10.02ZM32.4834 11.2499V3.75001C32.4834 2.35413 31.3793 1.25 29.9834 1.25H10.02C8.6242 1.25 7.52002 2.35413 7.52002 3.75001V11.2499H32.4834ZM7.52002 12.4999V22.5V33.75C7.52002 34.2711 7.66209 34.9296 8.02051 35.4077C8.37893 35.886 8.92506 36.25 10.02 36.25H10.6426H13.1426H13.7676V35C13.7676 34.2707 13.9596 33.6117 14.4194 33.1518C14.8793 32.6921 15.5384 32.5 16.2676 32.5H17.2222H20.0518H22.8789H23.7676C24.4968 32.5 25.1618 32.6898 25.6377 33.1421C26.1137 33.5943 26.3335 34.2599 26.3335 35V36.25H26.8926H29.3926H29.9834C30.5241 36.25 31.1781 36.1089 31.6509 35.7519C32.1237 35.3949 32.4834 34.8465 32.4834 33.75V22.5V12.4999H7.52002ZM25.0835 36.25V35C25.0835 34.49 24.9577 34.2206 24.7759 34.0478C24.5941 33.8751 24.2884 33.75 23.7676 33.75H22.8789H20.0518H17.2222H16.2676C15.7468 33.75 15.4684 33.8704 15.3032 34.0356C15.1381 34.2008 15.0176 34.4791 15.0176 35V36.25H25.0835ZM11.2676 38.75V37.5H12.5176V38.75H11.2676ZM27.5176 38.75V37.5H28.7676V38.75H27.5176ZM20.0176 2.5C18.6443 2.5 17.5176 3.62656 17.5176 4.99993C17.5176 6.37319 18.6443 7.49994 20.0176 7.49994C21.3909 7.49994 22.5176 6.37319 22.5176 4.99993C22.5176 3.62656 21.3909 2.5 20.0176 2.5ZM20.0176 3.75001C20.7154 3.75001 21.2676 4.30206 21.2676 4.99993C21.2676 5.69768 20.7154 6.24994 20.0176 6.24994C19.3198 6.24994 18.7676 5.69768 18.7676 4.99993C18.7676 4.30206 19.3198 3.75001 20.0176 3.75001ZM11.0858 9.81714C11.203 9.69993 11.2688 9.54101 11.2688 9.37525C11.2688 9.20949 11.203 9.05056 11.0858 8.93335C10.9686 8.81614 10.8096 8.75025 10.6438 8.75025C10.4781 8.75025 10.3191 8.81614 10.2019 8.93335C10.0847 9.05056 10.0188 9.20949 10.0188 9.37525C10.0188 9.54101 10.0847 9.69993 10.2019 9.81714C10.3191 9.93435 10.4781 10.0002 10.6438 10.0002C10.8096 10.0002 10.9686 9.93435 11.0858 9.81714ZM16.0858 9.81714C16.203 9.69993 16.2688 9.54101 16.2688 9.37525C16.2688 9.20949 16.203 9.05056 16.0858 8.93335C15.9686 8.81614 15.8096 8.75025 15.6438 8.75025C15.4781 8.75025 15.3191 8.81614 15.2019 8.93335C15.0847 9.05056 15.0188 9.20949 15.0188 9.37525C15.0188 9.54101 15.0847 9.69993 15.2019 9.81714C15.3191 9.93435 15.4781 10.0002 15.6438 10.0002C15.8096 10.0002 15.9686 9.93435 16.0858 9.81714ZM13.5858 9.81714C13.703 9.69993 13.7688 9.54101 13.7688 9.37525C13.7688 9.20949 13.703 9.05056 13.5858 8.93335C13.4686 8.81614 13.3096 8.75025 13.1438 8.75025C12.9781 8.75025 12.8191 8.81614 12.7019 8.93335C12.5847 9.05056 12.5188 9.20949 12.5188 9.37525C12.5188 9.54101 12.5847 9.69993 12.7019 9.81714C12.8191 9.93435 12.9781 10.0002 13.1438 10.0002C13.3096 10.0002 13.4686 9.93435 13.5858 9.81714ZM10.6426 2.5C10.4768 2.50002 10.3179 2.56583 10.2007 2.68303C10.0835 2.80024 10.0176 2.95925 10.0176 3.12501V6.87494C10.0176 7.04069 10.0835 7.19978 10.2007 7.31698C10.3179 7.43419 10.4768 7.49992 10.6426 7.49994H15.6426C15.8084 7.49992 15.9673 7.43419 16.0845 7.31698C16.2017 7.19978 16.2676 7.04069 16.2676 6.87494V3.12501C16.2676 2.95925 16.2017 2.80024 16.0845 2.68303C15.9673 2.56583 15.8084 2.50002 15.6426 2.5H10.6426ZM11.2676 3.75001H15.0176V6.24994H11.2676V3.75001ZM20.0176 13.7499C15.1925 13.7499 11.2676 17.6748 11.2676 22.5C11.2676 27.325 15.1925 31.25 20.0176 31.25C24.8427 31.25 28.7676 27.325 28.7676 22.5C28.7676 17.6748 24.8427 13.7499 20.0176 13.7499ZM20.0176 15C24.1672 15 27.5176 18.3503 27.5176 22.5C27.5176 26.6495 24.1672 30 20.0176 30C15.8681 30 12.5176 26.6495 12.5176 22.5C12.5176 18.3503 15.8681 15 20.0176 15ZM23.9446 19.9669C24.0599 19.8483 24.2175 19.7804 24.3829 19.7778C24.4664 19.7765 24.5493 19.792 24.6267 19.8233C24.7042 19.8546 24.7746 19.901 24.8337 19.96C24.8929 20.0189 24.9397 20.0891 24.9713 20.1664C25.0028 20.2438 25.0186 20.3266 25.0176 20.4101V24.1919C25.0188 24.2747 25.0035 24.357 24.9726 24.4339C24.9417 24.5107 24.8959 24.5806 24.8377 24.6396C24.7796 24.6985 24.7103 24.7454 24.6339 24.7773C24.5574 24.8093 24.4754 24.8259 24.3926 24.8259C24.3098 24.8259 24.2278 24.8093 24.1514 24.7773C24.075 24.7454 24.0057 24.6985 23.9475 24.6396C23.8894 24.5806 23.8435 24.5107 23.8126 24.4339C23.7817 24.357 23.7664 24.2747 23.7676 24.1919V20.4101C23.7657 20.2448 23.8293 20.0854 23.9446 19.9669Z" fill="#F2F2F2"/>
</svg>
