<svg width="40" height="40" viewBox="0 0 40 40" fill="none" xmlns="http://www.w3.org/2000/svg">
<g clip-path="url(#clip0)">
<path d="M39.3333 0H0.666667C0.489856 0 0.320286 0.0702379 0.195262 0.195262C0.0702379 0.320286 0 0.489856 0 0.666667V39.3333C0 39.5101 0.0702379 39.6797 0.195262 39.8047C0.320286 39.9298 0.489856 40 0.666667 40H39.3333C39.5101 40 39.6797 39.9298 39.8047 39.8047C39.9298 39.6797 40 39.5101 40 39.3333V0.666667C40 0.489856 39.9298 0.320286 39.8047 0.195262C39.6797 0.0702379 39.5101 0 39.3333 0ZM10.6667 38.6667H10V10H10.6667V38.6667ZM19.3333 38.6667H12V10H19.3333V38.6667ZM28 38.6667H20.6667V10H28V38.6667ZM30 38.6667H29.3333V10H30V38.6667ZM38.6667 38.6667H31.3333V9.33333C31.3333 9.15652 31.2631 8.98695 31.1381 8.86193C31.013 8.7369 30.8435 8.66667 30.6667 8.66667H9.33333C9.15652 8.66667 8.98695 8.7369 8.86193 8.86193C8.7369 8.98695 8.66667 9.15652 8.66667 9.33333V38.6667H1.33333V1.33333H38.6667V38.6667Z" fill="#F2F2F2"/>
<path d="M32.6667 26.6667H36.6667C36.8435 26.6667 37.013 26.5964 37.1381 26.4714C37.2631 26.3464 37.3333 26.1768 37.3333 26V19.3333C37.3333 19.1565 37.2631 18.987 37.1381 18.8619C37.013 18.7369 36.8435 18.6667 36.6667 18.6667H32.6667C32.4899 18.6667 32.3203 18.7369 32.1953 18.8619C32.0702 18.987 32 19.1565 32 19.3333V26C32 26.1768 32.0702 26.3464 32.1953 26.4714C32.3203 26.5964 32.4899 26.6667 32.6667 26.6667ZM33.3333 20H36V25.3333H33.3333V20Z" fill="#F2F2F2"/>
<path d="M12.6667 5.33333H11.3333V6.66667H12.6667V5.33333Z" fill="#F2F2F2"/>
<path d="M15.3333 5.33333H14V6.66667H15.3333V5.33333Z" fill="#F2F2F2"/>
<path d="M18 5.33333H16.6667V6.66667H18V5.33333Z" fill="#F2F2F2"/>
<path d="M20.6667 5.33333H19.3333V6.66667H20.6667V5.33333Z" fill="#F2F2F2"/>
<path d="M23.3333 5.33333H22V6.66667H23.3333V5.33333Z" fill="#F2F2F2"/>
<path d="M26 5.33333H24.6667V6.66667H26V5.33333Z" fill="#F2F2F2"/>
<path d="M28.6667 5.33333H27.3333V6.66667H28.6667V5.33333Z" fill="#F2F2F2"/>
<path d="M35.3333 20.6667H34V22H35.3333V20.6667Z" fill="#F2F2F2"/>
<path d="M35.3333 23.3333H34V24.6667H35.3333V23.3333Z" fill="#F2F2F2"/>
</g>
<defs>
<clipPath id="clip0">
<rect width="40" height="40" fill="white"/>
</clipPath>
</defs>
</svg>
