<svg width="40" height="40" viewBox="0 0 40 40" fill="none" xmlns="http://www.w3.org/2000/svg">
<g clip-path="url(#clip0)">
<path d="M2.5 22.33H37.5C38.8786 22.33 40 21.2086 40 19.83V6.70502C40 5.32644 38.8786 4.20502 37.5 4.20502H2.5C1.12142 4.20502 0 5.32644 0 6.70502V19.83C0 21.2086 1.12142 22.33 2.5 22.33ZM1.66667 6.70502C1.66667 6.24563 2.04061 5.87168 2.5 5.87168H37.5C37.9594 5.87168 38.3333 6.24563 38.3333 6.70502V19.83C38.3333 20.2894 37.9594 20.6633 37.5 20.6633H2.5C2.04061 20.6633 1.66667 20.2894 1.66667 19.83V6.70502Z" fill="#F2F2F2"/>
<path d="M9.84375 15.18H30.1563C30.6165 15.18 30.9896 14.8068 30.9896 14.3466C30.9896 13.8864 30.6165 13.5133 30.1563 13.5133H9.84375C9.38355 13.5133 9.01042 13.8864 9.01042 14.3466C9.01042 14.8068 9.38355 15.18 9.84375 15.18ZM7.57081 18.93H32.4292C32.8894 18.93 33.2625 18.5568 33.2625 18.0966C33.2625 17.6364 32.8894 17.2633 32.4292 17.2633H7.57081C7.1106 17.2633 6.73747 17.6364 6.73747 18.0966C6.73747 18.5568 7.1106 18.93 7.57081 18.93ZM28.7545 25.9392C28.7545 25.479 28.3813 25.1059 27.9211 25.1059C27.4609 25.1059 27.0878 25.479 27.0878 25.9392C27.0878 26.4214 26.9434 26.622 26.7037 26.9544C26.4087 27.3638 26.0046 27.9245 26.0046 28.945C26.0046 29.9663 26.4083 30.527 26.7029 30.9368C26.943 31.2704 27.0878 31.4715 27.0878 31.9557C27.0878 32.4395 26.943 32.6409 26.7033 32.9741C26.4083 33.3835 26.0046 33.9446 26.0046 34.9659C26.0046 35.4261 26.3778 35.7993 26.838 35.7993C27.2982 35.7993 27.6713 35.4261 27.6713 34.9659C27.6713 34.4821 27.8162 34.2807 28.0558 33.9474C28.3508 33.5381 28.7545 32.977 28.7545 31.9557C28.7545 30.9343 28.3508 30.3732 28.0558 29.9635C27.8162 29.6302 27.6713 29.4288 27.6713 28.945C27.6713 28.4624 27.8162 28.2618 28.0558 27.929C28.3504 27.52 28.7545 26.9597 28.7545 25.9392ZM21.3749 25.9392C21.3749 25.479 21.0018 25.1059 20.5416 25.1059C20.0814 25.1059 19.7083 25.479 19.7083 25.9392C19.7083 26.4214 19.5638 26.622 19.3241 26.9544C19.0291 27.3638 18.6251 27.9245 18.6251 28.945C18.6251 29.9663 19.0287 30.527 19.3233 30.9368C19.5634 31.2704 19.7083 31.4715 19.7083 31.9557C19.7083 32.4395 19.5634 32.6409 19.3237 32.9741C19.0287 33.3835 18.6251 33.9446 18.6251 34.9659C18.6251 35.4261 18.9982 35.7993 19.4584 35.7993C19.9186 35.7993 20.2918 35.4261 20.2918 34.9659C20.2918 34.4821 20.4366 34.2807 20.6763 33.9474C20.9713 33.5381 21.3749 32.977 21.3749 31.9557C21.3749 30.9343 20.9713 30.3732 20.6763 29.9635C20.4366 29.6302 20.2918 29.4288 20.2918 28.945C20.2918 28.4624 20.4366 28.2618 20.6763 27.929C20.9709 27.52 21.3749 26.9597 21.3749 25.9392ZM13.9954 25.9392C13.9954 25.479 13.6222 25.1059 13.162 25.1059C12.7018 25.1059 12.3287 25.479 12.3287 25.9392C12.3287 26.4214 12.1842 26.622 11.9446 26.9544C11.6496 27.3638 11.2455 27.9245 11.2455 28.945C11.2455 29.9663 11.6492 30.527 11.9438 30.9368C12.1838 31.2704 12.3287 31.4715 12.3287 31.9557C12.3287 32.4395 12.1838 32.6409 11.9442 32.9741C11.6492 33.3835 11.2455 33.9446 11.2455 34.9659C11.2455 35.4261 11.6187 35.7993 12.0789 35.7993C12.5391 35.7993 12.9122 35.4261 12.9122 34.9659C12.9122 34.4821 13.0571 34.2807 13.2967 33.9474C13.5917 33.5381 13.9954 32.977 13.9954 31.9557C13.9954 30.9343 13.5917 30.3732 13.2967 29.9635C13.0571 29.6302 12.9122 29.4288 12.9122 28.945C12.9122 28.4624 13.0571 28.2618 13.2967 27.929C13.5913 27.52 13.9954 26.9597 13.9954 25.9392ZM35.5208 10.6113C35.981 10.6113 36.3542 10.2381 36.3542 9.77793V8.9446C36.3542 8.4844 35.981 8.11127 35.5208 8.11127C35.0606 8.11127 34.6875 8.4844 34.6875 8.9446V9.77793C34.6875 10.2381 35.0606 10.6113 35.5208 10.6113Z" fill="#F2F2F2"/>
</g>
<defs>
<clipPath id="clip0">
<rect width="40" height="40" fill="white"/>
</clipPath>
</defs>
</svg>
