<svg width="40" height="40" viewBox="0 0 40 40" fill="none" xmlns="http://www.w3.org/2000/svg">
<g clip-path="url(#clip0)">
<path d="M32.5 22.5C32.4991 21.6715 32.1695 20.8772 31.5837 20.2913C30.9979 19.7055 30.2036 19.3759 29.375 19.375H27.223C26.7014 18.1043 26.1133 16.862 25.4612 15.6531C25.2978 15.3645 25.0607 15.1246 24.7742 14.9578C24.4876 14.7911 24.1619 14.7035 23.8303 14.704H8.66988C8.33832 14.7034 8.01257 14.791 7.726 14.9578C7.43944 15.1246 7.20235 15.3645 7.03902 15.6531C6.38693 16.862 5.79884 18.1043 5.27716 19.375H3.12516C2.29665 19.3759 1.50234 19.7055 0.916498 20.2913C0.330652 20.8772 0.00110789 21.6715 0.000160047 22.5C0.000168334 22.6658 0.066019 22.8247 0.183227 22.9419C0.300436 23.0591 0.459402 23.125 0.62516 23.125H3.14572C1.81838 24.3319 -0.164159 26.8513 0.0108413 31.0431C0.184485 35.2051 0.797888 35.9811 1.43479 36.1997C1.47659 36.2135 1.51932 36.2242 1.56266 36.232V38.125C1.5632 38.6221 1.76092 39.0987 2.11243 39.4502C2.46395 39.8017 2.94055 39.9995 3.43766 40H6.56264C7.05975 39.9995 7.53635 39.8017 7.88787 39.4502C8.23938 39.0987 8.4371 38.6221 8.43764 38.125V36.1172H8.72054C8.88455 36.1173 9.042 36.0528 9.1589 35.9378L9.92276 35.1859H22.5774L23.3413 35.9378C23.4582 36.0528 23.6156 36.1173 23.7797 36.1172H24.0626V38.125C24.0631 38.6221 24.2608 39.0987 24.6123 39.4502C24.9638 39.8017 25.4404 39.9995 25.9376 40H29.0625C29.5597 39.9995 30.0363 39.8017 30.3878 39.4502C30.7393 39.0987 30.937 38.6221 30.9375 38.125V36.2281C31.1031 36.1966 31.2579 36.1237 31.3877 36.0162C31.8189 35.6598 32.3337 34.772 32.4894 31.0431C32.6644 26.8513 30.6818 24.3319 29.3545 23.125H31.875C32.0408 23.125 32.1998 23.0591 32.317 22.9419C32.4342 22.8247 32.5 22.6658 32.5 22.5ZM6.49026 19.7177C6.97741 18.5399 7.52425 17.3877 8.12865 16.2656C8.18315 16.1703 8.26199 16.0913 8.35709 16.0365C8.45219 15.9818 8.56014 15.9533 8.66988 15.954H23.8303C23.9401 15.9533 24.048 15.9818 24.1431 16.0365C24.2382 16.0913 24.317 16.1703 24.3715 16.2656C25.3722 18.1826 26.2523 20.1607 27.0062 22.1875H5.54276L6.49673 20.2795C6.53979 20.1919 6.56164 20.0954 6.56052 19.9978C6.55939 19.9002 6.53532 19.8042 6.49026 19.7177ZM1.35728 21.875C1.48693 21.5097 1.72645 21.1934 2.04297 20.9696C2.35949 20.7458 2.73751 20.6254 3.12516 20.625H4.76336C4.58129 21.0797 4.41693 21.5025 4.27562 21.875H1.35728ZM1.47334 28.4375H6.17771C6.03564 29.0582 5.68736 29.6125 5.18971 30.0098C4.69206 30.4071 4.07444 30.6239 3.43765 30.625H1.25248C1.2434 29.8898 1.31749 29.156 1.47334 28.4375ZM7.18764 38.125C7.18745 38.2907 7.12154 38.4496 7.00437 38.5667C6.8872 38.6839 6.72834 38.7498 6.56264 38.75H3.43766C3.27196 38.7498 3.1131 38.6839 2.99593 38.5667C2.87876 38.4496 2.81285 38.2907 2.81266 38.125V36.1172H7.18764V38.125ZM29.6875 38.125C29.6873 38.2907 29.6214 38.4496 29.5043 38.5667C29.3871 38.6839 29.2282 38.7498 29.0625 38.75H25.9376C25.7719 38.7498 25.613 38.6839 25.4958 38.5667C25.3787 38.4496 25.3127 38.2907 25.3126 38.125V36.1172H29.5839C29.6176 36.1172 29.6534 36.1229 29.6875 36.1243V38.125ZM30.6452 34.9777L30.5954 34.9701C30.2615 34.9091 29.9233 34.8747 29.5839 34.8673H24.0357L23.2719 34.1153C23.155 34.0003 22.9975 33.9358 22.8335 33.9358H9.66671C9.5027 33.9358 9.34524 34.0003 9.22833 34.1153L8.4645 34.8673H2.0102C1.94332 34.8673 1.87687 34.878 1.81336 34.899C1.67655 34.6133 1.43765 33.8469 1.30698 31.875H3.43766C4.4058 31.8733 5.34154 31.5261 6.07652 30.896C6.81149 30.2658 7.29745 29.394 7.44694 28.4375H25.0533C25.2028 29.394 25.6887 30.2658 26.4237 30.896C27.1587 31.5261 28.0944 31.8733 29.0625 31.875H31.1928C31.0474 34.0651 30.7688 34.7693 30.6452 34.9777ZM31.2477 30.625H29.0625C28.4258 30.6239 27.8081 30.4071 27.3105 30.0098C26.8128 29.6125 26.4646 29.0582 26.3225 28.4375H31.0269C31.1827 29.156 31.2568 29.8898 31.2477 30.625ZM30.6538 27.1875H1.84632C2.41713 25.6727 3.43209 24.3657 4.75829 23.4375H27.7417C29.0679 24.3657 30.0829 25.6727 30.6538 27.1875ZM28.2457 21.875L27.777 20.625H29.375C29.7627 20.6254 30.1407 20.7458 30.4572 20.9696C30.7737 21.1934 31.0133 21.5097 31.1429 21.875H28.2457Z" fill="#F2F2F2"/>
<path d="M25.6249 33.4375C25.6249 33.6033 25.6908 33.7622 25.808 33.8794C25.9252 33.9966 26.0841 34.0625 26.2499 34.0625H29.3749C29.5406 34.0625 29.6996 33.9966 29.8168 33.8794C29.934 33.7622 29.9999 33.6033 29.9999 33.4375C29.9999 33.2717 29.934 33.1128 29.8168 32.9956C29.6996 32.8783 29.5406 32.8125 29.3749 32.8125H26.2499C26.0841 32.8125 25.9252 32.8784 25.808 32.9956C25.6908 33.1128 25.6249 33.2717 25.6249 33.4375ZM6.24998 32.8125H3.125C2.95924 32.8125 2.80027 32.8783 2.68306 32.9956C2.56585 33.1128 2.5 33.2717 2.5 33.4375C2.5 33.6033 2.56585 33.7622 2.68306 33.8794C2.80027 33.9966 2.95924 34.0625 3.125 34.0625H6.24998C6.41574 34.0625 6.57471 33.9966 6.69192 33.8794C6.80913 33.7622 6.87498 33.6033 6.87498 33.4375C6.87498 33.2717 6.80913 33.1128 6.69192 32.9956C6.57471 32.8783 6.41574 32.8125 6.24998 32.8125ZM19.6874 30.625H12.8125C12.6467 30.625 12.4877 30.6908 12.3705 30.8081C12.2533 30.9253 12.1875 31.0842 12.1875 31.25C12.1875 31.4158 12.2533 31.5747 12.3705 31.6919C12.4877 31.8091 12.6467 31.875 12.8125 31.875H19.6874C19.8532 31.875 20.0122 31.8091 20.1294 31.6919C20.2466 31.5747 20.3124 31.4158 20.3124 31.25C20.3124 31.0842 20.2466 30.9253 20.1294 30.8081C20.0122 30.6908 19.8532 30.625 19.6874 30.625ZM25.4687 0H14.5312C13.8684 0.000749371 13.2329 0.264383 12.7643 0.733062C12.2956 1.20174 12.032 1.83719 12.0312 2.5V9.375C12.032 10.0378 12.2956 10.6733 12.7643 11.1419C13.2329 11.6106 13.8684 11.8742 14.5312 11.875H25.4687C26.1315 11.8742 26.7669 11.6106 27.2356 11.1419C27.7043 10.6733 27.9679 10.0378 27.9687 9.375V2.5C27.9679 1.83719 27.7043 1.20173 27.2356 0.733055C26.7669 0.264376 26.1315 0.000744409 25.4687 0ZM26.7187 9.375C26.7187 9.70652 26.587 10.0245 26.3525 10.2589C26.1181 10.4933 25.8002 10.625 25.4687 10.625H14.5312C14.1997 10.625 13.8817 10.4933 13.6473 10.2589C13.4129 10.0245 13.2812 9.70652 13.2812 9.375V2.5C13.2812 2.16848 13.4129 1.85054 13.6473 1.61612C13.8817 1.3817 14.1997 1.25 14.5312 1.25H25.4687C25.8002 1.25 26.1181 1.3817 26.3525 1.61612C26.587 1.85054 26.7187 2.16848 26.7187 2.5V9.375Z" fill="#F2F2F2"/>
<path d="M20 2.92328C19.4511 2.9239 18.9249 3.14222 18.5367 3.53034C18.1486 3.91847 17.9303 4.4447 17.9297 4.99359C17.9297 5.01116 17.9319 5.02815 17.9323 5.0456C17.932 5.05445 17.9297 5.06277 17.9297 5.07172V8.32672C17.9292 8.40908 17.9451 8.49072 17.9763 8.56694C18.0075 8.64316 18.0535 8.71247 18.1115 8.77087C18.1696 8.82927 18.2387 8.87561 18.3147 8.90723C18.3908 8.93886 18.4723 8.95514 18.5547 8.95514C18.637 8.95514 18.7186 8.93886 18.7947 8.90723C18.8707 8.87561 18.9398 8.82927 18.9978 8.77087C19.0559 8.71247 19.1019 8.64316 19.1331 8.56694C19.1643 8.49072 19.1801 8.40908 19.1797 8.32672V6.89359C19.4619 7.01546 19.7677 7.07295 20.0749 7.06188C20.3821 7.05081 20.6829 6.97146 20.9557 6.82959C21.2284 6.68773 21.466 6.48691 21.6514 6.24172C21.8368 5.99653 21.9653 5.71312 22.0275 5.41208C22.0897 5.11105 22.0841 4.79994 22.011 4.50135C21.938 4.20276 21.7993 3.92419 21.6052 3.68586C21.411 3.44754 21.1662 3.25545 20.8886 3.12354C20.6109 2.99164 20.3074 2.92323 20 2.92328ZM20 5.8139C19.8377 5.8139 19.6791 5.76579 19.5442 5.67566C19.4093 5.58552 19.3042 5.4574 19.2421 5.30751C19.18 5.15762 19.1638 4.99268 19.1954 4.83356C19.2271 4.67443 19.3052 4.52826 19.4199 4.41354C19.5347 4.29882 19.6808 4.22069 19.84 4.18904C19.9991 4.15739 20.164 4.17363 20.3139 4.23572C20.4638 4.29781 20.5919 4.40295 20.6821 4.53785C20.7722 4.67275 20.8203 4.83135 20.8203 4.99359C20.82 5.21107 20.7335 5.41957 20.5797 5.57335C20.426 5.72713 20.2175 5.81364 20 5.8139ZM38.8193 30H38.7499V5.9375C38.7494 5.44039 38.5517 4.96379 38.2001 4.61228C37.8486 4.26077 37.372 4.06305 36.8749 4.0625H27.9687V5.3125H36.8749C37.0406 5.31269 37.1995 5.3786 37.3167 5.49577C37.4338 5.61294 37.4997 5.7718 37.4999 5.9375V30H36.2499V7.1875C36.2499 7.02174 36.1841 6.86277 36.0669 6.74557C35.9497 6.62836 35.7907 6.56251 35.6249 6.5625H27.9687V7.8125H34.9999V30H34.9305C34.6084 30.0098 34.3033 30.1469 34.082 30.3811C33.8608 30.6154 33.7413 30.9278 33.7499 31.25V39.375C33.7499 39.5408 33.8158 39.6997 33.933 39.8169C34.0502 39.9341 34.2092 40 34.3749 40C34.5407 40 34.6997 39.9341 34.8169 39.8169C34.9341 39.6997 34.9999 39.5408 34.9999 39.375L35.0057 31.25H38.7499V39.375C38.7499 39.5408 38.8158 39.6997 38.933 39.8169C39.0502 39.9341 39.2092 40 39.3749 40C39.5407 40 39.6996 39.9341 39.8169 39.8169C39.9341 39.6997 39.9999 39.5408 39.9999 39.375V31.25C40.0085 30.9278 39.8891 30.6154 39.6678 30.3811C39.4465 30.1469 39.1414 30.0098 38.8193 30Z" fill="#F2F2F2"/>
</g>
<defs>
<clipPath id="clip0">
<rect width="40" height="40" fill="white"/>
</clipPath>
</defs>
</svg>
