<svg width="40" height="40" viewBox="0 0 40 40" fill="none" xmlns="http://www.w3.org/2000/svg">
<g clip-path="url(#clip0)">
<path fill-rule="evenodd" clip-rule="evenodd" d="M40 9.28571C40 10.4671 39.0386 11.4286 37.8571 11.4286H37.1429V34.2857H37.8571C39.0386 34.2857 40 35.2471 40 36.4286V39.2857C40 39.4752 39.9247 39.6568 39.7908 39.7908C39.6568 39.9247 39.4752 40 39.2857 40H0.714286C0.524845 40 0.343164 39.9247 0.20921 39.7908C0.075255 39.6568 0 39.4752 0 39.2857V36.4286C0 35.2471 0.961429 34.2857 2.14286 34.2857H2.85714V11.4286H2.14286C0.961429 11.4286 0 10.4671 0 9.28571V0.714286C0 0.524845 0.075255 0.343164 0.20921 0.20921C0.343164 0.075255 0.524845 0 0.714286 0H39.2857C39.4752 0 39.6568 0.075255 39.7908 0.20921C39.9247 0.343164 40 0.524845 40 0.714286V9.28571ZM38.5714 36.4286C38.5714 36.0357 38.25 35.7143 37.8571 35.7143C24.9057 35.7143 13.6 35.7143 2.14286 35.7143C1.75 35.7143 1.42857 36.0357 1.42857 36.4286V38.5714C15.1726 38.5714 26.2982 38.5714 38.5714 38.5714V36.4286ZM4.28571 34.2857H7.14286V27.1414C7.14286 27.1414 7.14286 14.2857 20 14.2857C32.8571 14.2857 32.8571 27.1414 32.8571 27.1414C32.8571 27.1414 32.8571 31.7829 32.8571 34.2857H35.7143C35.7143 26.6467 35.7143 15.4217 35.7143 11.4286C22.3406 11.4286 17.6594 11.4286 4.28571 11.4286C4.28571 15.4217 4.28571 26.6467 4.28571 34.2857ZM21.7443 30.41C21.7694 30.4294 21.7933 30.4504 21.8157 30.4729C22.4529 30.96 22.8571 31.7829 22.8571 32.6729C22.8571 32.9457 22.8057 33.2057 22.7329 33.4543C23.4278 33.001 23.9988 32.3817 24.3944 31.6525C24.7899 30.9232 24.9976 30.1068 24.9986 29.2771V29.27C24.9986 28.3586 24.75 27.4757 24.2857 26.7043C23.7171 27.568 22.95 28.2832 22.0486 28.79C21.9163 28.8636 21.7642 28.8933 21.614 28.8748C21.4638 28.8563 21.3233 28.7906 21.2129 28.6872C21.1024 28.5837 21.0277 28.4479 20.9995 28.2992C20.9712 28.1505 20.9909 27.9968 21.0557 27.86C21.3786 27.18 21.5429 26.46 21.5429 25.72C21.5419 24.9715 21.3732 24.2327 21.0491 23.5581C20.725 22.8834 20.2537 22.29 19.67 21.8214C19.0714 23.1991 18.1325 24.4019 16.9414 25.3171L16.9043 25.3443C15.7086 26.2686 15 27.7114 15 29.2714C15.0004 30.1018 15.2076 30.9191 15.6029 31.6493C15.9982 32.3796 16.5692 32.9999 17.2643 33.4543C17.1929 33.2057 17.1429 32.9471 17.1429 32.6757C17.1418 31.955 17.415 31.2609 17.9071 30.7343C18.4 30.1571 19.21 29.4171 19.8 28.9214C19.8902 28.8461 19.9977 28.7941 20.1128 28.7701C20.2279 28.7461 20.3471 28.7508 20.4599 28.7839C20.5728 28.8169 20.6757 28.8773 20.7597 28.9596C20.8437 29.0419 20.9061 29.1436 20.9414 29.2557C20.976 29.3708 21.0195 29.483 21.0714 29.5914C21.2303 29.9121 21.4604 30.1921 21.7443 30.41ZM21.0102 33.6859C21.2781 33.418 21.4286 33.0546 21.4286 32.6757C21.4286 32.23 21.2257 31.8171 20.8743 31.5457C20.54 31.2914 20.2514 30.9786 20.02 30.6271C19.5971 31.0171 19.2186 31.3971 18.9729 31.6829C18.7071 31.97 18.5714 32.3143 18.5714 32.6729V32.6757C18.5714 33.0546 18.7219 33.418 18.9898 33.6859C19.2578 33.9538 19.6211 34.1043 20 34.1043C20.3789 34.1043 20.7422 33.9538 21.0102 33.6859ZM26.4286 29.2714V29.2786C26.4286 31.3129 25.4614 33.1071 23.9829 34.2843H31.4286V27.1414C31.4286 21.0846 27.1429 15.7129 20 15.7129C12.8571 15.7129 8.57143 21.0846 8.57143 27.1414V34.2843H16.0186C14.54 33.1057 13.5729 31.3114 13.5729 29.2771C13.5693 28.293 13.7929 27.3213 14.2263 26.4378C14.6597 25.5542 15.2911 24.7825 16.0714 24.1829L16.1143 24.1514C16.9962 23.4655 17.7121 22.5895 18.2086 21.5886C18.3768 21.2403 18.5167 20.8792 18.6271 20.5086C18.6586 20.4072 18.7123 20.3141 18.7843 20.2361C18.8563 20.158 18.9447 20.097 19.0432 20.0575C19.1417 20.018 19.2478 20.0009 19.3538 20.0075C19.4597 20.0141 19.5629 20.0442 19.6557 20.0957C20.718 20.6852 21.5919 21.5631 22.1766 22.6281C22.7613 23.693 23.0329 24.9016 22.96 26.1143C23.187 25.8037 23.3768 25.4676 23.5257 25.1129C23.5719 25.0028 23.645 24.9061 23.7382 24.8316C23.8314 24.7571 23.9418 24.7071 24.0593 24.6862C24.1768 24.6653 24.2976 24.6742 24.4108 24.7121C24.524 24.7499 24.6258 24.8155 24.7071 24.9029C25.8137 26.0884 26.429 27.6497 26.4286 29.2714ZM38.5714 1.42857H1.42857V9.28571C1.42895 9.47504 1.50433 9.6565 1.6382 9.79037C1.77207 9.92425 1.95353 9.99962 2.14286 10H37.8571C38.25 10 38.5714 9.67857 38.5714 9.28571V1.42857Z" fill="#F2F2F2"/>
</g>
<defs>
<clipPath id="clip0">
<rect width="40" height="40" fill="white"/>
</clipPath>
</defs>
</svg>
