<svg width="42" height="17" viewBox="0 0 42 17" fill="none" xmlns="http://www.w3.org/2000/svg">
<path d="M8.60938 9.82812H6.55469L6.16406 11H4.91797L7.03516 5.3125H8.12109L10.25 11H9.00391L8.60938 9.82812ZM6.87109 8.87891H8.29297L7.57812 6.75L6.87109 8.87891ZM11.9531 8.99609V11H10.7812V5.3125H13C13.4271 5.3125 13.8021 5.39062 14.125 5.54688C14.4505 5.70312 14.7005 5.92578 14.875 6.21484C15.0495 6.5013 15.1367 6.82812 15.1367 7.19531C15.1367 7.7526 14.9453 8.19271 14.5625 8.51562C14.1823 8.83594 13.6549 8.99609 12.9805 8.99609H11.9531ZM11.9531 8.04688H13C13.3099 8.04688 13.5456 7.97396 13.707 7.82812C13.8711 7.68229 13.9531 7.47396 13.9531 7.20312C13.9531 6.92448 13.8711 6.69922 13.707 6.52734C13.543 6.35547 13.3164 6.26693 13.0273 6.26172H11.9531V8.04688ZM19.3672 8.53516H17.1172V10.0586H19.7578V11H15.9453V5.3125H19.75V6.26172H17.1172V7.61719H19.3672V8.53516ZM25.0742 11H23.9023V8.5625H21.6172V11H20.4453V5.3125H21.6172V7.61719H23.9023V5.3125H25.0742V11ZM31.4609 12.3984H30.3789V11H26.9492V12.3945H25.8398L25.7773 10.0586H26.207C26.4388 9.86589 26.6172 9.58333 26.7422 9.21094C26.8698 8.83594 26.9557 8.3724 27 7.82031L27.1641 5.3125H30.8906V10.0586H31.5547L31.4609 12.3984ZM27.5508 10.0586H29.7188V6.26172H28.2773L28.1797 7.75781C28.1016 8.76042 27.8919 9.52734 27.5508 10.0586ZM35.4453 9.82812H33.3906L33 11H31.7539L33.8711 5.3125H34.957L37.0859 11H35.8398L35.4453 9.82812ZM33.707 8.87891H35.1289L34.4141 6.75L33.707 8.87891Z" fill="white"/>
<rect x="1.5" y="1" width="39" height="15" rx="2" stroke="white" stroke-width="2"/>
</svg>
