<svg width="64" height="64" viewBox="0 0 64 64" fill="none" xmlns="http://www.w3.org/2000/svg">
<path d="M7.48837 63.5C7.22624 63.5 6.97484 63.3959 6.78949 63.2105C6.60413 63.0252 6.5 62.7738 6.5 62.5116V1.48837C6.5 1.22624 6.60413 0.974844 6.78949 0.789488C6.97484 0.604132 7.22624 0.5 7.48837 0.5C7.75051 0.5 8.0019 0.604132 8.18726 0.789488C8.37261 0.974844 8.47674 1.22624 8.47674 1.48837V62.5116C8.47674 62.7738 8.37261 63.0252 8.18726 63.2105C8.0019 63.3959 7.75051 63.5 7.48837 63.5Z" fill="white" stroke="white"/>
<path d="M63.5 11.5C63.5 12.103 63.0692 12.5 62.659 12.5H6.5V10.5H62.659C63.0723 10.5 63.5 10.8854 63.5 11.5Z" fill="white" stroke="white"/>
<path d="M43.5839 12.2521L43.5841 12.2523L47.9935 17.4069L47.9942 17.4078L49.5259 19.2069C49.6967 19.3957 49.9437 19.5 50.1691 19.5C50.3639 19.5 50.5561 19.4333 50.7016 19.3153L50.7016 19.3152L50.7058 19.312C50.7893 19.2457 50.8576 19.1645 50.9072 19.0737C50.9569 18.983 50.9871 18.8842 50.9967 18.7831C51.0063 18.682 50.9951 18.5799 50.9635 18.4826C50.932 18.3853 50.8806 18.2942 50.8116 18.2149L50.8116 18.2149L50.8089 18.2118L50.6765 18.0572L50.6763 18.057L46.2669 12.9023L46.2663 12.9016L44.4684 10.7916C44.3118 10.6151 44.1186 10.5188 43.9367 10.5H43.6622C43.5185 10.5386 43.3996 10.5967 43.2993 10.6803L43.2993 10.6804L43.293 10.6855C43.2098 10.7526 43.1419 10.8344 43.0925 10.9256C43.0431 11.0167 43.013 11.1159 43.0034 11.2173C42.9938 11.3187 43.0048 11.4211 43.036 11.5188C43.0672 11.6166 43.1182 11.7082 43.1867 11.7882L43.5839 12.2521Z" fill="white" stroke="white"/>
<path d="M30.4161 12.2521L30.4159 12.2523L26.0065 17.4069L26.0058 17.4078L24.4741 19.2069C24.3033 19.3957 24.0563 19.5 23.8309 19.5C23.6361 19.5 23.4439 19.4333 23.2984 19.3153L23.2984 19.3152L23.2942 19.312C23.2107 19.2457 23.1424 19.1645 23.0928 19.0737C23.0431 18.983 23.0129 18.8842 23.0033 18.7831C22.9937 18.682 23.0049 18.5799 23.0365 18.4826C23.068 18.3853 23.1194 18.2942 23.1884 18.2149L23.1884 18.2149L23.1911 18.2118L23.3235 18.0572L23.3237 18.057L27.7331 12.9023L27.7337 12.9016L29.5316 10.7916C29.6882 10.6151 29.8814 10.5188 30.0633 10.5H30.3378C30.4815 10.5386 30.6004 10.5967 30.7007 10.6803L30.7007 10.6804L30.707 10.6855C30.7902 10.7526 30.8581 10.8344 30.9075 10.9256C30.9569 11.0167 30.987 11.1159 30.9966 11.2173C31.0062 11.3187 30.9952 11.4211 30.964 11.5188C30.9328 11.6166 30.8818 11.7082 30.8133 11.7882L30.4161 12.2521Z" fill="white" stroke="white"/>
<path d="M14.5 62C14.5 62.006 14.4879 62.1387 14.144 62.3555C13.825 62.5566 13.3303 62.7562 12.6745 62.9311C11.3701 63.2789 9.54049 63.5 7.5 63.5C5.45951 63.5 3.62985 63.2789 2.32553 62.9311C1.66971 62.7562 1.17499 62.5566 0.856049 62.3555C0.5121 62.1387 0.5 62.006 0.5 62C0.5 61.994 0.5121 61.8613 0.856049 61.6445C1.17499 61.4434 1.66971 61.2438 2.32553 61.0689C3.62985 60.7211 5.45951 60.5 7.5 60.5C9.54049 60.5 11.3701 60.7211 12.6745 61.0689C13.3303 61.2438 13.825 61.4434 14.144 61.6445C14.4879 61.8613 14.5 61.994 14.5 62Z" fill="white" stroke="white"/>
</svg>
