<svg width="40" height="40" viewBox="0 0 40 40" fill="none" xmlns="http://www.w3.org/2000/svg">
<path d="M6.64046 17.562C9.97279 13.7477 14.8419 11.5603 19.9988 11.5603C25.1567 11.5603 30.0258 13.7487 33.3572 17.5629C33.4378 17.6561 33.5361 17.7324 33.6463 17.7874C33.7565 17.8424 33.8766 17.8751 33.9995 17.8834C34.1224 17.8918 34.2458 17.8758 34.3624 17.8362C34.4791 17.7966 34.5868 17.7344 34.6793 17.653C34.8664 17.4895 34.981 17.2584 34.9978 17.0106C35.0147 16.7627 34.9325 16.5182 34.7693 16.3309C31.0816 12.1069 25.6987 9.685 19.9988 9.685C14.2999 9.685 8.91702 12.106 5.22839 16.3281C5.06629 16.5156 4.985 16.7596 5.00229 17.0068C5.01958 17.254 5.13404 17.4843 5.32066 17.6474C5.50728 17.8105 5.75087 17.8931 5.99819 17.877C6.2455 17.861 6.47642 17.7478 6.64046 17.562Z" fill="#F2F2F2"/>
<path d="M29.4724 21.2797C29.5499 21.3755 29.6455 21.455 29.7538 21.5137C29.8621 21.5724 29.9809 21.609 30.1035 21.6216C30.226 21.6341 30.3498 21.6223 30.4678 21.5868C30.5857 21.5513 30.6955 21.4929 30.7907 21.4148C30.9835 21.2579 31.106 21.0309 31.1315 20.7837C31.157 20.5366 31.0833 20.2894 30.9267 20.0965C28.2638 16.8232 24.2798 14.9461 19.9986 14.9461C15.7184 14.9461 11.7353 16.8232 9.07058 20.0946C8.99283 20.1901 8.93464 20.2999 8.89934 20.4179C8.86404 20.5359 8.85233 20.6597 8.86487 20.7822C8.89019 21.0296 9.01276 21.2568 9.2056 21.4138C9.39845 21.5709 9.64578 21.6449 9.89319 21.6195C10.1406 21.5942 10.3678 21.4717 10.5248 21.2788C12.8314 18.4462 16.2856 16.8204 19.9986 16.8204C23.7135 16.8213 27.1668 18.4462 29.4724 21.2797Z" fill="#F2F2F2"/>
<path d="M25.4942 24.9121C25.6423 25.1013 25.8573 25.2266 26.0948 25.2622C26.3324 25.2978 26.5746 25.241 26.7716 25.1035C26.9687 24.966 27.1055 24.7583 27.1541 24.523C27.2027 24.2878 27.1593 24.0428 27.0329 23.8385C25.4455 21.5639 22.8164 20.2062 19.9988 20.2062C17.139 20.2062 14.4884 21.5957 12.9066 23.9229C12.7752 24.1288 12.7292 24.3778 12.7784 24.617C12.8276 24.8562 12.9681 25.0668 13.1701 25.2041C13.3721 25.3414 13.6196 25.3946 13.8602 25.3523C14.1007 25.31 14.3153 25.1757 14.4584 24.9778C15.6904 23.1634 17.7616 22.0814 19.9997 22.0814C22.2032 22.0814 24.2584 23.14 25.4942 24.9121Z" fill="#F2F2F2"/>
<path d="M19.9993 30.3128C21.035 30.3128 21.8746 29.4862 21.8746 28.4666C21.8746 27.447 21.035 26.6204 19.9993 26.6204C18.9637 26.6204 18.1241 27.447 18.1241 28.4666C18.1241 29.4862 18.9637 30.3128 19.9993 30.3128Z" fill="#F2F2F2"/>
</svg>
