<svg width="40" height="40" viewBox="0 0 40 40" fill="none" xmlns="http://www.w3.org/2000/svg">
<path d="M39.5402 17.4778L12.8869 9.12767C12.787 9.09624 12.6807 9.08807 12.5768 9.10384C12.4729 9.1196 12.3743 9.15885 12.2892 9.21836C12.2041 9.27788 12.1347 9.35598 12.0869 9.44627C12.0391 9.53657 12.0141 9.63649 12.0141 9.73787V12.3072C12.0142 12.4426 12.0587 12.5746 12.1413 12.6842C12.2238 12.7937 12.3402 12.8754 12.4738 12.9174L14.6794 13.5918V27.7229H10.0151C9.83834 27.7229 9.66885 27.7905 9.54389 27.911C9.41893 28.0315 9.34873 28.1948 9.34873 28.3652V37.3577C9.34873 37.528 9.41893 37.6914 9.54389 37.8119C9.66885 37.9323 9.83834 38 10.0151 38H36.6683C36.8451 38 37.0145 37.9323 37.1395 37.8119C37.2645 37.6914 37.3347 37.528 37.3347 37.3577V19.8223C37.3347 19.652 37.2645 19.4886 37.1395 19.3681C37.0145 19.2477 36.8451 19.18 36.6683 19.18C36.4916 19.18 36.3221 19.2477 36.1972 19.3681C36.0722 19.4886 36.002 19.652 36.002 19.8223V36.7154C5.62893 36.7154 24.2575 36.7154 16.012 36.7154V14.0286C30.9641 18.7129 25.3351 16.8878 39.1271 21.2997C39.1956 21.3089 39.2651 21.3089 39.3337 21.2997C39.4744 21.2976 39.6113 21.2551 39.7268 21.1776C39.8117 21.1178 39.8807 21.0395 39.9282 20.9491C39.9757 20.8587 40.0003 20.7587 40 20.6573V18.088C39.9999 17.9526 39.9554 17.8206 39.8728 17.711C39.7902 17.6015 39.6738 17.5198 39.5402 17.4778ZM10.6814 29.0075C12.8195 29.0075 12.5413 29.0075 14.6794 29.0075V36.7154C12.5413 36.7154 12.8195 36.7154 10.6814 36.7154C10.6814 32.0159 10.6814 33.707 10.6814 29.0075ZM38.6673 19.7709L13.3467 11.8383V10.6243L38.6673 18.5569V19.7709Z" fill="#F2F2F2"/>
<path fill-rule="evenodd" clip-rule="evenodd" d="M21.3427 32.8614H29.3387C29.5154 32.8614 29.6849 32.7938 29.8099 32.6733C29.9348 32.5528 30.005 32.3895 30.005 32.2191V25.1536H30.6714C30.8481 25.1536 31.0176 25.0859 31.1425 24.9654C31.2675 24.845 31.3377 24.6816 31.3377 24.5113V21.942C31.3377 21.7716 31.2675 21.6082 31.1425 21.4878C31.0176 21.3673 30.8481 21.2997 30.6714 21.2997H20.01C19.8333 21.2997 19.6638 21.3673 19.5389 21.4878C19.4139 21.6082 19.3437 21.7716 19.3437 21.942V24.5113C19.3437 24.6816 19.4139 24.845 19.5389 24.9654C19.6638 25.0859 19.8333 25.1536 20.01 25.1536H20.6764V32.2191C20.6764 32.3895 20.7466 32.5528 20.8715 32.6733C20.9965 32.7938 21.166 32.8614 21.3427 32.8614ZM30.005 22.5843H20.6764V23.8689H30.005V22.5843ZM26.007 31.5768H28.6724V25.1536H26.007V31.5768ZM24.6744 31.5768V25.1536H22.009V31.5768H24.6744Z" fill="#F2F2F2"/>
<path d="M10.1394 27.9357C10.1496 28.0993 10.2243 28.2529 10.3482 28.3652C10.472 28.4774 10.6357 28.5398 10.8057 28.5395H10.8524C11.028 28.5279 11.1918 28.4498 11.3079 28.3223C11.424 28.1947 11.483 28.028 11.4721 27.8586L10.9613 21.017C11.8093 21.4996 14.2892 21.497 14.8745 21.4996C15.0512 21.4996 15.2207 21.4319 15.3456 21.3115C15.4706 21.191 15.5408 21.0276 15.5408 20.8573C15.5408 20.6869 15.4706 20.5235 15.3456 20.4031C15.2207 20.2826 15.0512 20.215 14.8745 20.215C14.1146 20.2142 12.0417 20.3362 10.5359 19.4113C9.89507 19.0177 9.3839 18.4562 9.06223 17.7926C9.00576 17.677 8.91482 17.5803 8.80104 17.5148C8.68725 17.4493 8.55579 17.418 8.42346 17.4249C8.29112 17.4318 8.16393 17.4766 8.05813 17.5535C7.95233 17.6304 7.87274 17.736 7.82952 17.8568C7.65896 18.3314 7.37529 18.7609 7.0013 19.1107C6.62731 19.4604 6.17342 19.7207 5.67611 19.8707C5.1788 20.0207 4.65193 20.0561 4.13784 19.9742C3.62374 19.8922 3.13675 19.6952 2.716 19.3989C2.29524 19.1026 1.95245 18.7152 1.71518 18.268C1.4779 17.8208 1.35275 17.3262 1.34977 16.8239C1.3468 16.3216 1.46609 15.8257 1.69806 15.3759C1.93003 14.9261 2.26822 14.535 2.68544 14.2341C2.75827 14.1825 2.81945 14.1172 2.86527 14.0421C2.91109 13.967 2.94059 13.8838 2.95197 13.7973C2.96236 13.7102 2.95412 13.6219 2.92776 13.538C2.9014 13.454 2.85748 13.3761 2.79871 13.3092C2.19078 12.6028 1.75597 11.7734 1.52665 10.8826C1.29734 9.99183 1.27943 9.06266 1.47426 8.16428C1.66908 7.2659 2.07163 6.42146 2.65192 5.69384C3.23222 4.96621 3.97531 4.37413 4.82586 3.9617C5.67642 3.54927 6.61254 3.3271 7.56451 3.31174C8.51648 3.29637 9.45979 3.48822 10.3242 3.87298C11.1886 4.25774 11.9518 4.8255 12.5571 5.534C14.2278 7.48975 14.2059 9.48861 14.4318 10.3802C14.4796 10.5397 14.5897 10.6752 14.7388 10.7582C14.888 10.8412 15.0648 10.8653 15.232 10.8254C15.3992 10.7855 15.5439 10.6848 15.6357 10.5443C15.7275 10.4038 15.7593 10.2345 15.7245 10.0719C15.4605 9.01553 15.3728 6.84743 13.6409 4.76553C12.9357 3.91786 12.0452 3.23059 11.0329 2.75272C10.0206 2.27485 8.91135 2.01816 7.78431 2.00093C6.65727 1.9837 5.54016 2.20637 4.51263 2.65306C3.4851 3.09975 2.57245 3.75945 1.83975 4.58515C1.10705 5.41084 0.572347 6.38219 0.273753 7.42994C-0.0248409 8.47769 -0.0799682 9.57603 0.112301 10.6467C0.304571 11.7173 0.739502 12.7339 1.38609 13.6239C0.904269 14.0889 0.534043 14.65 0.301477 15.2678C0.0689118 15.8855 -0.0203387 16.5449 0.0400101 17.1995C0.100359 17.8542 0.30884 18.4881 0.650773 19.0566C0.992706 19.6252 1.45978 20.1146 2.0191 20.4903V20.6573C2.02149 21.6252 2.27593 22.577 2.75907 23.4254C3.24222 24.2738 3.93861 24.9917 4.78438 25.5133L4.0181 37.3191C4.01269 37.4035 4.02461 37.4881 4.05319 37.568C4.08176 37.648 4.12643 37.7217 4.18462 37.7849C4.24281 37.8482 4.31339 37.8997 4.39229 37.9367C4.4712 37.9736 4.55689 37.9951 4.64445 38H4.68443C4.85444 38.0003 5.01814 37.9379 5.14201 37.8257C5.26588 37.7134 5.34056 37.5598 5.35076 37.3962L6.41689 20.9721C7.26355 20.648 7.99323 20.092 8.51584 19.3727C8.82203 19.7387 9.17846 20.0628 9.57531 20.3362L10.1394 27.9357ZM4.88433 23.9781C4.03755 23.2351 3.50391 22.2177 3.38508 21.1198C3.80724 21.2385 4.24469 21.299 4.68443 21.2996H5.05758L4.88433 23.9781Z" fill="#F2F2F2"/>
</svg>
