<svg width="40" height="40" viewBox="0 0 40 40" fill="none" xmlns="http://www.w3.org/2000/svg">
<path fill-rule="evenodd" clip-rule="evenodd" d="M39.9145 13.1276L39.9414 13.277C39.9792 13.5182 40 13.7654 40 14.0175C40 15.8202 38.988 17.3873 37.5 18.1884V37H2.5V18.1884C1.01078 17.3873 0 15.8203 0 14.0175C0 13.7654 0.0195313 13.5182 0.0573438 13.277L0.0829688 13.138C0.0847462 13.1286 0.0863607 13.1191 0.0879851 13.1095C0.0908586 13.0926 0.0937632 13.0755 0.0976562 13.0584L2.85641 6.31697V3H37.0972V6.31689L39.9023 13.059C39.9048 13.0704 39.9067 13.082 39.9085 13.0936L39.9086 13.0938C39.9104 13.105 39.9122 13.1163 39.9145 13.1276ZM31.9348 12.9515H38.0579L36.0425 8.02739H31.1987L31.9348 12.9515ZM35.4309 4.65817H4.52391V6.31697H35.4309V4.65817ZM30.5884 15.2116L30.498 14.6097H24.6094L24.6387 15.1976L25.1416 15.8645C25.7324 16.648 26.6358 17.0975 27.6184 17.0975C28.6011 17.0975 29.5045 16.648 30.0952 15.8645L30.5884 15.2116ZM24.2847 8.02739L24.5276 12.9515H30.2503L29.513 8.02739H24.2847ZM22.97 15.211L22.9407 14.6096H17.0459L17.0166 15.1933L17.522 15.8645C18.114 16.648 19.0161 17.0975 20 17.0975C20.9815 17.0975 21.8848 16.648 22.4756 15.8645L22.97 15.211ZM17.3804 8.02739L17.1302 12.9515H22.8589L22.6172 8.02739H17.3804ZM10.4858 8.02739L9.75828 12.9515H15.4613L15.7128 8.02739H10.4858ZM15.3454 15.2177L15.3759 14.6097H9.51414L9.42258 15.2274L9.90352 15.8645C10.4955 16.648 11.3977 17.0975 12.3803 17.0975C13.363 17.0975 14.2651 16.648 14.8571 15.8645L15.3454 15.2177ZM8.80133 8.02739H3.95633L1.94102 12.9515H8.07383L8.80133 8.02739ZM7.82953 14.6097H1.72359C2.00195 16.0262 3.25805 17.0976 4.76062 17.0976C5.74453 17.0976 6.64664 16.6481 7.23867 15.8646L7.69891 15.2541L7.82953 14.6097ZM25.8325 35.3431H32.5V22.0727H25.8325V27.8794H26.6663C27.1265 27.8794 27.5 28.25 27.5 28.7079C27.5 29.1658 27.1265 29.5364 26.6663 29.5364H25.8325V35.3431ZM35.8325 35.3431H35.8327V18.7194C35.6373 18.7437 35.4396 18.7564 35.237 18.7564C33.6793 18.7564 32.2975 18.0118 31.4284 16.8608C30.5592 18.0118 29.1762 18.7564 27.6185 18.7564C26.0609 18.7564 24.6778 18.0118 23.8087 16.8608C22.9395 18.0118 21.5577 18.7564 20.0001 18.7564C18.4424 18.7564 17.0581 18.0118 16.1902 16.8608C15.3211 18.0118 13.938 18.7564 12.3804 18.7564C10.8227 18.7564 9.43969 18.0118 8.57055 16.8608C7.70258 18.0118 6.31836 18.7564 4.7607 18.7564C4.56055 18.7564 4.36031 18.7436 4.16625 18.7194V35.3431H24.1663V20.4158H34.1663V35.3431H35.8325ZM32.7612 15.8646C33.352 16.6481 34.2554 17.0976 35.2368 17.0976C36.7407 17.0976 37.9956 16.0262 38.2739 14.6098H32.1826L32.2766 15.2244L32.7612 15.8646ZM5.83252 32.0243V20.4158H22.5V32.0243H5.83252ZM7.50002 30.3674H20.8325V22.0728H7.50002V30.3674ZM19.1602 26.22C18.9295 26.22 18.7207 26.3123 18.5705 26.4629L16.9043 28.1224C16.7529 28.2718 16.6602 28.4795 16.6602 28.7079C16.6602 29.1659 17.0337 29.5363 17.4927 29.5363C17.7234 29.5363 17.9321 29.444 18.0823 29.2934L19.7485 27.6364C19.8999 27.4858 19.9927 27.2781 19.9927 27.0485C19.9927 26.5917 19.6204 26.22 19.1602 26.22ZM18.5703 23.1466C18.7205 22.996 18.9292 22.9037 19.1599 22.9037C19.6202 22.9037 19.9924 23.2741 19.9924 23.7321C19.9924 23.9605 19.8997 24.1694 19.7483 24.3189L14.7483 29.2934C14.5981 29.444 14.3895 29.5363 14.1599 29.5363C13.6997 29.5363 13.3262 29.1659 13.3262 28.7079C13.3262 28.4795 13.4202 28.2706 13.5703 28.1211L18.5703 23.1466Z" fill="#F2F2F2"/>
</svg>
