<svg width="40" height="40" viewBox="0 0 40 40" fill="none" xmlns="http://www.w3.org/2000/svg">
<path fill-rule="evenodd" clip-rule="evenodd" d="M39.6224 32.8968L30.1486 28.4606C30.1395 28.4502 30.1289 28.441 30.1183 28.4318C30.1135 28.4277 30.1087 28.4235 30.1041 28.4193C30.0877 28.4042 30.0713 28.3897 30.0537 28.3759C30.0511 28.3739 30.0487 28.3719 30.0463 28.3697C30.0438 28.3675 30.0414 28.3651 30.0389 28.3628C30.0328 28.357 30.0266 28.3512 30.0196 28.3464C30.005 28.3366 29.9896 28.3298 29.974 28.323L29.9739 28.323C29.9664 28.3197 29.959 28.3165 29.9516 28.3129C29.9458 28.3098 29.9405 28.3062 29.9354 28.3026C29.9294 28.2984 29.9235 28.2944 29.9169 28.2912L25.2235 26.2731L17.7551 23.061L19.8174 22.3714L24.8275 24.452H24.8282L38.5719 30.1583C38.6517 30.1918 38.7368 30.2082 38.8219 30.2082C38.9495 30.2082 39.0765 30.1707 39.1858 30.0979C39.3671 29.9757 39.4764 29.7708 39.4764 29.5515V8.53615C39.4764 8.27018 39.3167 8.03047 39.0726 7.92934L33.8366 5.75491H33.836L20.0923 0.0485998C20.0438 0.0282413 19.9935 0.0151067 19.9424 0.00722597C19.9417 0.00722597 19.9413 0.00706178 19.9408 0.0068976L19.9408 0.00689617C19.9403 0.00673247 19.9398 0.00656924 19.9391 0.00656924C19.841 -0.00787878 19.7415 0.00197214 19.6472 0.0315249C19.6453 0.0321816 19.6431 0.0321816 19.641 0.0321816C19.6389 0.0321816 19.6368 0.0321816 19.6348 0.0328384L0 6.60012L0.414294 7.84593L19.1871 1.5663V21.1972L16.5691 22.0726V16.4169C16.5691 16.2087 16.471 16.013 16.3047 15.8889C16.1378 15.7654 15.9225 15.7273 15.7242 15.7884L0.670855 20.3855C0.395314 20.4696 0.20682 20.725 0.20682 21.014V27.5813V31.5216C0.20682 31.7745 0.351463 32.005 0.578572 32.114L7.54107 35.4554L4.51731 36.8346C4.28497 36.9396 4.13574 37.1715 4.13378 37.4269C4.13181 37.6824 4.27777 37.9162 4.50815 38.0259L8.43838 39.8943L8.99797 38.7069L6.34204 37.4447L9.08175 36.1956L15.6313 39.3387C15.6349 39.3405 15.6387 39.342 15.6424 39.3434C15.6509 39.3466 15.6596 39.349 15.6682 39.3514L15.6683 39.3514C15.6755 39.3534 15.6826 39.3553 15.6895 39.3577L15.6953 39.3598C15.7149 39.367 15.734 39.374 15.7543 39.3794C15.7923 39.3892 15.8309 39.3938 15.8695 39.3965C15.8742 39.3967 15.8788 39.3973 15.8833 39.398C15.8859 39.3985 15.8885 39.399 15.8912 39.3994C15.899 39.4009 15.9067 39.4024 15.9147 39.4024C15.9183 39.4024 15.9217 39.4016 15.925 39.4009L15.9251 39.4009C15.9271 39.4004 15.9291 39.4 15.931 39.3997C15.9716 39.3984 16.0109 39.3912 16.0501 39.3827C16.0572 39.381 16.0645 39.38 16.0717 39.3789H16.0718C16.0818 39.3774 16.0919 39.3759 16.1018 39.3728C16.107 39.3712 16.1121 39.3693 16.1173 39.3673C16.1224 39.3652 16.1275 39.3629 16.1327 39.3607L16.1328 39.3606C16.1392 39.3578 16.1457 39.355 16.1522 39.3525C16.1555 39.3512 16.1588 39.3508 16.162 39.3505C16.1653 39.3502 16.1686 39.3498 16.1719 39.3485L29.9162 33.438C30.1577 33.3355 30.3135 33.0978 30.3135 32.8351V29.9875L37.7806 33.4846L26.1156 38.8048L26.6575 40L39.6165 34.0894C39.8488 33.9837 39.9987 33.7512 40 33.4951C40.0013 33.239 39.8534 33.0052 39.6224 32.8968ZM34.2405 23.6409V17.0736V14.4467V7.34485L38.1674 8.97485V28.5683L34.2405 26.9377V23.6409ZM32.9315 26.3946L26.8552 23.8714L30.267 23.0164L32.9315 24.0855V26.3946ZM28.35 22.1429V16.9298L29.659 16.6014V21.8145L28.35 22.1429ZM30.968 21.8828V16.7302L31.9497 17.1242L32.9315 17.5182V22.6709L30.968 21.8828ZM32.9315 16.1036L31.9497 15.7096L30.968 15.3156V14.1032L32.9315 14.8913V16.1036ZM25.732 3.81165L32.9315 6.80108V13.4767L30.968 12.6886V10.5063H29.659V12.6203L25.732 13.6054V3.81165ZM25.732 14.9596L29.659 13.9745V15.2473L25.732 16.2324V14.9596ZM25.732 17.5865L27.041 17.2582V22.4713L25.732 22.7996V17.5865ZM20.4961 1.63788L24.4231 3.26854V14.4467V17.0736V22.862L20.4961 21.2314V1.63788ZM15.8767 23.6823L23.3196 26.8832L11.6277 32.0201L2.66248 27.7172L3.66909 27.4099L7.5967 26.2107L9.26958 25.6997L10.2147 25.4114H10.2153L14.1423 24.2123L15.8767 23.6823ZM4.13378 25.8955V24.1144L6.75175 23.239V25.0962L4.13378 25.8955ZM10.6787 23.897V22.1442L13.2967 21.2688V23.0971L12.2056 23.4301L10.6787 23.897ZM1.51581 21.5006L15.2602 17.3035V22.4982L14.6057 22.6978V20.3573C14.6057 20.1465 14.5049 19.9475 14.3341 19.8247C14.1619 19.7005 13.9427 19.6677 13.7444 19.734L9.81739 21.0475C9.54971 21.1375 9.36972 21.3877 9.36972 21.6707V24.2963L8.06074 24.6963V22.3274C8.06074 22.1166 7.95994 21.9183 7.78912 21.7948C7.61764 21.6714 7.39839 21.6379 7.19942 21.7042L3.27246 23.0177C3.00478 23.1076 2.82479 23.3579 2.82479 23.6409V26.2954L1.51581 26.6947V21.5006ZM15.2602 37.7034L9.37234 34.8775H9.37169L1.51581 31.1079V28.6235L15.2602 35.219V37.7034ZM15.9297 34.0842L13.1867 32.7681L24.9683 27.5924L27.9972 28.8947L15.9297 34.0842ZM29.0045 32.4023L16.5691 37.75V35.2387L29.0045 29.891V32.4023ZM14.3341 5.37667C14.162 5.2532 13.9427 5.21905 13.7444 5.28604L1.96354 9.22641C1.69585 9.31638 1.51587 9.56659 1.51587 9.84964V17.7304C1.51587 17.9412 1.61666 18.1395 1.78748 18.263C1.90071 18.3451 2.03488 18.3871 2.17036 18.3871C2.23974 18.3871 2.30977 18.3759 2.37718 18.3536L14.1581 14.4132C14.4257 14.3233 14.6057 14.0731 14.6057 13.79V5.90927C14.6057 5.69846 14.5049 5.50013 14.3341 5.37667ZM13.2967 13.3172L2.82486 16.8195V10.3231L13.2967 6.82081V13.3172ZM8.53813 11.7252L10.8701 9.38464L11.7955 10.3133L9.17757 12.9402C9.00282 13.1155 8.74298 13.1779 8.50802 13.0991L6.84823 12.5442L5.15113 13.6797L4.42529 12.5869L6.38877 11.2734C6.55698 11.1611 6.76707 11.1335 6.95884 11.1966L8.53813 11.7252Z" fill="#F2F2F2"/>
</svg>
