<svg width="40" height="40" viewBox="0 0 40 40" fill="none" xmlns="http://www.w3.org/2000/svg">
<path d="M39.257 34.0526H37.1511V18.233L28.6563 12.5866L24.5193 14.699V10.7288L13.86 4.5L3.71556 10.7399V34.0526H0.742963C0.332592 34.0526 0 34.3766 0 34.7767C0 35.176 0.332592 35.5 0.742963 35.5H3.71556H17.7096H18.4526H37.1518H39.2578C39.6674 35.5 40 35.176 40 34.7767C40 34.3766 39.6674 34.0526 39.257 34.0526ZM5.20074 15.5884L13.1267 11.6027V14.3469L5.20074 18.3577V15.5884ZM35.6652 25.4206L29.3496 23.565V19.8384L35.6652 22.8653V25.4206V25.4206ZM17.7096 18.1776V20.2347L14.6133 18.9667V15.8519L18.4563 17.796L17.7096 18.1776ZM13.1274 19.0685L5.20148 22.3132V19.9882L13.1274 15.9774V19.0685ZM13.1274 20.6385V23.878L5.20148 26.3661V23.8839L13.1274 20.6385ZM14.6133 20.5373L17.7096 21.8054V24.9128L14.6133 23.8868V20.5373ZM19.1956 23.3473L27.8637 19.7852V23.5798L19.1956 26.3602V23.3473ZM27.8637 18.2145L19.1956 21.7766V19.0538L27.8637 14.6267V18.2145ZM20.0593 16.9775L14.6126 14.2215V11.6573L22.2259 15.8704L20.0593 16.9775ZM5.20074 27.8858L13.1267 25.3977V28.539L5.20074 30.4175V27.8858ZM14.6133 25.4147L17.7096 26.4406V29.6425L14.6133 28.5936V25.4147ZM19.1956 27.8829L27.8637 25.1032V28.8704L19.1956 30.4662V27.8829ZM29.3496 25.0766L35.6652 26.9322V29.8145L29.3496 28.8505V25.0766ZM35.6652 21.2518L29.3496 18.2256V14.7994L35.6652 18.9977V21.2518V21.2518ZM23.0341 14.6525L14.6133 9.9929V6.62645L23.0341 11.5473V14.6525ZM13.1274 6.66262V9.97371L5.20148 13.9587V11.537L13.1274 6.66262ZM5.20074 31.9077L13.1267 30.0292V34.0533H5.20074V31.9077ZM14.6133 34.0526V30.1259L17.7096 31.1748V34.0519H14.6133V34.0526ZM19.1956 31.9387L27.8637 30.3429V34.0526H19.1956V31.9387ZM29.3496 34.0526V30.3156L35.6652 31.2796V34.0526H29.3496V34.0526Z" fill="#F2F2F2"/>
</svg>
