<svg width="40" height="40" viewBox="0 0 40 40" fill="none" xmlns="http://www.w3.org/2000/svg">
<path fill-rule="evenodd" clip-rule="evenodd" d="M38.5708 34.0277H39.2584C39.6679 34.0277 40 34.3573 40 34.7638C40 35.1704 39.6679 35.5 39.2584 35.5H0.741599C0.332051 35.5 0 35.1704 0 34.7638C0 34.3573 0.332051 34.0277 0.741599 34.0277H1.42906V18.2674L1.07411 18.4441C0.96927 18.4964 0.855249 18.5223 0.741599 18.5223C0.606165 18.5223 0.471194 18.4855 0.352167 18.4127C0.133302 18.2786 0 18.0415 0 17.7862V14.8291C0 14.5508 0.158331 14.2962 0.408992 14.1713L19.6674 4.57822C19.8768 4.47387 20.1235 4.47396 20.3328 4.57831L30.421 9.60747V7.51061C30.421 7.10407 30.7531 6.77445 31.1626 6.77445H35.5736C35.9831 6.77445 36.3152 7.10407 36.3152 7.51061V12.5458L39.5757 14.1713C39.8263 14.2962 39.9845 14.5508 39.9845 14.8291V17.7862C39.9845 18.0416 39.8512 18.2787 39.6323 18.4128C39.4134 18.5468 39.1401 18.5587 38.9101 18.444L38.5708 18.2749V34.0277ZM23.6771 20.7308H16.3075V34.0277H23.6771V20.7308ZM37.0877 31.014H25.1603V34.0277H37.0877V31.014ZM31.9042 8.24677V10.3019C31.9042 10.3131 31.9035 10.324 31.9027 10.3349C31.9024 10.3385 31.9022 10.3421 31.9019 10.3457L34.832 11.8065V8.24677H31.9042ZM19.9999 6.05983L1.4832 15.2834V16.5932L19.6674 7.53518C19.8768 7.43083 20.1235 7.43092 20.3328 7.53527L38.5013 16.5927V15.2832L19.9999 6.05983ZM37.0956 17.5395L19.9999 9.01679L2.90345 17.533C2.90874 17.5686 2.91235 17.6045 2.91235 17.6415V29.5417H14.8243V19.9947C14.8243 19.5881 15.1563 19.2585 15.5659 19.2585H24.4187C24.8283 19.2585 25.1603 19.5881 25.1603 19.9947V29.5417H37.0877V17.6414C37.0877 17.6068 37.091 17.5729 37.0956 17.5395ZM14.8243 31.014H2.91235V34.0277H14.8243V31.014ZM6.66661 28.0848H5.86318C5.45363 28.0848 5.12158 27.7552 5.12158 27.3486C5.12158 26.9421 5.45363 26.6125 5.86318 26.6125H5.92501V19.9947C5.92501 19.5882 6.25706 19.2585 6.66661 19.2585H11.8191C12.2287 19.2585 12.5607 19.5882 12.5607 19.9947V26.6155C12.9414 26.6468 13.2405 26.9628 13.2405 27.3486C13.2405 27.7552 12.9085 28.0848 12.4989 28.0848H11.8191H6.66661ZM11.0775 22.9355V20.7309H7.40821V22.9355H11.0775ZM11.0775 24.4078H7.40821V26.6125H11.0775V24.4078ZM17.798 26.6127C17.9936 26.6127 18.1846 26.6909 18.3227 26.828C18.4608 26.9651 18.5396 27.1547 18.5396 27.3488C18.5396 27.5421 18.4608 27.7316 18.3227 27.8687C18.1846 28.0059 17.9936 28.085 17.798 28.085C17.6033 28.085 17.4114 28.0059 17.2742 27.8687C17.1361 27.7326 17.0564 27.5421 17.0564 27.3488C17.0564 27.1547 17.1361 26.9651 17.2742 26.828C17.4124 26.6909 17.6033 26.6127 17.798 26.6127ZM27.412 28.0848H28.2154H33.368H34.0477C34.4573 28.0848 34.7893 27.7552 34.7893 27.3486C34.7893 26.9628 34.4901 26.6468 34.1096 26.6155V19.9947C34.1096 19.5882 33.7775 19.2585 33.368 19.2585H28.2154C27.8059 19.2585 27.4738 19.5882 27.4738 19.9947V26.6125H27.412C27.0025 26.6125 26.6704 26.9421 26.6704 27.3486C26.6704 27.7552 27.0025 28.0848 27.412 28.0848ZM32.6264 20.7309V22.9355H28.957V20.7309H32.6264ZM28.957 24.4078H32.6264V26.6125H28.957V24.4078Z" fill="#F2F2F2"/>
</svg>
