<svg width="40" height="40" viewBox="0 0 40 40" fill="none" xmlns="http://www.w3.org/2000/svg">
<path fill-rule="evenodd" clip-rule="evenodd" d="M40 20.0001C40 24.406 38.5667 28.483 36.1435 31.7916L37.6234 33.2714C37.9238 33.5717 37.9238 34.0588 37.6234 34.3592L34.3597 37.623C34.2095 37.7732 34.0125 37.8483 33.8157 37.8483C33.6189 37.8483 33.4219 37.7732 33.2718 37.623L31.7919 36.1432C28.4832 38.5666 24.4061 40 20 40C15.5938 40 11.5167 38.5666 8.20799 36.1432L6.72812 37.6231C6.57796 37.7733 6.38103 37.8484 6.1842 37.8484C5.98737 37.8484 5.79044 37.7733 5.64028 37.6231L2.37653 34.3593C2.23221 34.2151 2.15118 34.0194 2.15118 33.8154C2.15118 33.6114 2.23221 33.4157 2.37653 33.2715L3.8565 31.7916C1.4332 28.483 0 24.4061 0 20.0001C0 15.5939 1.4333 11.5168 3.8567 8.20799L2.37653 6.72782C2.0761 6.42749 2.0761 5.94039 2.37653 5.63997L5.64028 2.37622C5.9406 2.07579 6.4277 2.07579 6.72812 2.37622L8.2084 3.8565C11.517 1.4333 15.5939 0 20 0C24.406 0 28.4829 1.4332 31.7916 3.8565L33.2718 2.37632C33.5723 2.0759 34.0593 2.0759 34.3597 2.37632L37.6234 5.64007C37.9238 5.94039 37.9238 6.42749 37.6234 6.72792L36.1432 8.20809C38.5666 11.5168 40 15.5939 40 20.0001ZM35.9915 6.18399L33.8157 4.00809L33.0052 4.8187C33.7847 5.48745 34.5122 6.21497 35.181 6.99449L35.9915 6.18399ZM6.1842 4.0082L4.0084 6.18399L4.8188 6.99449C5.48765 6.21497 6.21517 5.48745 6.9947 4.8187L6.1842 4.0082ZM4.0084 33.8154L6.1842 35.9912L6.99439 35.1811C6.21487 34.5122 5.48734 33.7847 4.81859 33.0052L4.0084 33.8154ZM20 1.53854C9.82027 1.53854 1.53854 9.82038 1.53854 20.0001C1.53854 30.1797 9.82027 38.4615 20 38.4615C30.1797 38.4615 38.4615 30.1797 38.4615 20.0001C38.4615 9.82038 30.1797 1.53854 20 1.53854ZM33.0055 35.1811L33.8157 35.9912L35.9915 33.8153L35.1813 33.0052C34.5126 33.7848 33.785 34.5123 33.0055 35.1811ZM19.9999 3.10538C10.6842 3.10538 3.10537 10.6843 3.10537 20.0001C3.10537 29.3158 10.6843 36.8946 19.9999 36.8946C29.3156 36.8946 36.8945 29.3157 36.8945 20.0001C36.8946 10.6843 29.3157 3.10538 19.9999 3.10538ZM19.9999 35.3561C11.5325 35.3561 4.64391 28.4673 4.64391 20.0001C4.64391 11.5327 11.5327 4.64392 19.9999 4.64392C28.4673 4.64392 35.356 11.5327 35.356 20.0001C35.3561 28.4673 28.4673 35.3561 19.9999 35.3561ZM32.8567 21.8809H28.7202V18.1188H32.8567C33.2816 18.1188 33.6259 17.7744 33.6259 17.3496C33.6259 16.9247 33.2816 16.5803 32.8567 16.5803H28.7202V12.8191H30.4409C30.8658 12.8191 31.2101 12.4747 31.2101 12.0498C31.2101 11.625 30.8658 11.2806 30.4409 11.2806H28.7202V9.55964C28.7202 9.1348 28.3758 8.79038 27.9509 8.79038C27.5259 8.79038 27.1816 9.1348 27.1816 9.55964V11.2804H23.4196V7.14394C23.4196 6.7191 23.0753 6.37467 22.6503 6.37467C22.2254 6.37467 21.8811 6.7191 21.8811 7.14394V11.2804H18.119V7.14394C18.119 6.7191 17.7746 6.37467 17.3498 6.37467C16.9249 6.37467 16.5805 6.7191 16.5805 7.14394V11.2804H12.8193V9.55882C12.8193 9.13398 12.4748 8.78956 12.05 8.78956C11.6252 8.78956 11.2807 9.13398 11.2807 9.55882V11.2804H9.55902C9.13417 11.2804 8.78975 11.6249 8.78975 12.0497C8.78975 12.4746 9.13417 12.819 9.55902 12.819H11.2806V16.5802H7.14413C6.71929 16.5802 6.37486 16.9246 6.37486 17.3495C6.37486 17.7743 6.71929 18.1187 7.14413 18.1187H11.2806V21.8808H7.14413C6.71929 21.8808 6.37486 22.2252 6.37486 22.65C6.37486 23.0749 6.71929 23.4193 7.14413 23.4193H11.2806V27.1813H9.55902C9.13417 27.1813 8.78975 27.5258 8.78975 27.9506C8.78975 28.3754 9.13417 28.7199 9.55902 28.7199H11.2806V30.4415C11.2806 30.8663 11.6251 31.2108 12.0499 31.2108C12.4747 31.2108 12.8192 30.8663 12.8192 30.4415V28.7199H16.5804V32.8564C16.5804 33.2812 16.9248 33.6256 17.3497 33.6256C17.7745 33.6256 18.1189 33.2812 18.1189 32.8564V28.7199H21.8809V32.8564C21.8809 33.2812 22.2253 33.6256 22.6502 33.6256C23.0752 33.6256 23.4195 33.2812 23.4195 32.8564V28.7199H27.1816V30.4407C27.1816 30.8655 27.5259 31.2099 27.9509 31.2099C28.3758 31.2099 28.7202 30.8655 28.7202 30.4407V28.7199H30.4409C30.8658 28.7199 31.2101 28.3754 31.2101 27.9506C31.2101 27.5258 30.8658 27.1813 30.4409 27.1813H28.7202V23.4193H32.8567C33.2816 23.4193 33.6259 23.0749 33.6259 22.65C33.6259 22.2252 33.2816 21.8809 32.8567 21.8809ZM27.1816 21.8809H23.4196V18.1188H27.1817V21.8809H27.1816ZM21.8811 21.8809H18.119V18.1188H21.8811V21.8809ZM27.1816 12.819V16.5802H23.4196V12.819H27.1816ZM21.8811 12.819V16.5802H18.119V12.819H21.8811ZM12.8192 12.819H16.5804V16.5802H12.8192V12.819ZM12.8192 18.1187H16.5804V21.8808H12.8192V18.1187ZM12.8192 27.1814V23.4194H16.5804V27.1814H12.8192ZM18.1189 27.1814V23.4194H21.8809V27.1814H18.1189ZM27.1816 27.1814H23.4196V23.4194H27.1817V27.1814H27.1816Z" fill="#F2F2F2"/>
</svg>
