<svg width="40" height="40" viewBox="0 0 40 40" fill="none" xmlns="http://www.w3.org/2000/svg">
<path fill-rule="evenodd" clip-rule="evenodd" d="M34.3764 17.2857H37.551C38.8209 17.2857 39.9093 18.3714 40 19.5476C40 19.9095 39.9093 20.2714 39.7279 20.6333L38.5488 22.9857C38.0952 23.981 37.0975 24.5238 36.0998 24.5238H34.4671V35.381C34.4671 37.3714 32.8345 39 30.839 39H9.0703C7.07483 39 5.44218 37.3714 5.44218 35.381V24.5238H3.90023C2.81179 24.5238 1.90476 23.8905 1.45125 22.9857L0.272109 20.7238C0.090703 20.3619 0 20 0 19.6381C0 18.3714 1.08844 17.2857 2.35828 17.2857H5.53288C5.98639 14.2095 8.61678 11.8571 11.7914 11.8571H15.6009L15.9637 10.319C16.2358 9.05238 17.3243 8.2381 18.5941 8.2381H23.0385C24.3084 8.2381 25.3968 9.05238 25.7596 10.319L26.1224 11.8571H28.1179C31.2925 11.8571 33.9229 14.2095 34.3764 17.2857ZM18.6848 10.0476C18.2313 10.0476 17.8685 10.4095 17.7778 10.7714L17.5964 11.8571H24.3084L24.0363 10.7714C23.9456 10.319 23.5828 10.0476 23.1293 10.0476H18.6848ZM28.1179 13.6667H11.7914C9.61451 13.6667 7.80045 15.2048 7.34694 17.2857H32.5624C32.1088 15.2048 30.2948 13.6667 28.1179 13.6667ZM2.9932 22.1714C3.1746 22.5333 3.44671 22.7143 3.80952 22.7143H5.44218V19.0952H2.35828C2.08617 19.0952 1.81406 19.3667 1.81406 19.6381V19.9095L2.9932 22.1714ZM30.839 37.1905C31.8367 37.1905 32.6531 36.3762 32.6531 35.381V23.619V19.0952H7.25624V23.619V35.381C7.25624 36.3762 8.07256 37.1905 9.0703 37.1905H30.839ZM36.8254 22.2619L38.0045 19.9095C38.0952 19.819 38.0952 19.7286 38.0952 19.7286C38.0952 19.4571 37.8231 19.1857 37.551 19.1857H34.4671V22.8048H36.0091C36.3719 22.8048 36.644 22.5333 36.8254 22.2619ZM31.1111 9.68571C30.7483 9.32381 30.839 8.78095 31.2018 8.41905C31.5646 8.14762 31.746 7.78571 31.746 7.33333C31.746 6.88095 31.5646 6.51905 31.1111 6.15714C30.7483 5.88571 30.6576 5.25238 31.0204 4.89048C31.2925 4.52857 31.9274 4.4381 32.2902 4.8C33.1066 5.52381 33.5601 6.3381 33.5601 7.33333C33.5601 8.32857 33.1066 9.14286 32.381 9.86667C32.2903 9.95714 32.0181 10.0476 31.8367 10.0476C31.5646 10.0476 31.2925 9.86667 31.1111 9.68571ZM28.1179 7.33333C28.1179 6.88095 27.9365 6.51905 27.483 6.24762C27.483 6.15714 27.483 6.15714 27.3923 6.06667C26.6667 5.43333 26.3039 4.61905 26.3039 3.71429C26.3039 2.71905 26.7574 1.90476 27.483 1.18095C27.6644 1.09048 27.9365 1 28.1179 1C28.39 1 28.6621 1.09048 28.7528 1.3619C29.1156 1.72381 29.0249 2.26667 28.6621 2.62857C28.2993 2.9 28.1179 3.2619 28.1179 3.71429C28.1179 4.16667 28.2993 4.52857 28.7528 4.89048L28.8435 4.98095C29.5692 5.61429 29.932 6.42857 29.932 7.33333C29.932 8.32857 29.4785 9.14286 28.7528 9.86667C28.6621 9.95714 28.39 10.0476 28.2086 10.0476C27.9365 10.0476 27.6644 9.86667 27.483 9.68571C27.1202 9.32381 27.2109 8.78095 27.5737 8.41905C27.9365 8.14762 28.1179 7.78571 28.1179 7.33333ZM32.6529 2.80954C32.6529 3.30922 32.2468 3.7143 31.7459 3.7143C31.245 3.7143 30.8389 3.30922 30.8389 2.80954C30.8389 2.30985 31.245 1.90478 31.7459 1.90478C32.2468 1.90478 32.6529 2.30985 32.6529 2.80954Z" fill="#F2F2F2"/>
</svg>
