<svg width="40" height="40" viewBox="0 0 40 40" fill="none" xmlns="http://www.w3.org/2000/svg">
<path d="M39.4141 2.34375H27.1484C27.0715 2.34374 26.9953 2.3589 26.9242 2.38834C26.8531 2.41778 26.7885 2.46094 26.7341 2.51535C26.6797 2.56976 26.6365 2.63436 26.6071 2.70545C26.5776 2.77654 26.5625 2.85274 26.5625 2.92969V6.95312H25.3906V2.53906C25.391 2.17659 25.5352 1.82908 25.7915 1.57277C26.0478 1.31646 26.3953 1.17229 26.7578 1.17188H39.4141C39.5695 1.17188 39.7185 1.11014 39.8284 1.00026C39.9383 0.890373 40 0.741338 40 0.585938C40 0.430537 39.9383 0.281502 39.8284 0.171617C39.7185 0.0617325 39.5695 0 39.4141 0L26.7578 0C26.0846 0.000752068 25.4393 0.268501 24.9633 0.744505C24.4873 1.22051 24.2195 1.86589 24.2188 2.53906V7.0171C23.8482 7.11956 23.5214 7.34071 23.2886 7.64666C23.0558 7.9526 22.9297 8.32647 22.9297 8.71094C22.9297 9.09541 23.0558 9.46927 23.2886 9.77522C23.5214 10.0812 23.8482 10.3023 24.2188 10.4048V13.2756H15.7812V10.4048C16.1518 10.3023 16.4786 10.0812 16.7114 9.77522C16.9442 9.46927 17.0703 9.09541 17.0703 8.71094C17.0703 8.32647 16.9442 7.9526 16.7114 7.64666C16.4786 7.34071 16.1518 7.11956 15.7812 7.0171V2.53906C15.7805 1.86589 15.5127 1.22051 15.0367 0.744512C14.5607 0.26851 13.9154 0.000758671 13.2422 0L0.585938 0C0.430537 0 0.281502 0.0617325 0.171617 0.171617C0.0617325 0.281502 0 0.430537 0 0.585938C0 0.741338 0.0617325 0.890373 0.171617 1.00026C0.281502 1.11014 0.430537 1.17187 0.585938 1.17188H13.2422C13.6047 1.17229 13.9522 1.31646 14.2085 1.57277C14.4648 1.82908 14.609 2.17659 14.6094 2.53906V6.95312H13.4375V2.92969C13.4375 2.85274 13.4223 2.77655 13.3929 2.70546C13.3635 2.63437 13.3203 2.56977 13.2659 2.51536C13.2115 2.46095 13.1469 2.41779 13.0758 2.38835C13.0047 2.3589 12.9285 2.34375 12.8516 2.34375H0.585938C0.430537 2.34375 0.281502 2.40548 0.171617 2.51537C0.0617325 2.62525 0 2.77429 0 2.92969C0 3.08509 0.0617325 3.23412 0.171617 3.34401C0.281502 3.45389 0.430537 3.51562 0.585938 3.51562H12.2656V7.0171C11.8951 7.11956 11.5683 7.34071 11.3355 7.64666C11.1026 7.9526 10.9766 8.32647 10.9766 8.71094C10.9766 9.09541 11.1026 9.46927 11.3355 9.77522C11.5683 10.0812 11.8951 10.3023 12.2656 10.4048V13.2756H9.7451C8.96837 13.2765 8.2237 13.5854 7.67447 14.1347C7.12523 14.6839 6.81629 15.4286 6.81541 16.2053V37.0703C6.81629 37.847 7.12523 38.5917 7.67447 39.1409C8.2237 39.6902 8.96837 39.9991 9.7451 40H29.083C29.8598 39.9991 30.6044 39.6902 31.1537 39.1409C31.7029 38.5917 32.0118 37.847 32.0127 37.0703V16.2053C32.0118 15.4286 31.7029 14.6839 31.1537 14.1347C30.6044 13.5854 29.8598 13.2765 29.083 13.2756H27.7344V10.4048C28.1049 10.3023 28.4317 10.0812 28.6645 9.77522C28.8974 9.46927 29.0234 9.09541 29.0234 8.71094C29.0234 8.32647 28.8974 7.9526 28.6645 7.64666C28.4317 7.34071 28.1049 7.11956 27.7344 7.0171V3.51562H39.4141C39.5695 3.51562 39.7185 3.45389 39.8284 3.34401C39.9383 3.23412 40 3.08509 40 2.92969C40 2.77429 39.9383 2.62525 39.8284 2.51537C39.7185 2.40548 39.5695 2.34375 39.4141 2.34375ZM12.1484 8.71094C12.1486 8.55559 12.2104 8.40665 12.3202 8.2968C12.4301 8.18696 12.579 8.12517 12.7344 8.125H15.3125C15.4679 8.125 15.6169 8.18673 15.7268 8.29662C15.8367 8.4065 15.8984 8.55554 15.8984 8.71094C15.8984 8.86634 15.8367 9.01537 15.7268 9.12526C15.6169 9.23514 15.4679 9.29688 15.3125 9.29688H12.7344C12.579 9.29671 12.4301 9.23492 12.3202 9.12507C12.2104 9.01522 12.1486 8.86629 12.1484 8.71094ZM14.6094 10.4688V13.2756H13.4375V10.4688H14.6094ZM29.083 14.4475C29.5491 14.448 29.9959 14.6334 30.3254 14.9629C30.6549 15.2925 30.8403 15.7393 30.8408 16.2053V37.0703C30.8403 37.5363 30.6549 37.9831 30.3254 38.3127C29.9959 38.6422 29.5491 38.8276 29.083 38.8281H9.7451C9.27906 38.8276 8.83226 38.6422 8.50272 38.3127C8.17318 37.9832 7.98782 37.5364 7.98729 37.0703V16.2053C7.98782 15.7393 8.17318 15.2925 8.50272 14.9629C8.83226 14.6334 9.27906 14.448 9.7451 14.4475H12.8485C12.8496 14.4475 12.8505 14.4476 12.8516 14.4476C12.8526 14.4476 12.8536 14.4475 12.8546 14.4475H15.1923C15.1933 14.4475 15.1943 14.4476 15.1953 14.4476C15.1963 14.4476 15.1973 14.4475 15.1983 14.4475H24.8017C24.8027 14.4475 24.8037 14.4476 24.8047 14.4476C24.8057 14.4476 24.8067 14.4475 24.8077 14.4475H27.1454C27.1464 14.4475 27.1474 14.4476 27.1484 14.4476C27.1495 14.4476 27.1504 14.4475 27.1515 14.4475H29.083ZM25.3906 13.2756V10.4688H26.5625V13.2756H25.3906ZM27.8516 8.71094C27.8514 8.86629 27.7896 9.01522 27.6798 9.12507C27.5699 9.23492 27.421 9.29671 27.2656 9.29688H24.6875C24.5321 9.29688 24.3831 9.23514 24.2732 9.12526C24.1633 9.01537 24.1016 8.86634 24.1016 8.71094C24.1016 8.55554 24.1633 8.4065 24.2732 8.29662C24.3831 8.18673 24.5321 8.125 24.6875 8.125H27.2656C27.421 8.12517 27.5699 8.18696 27.6798 8.2968C27.7896 8.40665 27.8514 8.55559 27.8516 8.71094ZM25.8276 16.6849H13.0005C12.5752 16.6854 12.1675 16.8545 11.8668 17.1552C11.5661 17.4559 11.397 17.8636 11.3965 18.2889V20.9344C11.397 21.3597 11.5661 21.7674 11.8668 22.0681C12.1675 22.3688 12.5752 22.538 13.0005 22.5385H25.8276C26.2529 22.538 26.6606 22.3688 26.9613 22.0681C27.262 21.7674 27.4311 21.3597 27.4316 20.9344V18.2889C27.4311 17.8636 27.262 17.4559 26.9613 17.1552C26.6606 16.8545 26.2529 16.6854 25.8276 16.6849ZM26.2597 20.9344C26.2596 21.049 26.214 21.1588 26.133 21.2399C26.052 21.3209 25.9422 21.3664 25.8276 21.3666H13.0005C12.8859 21.3664 12.7761 21.3209 12.6951 21.2399C12.6141 21.1588 12.5685 21.049 12.5684 20.9344V18.2889C12.5685 18.1743 12.6141 18.0645 12.6951 17.9835C12.7761 17.9025 12.8859 17.8569 13.0005 17.8568H25.8276C25.9422 17.8569 26.052 17.9025 26.133 17.9835C26.214 18.0645 26.2596 18.1743 26.2597 18.2889V20.9344ZM21.1954 25.0507C20.8076 24.9084 20.4027 24.8179 19.9912 24.7818C19.8789 24.7718 19.766 24.7944 19.6662 24.8469C19.5664 24.8995 19.4839 24.9797 19.4286 25.078C19.3732 25.1763 19.3474 25.2884 19.3543 25.401C19.3611 25.5136 19.4003 25.6218 19.4671 25.7127C19.7025 26.03 19.8518 26.4028 19.9006 26.7949C19.9548 27.2555 19.8646 27.6971 19.7433 27.9305C19.5596 27.5216 19.3417 27.1289 19.0917 26.7567C18.9661 26.5697 18.8192 26.398 18.654 26.245C18.2163 25.8415 17.6745 25.5684 17.0898 25.4563C16.9953 25.4368 16.8974 25.441 16.8048 25.4685C16.7123 25.496 16.6279 25.5459 16.5593 25.6139C16.4907 25.6818 16.44 25.7656 16.4116 25.8579C16.3832 25.9502 16.378 26.0481 16.3966 26.1428C16.5153 26.7252 16.5179 27.3252 16.4043 27.9086C16.2716 28.569 16.0716 28.9437 15.8183 29.4181C15.6206 29.7746 15.4455 30.1432 15.294 30.5216C14.8734 31.5973 14.8778 32.7926 15.3061 33.8651C15.7661 34.9915 16.7216 35.9138 17.9275 36.3955C18.4778 36.6158 19.0631 36.7355 19.6557 36.7488C19.7865 36.7707 19.9188 36.7817 20.0514 36.782C20.2183 36.7824 20.3846 36.7637 20.5473 36.7263C20.6738 36.6971 20.7973 36.6561 20.9162 36.6039C21.1457 36.544 21.3698 36.4651 21.5862 36.368C23.424 35.5408 24.7919 33.6041 24.99 31.5487C25.256 28.7876 23.5892 25.9333 21.1954 25.0507V25.0507ZM21.3021 33.8966C21.2773 34.2624 21.0855 35.1781 20.5094 35.4966C20.267 35.5513 20.0194 35.5793 19.771 35.5801C19.5479 35.5285 19.3383 35.4303 19.156 35.2918C18.8873 35.0908 18.7061 34.8281 18.6942 34.6227C18.6882 34.519 18.7243 34.2294 19.1872 33.7826C19.3425 33.6346 19.5223 33.5146 19.7186 33.4279C19.9479 33.3138 20.2333 33.1717 20.4691 32.833C20.5931 32.6538 20.682 32.4527 20.7313 32.2405C21.133 32.7359 21.3413 33.3171 21.3021 33.8966ZM23.8235 31.4362C23.7194 32.5164 23.1901 33.5803 22.4229 34.3633C22.4458 34.2351 22.462 34.1058 22.4712 33.976V33.9759C22.5648 32.5931 21.7625 31.2359 20.3772 30.434C20.2765 30.3757 20.1607 30.3487 20.0447 30.3564C19.9286 30.3642 19.8174 30.4063 19.7253 30.4774C19.6333 30.5486 19.5645 30.6455 19.5277 30.7559C19.491 30.8663 19.4879 30.9851 19.5189 31.0973C19.6136 31.4401 19.6886 31.9032 19.5074 32.1633C19.4458 32.2519 19.3836 32.2856 19.1964 32.3788C18.8928 32.5188 18.6147 32.7082 18.3733 32.9395C17.6295 33.6575 17.501 34.2879 17.5243 34.6903C17.5278 34.7463 17.5344 34.802 17.5438 34.8573C16.9357 34.4339 16.4897 33.8162 16.2792 33.1057C16.0687 32.3953 16.1062 31.6343 16.3855 30.948C16.5204 30.6125 16.6762 30.2859 16.8521 29.97C17.1148 29.4779 17.3866 28.9689 17.5533 28.1394C17.6321 27.7454 17.6673 27.3439 17.6583 26.9422C17.7272 26.9908 17.7926 27.044 17.8542 27.1014C17.9557 27.195 18.0458 27.3003 18.1224 27.4152C18.4404 27.8835 18.8305 28.6354 18.9352 29.18C18.9504 29.2587 18.9815 29.3335 19.0267 29.3997C19.0719 29.4659 19.1303 29.5222 19.1981 29.5649C19.6526 29.8515 19.9995 29.4557 20.2783 29.1376C20.4167 28.9798 20.592 28.7693 20.6388 28.7048C20.9873 28.2255 21.1543 27.422 21.0644 26.658C21.0474 26.5133 21.0209 26.37 20.9851 26.2289C22.7693 27.0108 24.0299 29.2944 23.8235 31.4362V31.4362Z" fill="#F2F2F2"/>
</svg>
