<svg width="40" height="40" viewBox="0 0 40 40" fill="none" xmlns="http://www.w3.org/2000/svg">
<g clip-path="url(#clip0)">
<path fill-rule="evenodd" clip-rule="evenodd" d="M38 22.8054C38 23.6175 37.6867 24.3813 37.1181 24.9557C36.6924 25.3853 36.1606 25.6707 35.5827 25.7873V38.8075H36.2936C36.6141 38.8075 36.8737 39.07 36.8737 39.3935C36.8737 39.7173 36.6141 39.9794 36.2936 39.9794H35.1524C35.1047 39.9925 35.0545 40.0001 35.0026 40.0001H4.99773C4.94577 40.0001 4.89561 39.9925 4.84788 39.9794H3.70673C3.38647 39.9794 3.12664 39.7173 3.12664 39.3935C3.12664 39.07 3.38647 38.8075 3.70673 38.8075H4.41734V25.786C3.04054 25.5053 2 24.2733 2 22.8054C2 22.5982 2.07946 22.4023 2.22358 22.2533L2.23264 22.2442C2.38008 22.0986 2.57405 22.0183 2.77919 22.0183H4.75392L6.65764 20.342L8.32298 11.314C8.64807 9.55288 9.81852 8.08835 11.4536 7.39621L12.7582 6.84385C12.8767 6.7938 12.9963 6.74772 13.1172 6.70499C12.7181 6.23533 12.4761 5.62559 12.4761 4.9597V2.68401C12.4761 1.20422 13.6683 0 15.1336 0H15.6146C17.0796 0 18.2718 1.20422 18.2718 2.68401V4.9597C18.2718 5.64329 18.0168 6.26798 17.5987 6.74222C17.7008 6.78037 17.802 6.82035 17.902 6.86338L19.183 7.41666C20.7532 8.09598 21.901 9.50893 22.2536 11.1962L24.2268 20.6469L25.8468 22.0183H37.2208C37.6504 22.0183 38 22.3714 38 22.8054ZM9.46352 11.5289C9.7167 10.1571 10.6285 9.01608 11.902 8.47714L13.2066 7.92447C13.6166 7.75113 14.0459 7.62997 14.4843 7.56223C14.6922 7.61533 14.9094 7.64371 15.1336 7.64371H15.6146C15.8191 7.64371 16.0179 7.61929 16.2095 7.57504C16.6343 7.64737 17.0497 7.76974 17.4458 7.94095L18.7265 8.49392C19.9495 9.0231 20.8438 10.1239 21.1185 11.4382L23.092 20.8904C23.1437 21.1431 23.2802 21.3741 23.4772 21.5414L24.0407 22.0183H23.5207C22.8186 22.0183 22.2059 21.5386 22.0306 20.8514L20.0018 12.897C19.9154 12.5625 19.6063 12.3513 19.2661 12.3956C18.9265 12.4398 18.68 12.7227 18.68 13.0688V19.0859H17.0029C16.9159 19.0603 16.8216 19.0545 16.7267 19.0737C16.7101 19.0771 16.6944 19.0813 16.6784 19.0859H11.9047L11.6618 12.821C11.6506 12.4932 11.3981 12.2265 11.0742 12.2006C10.75 12.1746 10.4587 12.3986 10.3971 12.7197L8.84838 20.7003C8.70004 21.4641 8.03323 22.0183 7.2628 22.0183H6.51926L7.44771 21.2011C7.62627 21.0455 7.74833 20.8297 7.79123 20.5941L9.46352 11.5289ZM13.6362 4.9597V2.68401C13.6362 1.85027 14.3079 1.17187 15.1336 1.17187H15.6146C16.44 1.17187 17.1116 1.85027 17.1116 2.68401V4.9597C17.1116 5.79343 16.44 6.47184 15.6146 6.47184H15.1336C14.3079 6.47184 13.6362 5.79343 13.6362 4.9597ZM20.9073 21.1437C20.9889 21.4641 21.1254 21.7583 21.304 22.0183H20.5076L19.8402 19.5922V16.9604L20.9073 21.1437ZM18.8193 20.2581L20.1438 25.0735C20.1677 25.1598 20.1855 25.2489 20.1985 25.3451C20.2109 25.4308 20.2172 25.5224 20.2172 25.6167V27.7233C19.2749 28.08 18.2902 28.3394 17.2899 28.4938C17.2195 28.5048 17.1491 28.5149 17.0784 28.525C16.6053 27.9357 15.8802 26.8181 15.9925 25.6109C16.0573 24.9158 16.4048 24.0547 16.4101 24.0417C16.5678 23.6554 16.7067 23.4268 16.8409 23.2062L16.8409 23.2061C16.9455 23.0343 17.0536 22.8564 17.1591 22.6259C17.4745 21.9366 17.5923 21.1422 17.5135 20.2581H18.8193ZM12.3383 38.8075C12.7217 38.5286 13.0447 38.1667 13.2761 37.7458L14.084 36.2755L14.1523 36.4531L13.2299 38.8075H12.3383ZM12.9725 33.3885L13.5371 34.8555L12.2615 37.177C11.996 37.6601 11.5416 38.0232 11.0153 38.1728L10.8382 38.2228L12.9725 33.3885ZM14.5154 38.7111L15.3149 36.6707C15.3686 36.5334 15.3693 36.3805 15.3164 36.2425L14.717 34.6864L14.7157 34.6834L13.5559 31.6704L13.5495 31.6536L12.7845 29.6657C13.4278 29.7609 14.077 29.8168 14.7266 29.8314L15.3058 31.986L15.3067 31.989L16.5201 36.5028C16.5545 36.6683 16.5095 36.8425 16.3992 36.9707L15.4091 38.1169C15.1677 38.3962 14.8577 38.6 14.5154 38.7111ZM15.924 29.8125C16.0569 29.8055 16.1895 29.7969 16.3225 29.7866L16.05 30.2819L15.924 29.8125ZM16.3482 20.2581C16.4273 20.9786 16.3463 21.6085 16.1058 22.1343C16.0291 22.3018 15.9473 22.4364 15.8524 22.5922L15.8524 22.5923L15.8524 22.5924L15.8513 22.5941C15.7008 22.8418 15.5302 23.1226 15.3372 23.5955C15.2946 23.7005 14.9173 24.6465 14.8375 25.501C14.7789 26.1327 14.8435 27.293 15.7279 28.6495C15.5409 28.6577 15.3541 28.6629 15.1677 28.6638C14.1124 28.6705 13.0531 28.561 12.0195 28.3379C12.0102 28.3355 12.0005 28.333 11.9908 28.3312C11.2953 28.1804 10.6038 27.976 9.93514 27.7236V25.7158C9.93514 25.5971 9.94542 25.4784 9.96566 25.3628C9.9862 25.2471 10.0155 25.1351 10.0533 25.0295L11.7546 20.2581H16.3482ZM9.98711 20.9258L10.6772 17.3696L10.763 19.5809L9.89375 22.0183H9.51851C9.7451 21.6997 9.90856 21.3299 9.98711 20.9258ZM3.19976 23.1902H9.47591L8.96228 24.6309C8.96004 24.6372 8.95791 24.6436 8.95581 24.6499L8.95208 24.6614L8.94778 24.6746H5.00045C4.11642 24.6697 3.3756 24.0325 3.19976 23.1902ZM5.57752 25.8465H8.77496V27.7443C8.77496 28.2171 9.06803 28.6461 9.50521 28.8124C10.1358 29.0517 10.7853 29.251 11.4401 29.4069L12.3809 31.8511L9.7726 37.7593C9.62032 38.105 9.64238 38.4892 9.82245 38.8075H5.57752V25.8465ZM16.3524 38.8075L17.2739 37.7406C17.6295 37.328 17.7697 36.7641 17.6491 36.2319L17.6477 36.2259C17.6464 36.2203 17.645 36.2146 17.6434 36.209L16.4859 31.903L17.7494 29.6047C18.7383 29.4332 19.7115 29.168 20.6457 28.8124C21.0831 28.6464 21.3774 28.2167 21.3774 27.7434V25.8465H34.4225V38.8075H16.3524ZM21.2382 24.6746L20.83 23.1902H36.8008C36.728 23.5427 36.5555 23.8662 36.2975 24.1268C35.951 24.4771 35.4899 24.6715 35.0026 24.6746H21.2382ZM26.1115 17.4419C26.1115 17.75 25.8628 18 25.5557 18C25.2488 18 24.9998 17.75 25.0001 17.4419C25.0001 16.1204 25.4425 15.4323 25.833 14.8251C26.1845 14.2786 26.4882 13.8062 26.4882 12.814C26.4882 11.822 26.1847 11.3499 25.8334 10.8034L25.833 10.8027L25.833 10.8027C25.4425 10.1955 25 9.50743 25 8.18596C25 6.86447 25.4426 6.1764 25.8332 5.56943L25.8336 5.56878C26.1849 5.02226 26.4883 4.55016 26.4883 3.55842C26.4883 3.25 26.7373 3 27.0442 3C27.3513 3 27.6 3.25 27.6 3.55842C27.6 4.87962 27.1576 5.56769 26.7671 6.17494C26.4154 6.72145 26.112 7.19353 26.112 8.18596C26.112 9.17838 26.4152 9.65043 26.767 10.1972L26.7676 10.1982C27.1577 10.8052 27.5999 11.4933 27.5999 12.814C27.5999 14.1351 27.1575 14.8232 26.7673 15.43L26.767 15.4306C26.4152 15.9774 26.1115 16.4494 26.1115 17.4419ZM30.5558 18C30.8629 18 31.1116 17.75 31.1116 17.4419C31.1116 16.4494 31.4153 15.9774 31.767 15.4306L31.7674 15.43C32.1575 14.8232 32.5999 14.1351 32.5999 12.814C32.5999 11.4933 32.1578 10.8052 31.7677 10.1982L31.767 10.1972C31.4153 9.65043 31.112 9.17838 31.112 8.18596C31.112 7.19353 31.4154 6.72145 31.7672 6.17494C32.1577 5.56769 32.6001 4.87962 32.6001 3.55842C32.6001 3.25 32.3514 3 32.0442 3C31.7374 3 31.4884 3.25 31.4884 3.55842C31.4884 4.55016 31.1849 5.02226 30.8337 5.56878L30.8332 5.56943C30.4427 6.1764 30.0001 6.86447 30.0001 8.18596C30.0001 9.50743 30.4425 10.1955 30.8331 10.8027L30.8331 10.8027L30.8335 10.8034C31.1848 11.3499 31.4882 11.822 31.4882 12.814C31.4882 13.8062 31.1845 14.2786 30.8331 14.8251C30.4426 15.4323 30.0002 16.1204 30.0002 17.4419C29.9999 17.75 30.2489 18 30.5558 18ZM36.1117 17.4419C36.1117 17.75 35.863 18 35.5558 18C35.2489 18 35 17.75 35.0003 17.4419C35.0003 16.1204 35.4426 15.4323 35.8332 14.8251C36.1846 14.2786 36.4883 13.8062 36.4883 12.814C36.4883 11.822 36.1849 11.3499 35.8336 10.8034L35.8332 10.8027C35.4426 10.1955 35.0001 9.50745 35.0001 8.18596C35.0001 6.86447 35.4428 6.1764 35.8333 5.56943L35.8337 5.5688C36.185 5.02227 36.4884 4.55017 36.4884 3.55842C36.4884 3.25 36.7374 3 37.0443 3C37.3514 3 37.6001 3.25 37.6001 3.55842C37.6001 4.87962 37.1578 5.56769 36.7672 6.17494C36.4155 6.72145 36.1121 7.19353 36.1121 8.18596C36.1121 9.17838 36.4153 9.65043 36.7671 10.1972L36.7677 10.1982C37.1578 10.8052 37.6 11.4933 37.6 12.814C37.6 14.1351 37.1576 14.8232 36.7674 15.43L36.7671 15.4306C36.4153 15.9774 36.1117 16.4494 36.1117 17.4419Z" fill="#F2F2F2"/>
</g>
<defs>
<clipPath id="clip0">
<rect width="40" height="40" fill="white"/>
</clipPath>
</defs>
</svg>
